<svg width="48" height="35" viewBox="0 0 48 35" fill="none" xmlns="http://www.w3.org/2000/svg">
<g clip-path="url(#clip0_233_1030)">
<g clip-path="url(#clip1_233_1030)">
<g clip-path="url(#clip2_233_1030)">
<mask id="mask0_233_1030" style="mask-type:luminance" maskUnits="userSpaceOnUse" x="0" y="0" width="48" height="35">
<path d="M47.2984 0H0.499786V34.7122H47.2984V0Z" fill="white"/>
</mask>
<g mask="url(#mask0_233_1030)">
<path d="M31.5973 23.7087V19.1064C31.5973 18.5405 32.0422 18.0859 32.6113 18.0728C35.8562 17.9877 38.1034 16.7382 38.9212 16.205C39.1763 16.0382 39.474 15.9499 39.7782 15.9499C40.0824 15.9499 40.3768 16.0382 40.6352 16.205C40.8413 16.3391 41.1422 16.5223 41.5282 16.7186C41.7931 16.8559 42.1137 16.663 42.1137 16.362V8.87137C42.1137 7.05922 40.6254 5.58398 38.7969 5.58398H8.88985C7.06135 5.58398 5.57303 7.05922 5.57303 8.87137V25.655C5.57303 27.4672 7.06135 28.9424 8.88985 28.9424H32.3366C32.6277 28.9424 32.8207 28.6382 32.6964 28.3732C31.9866 26.8718 31.5973 25.2461 31.5973 23.712V23.7087Z" fill="#B8489A"/>
<path d="M41.7801 10.8105H5.90018V15.2951H41.7801V10.8105Z" fill="white"/>
<path d="M41.78 15.6261H5.90013C5.72022 15.6261 5.57303 15.4789 5.57303 15.299V10.8144C5.57303 10.6345 5.72022 10.4873 5.90013 10.4873H41.78C41.9599 10.4873 42.1071 10.6345 42.1071 10.8144V15.299C42.1071 15.4789 41.9599 15.6261 41.78 15.6261ZM6.22723 14.9719H41.4529V11.1415H6.22723V14.9719Z" fill="#B8489A"/>
<path d="M27.7046 21.0067H8.88963C8.70973 21.0067 8.56253 20.8595 8.56253 20.6796C8.56253 20.4997 8.70973 20.3525 8.88963 20.3525H27.7046C27.8845 20.3525 28.0317 20.4997 28.0317 20.6796C28.0317 20.8595 27.8845 21.0067 27.7046 21.0067Z" fill="white"/>
<path d="M18.0943 25.0761H8.88963C8.70973 25.0761 8.56253 24.9289 8.56253 24.749C8.56253 24.5691 8.70973 24.4219 8.88963 24.4219H18.0943C18.2742 24.4219 18.4214 24.5691 18.4214 24.749C18.4214 24.9289 18.2742 25.0761 18.0943 25.0761Z" fill="white"/>
<path d="M39.2776 16.7473C38.3127 17.3786 35.9837 18.6347 32.6277 18.723C32.4183 18.7295 32.2515 18.8964 32.2515 19.1024V23.7048C32.2515 27.6562 35.1954 32.7459 39.7748 33.4001C44.3543 32.7459 47.2982 27.6562 47.2982 23.7048V19.1024C47.2982 18.8931 47.1281 18.7263 46.922 18.723C43.5692 18.6347 41.237 17.3786 40.272 16.7473C39.9678 16.5478 39.5786 16.5478 39.2776 16.7473Z" fill="#B8489A"/>
<path d="M42.4702 23.8788C42.4178 23.6989 41.9959 23.6368 40.7954 23.7316C39.5949 23.8265 37.351 23.9312 37.1515 24.026C36.952 24.1209 36.952 24.5101 36.9618 25.3835C36.9716 26.2569 37.2136 28.4059 37.3412 28.6185C37.3412 28.6185 38.1851 28.7232 39.101 28.6185C40.0169 28.5139 42.2837 28.5139 42.3557 28.4485C42.4309 28.3863 42.5552 27.562 42.5879 26.9405C42.6206 26.319 42.5258 24.0555 42.4734 23.8756L42.4702 23.8788ZM38.98 27.1793C38.8688 27.1106 39.3136 26.0573 39.3136 26.0573C39.3136 26.0573 38.4795 25.2363 39.7487 24.9288C40.2917 24.798 40.5991 25.5143 40.3604 26.0442L40.7365 26.8947C40.7365 26.8947 39.0879 27.2447 38.9767 27.1728L38.98 27.1793Z" fill="white"/>
<path d="M37.2071 23.9536C37.4099 22.7956 37.6291 21.5494 38.5711 20.748C39.2286 20.2213 40.2164 20.0251 41.008 20.3456C41.4823 20.5746 41.7342 20.9966 41.8912 21.3727C42.1856 22.1316 42.2379 22.9101 42.0744 23.6952C42.0449 23.8162 41.9239 23.8914 41.8062 23.862C41.7146 23.8391 41.6491 23.7639 41.6361 23.6788C41.4234 22.776 41.2861 21.6933 40.5926 21.1209C40.3538 20.9769 40.0398 20.9246 39.7618 20.9017C38.2767 20.8559 37.966 22.7924 38.1884 23.9438C38.2931 24.7092 37.122 24.7288 37.2071 23.9569V23.9536Z" fill="white"/>
<path d="M29.962 33.077H30.6162V32.4228C30.6162 32.2429 30.7634 32.0957 30.9433 32.0957C31.1232 32.0957 31.2704 32.2429 31.2704 32.4228V33.077H31.9246C32.1045 33.077 32.2517 33.2242 32.2517 33.4041C32.2517 33.584 32.1045 33.7312 31.9246 33.7312H31.2704V34.3854C31.2704 34.5653 31.1232 34.7125 30.9433 34.7125C30.7634 34.7125 30.6162 34.5653 30.6162 34.3854V33.7312H29.962C29.7821 33.7312 29.6349 33.584 29.6349 33.4041C29.6349 33.2242 29.7821 33.077 29.962 33.077Z" fill="#B8489A"/>
<path d="M43.7264 4.25234C43.5465 4.25234 43.3993 4.10514 43.3993 3.92523C43.3993 3.20888 42.6437 2.45327 41.9274 2.45327C41.7474 2.45327 41.6003 2.30607 41.6003 2.12617C41.6003 1.94626 41.7474 1.79907 41.9274 1.79907C42.6437 1.79907 43.3993 1.04346 43.3993 0.327103C43.3993 0.147196 43.5465 0 43.7264 0C43.9063 0 44.0535 0.147196 44.0535 0.327103C44.0535 1.04346 44.8091 1.79907 45.5255 1.79907C45.7054 1.79907 45.8526 1.94626 45.8526 2.12617C45.8526 2.30607 45.7054 2.45327 45.5255 2.45327C44.8091 2.45327 44.0535 3.20888 44.0535 3.92523C44.0535 4.10514 43.9063 4.25234 43.7264 4.25234ZM42.9774 2.12617C43.275 2.31589 43.5367 2.57757 43.7264 2.87523C43.9161 2.57757 44.1778 2.31589 44.4755 2.12617C44.1778 1.93645 43.9161 1.67477 43.7264 1.3771C43.5367 1.67477 43.275 1.93645 42.9774 2.12617Z" fill="#B8489A"/>
<path d="M1.8082 19.2174C1.0853 19.2174 0.499786 18.6319 0.499786 17.909C0.499786 17.1861 1.0853 16.6006 1.8082 16.6006C2.53109 16.6006 3.11661 17.1861 3.11661 17.909C3.11661 18.6319 2.53109 19.2174 1.8082 19.2174ZM1.8082 17.2581C1.44838 17.2581 1.15726 17.5492 1.15726 17.909C1.15726 18.2688 1.44838 18.5599 1.8082 18.5599C2.16801 18.5599 2.45913 18.2688 2.45913 17.909C2.45913 17.5492 2.16801 17.2581 1.8082 17.2581Z" fill="#B8489A"/>
</g>
</g>
</g>
</g>
<defs>
<clipPath id="clip0_233_1030">
<rect width="47.1028" height="35" fill="white" transform="translate(0.5)"/>
</clipPath>
<clipPath id="clip1_233_1030">
<rect width="47.1028" height="35" fill="white" transform="translate(0.499981)"/>
</clipPath>
<clipPath id="clip2_233_1030">
<rect width="47.1028" height="35" fill="white" transform="translate(0.499962)"/>
</clipPath>
</defs>
</svg>
