<svg width="110" height="60" viewBox="0 0 110 60" fill="none" xmlns="http://www.w3.org/2000/svg">
<g clip-path="url(#clip0_233_971)">
<g clip-path="url(#clip1_233_971)">
<g clip-path="url(#clip2_233_971)">
<mask id="mask0_233_971" style="mask-type:luminance" maskUnits="userSpaceOnUse" x="0" y="0" width="110" height="59">
<path d="M109.408 9.15527e-05H0V58.8855H109.408V9.15527e-05Z" fill="white"/>
</mask>
<g mask="url(#mask0_233_971)">
<path d="M77.9583 29.263H33.2185V58.8858H77.9583V29.263Z" fill="white"/>
<path d="M77.9583 57.5987H33.2185V58.8853H77.9583V57.5987Z" fill="#47004C"/>
<path d="M0.643066 56.7955C0.424353 56.7955 0.205639 56.6797 0.0898497 56.4803C-0.0902673 56.1715 0.0126568 55.7791 0.321429 55.599C6.89571 51.7393 14.2998 43.0744 24.0454 31.251C24.2706 30.9744 24.6758 30.9358 24.9524 31.161C25.229 31.3861 25.2676 31.7914 25.0425 32.068C15.2068 43.9879 7.72554 52.7364 0.971139 56.7054C0.868215 56.7633 0.758859 56.7955 0.643066 56.7955Z" fill="#47004C"/>
<path d="M108.765 56.7955C108.656 56.7955 108.54 56.7697 108.437 56.7054C101.682 52.7364 94.2012 43.9943 84.3719 32.068C84.1468 31.7914 84.1854 31.3861 84.462 31.161C84.7386 30.9358 85.1439 30.9744 85.369 31.251C95.1146 43.0744 102.519 51.7393 109.093 55.599C109.402 55.7791 109.505 56.1715 109.325 56.4803C109.202 56.6861 108.99 56.7955 108.771 56.7955H108.765Z" fill="#47004C"/>
<path d="M94.8123 27.6097C89.1 25.5191 74.5427 20.3729 65.8392 9.2442H43.5626C34.3831 20.984 18.6936 26.0594 13.7339 27.9249C13.438 28.0343 13.2515 28.298 13.2258 28.6132C12.531 37.574 6.32339 53.4886 4.58655 57.7922C4.37427 58.3196 4.76667 58.8857 5.33275 58.8857H36.4222C36.4222 58.8857 48.8117 42.881 49.5965 31.4822H59.7989C60.5837 42.881 72.9731 58.8857 72.9731 58.8857H104.063C104.629 58.8857 105.021 58.3196 104.809 57.7922C103.13 53.6302 97.2503 38.5582 96.2532 29.4752C96.1632 28.6261 95.61 27.9056 94.8059 27.6097H94.8123Z" fill="#47004C"/>
<path d="M11.8359 36.3133H48.702C48.9207 35.5542 49.1008 34.8016 49.2487 34.0618H12.3634C12.2025 34.7951 12.0289 35.5478 11.8359 36.3133Z" fill="white"/>
<path d="M97.0447 34.0685H60.1656C60.3136 34.8082 60.4937 35.5608 60.7124 36.3199H97.5786C97.3857 35.5544 97.212 34.8082 97.0512 34.0685H97.0447Z" fill="white"/>
<path d="M0.643275 58.886C0.289474 58.886 0 58.5965 0 58.2427V53.7527C0 53.3989 0.289474 53.1094 0.643275 53.1094C0.997076 53.1094 1.28655 53.3989 1.28655 53.7527V58.2427C1.28655 58.5965 0.997076 58.886 0.643275 58.886Z" fill="#47004C"/>
<path d="M44.2057 10.5307C43.8519 10.5307 43.5624 10.2412 43.5624 9.8874V4.82482C43.5624 4.47102 43.8519 4.18155 44.2057 4.18155C44.5595 4.18155 44.8489 4.47102 44.8489 4.82482V9.8874C44.8489 10.2412 44.5595 10.5307 44.2057 10.5307Z" fill="#47004C"/>
<path d="M65.2025 10.5307C64.8487 10.5307 64.5593 10.2412 64.5593 9.8874V4.82482C64.5593 4.47102 64.8487 4.18155 65.2025 4.18155C65.5563 4.18155 65.8458 4.47102 65.8458 4.82482V9.8874C65.8458 10.2412 65.5563 10.5307 65.2025 10.5307Z" fill="#47004C"/>
<path d="M108.765 58.8855C108.411 58.8855 108.122 58.596 108.122 58.2422V54.0545C108.122 53.7007 108.411 53.4112 108.765 53.4112C109.119 53.4112 109.408 53.7007 109.408 54.0545V58.2422C109.408 58.596 109.119 58.8855 108.765 58.8855Z" fill="#47004C"/>
<path d="M37.3807 56.9559C37.3807 56.9559 37.3935 50.2337 34.2029 46.8372C38.5064 45.3127 47.4543 39.5553 49.6029 32.132C49.0497 45.4542 37.3807 56.9624 37.3807 56.9624V56.9559Z" fill="#47004C"/>
<path d="M37.3804 57.5993C37.2968 57.5993 37.2132 57.58 37.1295 57.5479C36.8915 57.4449 36.7371 57.2134 36.7371 56.9561C36.7371 56.8917 36.705 50.4461 33.733 47.2748C33.5851 47.1139 33.5272 46.8952 33.5787 46.683C33.6301 46.4707 33.7845 46.3034 33.9904 46.2262C38.2102 44.7274 46.9459 39.0023 48.9851 31.9455C49.0752 31.6303 49.3839 31.4373 49.7056 31.4888C50.0272 31.5403 50.2588 31.8233 50.2459 32.1514C49.6863 45.5701 38.3196 56.9303 37.8371 57.4063C37.7149 57.5286 37.5541 57.5929 37.3869 57.5929L37.3804 57.5993ZM35.264 47.1075C37.181 49.6742 37.7664 53.3473 37.9465 55.4122C40.3974 52.6847 46.5471 45.1262 48.4254 36.2555C45.0611 41.6718 38.8085 45.6087 35.264 47.1139V47.1075Z" fill="white"/>
<path d="M72.0273 56.9559C72.0273 56.9559 72.0145 50.2336 75.2051 46.8372C70.9016 45.3126 61.9537 39.5553 59.8051 32.132C60.3583 45.4542 72.0273 56.9624 72.0273 56.9624V56.9559Z" fill="#47004C"/>
<path d="M72.0277 57.5988C71.8604 57.5988 71.6996 57.5345 71.5774 57.4122C71.0949 56.9362 59.7283 45.5695 59.1686 32.1573C59.1557 31.8292 59.3873 31.5462 59.709 31.4947C60.0242 31.4432 60.3394 31.6362 60.4294 31.9514C62.475 39.0081 71.2043 44.7333 75.4242 46.2321C75.63 46.3029 75.7844 46.4766 75.8358 46.6888C75.8873 46.9011 75.8294 47.1198 75.6815 47.2807C72.7031 50.452 72.6774 56.8976 72.6774 56.9619C72.6774 57.2193 72.523 57.4573 72.285 57.5538C72.2078 57.5859 72.1177 57.6052 72.0341 57.6052L72.0277 57.5988ZM60.9826 36.2549C62.861 45.1257 69.0107 52.6842 71.4616 55.4117C71.6417 53.3532 72.2271 49.6736 74.144 47.107C70.606 45.6081 64.3534 41.6649 60.9826 36.2485V36.2549Z" fill="white"/>
<path d="M26.8952 29.2111C26.7665 29.8415 26.4964 30.2274 25.8724 30.1567C25.3192 30.0924 24.9396 29.5456 25.0233 28.9409C25.094 28.4005 25.6858 27.9438 26.2326 28.0789C26.8309 28.2269 26.9145 28.7286 26.9016 29.2111H26.8952Z" fill="white"/>
<path d="M40.282 29.353C40.1855 29.9512 39.5873 30.408 39.0469 30.2986C38.513 30.1892 38.0949 29.443 38.2107 28.7676C38.3136 28.1694 38.6931 27.8542 39.3043 27.9185C39.8639 27.9764 40.3785 28.7612 40.282 29.353Z" fill="white"/>
<path d="M29.0824 30.2602C28.5163 30.1701 28.0853 29.5204 28.2075 28.9029C28.3426 28.2274 28.8315 28.0666 29.4297 28.1502C30.0344 28.2403 30.4461 28.5491 30.3432 29.2374C30.2531 29.8678 29.642 30.3438 29.0824 30.2537V30.2602Z" fill="white"/>
<path d="M36.9043 29.5971C36.8914 29.9895 36.1902 30.1696 35.7978 30.1825C35.1546 30.2018 34.537 29.4877 34.7815 29.0053C34.9873 28.5936 35.4569 28.169 35.8879 28.0661C36.3318 27.9567 36.8785 28.838 36.9107 29.6035L36.9043 29.5971Z" fill="white"/>
<path d="M32.6974 28.1626C33.3728 28.2783 33.6559 28.6836 33.553 29.2626C33.45 29.8415 32.9612 30.2275 32.4401 30.0088C32.067 29.8544 31.6682 29.3012 31.6424 28.9023C31.6103 28.2912 32.1699 28.1111 32.6974 28.1626Z" fill="white"/>
<path d="M15.1553 29.3144C15.284 29.9448 15.5542 30.3308 16.1781 30.26C16.7313 30.1957 17.1109 29.6489 17.0273 29.0442C16.9565 28.5039 16.3647 28.0472 15.8179 28.1822C15.2196 28.3302 15.136 28.8319 15.1489 29.3144H15.1553Z" fill="white"/>
<path d="M19.6068 30.2602C20.1729 30.1701 20.6039 29.5204 20.4816 28.9029C20.3466 28.2274 19.8577 28.0666 19.2594 28.1502C18.6547 28.2403 18.2431 28.5491 18.346 29.2374C18.436 29.8678 19.0471 30.3438 19.6068 30.2537V30.2602Z" fill="white"/>
<path d="M41.7741 29.5971C41.7869 29.9895 42.4881 30.1696 42.8805 30.1825C43.5238 30.2018 44.1413 29.4877 43.8969 29.0053C43.691 28.5936 43.2214 28.169 42.7904 28.0661C42.3466 27.9567 41.7998 28.838 41.7676 29.6035L41.7741 29.5971Z" fill="white"/>
<path d="M22.669 28.2652C21.9935 28.381 21.7105 28.7863 21.8134 29.3652C21.9163 29.9442 22.4052 30.3302 22.9263 30.1114C23.2994 29.9571 23.6982 29.4038 23.7239 29.005C23.7561 28.3939 23.1965 28.2138 22.669 28.2652Z" fill="white"/>
<path d="M59.0203 28.877C59.1168 28.2787 59.715 27.822 60.2554 27.9314C60.7893 28.0407 61.2074 28.7869 61.0916 29.4624C60.9887 30.0606 60.6092 30.3758 59.998 30.3115C59.4384 30.2536 58.9238 29.4688 59.0203 28.877Z" fill="white"/>
<path d="M45.7816 28.877C45.8781 28.2787 46.4764 27.822 47.0167 27.9314C47.5506 28.0407 47.9688 28.7869 47.853 29.4624C47.75 30.0606 47.3705 30.3758 46.7594 30.3115C46.1997 30.2536 45.6851 29.4688 45.7816 28.877Z" fill="white"/>
<path d="M51.0438 29.1015C50.9151 28.4711 50.6449 28.0851 50.021 28.1559C49.4677 28.2202 49.0882 28.767 49.1718 29.3717C49.2426 29.912 49.8344 30.3687 50.3812 30.2337C50.9794 30.0857 51.0631 29.5839 51.0502 29.1015H51.0438Z" fill="white"/>
<path d="M53.2309 28.0535C52.6648 28.1435 52.2338 28.7932 52.3561 29.4108C52.4911 30.0862 52.98 30.247 53.5783 30.1634C54.183 30.0733 54.5947 29.7646 54.4917 29.0763C54.4017 28.4458 53.7906 27.9698 53.2309 28.0599V28.0535Z" fill="white"/>
<path d="M56.846 30.0665C57.5214 29.9507 57.8044 29.5455 57.7015 28.9665C57.5986 28.3876 57.1097 28.0016 56.5887 28.2203C56.2156 28.3747 55.8167 28.9279 55.791 29.3268C55.7588 29.9379 56.3185 30.118 56.846 30.0665Z" fill="white"/>
<path d="M94.4905 29.5903C94.394 30.1885 93.7958 30.6453 93.2554 30.5359C92.7215 30.4266 92.3034 29.6804 92.4192 29.0049C92.5221 28.4067 92.9016 28.0915 93.5127 28.1558C94.0724 28.2137 94.587 28.9985 94.4905 29.5903Z" fill="white"/>
<path d="M80.7116 29.353C80.6151 29.9512 80.0169 30.408 79.4765 30.2986C78.9426 30.1892 78.5245 29.443 78.6403 28.7676C78.7432 28.1694 79.1227 27.8542 79.7338 27.9185C80.2935 27.9764 80.8081 28.7612 80.7116 29.353Z" fill="white"/>
<path d="M76.0609 30.1701C75.4948 30.08 75.0638 29.4303 75.186 28.8128C75.3211 28.1373 75.81 27.9765 76.4082 28.0602C77.0129 28.1502 77.4246 28.459 77.3217 29.1473C77.2316 29.7777 76.6205 30.2537 76.0609 30.1637V30.1701Z" fill="white"/>
<path d="M84.1856 29.6938C84.1727 30.0862 83.4715 30.2664 83.0791 30.2792C82.4359 30.2985 81.8183 29.5845 82.0628 29.102C82.2686 28.6903 82.7382 28.2658 83.1692 28.1628C83.6131 28.0535 84.1599 28.9348 84.192 29.7003L84.1856 29.6938Z" fill="white"/>
<path d="M68.0328 29.5971C68.0199 29.9895 67.3187 30.1696 66.9263 30.1825C66.283 30.2018 65.6655 29.4877 65.9099 29.0053C66.1158 28.5936 66.5854 28.169 67.0164 28.0661C67.4602 27.9567 68.007 28.838 68.0392 29.6035L68.0328 29.5971Z" fill="white"/>
<path d="M72.9988 28.1626C73.6742 28.2783 73.9573 28.6836 73.8544 29.2626C73.7514 29.8415 73.2625 30.2275 72.7415 30.0088C72.3684 29.8544 71.9696 29.3012 71.9438 28.9023C71.9117 28.2912 72.4713 28.1111 72.9988 28.1626Z" fill="white"/>
<path d="M63.6711 30.4086C64.2372 30.3186 64.6683 29.6689 64.546 29.0513C64.411 28.3759 63.922 28.2151 63.3238 28.2987C62.7191 28.3887 62.3074 28.6975 62.4103 29.3858C62.5004 30.0162 63.1115 30.4922 63.6711 30.4022V30.4086Z" fill="white"/>
<path d="M88.8619 29.6938C88.8748 30.0862 89.5759 30.2664 89.9683 30.2792C90.6116 30.2985 91.2292 29.5845 90.9847 29.102C90.7789 28.6903 90.3093 28.2658 89.8783 28.1628C89.4344 28.0535 88.8876 28.9348 88.8555 29.7003L88.8619 29.6938Z" fill="white"/>
<path d="M86.5203 28.2652C85.8449 28.381 85.5618 28.7863 85.6647 29.3652C85.7677 29.9442 86.2565 30.3302 86.7776 30.1114C87.1507 29.9571 87.5495 29.4038 87.5753 29.005C87.6074 28.3939 87.0478 28.2138 86.5203 28.2652Z" fill="white"/>
<path d="M69.6022 28.2457C68.9268 28.3615 68.6437 28.7668 68.7466 29.3457C68.8496 29.9247 69.3385 30.3106 69.8595 30.0919C70.2326 29.9375 70.6314 29.3843 70.6572 28.9855C70.6893 28.3744 70.1297 28.1943 69.6022 28.2457Z" fill="white"/>
<path d="M54.7043 7.27568C46.9786 7.27568 44.2061 6.77393 44.0903 6.75463C43.7429 6.6903 43.5113 6.35581 43.5757 6.00201C43.64 5.65464 43.9745 5.42306 44.3219 5.48739C44.3476 5.48739 47.1266 5.98914 54.6979 5.98914C62.2692 5.98914 65.0481 5.49382 65.0739 5.48739C65.4212 5.42306 65.7557 5.65464 65.8201 6.00201C65.8844 6.34937 65.6528 6.68387 65.3054 6.75463C65.1896 6.77393 62.4172 7.27568 54.6915 7.27568H54.7043Z" fill="#47004C"/>
<path d="M57.8752 47.7639H59.1618V46.4774C59.1618 46.1235 59.4512 45.8341 59.805 45.8341C60.1588 45.8341 60.4483 46.1235 60.4483 46.4774V47.7639H61.7349C62.0887 47.7639 62.3781 48.0534 62.3781 48.4072C62.3781 48.761 62.0887 49.0505 61.7349 49.0505H60.4483V50.337C60.4483 50.6908 60.1588 50.9803 59.805 50.9803C59.4512 50.9803 59.1618 50.6908 59.1618 50.337V49.0505H57.8752C57.5214 49.0505 57.2319 48.761 57.2319 48.4072C57.2319 48.0534 57.5214 47.7639 57.8752 47.7639Z" fill="#47004C"/>
<path d="M12.5891 24.5477C11.1675 24.5477 10.016 23.3963 10.016 21.9746C10.016 20.553 11.1675 19.4016 12.5891 19.4016C14.0107 19.4016 15.1622 20.553 15.1622 21.9746C15.1622 23.3963 14.0107 24.5477 12.5891 24.5477ZM12.5891 20.6945C11.8815 20.6945 11.309 21.267 11.309 21.9746C11.309 22.6823 11.8815 23.2548 12.5891 23.2548C13.2967 23.2548 13.8692 22.6823 13.8692 21.9746C13.8692 21.267 13.2967 20.6945 12.5891 20.6945Z" fill="#47004C"/>
<path d="M76.3506 8.36285C75.9968 8.36285 75.7073 8.07337 75.7073 7.71957C75.7073 6.3108 74.2214 4.82484 72.8126 4.82484C72.4588 4.82484 72.1693 4.53536 72.1693 4.18156C72.1693 3.82776 72.4588 3.53829 72.8126 3.53829C74.2214 3.53829 75.7073 2.05232 75.7073 0.64355C75.7073 0.289748 75.9968 0.000274658 76.3506 0.000274658C76.7044 0.000274658 76.9939 0.289748 76.9939 0.64355C76.9939 2.05232 78.4798 3.53829 79.8886 3.53829C80.2424 3.53829 80.5319 3.82776 80.5319 4.18156C80.5319 4.53536 80.2424 4.82484 79.8886 4.82484C78.4798 4.82484 76.9939 6.3108 76.9939 7.71957C76.9939 8.07337 76.7044 8.36285 76.3506 8.36285ZM74.8775 4.18156C75.4629 4.55466 75.9775 5.06928 76.3506 5.65466C76.7237 5.06928 77.2383 4.55466 77.8237 4.18156C77.2383 3.80846 76.7237 3.29384 76.3506 2.70846C75.9775 3.29384 75.4629 3.80846 74.8775 4.18156Z" fill="#47004C"/>
</g>
</g>
</g>
</g>
<defs>
<clipPath id="clip0_233_971">
<rect width="110" height="59.1813" fill="white"/>
</clipPath>
<clipPath id="clip1_233_971">
<rect width="110" height="59.1813" fill="white"/>
</clipPath>
<clipPath id="clip2_233_971">
<rect width="110" height="59.1813" fill="white"/>
</clipPath>
</defs>
</svg>
