<svg width="42" height="39" viewBox="0 0 42 39" fill="none" xmlns="http://www.w3.org/2000/svg">
<g clip-path="url(#clip0_233_1059)">
<g clip-path="url(#clip1_233_1059)">
<g clip-path="url(#clip2_233_1059)">
<mask id="mask0_233_1059" style="mask-type:luminance" maskUnits="userSpaceOnUse" x="0" y="0" width="42" height="39">
<path d="M41.2285 0H-9.15527e-05V39H41.2285V0Z" fill="white"/>
</mask>
<g mask="url(#mask0_233_1059)">
<path d="M30.2856 12.8246H35.3663C35.8801 12.8246 36.2966 12.4057 36.2966 11.8889C36.2966 11.3721 35.8801 10.9532 35.3663 10.9532H28.4279L30.2856 12.8215V12.8246Z" fill="black"/>
<path d="M39.0087 10.1154L29.1061 0.155951C28.8993 -0.0519837 28.5618 -0.0519837 28.3551 0.155951L14.5088 14.0814H35.8133C35.8133 14.0814 35.8133 14.0814 35.8163 14.0814L39.0087 10.8707C39.2156 10.6628 39.2156 10.3233 39.0087 10.1154Z" fill="#A748F9"/>
<path d="M26.6767 11.8099C25.5974 10.6051 25.0744 10.9995 24.7369 11.4704C24.5454 11.7365 23.7974 12.5896 23.8491 12.9138C23.8734 13.0667 24.3538 13.562 24.8646 14.0819H26.1142C26.1233 13.9932 26.1659 13.6568 26.2754 13.6568C26.3605 13.6568 27.0325 13.9167 27.452 14.0819H28.0237C28.3094 13.9014 28.7229 13.5926 28.4067 13.4734C27.9476 13.3021 26.9534 13.0238 26.9534 13.0238C27.0416 12.7915 27.0385 12.7792 27.0689 12.5743C27.1176 12.2349 26.847 11.9995 26.6737 11.8068L26.6767 11.8099ZM26.1446 12.7333C26.1416 12.8312 25.8315 13.1278 25.6338 13.3082C25.5365 13.3969 25.3906 13.4061 25.2842 13.3327C25.0349 13.1614 24.6761 12.978 24.743 12.9138C24.8372 12.819 25.1322 12.3572 25.1322 12.3572C25.5426 11.9444 25.9166 12.1187 26.0443 12.2471C26.169 12.3725 26.1568 12.5866 26.1507 12.7333H26.1446ZM22.9066 7.98143C22.788 7.86216 22.788 7.66954 22.9066 7.55027L27.1662 3.2662C27.2848 3.14694 27.4764 3.14694 27.595 3.2662C27.899 3.57199 28.3003 3.73711 28.729 3.73711C29.1577 3.73711 29.5591 3.56893 29.8631 3.2662C29.9787 3.15 30.1793 3.15 30.2918 3.2662L35.9136 8.92017C35.9714 8.9783 36.0018 9.05474 36.0018 9.13731C36.0018 9.21988 35.9684 9.29632 35.9136 9.35441C35.6096 9.66021 35.4454 10.0638 35.4454 10.495C35.4454 10.9261 35.6126 11.3298 35.9136 11.6356C36.0322 11.7548 36.0322 11.9475 35.9136 12.0667L33.9099 14.0819H33.0495L35.2843 11.8343C34.6883 11.0454 34.6883 9.94153 35.2843 9.15258L30.0638 3.90225C29.2793 4.50159 28.1817 4.50159 27.3943 3.90225L23.3353 7.98447C23.2167 8.10374 23.0251 8.10374 22.9066 7.98447V7.98143ZM19.1577 14.0819C18.7898 12.452 19.0847 10.8803 20.1246 9.83756C22.0066 7.94473 25.6156 8.49515 28.1665 11.0607C29.0757 11.975 29.7263 13.0238 30.1064 14.0819H29.4618C29.1 13.1798 28.5223 12.2838 27.7378 11.4919C26.324 10.0699 24.5758 9.31158 23.0525 9.31158C22.0795 9.31158 21.1978 9.62043 20.5563 10.2656C19.6381 11.1891 19.4039 12.6049 19.7779 14.0788H19.1607L19.1577 14.0819ZM16.4121 14.0819L17.8503 12.6355C17.9689 12.5162 18.1604 12.5162 18.279 12.6355C18.3976 12.7548 18.3976 12.9474 18.279 13.0667L17.2695 14.0819H16.4091H16.4121ZM23.4386 13.7853C23.5967 13.8158 23.9464 13.9259 24.0376 14.0819H22.3593C22.49 13.9871 22.6238 13.9076 22.7454 13.8617C22.9886 13.7669 23.2197 13.7424 23.4386 13.7853ZM31.0915 9.33606C30.83 9.69691 30.2249 9.77334 29.8236 9.47059C29.3858 9.14036 29.4375 8.73977 29.7263 8.35144C30.009 7.96921 30.3739 7.78267 30.8239 8.08539C31.2344 8.36366 31.356 8.96605 31.0915 9.33606Z" fill="white"/>
<path d="M13.6486 14.0814L25.7131 1.94786L23.9314 0.155951C23.7247 -0.0519837 23.3872 -0.0519837 23.1804 0.155951L9.3342 14.0814H13.6486Z" fill="#A748F9"/>
<path d="M13.9313 13.8006C13.6577 12.2716 13.9739 10.8191 14.9529 9.83756C15.932 8.85599 17.3731 8.53489 18.8934 8.81012L18.3643 9.34219C18.2001 9.32689 18.039 9.31467 17.8778 9.31467C16.9049 9.31467 16.0232 9.62351 15.3816 10.2687C14.6367 11.0179 14.3448 12.0973 14.4604 13.2654L13.9313 13.7975V13.8006ZM18.1667 7.98143L22.2257 3.89917C22.5601 4.153 22.9493 4.29366 23.3476 4.33032L24.0074 3.66678C23.8645 3.70959 23.7155 3.73711 23.5605 3.73711C23.1318 3.73711 22.7304 3.56893 22.4264 3.2662C22.3078 3.14694 22.1162 3.14694 21.9977 3.2662L17.738 7.55027C17.6194 7.66954 17.6194 7.86216 17.738 7.98143C17.8565 8.10069 18.0481 8.10069 18.1667 7.98143ZM12.101 14.0819L13.1104 13.0667C13.229 12.9474 13.229 12.7548 13.1104 12.6355C12.9918 12.5162 12.8003 12.5162 12.6817 12.6355L11.2436 14.0819H12.104H12.101Z" fill="white"/>
<path d="M28.6258 30.8994C26.3333 30.8994 24.4786 28.9669 24.5942 26.6337C24.7006 24.4535 26.5735 22.7778 28.7444 22.7778H37.2059V20.3039V16.0963C37.2059 15.3227 36.5826 14.6928 35.8104 14.6928H7.51287C7.06288 14.6928 6.65241 14.387 6.56728 13.9436C6.45177 13.3473 6.9048 12.8244 7.47944 12.8244H9.33714C9.58648 12.8244 9.82664 12.7235 10.003 12.5461L11.1614 11.3811C11.3165 11.2252 11.207 10.9561 10.9851 10.9561H7.47944C5.93793 10.9561 4.69135 12.2128 4.69135 13.7601V36.1987C4.69135 37.7491 5.94094 39.0027 7.47944 39.0027H35.8134C36.5826 39.0027 37.2088 38.3761 37.2088 37.5991V30.8994H28.6288H28.6258Z" fill="#A748F9"/>
<path d="M9.60759 15.6105H8.99949C8.83227 15.6105 8.69543 15.7481 8.69543 15.9163C8.69543 16.0845 8.83227 16.2221 8.99949 16.2221H9.60759C9.77481 16.2221 9.91164 16.0845 9.91164 15.9163C9.91164 15.7481 9.77481 15.6105 9.60759 15.6105Z" fill="white"/>
<path d="M16.5035 16.2221H17.7014C17.8687 16.2221 18.0055 16.0845 18.0055 15.9163C18.0055 15.7481 17.8687 15.6105 17.7014 15.6105H16.5035C16.3363 15.6105 16.1995 15.7481 16.1995 15.9163C16.1995 16.0845 16.3363 16.2221 16.5035 16.2221Z" fill="white"/>
<path d="M15.0075 37.4707H13.8096C13.6423 37.4707 13.5055 37.6081 13.5055 37.7764C13.5055 37.9446 13.6423 38.0821 13.8096 38.0821H15.0075C15.1747 38.0821 15.3116 37.9446 15.3116 37.7764C15.3116 37.6081 15.1747 37.4707 15.0075 37.4707Z" fill="white"/>
<path d="M12.3077 37.4707H11.1098C10.9426 37.4707 10.8058 37.6081 10.8058 37.7764C10.8058 37.9446 10.9426 38.0821 11.1098 38.0821H12.3077C12.475 38.0821 12.6118 37.9446 12.6118 37.7764C12.6118 37.6081 12.475 37.4707 12.3077 37.4707Z" fill="white"/>
<path d="M9.60759 37.4707H8.99949C8.83227 37.4707 8.69543 37.6081 8.69543 37.7764C8.69543 37.9446 8.83227 38.0821 8.99949 38.0821H9.60759C9.77481 38.0821 9.91164 37.9446 9.91164 37.7764C9.91164 37.6081 9.77481 37.4707 9.60759 37.4707Z" fill="white"/>
<path d="M11.1069 16.2221H12.3048C12.4721 16.2221 12.6089 16.0845 12.6089 15.9163C12.6089 15.7481 12.4721 15.6105 12.3048 15.6105H11.1069C10.9397 15.6105 10.8029 15.7481 10.8029 15.9163C10.8029 16.0845 10.9397 16.2221 11.1069 16.2221Z" fill="white"/>
<path d="M35.9926 19.613C36.1599 19.613 36.2967 19.4754 36.2967 19.3073V18.1025C36.2967 17.9343 36.1599 17.7967 35.9926 17.7967C35.8254 17.7967 35.6886 17.9343 35.6886 18.1025V19.3073C35.6886 19.4754 35.8254 19.613 35.9926 19.613Z" fill="white"/>
<path d="M35.6886 22.0223C35.6886 22.1905 35.8254 22.3281 35.9926 22.3281C36.1599 22.3281 36.2967 22.1905 36.2967 22.0223V20.8175C36.2967 20.6493 36.1599 20.5117 35.9926 20.5117C35.8254 20.5117 35.6886 20.6493 35.6886 20.8175V22.0223Z" fill="white"/>
<path d="M27.2942 16.2221H28.4921C28.6593 16.2221 28.7961 16.0845 28.7961 15.9163C28.7961 15.7481 28.6593 15.6105 28.4921 15.6105H27.2942C27.1269 15.6105 26.9901 15.7481 26.9901 15.9163C26.9901 16.0845 27.1269 16.2221 27.2942 16.2221Z" fill="white"/>
<path d="M35.3876 16.2221H35.6856V16.5952C35.6856 16.7633 35.8224 16.901 35.9896 16.901C36.1568 16.901 36.2937 16.7633 36.2937 16.5952V16.0967C36.2937 15.8307 36.0778 15.6105 35.8103 15.6105H35.3876C35.2204 15.6105 35.0836 15.7481 35.0836 15.9163C35.0836 16.0845 35.2204 16.2221 35.3876 16.2221Z" fill="white"/>
<path d="M29.9939 16.2221H31.1918C31.3591 16.2221 31.4959 16.0845 31.4959 15.9163C31.4959 15.7481 31.3591 15.6105 31.1918 15.6105H29.9939C29.8267 15.6105 29.6898 15.7481 29.6898 15.9163C29.6898 16.0845 29.8267 16.2221 29.9939 16.2221Z" fill="white"/>
<path d="M32.6908 16.2221H33.8887C34.0559 16.2221 34.1928 16.0845 34.1928 15.9163C34.1928 15.7481 34.0559 15.6105 33.8887 15.6105H32.6908C32.5236 15.6105 32.3867 15.7481 32.3867 15.9163C32.3867 16.0845 32.5236 16.2221 32.6908 16.2221Z" fill="white"/>
<path d="M13.8034 16.2221H15.0013C15.1686 16.2221 15.3054 16.0845 15.3054 15.9163C15.3054 15.7481 15.1686 15.6105 15.0013 15.6105H13.8034C13.6362 15.6105 13.4994 15.7481 13.4994 15.9163C13.4994 16.0845 13.6362 16.2221 13.8034 16.2221Z" fill="white"/>
<path d="M33.8949 37.4707H32.6969C32.5297 37.4707 32.3929 37.6081 32.3929 37.7764C32.3929 37.9446 32.5297 38.0821 32.6969 38.0821H33.8949C34.0621 38.0821 34.1989 37.9446 34.1989 37.7764C34.1989 37.6081 34.0621 37.4707 33.8949 37.4707Z" fill="white"/>
<path d="M35.9927 36.7921C35.8255 36.7921 35.6887 36.9297 35.6887 37.0979V37.4741H35.3938C35.2266 37.4741 35.0897 37.6115 35.0897 37.7798C35.0897 37.948 35.2266 38.0855 35.3938 38.0855H35.8133C36.0779 38.0855 36.2968 37.8685 36.2968 37.5993V37.0979C36.2968 36.9297 36.16 36.7921 35.9927 36.7921Z" fill="white"/>
<path d="M28.4979 37.4707H27.3C27.1327 37.4707 26.9959 37.6081 26.9959 37.7764C26.9959 37.9446 27.1327 38.0821 27.3 38.0821H28.4979C28.6651 38.0821 28.8019 37.9446 28.8019 37.7764C28.8019 37.6081 28.6651 37.4707 28.4979 37.4707Z" fill="white"/>
<path d="M31.1951 37.4707H29.9972C29.83 37.4707 29.6931 37.6081 29.6931 37.7764C29.6931 37.9446 29.83 38.0821 29.9972 38.0821H31.1951C31.3623 38.0821 31.4991 37.9446 31.4991 37.7764C31.4991 37.6081 31.3623 37.4707 31.1951 37.4707Z" fill="white"/>
<path d="M35.9926 34.0771C35.8254 34.0771 35.6886 34.2147 35.6886 34.3829V35.5877C35.6886 35.7559 35.8254 35.8935 35.9926 35.8935C36.1599 35.8935 36.2967 35.7559 36.2967 35.5877V34.3829C36.2967 34.2147 36.1599 34.0771 35.9926 34.0771Z" fill="white"/>
<path d="M35.9926 31.3643C35.8254 31.3643 35.6886 31.5018 35.6886 31.67V32.8748C35.6886 33.043 35.8254 33.1806 35.9926 33.1806C36.1599 33.1806 36.2967 33.043 36.2967 32.8748V31.67C36.2967 31.5018 36.1599 31.3643 35.9926 31.3643Z" fill="white"/>
<path d="M21.8972 16.2221H23.0952C23.2624 16.2221 23.3992 16.0845 23.3992 15.9163C23.3992 15.7481 23.2624 15.6105 23.0952 15.6105H21.8972C21.73 15.6105 21.5932 15.7481 21.5932 15.9163C21.5932 16.0845 21.73 16.2221 21.8972 16.2221Z" fill="white"/>
<path d="M17.7047 37.4707H16.5067C16.3395 37.4707 16.2027 37.6081 16.2027 37.7764C16.2027 37.9446 16.3395 38.0821 16.5067 38.0821H17.7047C17.8719 38.0821 18.0087 37.9446 18.0087 37.7764C18.0087 37.6081 17.8719 37.4707 17.7047 37.4707Z" fill="white"/>
<path d="M20.4012 37.4707H19.2033C19.036 37.4707 18.8992 37.6081 18.8992 37.7764C18.8992 37.9446 19.036 38.0821 19.2033 38.0821H20.4012C20.5684 38.0821 20.7052 37.9446 20.7052 37.7764C20.7052 37.6081 20.5684 37.4707 20.4012 37.4707Z" fill="white"/>
<path d="M19.2004 16.2221H20.3983C20.5655 16.2221 20.7023 16.0845 20.7023 15.9163C20.7023 15.7481 20.5655 15.6105 20.3983 15.6105H19.2004C19.0331 15.6105 18.8963 15.7481 18.8963 15.9163C18.8963 16.0845 19.0331 16.2221 19.2004 16.2221Z" fill="white"/>
<path d="M24.5973 16.2221H25.7953C25.9625 16.2221 26.0993 16.0845 26.0993 15.9163C26.0993 15.7481 25.9625 15.6105 25.7953 15.6105H24.5973C24.4301 15.6105 24.2933 15.7481 24.2933 15.9163C24.2933 16.0845 24.4301 16.2221 24.5973 16.2221Z" fill="white"/>
<path d="M23.1014 37.4707H21.9034C21.7362 37.4707 21.5993 37.6081 21.5993 37.7764C21.5993 37.9446 21.7362 38.0821 21.9034 38.0821H23.1014C23.2686 38.0821 23.4054 37.9446 23.4054 37.7764C23.4054 37.6081 23.2686 37.4707 23.1014 37.4707Z" fill="white"/>
<path d="M25.7982 37.4707H24.6002C24.433 37.4707 24.2962 37.6081 24.2962 37.7764C24.2962 37.9446 24.433 38.0821 24.6002 38.0821H25.7982C25.9654 38.0821 26.1022 37.9446 26.1022 37.7764C26.1022 37.6081 25.9654 37.4707 25.7982 37.4707Z" fill="white"/>
<path d="M37.7744 23.3895H28.6286C26.7344 23.3895 25.199 24.9337 25.199 26.8387C25.199 28.7438 26.7344 30.288 28.6286 30.288H37.7744C37.9842 30.288 38.1543 30.1168 38.1543 29.9058V23.7748C38.1543 23.5638 37.9842 23.3925 37.7744 23.3925V23.3895Z" fill="#A748F9"/>
<path d="M30.3709 26.7228C30.3709 25.6342 29.9605 24.5639 28.6288 24.8667C27.5707 25.1052 26.6677 25.7504 26.6677 26.839C26.6677 27.9276 27.4886 28.8664 28.5315 28.5728C29.8419 28.2028 30.3709 27.8114 30.3709 26.7228Z" fill="white"/>
<path d="M28.8628 25.4348C27.7531 25.1841 26.847 26.5448 27.3973 27.0952C27.9477 27.6487 27.9477 26.3491 28.5193 26.2635C29.0909 26.1779 29.9878 25.6886 28.8628 25.4348Z" fill="#A748F9"/>
<path d="M39.1002 20.2033H39.7082V19.5918C39.7082 19.4236 39.8453 19.286 40.0124 19.286C40.1796 19.286 40.3163 19.4236 40.3163 19.5918V20.2033H40.9247C41.0918 20.2033 41.2285 20.3409 41.2285 20.5091C41.2285 20.6773 41.0918 20.8149 40.9247 20.8149H40.3163V21.4265C40.3163 21.5947 40.1796 21.7323 40.0124 21.7323C39.8453 21.7323 39.7082 21.5947 39.7082 21.4265V20.8149H39.1002C38.9331 20.8149 38.796 20.6773 38.796 20.5091C38.796 20.3409 38.9331 20.2033 39.1002 20.2033Z" fill="#A748F9"/>
<path d="M11.7055 7.152C11.5383 7.152 11.4015 7.01438 11.4015 6.8462C11.4015 6.17652 10.6991 5.47017 10.0333 5.47017C9.86602 5.47017 9.72922 5.33256 9.72922 5.16437C9.72922 4.99619 9.86602 4.85858 10.0333 4.85858C10.6991 4.85858 11.4015 4.15223 11.4015 3.48254C11.4015 3.31436 11.5383 3.17676 11.7055 3.17676C11.8727 3.17676 12.0096 3.31436 12.0096 3.48254C12.0096 4.15223 12.7119 4.85858 13.3778 4.85858C13.545 4.85858 13.6818 4.99619 13.6818 5.16437C13.6818 5.33256 13.545 5.47017 13.3778 5.47017C12.7119 5.47017 12.0096 6.17652 12.0096 6.8462C12.0096 7.01438 11.8727 7.152 11.7055 7.152ZM11.0092 5.16437C11.2859 5.34173 11.5292 5.58635 11.7055 5.86463C11.8819 5.58635 12.1251 5.34173 12.4018 5.16437C12.1251 4.98702 11.8819 4.74239 11.7055 4.46412C11.5292 4.74239 11.2859 4.98702 11.0092 5.16437Z" fill="#A748F9"/>
<path d="M1.21606 35.6271C0.544121 35.6271 -0.00012207 35.0798 -0.00012207 34.404C-0.00012207 33.7282 0.544121 33.1808 1.21606 33.1808C1.888 33.1808 2.43224 33.7282 2.43224 34.404C2.43224 35.0798 1.888 35.6271 1.21606 35.6271ZM1.21606 33.7955C0.881608 33.7955 0.611008 34.0676 0.611008 34.404C0.611008 34.7404 0.881608 35.0125 1.21606 35.0125C1.55051 35.0125 1.82111 34.7404 1.82111 34.404C1.82111 34.0676 1.55051 33.7955 1.21606 33.7955Z" fill="#A748F9"/>
</g>
</g>
</g>
</g>
<defs>
<clipPath id="clip0_233_1059">
<rect width="41.2286" height="39" fill="white"/>
</clipPath>
<clipPath id="clip1_233_1059">
<rect width="41.2286" height="39" fill="white"/>
</clipPath>
<clipPath id="clip2_233_1059">
<rect width="41.2286" height="39" fill="white"/>
</clipPath>
</defs>
</svg>
