<svg width="27" height="32" viewBox="0 0 27 32" fill="none" xmlns="http://www.w3.org/2000/svg">
<path fill-rule="evenodd" clip-rule="evenodd" d="M8.46509 0C8.52709 0 8.62853 0.0489065 8.69052 0.108681C8.75252 0.168456 8.80324 0.249966 8.80324 0.288005C8.80324 0.320609 8.73561 0.929223 8.65671 1.63022C8.56654 2.40185 8.482 2.95612 8.43128 3.0322C8.38056 3.11371 8.29602 3.15175 8.18331 3.15175C8.07059 3.15175 7.98606 3.11009 7.9297 3.02677C7.85643 2.91809 7.86207 2.7605 7.99733 1.5487C8.12132 0.445592 8.17204 0.17389 8.25094 0.0923789C8.30729 0.0434724 8.4031 0 8.46509 0V0ZM3.02661 1.52153C3.0717 1.52153 3.18441 1.58674 3.28022 1.67369C3.37039 1.7552 3.79871 2.2497 4.2383 2.77137C4.67225 3.29304 5.0273 3.76036 5.0273 3.80384C5.0273 3.84731 4.98785 3.93969 4.94276 4.01033C4.88077 4.09728 4.81314 4.12445 4.67788 4.11901C4.50881 4.10271 4.40173 3.99403 3.60709 3.04307C3.05479 2.38555 2.71665 1.93996 2.71665 1.85845C2.71665 1.79324 2.76737 1.68999 2.82936 1.63022C2.89136 1.57044 2.98153 1.52153 3.02661 1.52153ZM13.4302 2.60835C13.4865 2.60835 13.588 2.65725 13.65 2.71703C13.712 2.7768 13.7627 2.87461 13.7627 2.93439C13.7627 2.99416 13.7063 3.10284 13.6387 3.17349C13.5654 3.24413 13.0582 3.65168 12.5115 4.07011C11.8803 4.5483 11.4633 4.83631 11.3844 4.83631C11.3111 4.83631 11.2097 4.79283 11.1533 4.73849C11.097 4.68959 11.0575 4.59721 11.0575 4.53743C11.0575 4.47766 11.0801 4.40158 11.1026 4.36898C11.1252 4.33094 11.6324 3.92339 12.2354 3.45606C12.8328 2.98873 13.3738 2.60835 13.4302 2.60835ZM7.67609 5.43405C7.84516 5.43405 8.13822 5.47209 8.3242 5.521C8.51018 5.56447 8.79197 5.66772 8.94413 5.74923C9.10193 5.83074 9.37808 6.04267 9.5697 6.22199C9.76131 6.40131 9.96983 6.65671 10.0431 6.79257C10.1164 6.92842 10.6236 8.3304 12.1621 12.7972L12.2805 12.607C12.3481 12.5038 12.5115 12.319 12.6412 12.2049C12.7764 12.0853 13.0131 11.9332 13.1709 11.8625C13.3287 11.7919 13.6218 11.7213 13.8472 11.7049C14.1403 11.6778 14.3319 11.6941 14.5799 11.7593C14.7658 11.8136 15.0195 11.9169 15.1434 11.9875C15.2674 12.0636 15.4816 12.2484 15.8761 12.6722L16.079 12.4114C16.1917 12.2647 16.4227 12.0527 16.5862 11.944C16.7553 11.8354 17.0427 11.7049 17.2287 11.6506C17.4766 11.5854 17.6739 11.5691 17.9613 11.5963C18.1811 11.6126 18.4798 11.6832 18.6376 11.7539C18.7898 11.8245 19.0434 11.9875 19.1955 12.1179C19.3477 12.2538 19.5393 12.4875 19.7816 12.9059L19.9451 12.6613C20.0409 12.5255 20.21 12.3407 20.3339 12.2429C20.4523 12.1505 20.6777 12.0147 20.8355 11.9495C21.061 11.8462 21.2188 11.8245 21.6245 11.8191C22.0923 11.8191 22.1656 11.8354 22.5262 12.0093C22.746 12.1125 23.0166 12.2864 23.1293 12.4005C23.2476 12.5146 23.4054 12.7211 23.4787 12.8678C23.5519 13.0091 23.8845 13.9438 24.217 14.9436C24.5495 15.9435 24.9271 17.0303 25.0454 17.3618C25.1694 17.6933 25.4286 18.3725 25.6259 18.8833C25.8231 19.3941 26.0824 20.1386 26.212 20.5407C26.336 20.9428 26.4938 21.4808 26.5558 21.7362C26.6234 21.9916 26.7418 22.5513 26.8207 22.986C26.9146 23.5113 26.971 24.0819 26.9897 24.6978C27.0123 25.4151 27.001 25.7628 26.9221 26.2465C26.8714 26.5888 26.7643 27.067 26.6854 27.3061C26.6065 27.5452 26.4543 27.9093 26.3416 28.1212C26.2346 28.3331 26.0711 28.6103 25.9753 28.7461C25.8795 28.882 25.6484 29.1483 25.4625 29.3384C25.2708 29.5286 24.9665 29.784 24.7805 29.9145C24.5946 30.0394 24.2395 30.2459 23.9915 30.3601C23.7436 30.4796 23.3772 30.6318 23.1744 30.697C22.9715 30.7676 21.9852 31.0121 20.9764 31.2512C19.9676 31.4903 18.8405 31.7457 18.4685 31.8218C18.012 31.9142 17.5273 31.9685 16.975 31.9903C16.4453 32.012 16.017 31.9957 15.7634 31.9577C15.5436 31.9196 15.1772 31.8164 14.9462 31.7294C14.7151 31.6479 14.3206 31.4523 14.0726 31.3056C13.8247 31.1589 13.4076 30.8709 13.1428 30.6698C12.8779 30.4633 12.2072 29.8601 11.6493 29.3167C11.0857 28.7787 9.94729 27.605 9.1132 26.7084C8.27348 25.8117 7.21396 24.6869 6.7462 24.2087C6.28407 23.7305 5.44434 22.8719 4.8864 22.3068C4.32847 21.7416 3.7818 21.1493 3.67472 21.0026C3.57328 20.8559 3.43802 20.5896 3.38166 20.4157C3.31967 20.2255 3.28022 19.9375 3.28022 19.6713C3.28022 19.3778 3.31404 19.1387 3.39294 18.9214C3.45493 18.7529 3.60146 18.4812 3.71981 18.3182C3.83252 18.1552 4.08049 17.9161 4.26647 17.7802C4.475 17.6335 4.75115 17.5031 4.99912 17.4324C5.30908 17.3455 5.5007 17.3238 5.87266 17.3455C6.25589 17.3618 6.42496 17.3998 6.71802 17.5303C6.9209 17.6226 7.18578 17.7802 7.30413 17.8835C7.42248 17.9867 7.90152 18.5138 8.35802 19.0627C8.82014 19.6061 9.21465 20.0462 9.23155 20.0408C9.24846 20.0299 8.36365 17.4107 7.26468 14.21C6.16008 11.0094 5.24709 8.28693 5.22455 8.15108C5.20764 8.01523 5.21891 7.74896 5.24709 7.55333C5.28091 7.35771 5.35981 7.07514 5.4218 6.92842C5.48943 6.77626 5.64159 6.53173 5.75994 6.37414C5.87829 6.22199 6.12627 5.99919 6.30097 5.88508C6.47568 5.77096 6.79128 5.62424 6.99417 5.55904C7.19705 5.49383 7.50702 5.43405 7.67609 5.43405ZM0.490534 6.32524C0.61452 6.34154 1.21191 6.40675 1.81493 6.46652C2.41795 6.5263 2.97026 6.58607 3.04352 6.60237C3.11115 6.61868 3.19569 6.68388 3.2295 6.75453C3.26331 6.81974 3.27459 6.92842 3.25768 6.99906C3.24077 7.06427 3.16751 7.14578 3.09424 7.17838C2.99843 7.22729 2.64338 7.20555 1.5895 7.09144C0.552527 6.97732 0.186205 6.92298 0.107304 6.85234C0.050947 6.80343 0.00586116 6.70019 0.000225429 6.61868C-0.00353173 6.52086 0.0396755 6.44297 0.129847 6.38501C0.225655 6.32524 0.332734 6.30893 0.490534 6.32524ZM12.551 7.59137C12.6412 7.60224 13.278 7.66745 13.9599 7.74352C15.0082 7.85221 15.2111 7.88481 15.2731 7.97175C15.3125 8.0261 15.3407 8.11847 15.3407 8.17825C15.3463 8.23802 15.29 8.33584 15.104 8.50429L13.6894 8.35214C12.5848 8.23259 12.2467 8.17825 12.1678 8.10761C12.1114 8.0587 12.0663 7.96632 12.072 7.90655C12.072 7.84677 12.1001 7.75983 12.1396 7.71092C12.179 7.66201 12.2523 7.60767 12.2974 7.59137C12.3425 7.5805 12.4608 7.5805 12.551 7.59137ZM3.96214 9.94432C4.02414 9.94432 4.11995 9.99322 4.18194 10.053C4.24393 10.1128 4.29465 10.2106 4.29465 10.2704C4.29465 10.3301 4.2383 10.4334 4.17067 10.504C4.0974 10.5747 3.59019 10.9768 3.04352 11.4006C2.41232 11.8843 1.99527 12.1723 1.91637 12.1723C1.84311 12.1723 1.74167 12.1288 1.68531 12.0745C1.62895 12.0256 1.58387 11.9332 1.5895 11.8734C1.5895 11.8136 1.61768 11.7213 1.65713 11.6723C1.69658 11.6234 2.20943 11.2105 2.79555 10.7649C3.38166 10.3138 3.90579 9.94432 3.96214 9.94432Z" fill="#47004C"/>
</svg>
