<svg width="63" height="66" viewBox="0 0 63 66" fill="none" xmlns="http://www.w3.org/2000/svg">
<path d="M48.4628 1.57889C47.8359 2.34175 47.4752 3.16177 47.3806 4.17102C47.2248 5.84655 47.489 7.34071 47.8734 8.93541C48.0863 9.82245 47.6112 10.5873 47.1046 11.2713C46.7123 11.8015 46.1032 12.0046 45.6715 11.3521C45.0933 10.4782 44.7096 9.68644 44.5204 8.97681C44.2996 8.15284 45.1196 7.61274 45.6045 7.11205C45.6672 7.04765 45.7124 6.96823 45.7359 6.88131C45.7594 6.79438 45.7603 6.70283 45.7386 6.61531C45.3995 5.22956 45.1945 4.06063 45.843 2.71233C46.2438 1.88048 46.6407 1.0585 47.0336 0.246363C47.0849 0.141233 47.1532 0.128089 47.2386 0.206937L48.4431 1.31278C48.4797 1.34656 48.5022 1.39296 48.5059 1.44245C48.5096 1.49194 48.4941 1.54076 48.4628 1.57889Z" fill="white"/>
<path d="M38.5696 1.96132C38.5709 1.95344 38.5722 1.94621 38.5736 1.93964C38.5736 1.93701 38.5736 1.93307 38.5736 1.92781C38.5736 1.92124 38.5762 1.91993 38.5814 1.92387C38.588 1.92781 38.5913 1.93373 38.5913 1.94161C38.5065 3.46732 38.3094 4.97529 38.2483 6.52466C38.109 10.0702 38.0289 13.5191 38.0078 16.8715C38.0078 16.9425 37.973 16.9707 37.9034 16.9562C33.618 16.0101 29.2787 16.039 24.8855 17.043C24.4742 17.1376 24.0754 17.2526 23.689 17.3879C23.5432 17.4392 23.4006 17.4182 23.2613 17.3249C21.9524 16.4477 20.7263 15.2788 19.5909 14.1453C15.8233 10.3843 12.9348 6.07325 10.9255 1.21227C10.9189 1.1965 10.9235 1.18467 10.9393 1.17679L10.9906 1.15116C11.0129 1.13933 11.0306 1.14459 11.0438 1.16693C11.9019 2.66635 12.5386 3.69861 12.9539 4.26369C14.3771 6.20204 16.2438 7.80528 18.5541 9.07342C19.8393 9.77911 21.1495 10.086 22.4846 9.99397C23.4768 9.92694 24.4617 9.76859 25.4395 9.5189C28.2267 8.80796 31.0797 8.04445 33.9984 7.22837C36.2259 6.60547 37.6451 5.20986 38.2562 3.04154C38.36 2.66964 38.4645 2.30957 38.5696 1.96132Z" fill="white"/>
<path d="M10.6969 1.40934C11.0399 2.55132 11.4 3.64336 11.7772 4.68547C13.5447 9.57273 16.3622 13.8332 20.2297 17.4667C22.9558 20.0273 25.7293 22.3888 28.9976 24.2142C29.0777 24.2588 29.0869 24.3147 29.0252 24.3817C27.9607 25.5381 26.9646 26.7682 26.0368 28.0718C26.0063 28.1141 25.9608 28.1433 25.9097 28.1535C25.8585 28.1637 25.8053 28.1543 25.7609 28.127C24.5926 27.4121 23.5038 26.5461 22.4946 25.5289C18.4707 21.4735 15.4324 16.6999 13.3797 11.2082C12.9053 9.93741 12.4546 8.51223 12.0275 6.93264C11.5294 5.09022 11.0629 3.25701 10.628 1.43299C10.6253 1.42379 10.6286 1.41854 10.6378 1.41722L10.6851 1.40145C10.6917 1.40014 10.6956 1.40277 10.6969 1.40934Z" fill="white"/>
<path d="M40.1305 6.46172C40.3775 7.77848 40.7422 8.98288 41.2245 10.0749C42.0564 11.9554 43.1149 14.0114 44.5046 15.5608C44.5166 15.574 44.5253 15.5898 44.53 15.6071C44.5347 15.6243 44.5353 15.6425 44.5316 15.6601C44.528 15.6777 44.5203 15.6943 44.5091 15.7086C44.4979 15.7228 44.4835 15.7343 44.4671 15.7421L40.846 17.4216C40.8181 17.4348 40.7876 17.4414 40.7567 17.4409C40.7259 17.4404 40.6956 17.4328 40.6681 17.4187C40.6407 17.4046 40.6168 17.3843 40.5985 17.3596C40.5801 17.3348 40.5677 17.3061 40.5622 17.2757C39.9537 14.0745 39.6469 10.8588 39.6416 7.62866C39.6403 7.18054 39.6797 6.70614 39.7599 6.20546C39.7993 5.96103 39.8907 5.94001 40.0339 6.14238C40.0668 6.18969 40.0989 6.29613 40.1305 6.46172Z" fill="white"/>
<path d="M53.5626 6.27631C54.4773 5.83476 55.4037 6.17184 55.2559 7.32499C55.0745 8.73637 54.543 10.0374 53.6612 11.228C53.1894 11.8653 52.5488 12.274 51.7393 12.454C51.2267 12.5684 50.6985 12.4974 50.4521 11.9888C50.1446 11.3554 49.9001 10.7943 49.7188 10.3054C49.6097 10.0084 49.6393 9.72919 49.8075 9.46768C50.6722 8.13121 51.9239 7.06742 53.5626 6.27631Z" fill="white"/>
<path d="M46.7418 14.5081C47.207 13.2328 47.9994 11.9259 48.7505 10.7747C48.7779 10.7326 48.8208 10.7031 48.8698 10.6924C48.9189 10.6817 48.9702 10.6907 49.0126 10.7175C49.6579 11.117 50.1145 11.5881 50.3826 12.1309C50.8458 13.0691 50.8794 14.1237 49.8287 14.6678C49.3123 14.9339 48.8884 14.6047 48.5356 14.2617C48.4459 14.1744 48.3306 14.1181 48.2068 14.1011C48.083 14.0841 47.9571 14.1072 47.8477 14.1671L46.9291 14.6698C46.7241 14.7815 46.6616 14.7276 46.7418 14.5081Z" fill="white"/>
<path d="M57.0181 14.6259L56.7322 15.8442C56.6652 16.1319 56.4904 16.2312 56.2079 16.1418C55.6744 15.9736 55.1533 15.8711 54.6447 15.8343C53.7301 15.7692 53.3339 17.0091 52.301 16.4808C51.8213 16.2351 51.3824 16.149 50.9842 16.2226C50.6649 16.2818 50.6077 16.1865 50.8127 15.9368C51.2766 15.3691 51.6787 14.7935 52.0191 14.21C52.068 14.1257 52.1364 14.0541 52.2186 14.001C52.3008 13.9479 52.3945 13.9148 52.4922 13.9045C53.3004 13.8164 54.1657 13.6949 55.0883 13.5398C56.8531 13.2441 58.5057 12.6409 60.0458 11.7303C60.4256 11.5055 60.7804 11.2453 61.1103 10.9497C61.1295 10.9327 61.1546 10.9236 61.1805 10.9244C61.2064 10.9251 61.2313 10.9355 61.2502 10.9536L61.952 11.6534C61.9813 11.6828 62.0022 11.7193 62.0126 11.7592C62.023 11.799 62.0225 11.8408 62.0111 11.8801C61.8712 12.3571 61.5282 13.047 60.9979 13.2225C59.6496 13.6679 58.3729 14.0819 57.1679 14.4643C57.1308 14.4756 57.0975 14.4965 57.0711 14.5249C57.0448 14.5533 57.0265 14.5882 57.0181 14.6259Z" fill="white"/>
<path d="M7.43454 20.8195C7.84258 19.7649 8.34129 18.8601 9.03515 17.9573C10.1456 16.5131 11.3861 15.1759 12.7568 13.9459C12.7818 13.9232 12.812 13.9069 12.8448 13.8985C12.8776 13.8902 12.9119 13.8899 12.9448 13.8979C12.9777 13.9059 13.0081 13.9218 13.0334 13.9443C13.0587 13.9667 13.0781 13.995 13.0899 14.0267C14.2109 17.0505 15.5368 19.8188 17.0678 22.3314C17.1112 22.4037 17.0974 22.4628 17.0264 22.5088C15.9567 23.1935 14.9166 23.9537 13.906 24.7895C13.6353 25.0129 13.3784 25.2593 13.1353 25.5287C13.0183 25.6561 12.8797 25.689 12.7193 25.6272C10.4643 24.756 8.15206 24.0424 5.78267 23.4865C5.60395 23.4445 5.5941 23.3788 5.75311 23.2894C6.49428 22.8715 7.11718 21.6356 7.43454 20.8195Z" fill="white"/>
<path d="M33.8155 31.6988C30.8113 35.9448 28.7278 40.8511 28.0044 46.0097C27.2684 51.2649 27.5135 56.5405 28.7396 61.8365C28.9105 62.5764 29.1168 63.2801 29.3586 63.9477C29.4913 64.3169 29.4486 64.3379 29.2304 64.0107C27.2947 61.1072 26.0115 57.9335 24.9608 54.5509C23.0593 48.4231 23.1572 42.2612 25.2545 36.065C26.1554 33.4 27.6042 31.206 29.4177 28.8642C30.1825 27.876 31.065 26.9305 32.065 26.0277C34.1006 24.1879 36.0232 22.6819 37.8328 21.5097C40.2784 19.9275 42.6997 18.3886 45.0966 16.8931C46.2531 16.1704 47.3556 15.3622 48.4043 14.4686C48.4243 14.4516 48.4498 14.4427 48.476 14.4434C48.5022 14.4441 48.5272 14.4545 48.5462 14.4725C48.6119 14.5356 48.6244 14.6078 48.5837 14.6893C48.0613 15.7479 46.851 16.6546 46.0408 17.52C43.7562 19.9603 41.4696 22.3041 39.2895 24.8213C37.0686 27.3852 35.2439 29.6777 33.8155 31.6988Z" fill="white"/>
<path d="M55.912 22.7219C53.3349 23.8336 50.6962 24.8271 47.9956 25.7023C47.7236 25.791 47.4437 25.6274 47.2505 25.4382C46.328 24.5314 45.3857 23.7049 44.4238 22.9584C44.4035 22.9427 44.3865 22.923 44.3739 22.9005C44.3614 22.8781 44.3535 22.8533 44.3507 22.8277C44.348 22.8021 44.3504 22.7763 44.3579 22.7516C44.3653 22.727 44.3777 22.7042 44.3942 22.6844L47.9168 18.4601C47.9261 18.4491 47.9377 18.4402 47.9507 18.4338C47.9637 18.4275 47.9779 18.424 47.9924 18.4234C48.0068 18.4229 48.0212 18.4253 48.0347 18.4306C48.0481 18.4359 48.0603 18.444 48.0705 18.4542C49.6212 19.9773 51.4242 20.9156 53.4795 21.2691C54.1392 21.3821 55.0223 21.4623 56.1288 21.5096C57.0395 21.549 57.9489 21.5484 58.8569 21.5076C58.8596 21.5073 58.8623 21.5076 58.8648 21.5085C58.8674 21.5093 58.8697 21.5108 58.8716 21.5127C58.8735 21.5146 58.8749 21.5169 58.8758 21.5194C58.8767 21.522 58.877 21.5247 58.8766 21.5273C58.8753 21.5497 58.8688 21.5681 58.8569 21.5825C58.8451 21.597 58.8306 21.6068 58.8136 21.6121C57.6151 22.0339 56.6479 22.4039 55.912 22.7219Z" fill="white"/>
<path d="M30.8327 21.7622C29.4252 21.0782 28.0887 20.2995 26.906 19.3908C26.8936 19.3816 26.8843 19.3688 26.8793 19.3542C26.8742 19.3396 26.8736 19.3238 26.8776 19.3087C26.8816 19.2935 26.89 19.2798 26.9017 19.2692C26.9134 19.2586 26.9279 19.2515 26.9435 19.2489C28.9383 18.9296 31.058 18.7751 33.3026 18.7857C33.3127 18.7853 33.3226 18.7881 33.3311 18.7935C33.3396 18.799 33.3463 18.807 33.3503 18.8165C33.3543 18.8259 33.3554 18.8365 33.3536 18.8468C33.3518 18.8571 33.3471 18.8667 33.34 18.8744C32.5305 19.7496 31.7887 20.6866 31.1145 21.6853C31.0849 21.7297 31.0401 21.7619 30.9883 21.776C30.9366 21.7901 30.8814 21.7852 30.8327 21.7622Z" fill="white"/>
<path d="M33.9649 49.8753C31.769 54.6515 30.8958 60.3286 31.1402 65.6449C31.152 65.9038 31.1165 65.9104 31.0337 65.6646C30.7775 64.8985 30.5639 64.1218 30.3931 63.3347C29.2498 58.0676 29.0133 52.5483 30.0501 47.2398C31.4674 39.9838 36.151 33.9165 42.5791 30.2579C44.4044 29.2198 45.9866 28.3958 47.3257 27.786C50.8634 26.1775 54.4667 24.5316 58.1358 22.8482C58.871 22.5111 59.5925 22.0577 60.3475 21.8133C60.6155 21.7266 60.6438 21.7772 60.4322 21.9651C57.9387 24.1728 55.4471 26.5698 52.8865 28.7894C50.0676 31.2317 47.2705 33.7036 44.5167 36.2169C40.2392 40.1218 36.3166 44.76 33.9649 49.8753Z" fill="white"/>
<path d="M1.06958 22.8795C0.731843 22.597 0.451932 22.3828 0.229844 22.2369C-0.093433 22.024 -0.0756914 21.9912 0.283067 22.1383C2.38042 22.9991 4.50735 23.8861 6.66384 24.7995C8.16195 25.4329 9.36241 25.9658 10.2652 26.3981C14.4534 28.4008 18.4687 30.7827 22.3112 33.5437C22.3606 33.5788 22.3976 33.6285 22.4171 33.6858C22.4366 33.7432 22.4375 33.8052 22.4196 33.863C21.8546 35.6871 21.4327 37.6517 21.1541 39.7569C21.141 39.8529 21.1055 39.9396 21.0477 40.0171C20.9899 40.096 20.9268 40.1012 20.8585 40.0329C18.3373 37.563 15.757 35.3671 13.1609 33.0765C12.1793 32.2105 11.1923 31.3622 10.2002 30.5317C7.15533 27.9836 4.11179 25.4329 1.06958 22.8795Z" fill="white"/>
<path d="M16.0507 27.1967C15.8628 27.1113 15.6756 27.0199 15.4889 26.9227C15.478 26.9171 15.4686 26.9089 15.4615 26.8989C15.4543 26.8889 15.4497 26.8773 15.448 26.8652C15.4462 26.853 15.4474 26.8406 15.4515 26.829C15.4555 26.8174 15.4623 26.807 15.4712 26.7985C16.4095 25.897 17.3662 25.0783 18.3413 24.3424C18.4306 24.2741 18.5101 24.2852 18.5798 24.3759C20.1712 26.4549 21.921 28.3163 23.8291 29.9603C23.9277 30.0457 23.9546 30.1502 23.9099 30.2737L23.5314 31.2968C23.4736 31.4558 23.3757 31.486 23.2377 31.3875C20.9143 29.7251 18.5187 28.3282 16.0507 27.1967Z" fill="white"/>
<path d="M37.2809 31.0622C37.8065 30.2527 38.3795 29.4714 38.9997 28.7184C40.1312 27.3425 41.3396 25.9239 42.6248 24.4626C42.6392 24.4464 42.6569 24.4335 42.6767 24.4247C42.6964 24.4159 42.7179 24.4114 42.7396 24.4116C42.7612 24.4118 42.7826 24.4166 42.8022 24.4258C42.8219 24.4349 42.8393 24.4481 42.8534 24.4646L44.8858 26.8103C44.9383 26.8707 44.9278 26.9161 44.8542 26.9463C43.7319 27.4246 42.6038 27.9523 41.4697 28.5292C39.9597 29.2979 38.5812 30.1587 37.3341 31.1115C37.3271 31.1159 37.3188 31.118 37.3105 31.1173C37.3023 31.1165 37.2945 31.1131 37.2884 31.1074C37.2823 31.1018 37.2782 31.0943 37.2769 31.0861C37.2755 31.0779 37.2769 31.0695 37.2809 31.0622Z" fill="white"/>
<path d="M6.97324 45.1542C6.34377 45.1805 5.69065 45.1982 5.01387 45.2074C4.56969 45.214 4.19779 45.0583 3.89817 44.7402C3.61235 44.4347 3.1984 44.074 3.26344 43.6127C3.29236 43.4064 3.31207 43.1994 3.32258 42.9918C3.32521 42.9287 3.3101 42.8702 3.27724 42.8163C2.99142 42.3472 1.86586 42.158 1.36715 41.9963C-0.454238 41.4069 0.673289 39.2642 1.24099 38.184C2.20688 36.3521 3.04793 34.6523 3.76413 33.0845C4.01447 32.5346 3.38566 31.4859 3.15503 30.9675C3.01179 30.6468 2.94608 30.244 2.95791 29.7591C2.98025 28.784 3.00522 27.8457 3.03281 26.9442C3.03436 26.89 3.05712 26.8386 3.09619 26.801C3.13527 26.7634 3.18754 26.7426 3.24176 26.7432C3.91 26.7491 5.51456 28.0895 6.06058 28.5389C7.60469 29.811 9.08046 31.0798 10.4879 32.3453C10.5733 32.4229 10.5805 32.5063 10.5096 32.5957C10.3677 32.775 10.3302 33.0037 10.3401 33.2245C10.5411 37.8391 11.9959 42.1323 15.1439 45.578C17.1046 47.724 19.3038 49.7872 21.7415 51.7676C22.254 52.1855 22.6423 52.7472 22.9143 53.3406C23.6529 54.9399 24.4118 56.4899 25.1911 57.9906C25.1997 58.0066 25.2047 58.0244 25.2055 58.0426C25.2063 58.0607 25.2029 58.0789 25.1957 58.0956C25.1885 58.1123 25.1776 58.1271 25.1638 58.139C25.15 58.1509 25.1338 58.1594 25.1162 58.1641C22.5852 58.8448 19.9996 59.109 17.3595 58.9565C15.0742 58.8251 13.3501 57.81 12.1871 55.911C11.3138 54.4839 10.6949 52.6921 9.91625 51.119C8.98453 49.2319 8.1034 47.3074 7.27287 45.3454C7.21767 45.2127 7.1178 45.1489 6.97324 45.1542Z" fill="white"/>
<path d="M56.7693 41.9748C56.7522 41.9736 56.7352 41.9761 56.7191 41.982C56.7031 41.9879 56.6885 41.9971 56.6762 42.009C56.664 42.0209 56.6543 42.0352 56.648 42.051C56.6416 42.0668 56.6386 42.0839 56.6392 42.1009C56.6727 43.3388 56.6668 44.7758 55.0622 44.9335C54.1791 45.0183 53.3906 44.7719 52.746 45.6175C51.7788 46.8909 51.1461 48.184 50.8478 49.4969C50.5068 51.0048 50.2663 52.4083 49.4699 53.9123C48.8286 55.1253 48.1643 56.1838 47.477 57.0879C46.4481 58.4402 45.0879 59.1327 43.3966 59.1656C40.2605 59.2247 36.9725 58.6886 34.1359 57.3481C34.1185 57.3398 34.103 57.3278 34.0905 57.3129C34.078 57.2981 34.0689 57.2808 34.0636 57.2621C34.0584 57.2434 34.0572 57.2239 34.0602 57.2047C34.0631 57.1856 34.0701 57.1673 34.0807 57.151C35.5059 54.9354 37.2544 53.1633 39.332 51.2966C42.0582 48.8464 44.4039 46.7214 46.4973 43.9578C49.0152 40.633 50.2229 36.9416 50.1204 32.8836C50.1125 32.601 50.2052 32.356 50.3983 32.1483C52.1567 30.256 54.0549 28.5864 56.0931 27.1395C56.7476 26.6763 57.1221 27.6382 57.1773 28.1093C57.2759 28.932 57.4178 29.777 57.6031 30.6443C57.7647 31.4091 57.5893 31.9354 57.201 32.5307C56.6806 33.331 57.5577 34.9671 57.954 35.6984C58.6176 36.9258 59.1958 38.1441 59.6886 39.3531C60.623 41.6397 58.3719 42.0595 56.7693 41.9748Z" fill="white"/>
<path d="M20.7516 45.3259C18.1674 44.4487 16.0759 43.4926 15.1652 40.7389C14.8722 39.8518 14.6448 38.9694 14.4832 38.0916C14.4227 37.7643 14.52 37.7078 14.7749 37.922C16.1088 39.0469 17.4939 40.2329 18.9302 41.4801C20.4027 42.7594 21.2779 43.3448 20.8738 45.2569C20.8713 45.2697 20.8659 45.2819 20.8582 45.2926C20.8504 45.3032 20.8404 45.3121 20.8289 45.3186C20.8173 45.3251 20.8044 45.3291 20.7911 45.3304C20.7778 45.3316 20.7643 45.3301 20.7516 45.3259Z" fill="white"/>
<path d="M44.6485 41.6788C43.7911 43.9634 41.9914 44.8898 39.6969 44.9608C39.6559 44.9623 39.6153 44.9529 39.5792 44.9336C39.5431 44.9143 39.5126 44.8858 39.491 44.851C39.4694 44.8162 39.4574 44.7763 39.4562 44.7354C39.4549 44.6944 39.4645 44.6539 39.484 44.6178C40.0662 43.5442 40.7883 42.5638 41.6503 41.6768C42.7516 40.544 43.9277 39.4585 45.1788 38.4204C45.1928 38.4088 45.2098 38.4017 45.2278 38.3999C45.2459 38.3981 45.2641 38.4017 45.2802 38.4103C45.2964 38.4189 45.3097 38.4321 45.3187 38.4482C45.3276 38.4644 45.3318 38.4828 45.3306 38.5012C45.2373 39.6511 45.0099 40.7102 44.6485 41.6788Z" fill="white"/>
</svg>
