<svg width="120" height="88" viewBox="0 0 120 88" fill="none" xmlns="http://www.w3.org/2000/svg">
<rect y="0.967651" width="120" height="86.087" rx="12.1556" fill="#FDF4FE"/>
<path d="M83.2427 53.1292V36.7287C83.2427 34.8271 81.9361 33.0566 79.7007 31.5567V24.3742C79.7007 23.6712 79.1431 23.0896 78.4171 22.9796C78.9499 22.7539 79.3267 22.288 79.3267 21.7275C79.3267 20.9499 77.7466 18.44 77.7466 18.44C77.7466 18.44 76.1645 20.9489 76.1645 21.7275C76.1645 22.2804 76.5327 22.7424 77.055 22.972C76.2879 23.0485 75.6862 23.6444 75.6862 24.3742V29.5251C74.2856 28.9908 72.8508 28.5508 71.3914 28.208C71.4668 28.0272 71.5067 27.8337 71.5091 27.6379C71.5091 26.6976 69.596 23.6645 69.596 23.6645C69.596 23.6645 67.8456 26.4422 67.6983 27.504C65.8245 27.2275 63.8301 27.0668 61.7727 27.0018V20.11C61.7727 19.4778 61.2829 18.9498 60.6363 18.834C61.0773 18.6284 61.3853 18.2305 61.3853 17.757C61.3843 17.076 60.0002 14.8807 60.0002 14.8807C60.0002 14.8807 58.6161 17.076 58.6161 17.757C58.6161 18.2247 58.9165 18.6188 59.3488 18.8264C58.6668 18.9144 58.1379 19.4529 58.1379 20.11V27.0027C56.1263 27.0697 54.176 27.2285 52.3413 27.4982C52.1615 26.4126 50.4465 23.6922 50.4465 23.6922C50.4465 23.6922 48.5334 26.7244 48.5334 27.6656C48.5334 27.854 48.5765 28.032 48.6396 28.2013C47.1323 28.5528 45.6515 29.0096 44.208 29.5681V24.3886C44.208 23.6865 43.6494 23.1049 42.9225 22.9949C43.4553 22.7692 43.834 22.3024 43.834 21.7419C43.834 20.9642 42.252 18.4543 42.252 18.4543C42.252 18.4543 40.6699 20.9633 40.6699 21.7419C40.6699 22.2947 41.0391 22.7567 41.5613 22.9863C40.7933 23.0638 40.1916 23.6597 40.1916 24.3886V31.6333C38.0232 33.1178 36.7558 34.8606 36.7558 36.7296V53.132C33.3295 55.1178 31.3046 57.5607 31.3046 60.2036C31.3046 66.8696 44.1526 72.272 60.0002 72.272C75.8479 72.272 88.6959 66.8696 88.6959 60.2036C88.6959 57.5598 86.67 55.1168 83.2427 53.1292ZM76.9546 22.4784C76.9546 22.0891 77.7466 20.8341 77.7466 20.8341C77.7466 20.8341 78.5386 22.0891 78.5386 22.4784C78.5368 22.5724 78.5146 22.6649 78.4735 22.7495C78.4323 22.8341 78.3733 22.9087 78.3004 22.9681C78.2564 22.9643 78.2133 22.9557 78.1684 22.9557H77.2195C77.2071 22.9557 77.1966 22.9586 77.1841 22.9586C77.1137 22.8996 77.0568 22.8263 77.0171 22.7434C76.9775 22.6606 76.9562 22.5702 76.9546 22.4784ZM76.6418 24.3742C76.6418 24.1236 76.9058 23.9132 77.2195 23.9132H78.1684C78.4802 23.9132 78.7442 24.1246 78.7442 24.3742V34.7018C78.7426 34.803 78.703 34.9 78.6333 34.9734L78.2813 35.1533C78.2443 35.1599 78.2069 35.1634 78.1693 35.1638H77.2205C76.9077 35.1638 76.6427 34.9514 76.6427 34.7018L76.6418 24.3742ZM69.5951 26.5589C69.5951 26.5589 70.5535 28.075 70.5535 28.5456C70.5535 29.0153 70.124 29.3969 69.5951 29.3969C69.0661 29.3969 68.6386 29.0162 68.6386 28.5456C68.6386 28.075 69.5951 26.5589 69.5951 26.5589ZM59.3087 18.4132C59.3087 18.0736 60.0002 16.9765 60.0002 16.9765C60.0002 16.9765 60.6937 18.0727 60.6937 18.4132C60.692 18.4905 60.6743 18.5667 60.6419 18.637C60.6095 18.7072 60.563 18.7701 60.5053 18.8216C60.4593 18.8168 60.4153 18.8082 60.3685 18.8082H59.5392C59.522 18.8082 59.5067 18.812 59.4894 18.813C59.4338 18.762 59.3891 18.7003 59.3581 18.6316C59.327 18.5629 59.3102 18.4886 59.3087 18.4132ZM59.0944 20.11C59.0944 19.9235 59.2981 19.7657 59.5392 19.7657H60.3685C60.6105 19.7657 60.8152 19.9235 60.8152 20.11V29.1473C60.8141 29.2165 60.7875 29.2829 60.7406 29.3338L60.4488 29.484C60.4222 29.4878 60.3954 29.4897 60.3685 29.4897H59.5392C59.2981 29.4897 59.0944 29.3328 59.0944 29.1473V20.11ZM50.4465 26.5847C50.4465 26.5847 51.403 28.1018 51.403 28.5724C51.403 29.0411 50.9754 29.4237 50.4465 29.4237C49.9175 29.4237 49.49 29.042 49.49 28.5724C49.49 28.1018 50.4465 26.5847 50.4465 26.5847ZM41.4619 22.4908C41.4619 22.1034 42.252 20.8485 42.252 20.8485C42.252 20.8485 43.044 22.1034 43.044 22.4908C43.0424 22.5853 43.0201 22.6782 42.9788 22.7631C42.9375 22.8481 42.8781 22.9229 42.8048 22.9825C42.7608 22.9787 42.7187 22.97 42.6738 22.97H41.7249C41.7134 22.97 41.7029 22.9729 41.6914 22.9729C41.6211 22.9135 41.5642 22.8398 41.5247 22.7566C41.4851 22.6735 41.4637 22.5829 41.4619 22.4908ZM41.1481 24.3867C41.1481 24.137 41.4121 23.9266 41.7259 23.9266H42.6747C42.9875 23.9266 43.2525 24.138 43.2525 24.3867V34.7152C43.2506 34.816 43.2106 34.9124 43.1406 34.9849L42.7886 35.1657C42.7513 35.1723 42.7135 35.1758 42.6757 35.1762H41.7268C41.414 35.1762 41.1491 34.9648 41.1491 34.7152L41.1481 24.3867ZM40.0921 35.5234C40.1237 35.3608 40.1868 35.2126 40.2433 35.0614C40.3064 35.2929 40.4307 35.5005 40.6 35.6717C40.5254 36.2179 40.6593 36.7717 40.9511 37.2509C41.5719 38.2486 42.6346 38.9468 43.7173 39.5016C45.2334 40.2563 46.8653 40.7374 48.5334 41.1162V31.3798C48.5334 31.1263 48.6549 30.9044 48.8328 30.7217C48.5573 30.7753 48.28 30.8154 48.0064 30.8766C46.7199 31.1693 45.4113 31.5567 44.208 32.1163V31.6103C44.2224 31.6036 44.2358 31.596 44.2501 31.5902C45.4247 31.0651 46.65 30.6796 47.8926 30.385C50.3823 29.8088 52.9218 29.4737 55.4759 29.3845C56.3702 29.351 57.2665 29.3558 58.1637 29.3778C58.2565 29.8484 58.6219 30.2253 59.1011 30.3735C57.9003 30.2496 56.6944 30.1816 55.4873 30.1698C54.0695 30.1629 52.6523 30.2293 51.2413 30.3687C51.8047 30.4778 52.2313 30.8776 52.2313 31.3798V33.1321L52.282 33.1073C52.9382 32.8222 53.5877 32.6577 54.2439 32.5333C55.5533 32.2923 56.8647 32.2397 58.1704 32.3143C59.4827 32.4052 60.7645 32.5869 62.0462 33.1331C62.3619 33.2766 62.6766 33.4516 62.9683 33.7156C63.2447 33.9576 63.569 34.4273 63.4389 34.9648C63.3002 35.466 62.9549 35.7205 62.6603 35.9156C62.3614 36.0988 62.039 36.2404 61.7019 36.3365C60.4039 36.7124 59.0906 36.7086 57.806 36.545C57.1622 36.4426 56.5347 36.324 55.9226 36.0285C55.6385 35.8735 55.3018 35.6851 55.2023 35.2853C55.1478 34.8443 55.5275 34.6147 55.7915 34.4751L55.8604 34.6004C55.6079 34.7534 55.3573 35.004 55.43 35.2355C55.5027 35.467 55.7887 35.6277 56.0546 35.7396C56.6027 35.9587 57.2454 36.038 57.8528 36.084C59.082 36.15 60.3513 36.0333 61.4723 35.6478C61.9754 35.4861 62.601 35.0729 62.6259 34.7869C62.7043 34.5822 62.2069 34.1747 61.6789 33.9959C60.6028 33.5999 59.3278 33.4793 58.1216 33.4344C56.9011 33.4067 55.6672 33.5004 54.4926 33.7596C53.91 33.8897 53.3323 34.0638 52.834 34.302C52.6228 34.4034 52.4212 34.5234 52.2313 34.6607V36.1117C52.5872 36.3585 53.0339 36.5632 53.4968 36.7258C54.5844 37.0979 55.8393 37.3064 57.0407 37.4346C59.4751 37.6919 61.9754 37.6096 64.3667 37.161C65.5423 36.9295 66.7064 36.5995 67.683 36.0409V32.5955C67.2985 32.366 66.892 32.1555 66.4625 31.9757C65.3558 31.5118 64.1553 31.2047 62.9339 30.9474C61.8696 30.7384 60.7975 30.5719 59.72 30.4481H60.3704C60.49 30.4481 60.6086 30.4338 60.7243 30.4051L61.2447 30.1526L61.3441 30.0847C61.4905 29.9527 61.6005 29.7967 61.6732 29.6265C62.1648 29.6867 62.6555 29.746 63.1453 29.8302C64.4069 30.0512 65.682 30.3286 66.9312 30.8011C67.2019 30.9025 67.4697 31.0201 67.7356 31.1464C67.8561 30.6672 68.3459 30.298 68.96 30.298H70.1068C70.8108 30.298 71.3828 30.7724 71.3828 31.3559V41.3094C74.3347 40.4361 77.1296 39.0578 79.4827 36.985L79.5821 37.0873C77.8623 38.9669 75.6757 40.4294 73.3227 41.4567C72.6866 41.7313 72.039 41.9771 71.3838 42.2019V43.0025C71.3838 43.2933 71.2422 43.5582 71.0117 43.7486L70.4378 44.024C70.329 44.0478 70.2181 44.0603 70.1068 44.0613H68.96C68.3354 44.0613 67.8389 43.6816 67.7289 43.188C67.1234 43.3095 66.5141 43.4138 65.9039 43.498C61.348 44.1226 56.7165 43.9045 52.2199 43.0771C52.2111 43.2116 52.1749 43.3429 52.1133 43.4628C52.0518 43.5828 51.9663 43.6888 51.8621 43.7744L51.2882 44.0489C51.184 44.0719 51.0711 44.0872 50.9573 44.0872H49.8104C49.1045 44.0872 48.5344 43.6127 48.5344 43.0283V42.243C46.7457 41.7542 44.9771 41.1334 43.3386 40.2047C42.2242 39.5494 41.1089 38.7517 40.4384 37.5417C40.1113 36.941 39.9496 36.2121 40.0921 35.5234ZM81.3297 58.2466C81.3297 61.9588 72.2083 66.1101 60.0002 66.1101C47.7912 66.1101 38.6688 61.9588 38.6688 58.2466V54.4453C39.61 54.3946 40.3619 53.7127 40.3619 52.8719V49.1845C40.3619 48.0233 41.4322 47.082 42.7532 47.082C44.0741 47.082 45.1464 48.0233 45.1464 49.1845V53.7337C45.1464 55.0843 46.3927 56.1805 47.928 56.1805C49.4651 56.1805 50.7114 55.0843 50.7114 53.7337V49.086C50.7114 47.8702 51.8325 46.886 53.2147 46.886C54.5987 46.886 55.7198 47.8702 55.7198 49.086V52.0493C55.7198 52.7255 56.3415 53.2727 57.1115 53.2727C57.8796 53.2727 58.5013 52.7255 58.5013 52.0493V49.6981C58.5013 48.82 59.3125 48.1084 60.312 48.1084C61.3097 48.1084 62.1189 48.82 62.1189 49.6981V53.7346C62.1189 55.0853 63.3672 56.1814 64.9024 56.1814C66.4395 56.1814 67.6859 55.0853 67.6859 53.7346V49.2103C67.6859 48.0625 68.7447 47.1308 70.0513 47.1308C71.358 47.1308 72.4168 48.0625 72.4168 49.2103V52.5122C72.4168 53.1875 73.0386 53.7346 73.8086 53.7346C74.5767 53.7346 75.2003 53.1875 75.2003 52.5122V50.2003C75.2003 49.5987 75.7532 49.1108 76.4371 49.1108C77.1229 49.1108 77.6777 49.5987 77.6777 50.2003V53.7346C77.6777 55.0853 78.9221 56.1814 80.4593 56.1814C80.7654 56.1814 81.0542 56.1269 81.3297 56.0466V58.2466Z" fill="#47004C"/>
</svg>
