<svg width="120" height="87" viewBox="0 0 120 87" fill="none" xmlns="http://www.w3.org/2000/svg">
<rect y="0.880615" width="120" height="86.087" rx="13.913" fill="#FDF4FE"/>
<path d="M84.4013 28.9463C84.3786 28.0025 84.4013 27.9239 84.6509 27.7666C84.7985 27.6655 85.0141 27.6205 85.1502 27.6543C85.2751 27.6992 85.4453 27.7891 85.5247 27.8565C85.6268 27.9351 85.6722 28.2946 85.6609 29.9462H86.6255C87.4425 29.9462 87.6241 29.9799 87.817 30.1709C87.9418 30.2945 88.0439 30.4967 88.0439 30.6203C88.0439 30.7439 87.9418 30.9461 87.817 31.0697C87.6241 31.2607 87.4425 31.2944 85.6609 31.2944V32.2269C85.6609 32.7887 85.6041 33.2268 85.5247 33.3504C85.4453 33.474 85.2524 33.5639 85.0935 33.5751C84.9346 33.5863 84.719 33.5077 84.6055 33.429C84.4353 33.283 84.4013 33.092 84.4126 31.2944H83.414C82.631 31.2944 82.3814 31.2495 82.2225 31.0922C82.109 30.9911 82.0182 30.7664 82.0296 30.5978C82.0296 30.3956 82.1204 30.2158 82.2792 30.1147C82.4608 30.0024 82.8239 29.9462 84.4126 29.9462L84.4013 28.9463Z" fill="#47004C"/>
<path d="M68.2987 38.496C68.8321 38.3725 69.6151 38.2152 70.0576 38.159C70.5002 38.114 70.8974 38.0579 70.9541 38.0466C71.0108 38.0466 71.2718 38.5747 71.5442 39.2488C71.8165 39.9116 72.0435 40.4734 72.0435 40.5071C72.0435 40.5408 71.6009 40.6082 71.0562 40.6532C70.5002 40.6981 69.5924 40.8442 69.0363 40.979C68.4689 41.1026 67.6292 41.361 67.1639 41.552C66.6987 41.743 66.0064 42.0688 65.632 42.2822C65.2575 42.4845 64.5993 42.9339 64.1568 43.2597C63.7142 43.5855 63.1581 44.0686 62.4546 44.7764L63.2149 45.5292C63.6348 45.9561 64.1454 46.5178 64.361 46.7987C64.5653 47.0796 64.9511 47.6526 65.2121 48.0907C65.4731 48.5289 65.8249 49.2255 66.0064 49.6636C66.188 50.1018 66.4377 50.8545 66.5738 51.3489C66.71 51.8432 66.8689 52.7308 66.9483 53.315C67.0164 53.9217 67.0504 54.8767 67.0051 55.5395C66.971 56.1687 66.8575 57.0563 66.7668 57.5057C66.676 57.9438 66.4831 58.6629 66.3355 59.101C66.188 59.5392 65.8589 60.292 65.6206 60.7863C65.3823 61.2806 64.9057 62.0559 64.5766 62.494C64.0773 63.1906 64.0092 63.3479 64.1227 63.4939C64.2021 63.595 64.6561 63.9096 65.1213 64.1905C65.5866 64.4826 66.5058 64.932 67.1639 65.1904C67.8221 65.4488 68.764 65.7409 69.2633 65.8421C69.7626 65.9432 70.7044 66.0555 71.3626 66.0892C72.0321 66.1229 72.9967 66.0892 73.5754 66.0106C74.1315 65.9432 75.028 65.7522 75.5613 65.5949C76.0947 65.4488 76.9344 65.1342 77.4337 64.8983C77.933 64.6736 78.7274 64.2242 79.1926 63.9209C79.6579 63.6175 80.3955 63.0445 80.8267 62.6401C81.2579 62.2356 81.9048 61.5053 82.2792 61.011C82.6537 60.5167 83.2098 59.6066 83.5161 58.9887C83.8112 58.3708 84.197 57.4158 84.3559 56.854C84.5148 56.3035 84.6963 55.2924 84.7644 54.607C84.8665 53.697 84.8552 53.0678 84.7644 52.1915C84.6963 51.5399 84.5374 50.6298 84.4126 50.1692C84.2991 49.7086 84.0041 48.8772 83.7658 48.3154C83.5388 47.7649 83.0395 46.8549 82.6651 46.2931C82.2906 45.7426 81.5416 44.8551 81.0083 44.327C80.4749 43.799 79.6465 43.1136 79.1699 42.8103C78.682 42.4957 78.2848 42.2261 78.2848 42.1924C78.2848 42.1587 78.4437 42.0351 78.6479 41.9227C78.8522 41.8104 79.3628 41.4621 80.5544 40.6195L81.3714 41.2261C81.8253 41.552 82.631 42.2822 83.153 42.8215C83.675 43.372 84.424 44.3045 84.8211 44.8888C85.2183 45.473 85.7176 46.3381 85.9332 46.7987C86.1488 47.2593 86.4779 48.102 86.6595 48.6525C86.8411 49.2142 87.0794 50.1467 87.1928 50.731C87.329 51.4388 87.3971 52.3376 87.3971 53.3712C87.3971 54.3599 87.329 55.3373 87.2042 56.0114C87.1021 56.5956 86.8297 57.6068 86.6141 58.2584C86.3871 58.9101 85.9446 59.9437 85.6268 60.5616C85.3091 61.1795 84.7531 62.0671 84.4013 62.5277C84.0495 62.9884 83.3119 63.7973 82.7558 64.3253C82.1998 64.8534 81.3601 65.5612 80.8948 65.887C80.4295 66.2128 79.5331 66.7296 78.9089 67.0442C78.2848 67.3588 77.3429 67.752 76.8096 67.9205C76.2762 68.1003 75.2776 68.3362 74.5968 68.471C73.7343 68.6283 72.8946 68.707 71.8733 68.707C70.8293 68.707 70.0463 68.6396 69.2065 68.4823C68.5484 68.3475 67.5724 68.1003 67.0164 67.9093C66.4717 67.7295 65.6093 67.37 65.0873 67.1228C64.5766 66.8644 63.7823 66.3926 63.317 66.078C62.8631 65.7634 62.3865 65.4376 62.273 65.3702C62.0914 65.2466 61.9666 65.2915 61.3425 65.7185C60.9567 65.9881 60.2531 66.415 59.7878 66.6622C59.3226 66.9094 58.5055 67.2689 57.9722 67.4487C57.4388 67.6397 56.5424 67.8756 55.9863 67.9879C55.2941 68.1228 54.4657 68.1789 53.4331 68.1789C52.4571 68.1789 51.572 68.1003 50.9933 67.9767C50.494 67.8756 49.6996 67.6621 49.2344 67.5048C48.7691 67.3588 47.9748 67.0217 47.4754 66.7746C46.9761 66.5274 46.1818 66.0667 45.7165 65.7409C45.2513 65.4264 44.4569 64.7635 43.9576 64.2691C43.4583 63.7748 42.7661 62.9659 42.4257 62.4715C42.0852 61.9772 41.5632 61.0672 41.2682 60.4492C40.9731 59.8313 40.5987 58.8426 40.4511 58.2584C40.3036 57.6742 40.1221 56.6406 40.0426 55.9552C39.9518 55.0677 39.9518 54.4048 40.0426 53.5959C40.1107 52.978 40.2355 52.169 40.315 51.7983C40.4058 51.4275 40.6327 50.6973 40.837 50.1692C41.0299 49.6412 41.3703 48.8884 41.5859 48.484C41.8129 48.0795 42.2781 47.3605 43.2768 46.0235L43.8441 46.2594C44.1505 46.383 44.6498 46.5628 44.9449 46.6414C45.2513 46.7313 45.4896 46.8324 45.4896 46.8886C45.5009 46.9335 45.3874 47.0683 45.2513 47.1919C45.1264 47.3155 44.7633 47.7425 44.4683 48.1469C44.1619 48.5514 43.7193 49.2816 43.4697 49.776C43.22 50.2703 42.8796 51.1354 42.7207 51.6859C42.5505 52.2365 42.3689 53.2027 42.3122 53.8206C42.2554 54.5059 42.2554 55.3373 42.3235 55.9552C42.3803 56.5058 42.5278 57.3484 42.6526 57.809C42.7888 58.2697 43.1406 59.1572 43.447 59.7751C43.7534 60.3931 44.3434 61.3143 44.752 61.8312C45.1605 62.3367 45.8187 63.0221 46.2158 63.3479C46.613 63.6625 47.2144 64.1006 47.5549 64.2916C47.884 64.4938 48.5648 64.8309 49.0641 65.0556C49.5634 65.2691 50.4826 65.5499 51.1068 65.6848C52.0713 65.887 52.4798 65.9095 53.887 65.8645C54.9877 65.8196 55.7934 65.7297 56.3268 65.5836C56.758 65.4713 57.4729 65.2241 57.9154 65.0556C58.3467 64.8758 58.9935 64.5725 59.3339 64.3703C59.6744 64.1793 60.2077 63.8085 60.5254 63.5726C60.8318 63.3254 61.3425 62.8648 61.6602 62.539C61.9666 62.2131 62.4546 61.6402 62.7156 61.2582C62.9879 60.8762 63.3511 60.2807 63.5326 59.9437C63.7028 59.6066 63.9752 58.9775 64.1341 58.5393C64.2929 58.1011 64.4972 57.2922 64.5993 56.7417C64.7014 56.1912 64.7809 55.3261 64.7809 54.8317C64.7809 54.3374 64.7128 53.506 64.6107 52.978C64.5199 52.4499 64.327 51.6747 64.1795 51.2365C64.0319 50.7984 63.7596 50.1692 63.5894 49.8322C63.4191 49.4951 63.0333 48.866 62.7269 48.4278C62.4319 47.9896 61.9666 47.4279 61.6943 47.1695C61.4219 46.9111 60.8205 46.3942 60.3552 46.0235C59.89 45.6415 59.1751 45.1584 58.7665 44.9562C58.358 44.7427 57.5637 44.4169 57.0076 44.2371C56.4402 44.0461 55.5891 43.8439 55.1012 43.7765C54.6246 43.7091 53.887 43.6529 53.4558 43.6529C53.0359 43.6529 52.2302 43.7316 51.6741 43.8214C51.1068 43.9113 50.6415 43.9787 50.6301 43.9675C50.6074 43.945 50.6869 43.417 50.9933 41.6306L51.5039 41.552C51.7876 41.4958 52.7068 41.4621 53.5465 41.4621C54.3863 41.4621 55.4303 41.5295 55.8728 41.6194C56.3041 41.698 57.0757 41.889 57.575 42.0463C58.0743 42.2036 58.9027 42.5294 60.3552 43.2035L61.229 42.3496C61.717 41.889 62.5454 41.2149 63.0787 40.8554C63.6121 40.4959 64.327 40.0577 64.6674 39.8667C65.0078 39.6757 65.7454 39.3387 66.3128 39.1252C66.8689 38.9005 67.7654 38.6196 68.2987 38.496Z" fill="#47004C"/>
<path d="M33.6765 42.5406C33.6538 41.5969 33.6765 41.5183 33.9261 41.3497C34.0737 41.2598 34.2439 41.1812 34.312 41.1812C34.3687 41.1812 34.5389 41.2598 34.6751 41.3497C34.9134 41.507 34.9361 41.6081 34.9361 43.5406H35.9574C36.7177 43.5406 37.0241 43.5855 37.1489 43.7091C37.2397 43.799 37.3191 44.0349 37.3191 44.2147C37.3191 44.4394 37.2321 44.6079 37.0581 44.7202C36.8879 44.8326 36.5248 44.8888 34.9361 44.8888V45.8774C34.9361 46.4954 34.8907 46.9111 34.7999 47.0009C34.7205 47.0683 34.5162 47.1358 34.346 47.1358C34.1758 47.1358 33.9488 47.0571 33.8581 46.9672C33.7332 46.8436 33.6878 46.5403 33.6878 44.8888H32.7233C31.9062 44.8888 31.7247 44.8551 31.5318 44.6641C31.4069 44.5405 31.3048 44.3495 31.3048 44.2484C31.3048 44.136 31.3842 43.9338 31.475 43.799C31.6339 43.563 31.736 43.5406 33.6878 43.5406L33.6765 42.5406Z" fill="#47004C"/>
<path d="M74.733 19.0033C74.9032 18.8348 75.255 18.5876 75.5046 18.4865C75.7543 18.3742 76.0266 18.273 76.0947 18.273C76.1741 18.2618 76.4692 18.3629 77.2635 18.7112L77.8082 18.4753C78.3529 18.2281 78.3643 18.2281 78.909 18.4416C79.204 18.5652 79.6012 18.8236 79.7714 19.0258C79.953 19.2168 80.1345 19.5538 80.1686 19.7561C80.2026 19.9471 80.1799 20.3178 80.1118 20.565C80.0551 20.8122 79.7941 21.3177 79.5558 21.6885C79.3061 22.0592 78.7501 22.6772 78.3302 23.0592C77.7401 23.5872 77.4678 23.7557 77.2068 23.7557C76.9231 23.767 76.6961 23.5872 75.9245 22.7783C75.3458 22.1828 74.8351 21.5312 74.6308 21.1267C74.3471 20.5538 74.3018 20.3628 74.3585 19.8909C74.4039 19.4752 74.506 19.2393 74.733 19.0033Z" fill="#47004C"/>
<path d="M71.7031 33.0695C71.9868 32.8336 72.418 32.564 72.6677 32.4741C72.9173 32.3954 73.4507 32.3168 73.8592 32.3168C74.2677 32.3056 74.8238 32.373 75.1075 32.4741C75.3911 32.564 75.8451 32.8336 76.1288 33.0695C76.4125 33.3167 76.7415 33.6987 76.8664 33.9234C76.9912 34.1481 77.116 34.3166 77.1501 34.2942C77.1841 34.2717 77.4565 34.1369 77.7742 33.9908C78.2168 33.7774 78.5231 33.7099 79.1927 33.7099C79.8055 33.7099 80.1913 33.7774 80.5544 33.9459C80.8381 34.0695 81.292 34.3728 81.5644 34.62C81.8367 34.8559 82.1885 35.3053 82.3247 35.6199C82.5176 36.0244 82.597 36.3839 82.597 36.9119C82.597 37.5074 82.5289 37.7883 82.2225 38.4286C82.0069 38.8556 81.5644 39.5184 81.2239 39.878C80.8835 40.2375 80.3274 40.7543 79.987 41.0127C79.6466 41.2711 78.8976 41.7654 78.3416 42.1025C77.7855 42.4395 76.7756 43.0013 76.0947 43.3496C75.3117 43.7653 74.767 43.9787 74.5628 43.9563C74.3018 43.9338 74.1202 43.7091 73.2578 42.3609C72.7131 41.4958 72.0095 40.2824 71.7031 39.6645C71.4081 39.0466 71.0336 38.159 70.8861 37.6984C70.6818 37.0467 70.6251 36.5973 70.6251 35.7322C70.6251 34.7548 70.6591 34.5301 70.9088 34.0582C71.0676 33.7549 71.4194 33.3055 71.7031 33.0695Z" fill="#47004C"/>
<path d="M45.8301 38.1253C46.1138 37.8894 46.545 37.6197 46.7946 37.5298C47.0443 37.4512 47.5549 37.3726 47.9294 37.3726C48.4628 37.3613 48.7465 37.4287 49.2231 37.6647C49.5635 37.8444 49.9607 38.1253 50.0968 38.3163C50.2444 38.5073 50.4713 38.9005 50.5961 39.2151C50.755 39.5634 50.8685 40.1139 50.9025 40.6757C50.9366 41.17 50.9025 42.0014 50.8231 42.5294C50.755 43.0575 50.5848 43.8664 50.46 44.327C50.3465 44.7877 50.0741 45.6752 49.8812 46.2819C49.6543 46.9785 49.4387 47.4504 49.2911 47.5515C49.0982 47.6751 48.8372 47.6414 47.362 47.2931C46.4201 47.0796 45.274 46.765 44.8088 46.6077C44.3435 46.4504 43.6286 46.1696 43.2201 45.9786C42.7548 45.7539 42.1988 45.3494 41.7335 44.8888C41.1321 44.3046 40.9391 44.0349 40.7689 43.5069C40.576 42.9227 40.5647 42.7766 40.6895 42.2148C40.7689 41.8666 40.9732 41.3722 41.1434 41.1363C41.325 40.8891 41.6768 40.5184 41.9378 40.3161C42.2101 40.1139 42.6413 39.8892 42.9023 39.8218C43.1747 39.7544 43.6967 39.7207 44.752 39.8218L45.0357 39.1926C45.2173 38.7882 45.501 38.3949 45.8301 38.1253Z" fill="#47004C"/>
<path d="M68.6957 41.0465C69.195 40.9229 70.1595 40.7543 70.8518 40.6869C71.7482 40.5858 72.1227 40.5746 72.1908 40.6645C72.2362 40.7319 72.7241 41.4959 73.2688 42.3609C74.1199 43.7204 74.3015 43.9338 74.5625 43.9676C74.7668 43.9788 75.3115 43.7653 76.0945 43.3496C76.7753 43.0013 77.5129 42.5969 78.1711 42.1924L78.7612 42.5519C79.0903 42.7542 79.6917 43.1699 80.0889 43.4732C80.4861 43.7878 81.0988 44.3495 81.4393 44.7203C81.7684 45.0911 82.3358 45.8213 82.6989 46.3494C83.0507 46.8774 83.5386 47.765 83.7656 48.3155C84.0039 48.866 84.2989 49.7086 84.4124 50.1693C84.5372 50.6299 84.6961 51.5399 84.7642 52.1916C84.855 53.0679 84.8663 53.6971 84.7642 54.6071C84.6961 55.2924 84.5145 56.3036 84.3557 56.8541C84.1968 57.4046 83.811 58.3708 83.5159 58.9888C83.2095 59.6067 82.6535 60.5167 82.279 61.0111C81.9045 61.5054 81.2577 62.2357 80.8265 62.6401C80.3953 63.0446 79.6577 63.6176 79.1924 63.9209C78.7271 64.2243 77.9328 64.6737 77.4335 64.8984C76.9342 65.1343 76.0945 65.4489 75.5611 65.5949C75.0278 65.7522 74.1313 65.9432 73.5752 66.0106C72.9965 66.0893 72.0319 66.123 71.3624 66.0893C70.7042 66.0556 69.7624 65.9432 69.2631 65.8421C68.7638 65.741 67.8219 65.4489 67.1637 65.1905C66.5055 64.9321 65.5864 64.4827 65.1211 64.1906C64.6558 63.9097 64.2019 63.5951 64.1225 63.494C64.009 63.3479 64.0771 63.1907 64.5764 62.4941C64.9055 62.0559 65.3821 61.2807 65.6204 60.7864C65.8587 60.292 66.1878 59.5393 66.3353 59.1011C66.4828 58.6629 66.6758 57.9439 66.7665 57.5057C66.8573 57.0563 66.9708 56.1688 67.0048 55.5396C67.0502 54.8767 67.0162 53.9218 66.9481 53.3151C66.8687 52.7309 66.7098 51.8433 66.5736 51.349C66.4375 50.8546 66.1878 50.1019 66.0062 49.6637C65.8247 49.2255 65.4729 48.529 65.2119 48.0908C64.9509 47.6526 64.5651 47.0797 64.3608 46.7988C64.1452 46.5179 63.6345 45.9561 62.4544 44.7765L62.9083 44.3158C63.1579 44.0687 63.714 43.5856 64.1565 43.2597C64.5991 42.9339 65.2573 42.4845 65.6318 42.2823C66.0062 42.0688 66.6417 41.7655 67.0502 41.597C67.4588 41.4172 68.1964 41.1813 68.6957 41.0465Z" fill="#F0D9F2"/>
<path d="M50.6526 44.0237C50.7207 44.0013 51.1519 43.9114 51.6172 43.8327C52.0825 43.7429 52.8655 43.6642 53.3421 43.6642C53.83 43.653 54.6244 43.7091 55.101 43.7766C55.5889 43.844 56.4514 44.0462 57.0074 44.2372C57.5635 44.417 58.3578 44.7428 58.7663 44.9562C59.1748 45.1585 59.8898 45.6416 60.355 46.0236C60.8203 46.3943 61.4217 46.9111 61.6941 47.1695C61.9664 47.4279 62.4317 47.9897 62.7267 48.4279C63.0331 48.866 63.4189 49.4952 63.5891 49.8322C63.7594 50.1693 64.0317 50.7984 64.1792 51.2366C64.3268 51.6748 64.5197 52.45 64.6105 52.978C64.7126 53.5061 64.7807 54.3375 64.7807 54.8318C64.7807 55.3261 64.7012 56.1912 64.5991 56.7418C64.497 57.2923 64.2927 58.1012 64.1338 58.5394C63.975 58.9775 63.7026 59.6067 63.5324 59.9437C63.3508 60.2808 62.9877 60.8762 62.7154 61.2582C62.4544 61.6402 61.9664 62.2132 61.66 62.539C61.3423 62.8648 60.8316 63.3255 60.5252 63.5726C60.2075 63.8086 59.6741 64.1793 59.3337 64.3703C58.9933 64.5726 58.3465 64.8759 57.9152 65.0557C57.484 65.2242 56.7578 65.4714 56.3265 65.5837C55.7932 65.7298 54.9875 65.8196 53.8868 65.8646C52.4796 65.9095 52.0711 65.8871 51.1065 65.6848C50.4824 65.55 49.5632 65.2691 49.0639 65.0557C48.5646 64.831 47.8838 64.4939 47.5547 64.2917C47.2142 64.1007 46.6128 63.6625 46.2156 63.3479C45.8185 63.0221 45.1603 62.3368 44.7518 61.8312C44.3432 61.3144 43.7531 60.3931 43.4468 59.7752C43.1404 59.1573 42.7886 58.2697 42.6524 57.8091C42.5276 57.3484 42.3801 56.5058 42.3233 55.9553C42.2552 55.3374 42.2552 54.506 42.312 53.8207C42.3687 53.2027 42.5503 52.2365 42.7205 51.686C42.8794 51.1355 43.2198 50.2704 43.4695 49.7761C43.7191 49.2817 44.173 48.5514 44.4681 48.147C44.7745 47.7425 45.1489 47.2931 45.6142 46.855L47.3391 47.2819C48.8256 47.6414 49.098 47.6751 49.2909 47.5515C49.4384 47.4504 49.654 46.9785 49.881 46.282C50.0739 45.6753 50.3122 44.9225 50.3916 44.6192C50.4711 44.3158 50.5845 44.0462 50.6526 44.0237Z" fill="#F0D9F2"/>
<path d="M75.5612 27.3172C75.6179 26.5082 75.6633 26.2948 75.8449 26.1712C75.9697 26.0813 76.1739 26.0139 76.2988 26.0139C76.4236 26.0027 76.6165 26.0925 76.7186 26.2049C76.8662 26.3509 76.9229 26.6543 76.9796 28.3171L78.0009 28.3732C78.9542 28.4294 79.0223 28.4519 79.1925 28.7215C79.3513 28.9912 79.34 29.0473 79.1698 29.317C78.9769 29.5979 78.9201 29.6091 76.9229 29.6091V30.5304C76.9229 31.182 76.8662 31.5415 76.7527 31.71C76.6619 31.8561 76.469 31.9684 76.3328 31.9684C76.1853 31.9684 75.9697 31.901 75.8449 31.8112C75.6519 31.6763 75.6179 31.4966 75.5612 29.6091H74.5739C73.9157 29.6091 73.5299 29.5642 73.4278 29.4743C73.3483 29.3956 73.2916 29.1822 73.2803 28.9912C73.2803 28.8002 73.3483 28.5979 73.4278 28.5193C73.5072 28.4407 74.0065 28.3732 75.5044 28.3171L75.5612 27.3172Z" fill="#47004C"/>
<path d="M49.4498 30.0248C49.4385 29.3282 49.4839 29.0361 49.6314 28.8451C49.7449 28.6991 49.9264 28.5979 50.1193 28.5979C50.2896 28.5979 50.5165 28.6878 50.63 28.8002C50.7889 28.9575 50.8343 29.1709 50.8229 30.9573H51.8215C52.4683 30.9573 52.8542 31.0022 52.9563 31.0921C53.0357 31.1708 53.0925 31.4067 53.0925 31.5977C53.0925 31.8561 53.0244 32.0021 52.8655 32.0808C52.7407 32.1482 52.23 32.1931 50.8229 32.1931V33.1481C50.8229 33.957 50.7889 34.1368 50.5959 34.3278C50.4711 34.4514 50.2669 34.5525 50.142 34.5525C50.0172 34.5525 49.8129 34.4514 49.6881 34.3278C49.4952 34.1368 49.4612 33.957 49.4612 32.1931H48.5533C48.054 32.1931 47.5434 32.1482 47.4186 32.0808C47.271 32.0021 47.1803 31.8449 47.1689 31.5977C47.1576 31.3955 47.2143 31.1708 47.3051 31.0921C47.4072 31.0135 47.8498 30.9573 49.4612 30.9573L49.4498 30.0248Z" fill="#47004C"/>
<path d="M67.5269 29.3732C67.6063 29.272 67.7539 29.1597 67.8446 29.126C67.9354 29.0923 68.117 29.0923 68.2418 29.126C68.3666 29.1597 68.5369 29.2608 68.6163 29.3732C68.7071 29.4855 68.7525 29.9012 68.7525 31.4067H69.6943C70.2731 31.4067 70.6929 31.4516 70.8064 31.5415C70.9199 31.6202 71.0334 31.7999 71.0674 31.9347C71.1128 32.1145 71.0561 32.2718 70.8518 32.474C70.6022 32.7324 70.4887 32.7549 68.7525 32.7549V33.6762C68.7525 34.2492 68.6957 34.6873 68.6163 34.8221C68.5142 34.957 68.3326 35.0356 68.0716 35.0356C67.8106 35.0356 67.629 34.957 67.5269 34.8221C67.4475 34.6873 67.3907 34.2492 67.3907 32.7549H66.5169C65.9155 32.7549 65.5524 32.6987 65.3822 32.5864C65.2119 32.474 65.1212 32.3055 65.1212 32.1033C65.1212 31.9347 65.2119 31.71 65.3254 31.5977C65.4843 31.4404 65.6999 31.3955 67.3907 31.4067V30.4742C67.3907 29.9012 67.4361 29.4855 67.5269 29.3732Z" fill="#47004C"/>
<path d="M36.3998 32.7774C36.3885 32.137 36.4339 31.8449 36.5814 31.6539C36.6949 31.4966 36.8878 31.4067 37.092 31.4067C37.2849 31.4067 37.5119 31.4853 37.6027 31.5752C37.7275 31.6988 37.7729 32.0022 37.7729 33.6537H38.6807C39.4978 33.6537 39.6226 33.6762 39.8723 33.9346C40.0765 34.1368 40.1333 34.2829 40.0879 34.4626C40.0538 34.6087 39.9403 34.7884 39.8269 34.8671C39.7134 34.957 39.2935 35.0019 37.7729 35.0019V35.9232C37.7729 36.4962 37.7162 36.9343 37.6367 37.0691C37.5459 37.1927 37.3417 37.2826 37.1261 37.2938C36.9218 37.2938 36.6949 37.2377 36.6154 37.159C36.5246 37.0691 36.4566 36.6534 36.4112 35.0019H35.4466C34.743 35.0019 34.4366 34.957 34.3118 34.8334C34.221 34.7435 34.1416 34.5076 34.1416 34.3278C34.1416 34.1031 34.2286 33.9346 34.4026 33.8222C34.5728 33.7099 34.9359 33.6537 36.4112 33.6537L36.3998 32.7774Z" fill="#47004C"/>
<path d="M58.0742 35.6985C58.0628 35.0581 58.1082 34.766 58.2557 34.575C58.3806 34.4064 58.5508 34.3278 58.8231 34.3278C59.1068 34.3278 59.2543 34.3952 59.3338 34.5525C59.4019 34.6761 59.4473 35.1817 59.4473 36.5748H60.4118C61.2289 36.5748 61.4104 36.6085 61.6033 36.7995C61.7282 36.9231 61.8303 37.1253 61.8303 37.2489C61.8303 37.3725 61.7282 37.5747 61.6033 37.6983C61.4104 37.8893 61.2289 37.923 59.4473 37.923V38.878C59.4473 39.6869 59.4132 39.8667 59.2203 40.0577C59.0955 40.1812 58.9479 40.2824 58.8799 40.2824C58.8231 40.2824 58.6416 40.2149 58.4827 40.1363C58.3238 40.0689 58.1763 39.9004 58.1423 39.7768C58.1196 39.6532 58.0855 39.1813 58.0855 37.923H57.155C56.4174 37.923 56.1677 37.8781 56.0089 37.7208C55.8954 37.6197 55.8159 37.4062 55.8159 37.2489C55.8159 37.0916 55.9067 36.8781 56.0202 36.7658C56.1791 36.6085 56.3947 36.5636 58.0855 36.5748L58.0742 35.6985Z" fill="#47004C"/>
<path d="M41.5756 19.4752C41.7458 19.3291 42.0635 19.1606 42.2905 19.0819C42.5175 19.0145 42.7785 18.9471 42.8579 18.9471C42.926 18.9359 43.2097 19.0145 43.482 19.1156C43.8452 19.2505 44.0267 19.2729 44.2423 19.1831C44.4012 19.1156 44.6622 19.037 44.8324 19.0033C44.9913 18.9696 45.309 18.9921 45.536 19.0482C45.7629 19.1156 46.1261 19.3291 46.353 19.5313C46.7048 19.8347 46.7729 19.9807 46.8296 20.5088C46.875 21.0368 46.841 21.2278 46.5573 21.8008C46.3303 22.2727 45.9332 22.7558 45.2636 23.4074C44.7303 23.9242 44.1856 24.3624 44.0494 24.3961C43.8905 24.4186 43.6409 24.3399 43.4253 24.1939C43.221 24.0478 42.7104 23.5422 42.2905 23.0704C41.8706 22.5873 41.4167 22.003 41.3032 21.7783C41.1898 21.5424 41.0536 21.1716 41.0195 20.9469C40.9742 20.6998 41.0195 20.3852 41.1217 20.138C41.2125 19.9021 41.4167 19.61 41.5756 19.4752Z" fill="#47004C"/>
<path d="M58.3704 26.497C58.586 26.3173 58.881 26.1488 59.0172 26.1038C59.1647 26.0701 59.4144 26.0364 59.5846 26.0252C59.7662 26.0139 60.0952 26.0926 60.3222 26.1825C60.708 26.3398 60.7875 26.3398 61.0939 26.1825C61.2754 26.0926 61.6159 26.0139 61.8315 26.0139C62.0471 26.0139 62.4556 26.1263 62.7279 26.2611C63.023 26.4184 63.3067 26.6768 63.4315 26.9127C63.5563 27.1262 63.6471 27.5082 63.6471 27.7554C63.6471 28.025 63.5223 28.4519 63.3407 28.8227C63.1592 29.171 62.6145 29.8675 62.0584 30.4405C61.2527 31.2607 61.0371 31.4292 60.7534 31.4292C60.4811 31.4292 60.2314 31.2494 59.5279 30.5416C59.0399 30.0585 58.4952 29.4406 58.3136 29.1597C58.1434 28.8789 57.9278 28.4295 57.8484 28.1486C57.7462 27.7554 57.7349 27.5419 57.837 27.2273C57.9165 26.9801 58.1434 26.6768 58.3704 26.497Z" fill="#47004C"/>
</svg>
