<svg width="120" height="88" viewBox="0 0 120 88" fill="none" xmlns="http://www.w3.org/2000/svg">
<rect y="0.924194" width="120" height="86.087" rx="13.913" fill="#FDF4FE"/>
<path d="M66.9766 33.532C67.676 34.2342 68.202 35.0899 68.5128 36.031L69.5181 39.1195C69.6026 39.3571 69.7586 39.5627 69.9646 39.708C70.1706 39.8534 70.4165 39.9314 70.6687 39.9314C70.9208 39.9314 71.1668 39.8534 71.3728 39.708C71.5788 39.5627 71.7348 39.3571 71.8193 39.1195L72.8246 36.031C73.1369 35.0919 73.6642 34.2386 74.3643 33.5391C75.0645 32.8396 75.9184 32.3132 76.8578 32.0018L79.9463 30.9986C80.1839 30.9141 80.3895 30.7581 80.5348 30.5521C80.6802 30.3461 80.7582 30.1001 80.7582 29.8479C80.7582 29.5958 80.6802 29.3498 80.5348 29.1438C80.3895 28.9378 80.1839 28.7818 79.9463 28.6973L79.8858 28.6812L76.7952 27.6779C75.8561 27.366 75.0026 26.8394 74.3024 26.14C73.6023 25.4406 73.0749 24.5876 72.762 23.6487L71.7587 20.5602C71.6752 20.3217 71.5195 20.1151 71.3134 19.969C71.1073 19.8228 70.8608 19.7443 70.6081 19.7443C70.3554 19.7443 70.109 19.8228 69.9028 19.969C69.6967 20.1151 69.5411 20.3217 69.4575 20.5602L68.4522 23.6487L68.426 23.7254C68.1121 24.641 67.5935 25.4729 66.9096 26.1579C66.2258 26.8428 65.3947 27.3627 64.4796 27.6779L61.391 28.6812C61.1535 28.7657 60.9479 28.9217 60.8025 29.1277C60.6572 29.3337 60.5791 29.5797 60.5791 29.8318C60.5791 30.0839 60.6572 30.3299 60.8025 30.5359C60.9479 30.7419 61.1535 30.8979 61.391 30.9824L64.4796 31.9857C65.4223 32.3006 66.2761 32.8295 66.9766 33.532ZM84.4378 40.6557L86.2909 41.2573L86.3292 41.2653C86.4727 41.3151 86.5971 41.4083 86.6851 41.5321C86.7732 41.6558 86.8205 41.8039 86.8205 41.9557C86.8205 42.1076 86.7732 42.2556 86.6851 42.3794C86.5971 42.5031 86.4727 42.5963 86.3292 42.6461L84.4741 43.2497C83.911 43.4369 83.3993 43.7527 82.9795 44.1721C82.5597 44.5916 82.2435 45.103 82.0558 45.666L81.4522 47.5191C81.4015 47.6616 81.3079 47.7849 81.1843 47.8722C81.0607 47.9594 80.9131 48.0062 80.7619 48.0062C80.6106 48.0062 80.463 47.9594 80.3394 47.8722C80.2158 47.7849 80.1222 47.6616 80.0715 47.5191L79.4679 45.666C79.2817 45.1011 78.9661 44.5875 78.5462 44.1662C78.1264 43.745 77.6138 43.4276 77.0496 43.2396L75.1945 42.638C75.051 42.5882 74.9266 42.495 74.8386 42.3713C74.7505 42.2476 74.7032 42.0995 74.7032 41.9476C74.7032 41.7958 74.7505 41.6477 74.8386 41.524C74.9266 41.4003 75.051 41.307 75.1945 41.2573L77.0496 40.6537C77.606 40.4617 78.1104 40.1437 78.5236 39.7246C78.9368 39.3054 79.2476 38.7965 79.4316 38.2374L80.0351 36.3843C80.0859 36.2418 80.1794 36.1184 80.303 36.0312C80.4267 35.944 80.5742 35.8971 80.7255 35.8971C80.8768 35.8971 81.0244 35.944 81.148 36.0312C81.2716 36.1184 81.3652 36.2418 81.4159 36.3843L82.0174 38.2374C82.205 38.8007 82.5215 39.3125 82.9417 39.7319C83.3619 40.1514 83.8742 40.4691 84.4378 40.6557ZM54.0513 26.8038C55.2636 26.0554 56.6433 25.6207 58.0656 25.5389C59.488 25.4572 60.9084 25.7309 62.1985 26.3355L60.7552 26.8119C60.1095 27.0274 59.5503 27.445 59.1605 28.0029C58.768 28.5464 58.5567 29.1998 58.5567 29.8702C58.5567 30.5405 58.768 31.1939 59.1605 31.7374C59.5379 32.2885 60.083 32.7063 60.7148 32.9284L63.8639 33.9377C64.4937 34.1597 65.065 34.517 65.5393 34.9874C65.6726 35.1166 65.7937 35.2599 65.9027 35.4113C66.2082 35.7966 66.4408 36.2344 66.589 36.7032L67.5983 39.7917C67.8256 40.4367 68.2403 40.999 68.7893 41.4066C69.3416 41.7868 69.9962 41.9904 70.6667 41.9904C71.3371 41.9904 71.9918 41.7868 72.544 41.4066L72.8064 41.1846C72.73 41.4332 72.6899 41.6916 72.6873 41.9517C72.6934 42.5209 72.869 43.0761 73.192 43.5464C73.5174 44.0115 73.9849 44.3586 74.5243 44.5355L76.4218 45.1613C76.681 45.2461 76.9162 45.3914 77.1081 45.5852L77.1344 45.6094L63.2542 54.6872C61.8584 55.6 60.2267 56.0862 58.5589 56.0862C56.8911 56.0862 55.2594 55.6 53.8636 54.6872L36.3519 43.2375V55.5774C36.3519 55.979 36.1924 56.3641 35.9085 56.648C35.6246 56.9319 35.2395 57.0914 34.8379 57.0914C34.4364 57.0914 34.0513 56.9319 33.7674 56.648C33.4835 56.3641 33.324 55.979 33.324 55.5774V40.9424C33.324 40.8556 33.332 40.7708 33.3442 40.69C33.2941 40.3929 33.3338 40.0877 33.4583 39.8133C33.5827 39.5389 33.7861 39.3079 34.0426 39.1498L54.0513 26.8038ZM42.4078 50.8135L52.2042 57.2186C54.0928 58.4536 56.3004 59.1113 58.5569 59.1113C60.8134 59.1113 63.021 58.4536 64.9095 57.2186L74.706 50.8155V60.624C74.706 61.2276 74.3789 61.591 73.9934 61.9684C73.8016 62.1542 73.5271 62.4125 73.1678 62.7194C72.1958 63.5486 71.1559 64.2947 70.0591 64.95C67.3702 66.5649 63.444 68.1939 58.5569 68.1939C53.6718 68.1939 49.7435 66.5649 47.0547 64.95C45.9579 64.2947 44.918 63.5486 43.946 62.7194C43.6621 62.4781 43.3861 62.2276 43.1184 61.9684C42.7348 61.591 42.4078 61.2276 42.4078 60.624V50.8135Z" fill="#47004C"/>
</svg>
