<svg width="120" height="88" viewBox="0 0 120 88" fill="none" xmlns="http://www.w3.org/2000/svg">
<rect y="0.967651" width="120" height="86.087" rx="13.913" fill="#FDF4FE"/>
<g clip-path="url(#clip0_233_876)">
<path d="M45.8755 28.3019C45.3019 28.4679 44.4265 28.8151 43.8982 29.0717C43.385 29.3434 42.585 29.8415 42.1321 30.1887C41.6793 30.5509 40.8189 31.3358 40.2302 31.9396C39.6416 32.5585 38.7661 33.6 38.268 34.2641C37.785 34.9283 36.5019 36.8302 35.4302 38.4905C34.3434 40.1509 33.1963 41.8868 32.8642 42.3396C32.5321 42.7924 31.9133 43.5321 31.5057 43.9849C31.0831 44.4226 30.4642 44.966 30.1321 45.1924C29.634 45.5094 29.3623 45.5698 28.5472 45.5547C28.0038 45.5396 27.2642 45.4641 26.8868 45.3585C26.5095 45.2679 25.9208 45.0113 25.5585 44.8151C25.2114 44.6188 24.7585 44.1962 24.5472 43.8792C24.351 43.5773 24.0944 42.9132 24.0038 42.4151C23.9133 41.8717 23.717 41.3736 23.5208 41.1773C23.3397 40.9811 23.0378 40.8 22.8416 40.7547C22.6604 40.7094 22.268 40.7849 21.9812 40.9056C21.629 41.0566 21.3774 41.3082 21.2265 41.6604C21.0755 42.0126 21 42.6918 21 43.6981C21 44.6188 21.1208 45.8415 21.317 46.8377C21.4982 47.7283 21.8 48.9207 22.0114 49.5094C22.2227 50.083 22.5699 50.8981 22.7812 51.3207C22.9774 51.7283 23.4151 52.4528 23.717 52.9056C24.034 53.3585 24.6076 54.0981 25.0151 54.5509C25.4227 55.0037 26.2982 55.7736 26.9623 56.2717C27.6265 56.7698 28.7736 57.4641 29.5283 57.8113C30.268 58.1736 31.4604 58.6415 32.1699 58.8528C32.8793 59.0641 34.0567 59.3358 34.8114 59.4566C35.551 59.5773 36.668 59.7585 37.2566 59.8339C37.8604 59.9245 39.2038 60 40.2453 60C41.2868 60 43.2793 59.8641 44.6982 59.6981C46.1019 59.5321 47.9283 59.2453 48.7283 59.0792C49.5434 58.8981 50.8868 58.5207 51.717 58.2339C52.5472 57.9471 53.5585 57.5396 53.9812 57.3283C54.3887 57.117 55.2793 56.5887 55.9434 56.1509C56.6076 55.7132 57.5283 54.9585 57.9812 54.4754C58.434 53.9773 58.9925 53.3434 59.2189 53.0566L59.6416 52.5283C60.2906 53.3434 60.8491 53.9773 61.3019 54.4754C61.7548 54.9585 62.6755 55.7132 63.3397 56.1509C64.0038 56.5887 64.8793 57.117 65.3019 57.3283C65.7095 57.5396 66.7359 57.9471 67.5661 58.2339C68.3963 58.5207 69.7397 58.8981 70.5397 59.0792C71.3548 59.2453 73.1661 59.5321 74.585 59.6981C75.9887 59.8641 77.9963 60 79.0378 60C80.0793 60 81.4227 59.9245 82.0114 59.8339C82.6151 59.7585 83.717 59.5773 84.4717 59.4566C85.2114 59.3358 86.4038 59.0641 87.1133 58.8528C87.8227 58.6415 89 58.1736 89.7548 57.8113C90.4944 57.4641 91.6567 56.7698 92.3208 56.2717C92.985 55.7736 93.8604 55.0037 94.268 54.5509C94.6755 54.0981 95.2793 53.3283 95.6114 52.8302C95.9585 52.3321 96.4416 51.4415 96.7133 50.8679C96.985 50.2792 97.3321 49.3283 97.5133 48.7547C97.6793 48.166 97.9359 47.0792 98.0566 46.3396C98.1774 45.5849 98.2831 44.317 98.2831 43.5019C98.2831 42.5056 98.2076 41.8868 98.0566 41.5849C97.9359 41.3283 97.6189 41.0264 97.3774 40.9056C97.1208 40.7849 96.7434 40.7094 96.5019 40.7547C96.2755 40.8 95.9434 40.9811 95.7623 41.1622C95.5661 41.3736 95.3699 41.8717 95.2793 42.4151C95.1887 42.9132 94.9321 43.5773 94.7359 43.8792C94.5246 44.1962 94.0717 44.6188 93.7095 44.8151C93.3623 45.0113 92.8038 45.2528 92.4717 45.3434C92.1397 45.4339 91.3849 45.5245 90.8114 45.5396C89.9057 45.5698 89.6642 45.5245 89.151 45.1773C88.8189 44.966 88.2 44.4226 87.7774 43.9849C87.3699 43.5321 86.751 42.7924 86.4189 42.3396C86.0868 41.8868 84.9397 40.1509 83.8529 38.4905C82.7812 36.8302 81.4982 34.9283 81.0151 34.2641C80.517 33.6 79.6416 32.5585 79.0529 31.9396C78.4642 31.3358 77.6038 30.5509 77.151 30.1887C76.6982 29.8415 75.8982 29.3434 75.3699 29.0717C74.8567 28.8151 73.9057 28.4679 73.2567 28.2868C72.3057 28.0302 71.8378 27.9849 70.6604 28.0604C69.8755 28.1056 68.6831 28.2415 68.0189 28.3773C67.3548 28.4981 66.3736 28.7547 65.8302 28.9207C65.2868 29.1019 64.3359 29.5094 63.717 29.8415C63.0982 30.1736 62.2831 30.6868 61.9057 30.9736C61.5283 31.2604 60.8642 31.8943 60.4265 32.3622L59.6416 33.2075C58.4189 31.8943 57.7548 31.2604 57.3774 30.9736C57 30.6868 56.185 30.1736 55.5661 29.8415C54.9472 29.5094 53.9963 29.1019 53.4529 28.9207C52.9095 28.7547 51.9283 28.4981 51.2642 28.3773C50.6 28.2415 49.3472 28.1056 48.4717 28.0754C47.2038 28.0302 46.6755 28.0754 45.8604 28.3019H45.8755Z" fill="#47004C"/>
</g>
<defs>
<clipPath id="clip0_233_876">
<rect width="77.283" height="32" fill="white" transform="translate(21 28)"/>
</clipPath>
</defs>
</svg>
