<svg width="120" height="87" viewBox="0 0 120 87" fill="none" xmlns="http://www.w3.org/2000/svg">
<rect y="0.880615" width="120" height="86.087" rx="13.913" fill="#FDF4FE"/>
<path d="M19.0989 35.0018C19.7872 34.6704 20.7305 34.3135 21.1384 34.2115C21.5463 34.1095 22.5405 34.033 23.3054 34.0076C24.0702 33.9821 25.3449 34.1605 26.1097 34.39C26.8745 34.5939 28.1237 35.2058 28.8885 35.7157C29.6279 36.2255 30.6221 37.1688 31.081 37.8062C31.5399 38.4435 32.1008 39.3868 32.3302 39.8967C32.7381 40.8654 32.7381 40.8654 32.0498 41.3498C31.6419 41.6048 30.9026 41.9617 29.4239 42.3951L28.8376 41.0439C28.5061 40.3046 27.8688 39.4123 27.3589 39.0299C26.9 38.6475 26.0587 38.1631 25.5233 37.9591C25.0135 37.7297 24.0447 37.5512 23.3818 37.5512C22.6935 37.5512 21.6483 37.8062 21.0109 38.0866C20.3736 38.367 19.5832 38.8514 19.2518 39.1573C18.9204 39.4633 18.385 40.2791 18.0536 40.9929C17.6457 41.8597 17.4417 42.7265 17.4417 43.6698C17.4417 44.4856 17.6457 45.5053 17.9261 46.0917C18.1811 46.6526 18.7929 47.4684 19.2518 47.9273C19.7362 48.3862 20.552 48.9215 21.0874 49.1255C21.5973 49.3549 22.668 49.5334 23.4328 49.5334C24.1977 49.5334 25.2684 49.3549 25.8038 49.1255C26.4156 48.8451 27.5374 48.6921 29.0925 48.6666C30.3927 48.6666 31.4634 48.7176 31.4634 48.8196C31.4634 48.947 30.9791 49.5589 30.3672 50.1962C29.7553 50.8591 28.6591 51.6749 27.7668 52.0828C26.9255 52.4652 26.0332 52.8731 25.7783 52.9496C25.4469 53.0771 25.3449 53.4085 25.3449 55.9069H30.1887V59.476H25.3449V66.1045L21.9032 65.977L21.7757 59.476H16.9319V55.9069H21.7757V53.1025L20.5775 52.7201C19.8892 52.4907 18.8949 52.0573 18.334 51.7259C17.7732 51.3945 16.8554 50.6296 16.32 50.0178C15.7591 49.4059 15.0198 48.2587 14.6629 47.4939C14.102 46.2957 14.0001 45.7348 14.0001 43.5423C14.0001 41.2478 14.0765 40.8399 14.7394 39.4633C15.1728 38.622 16.0141 37.4237 16.6514 36.7864C17.3143 36.1491 18.385 35.3332 19.0989 35.0018Z" fill="#47004C"/>
<path d="M34.0893 53.9948C34.0893 50.6296 34.1148 47.7233 34.1913 47.5194C34.2933 47.2389 35.0326 47.1879 38.0664 47.2899C41.4316 47.3664 41.8905 47.4429 42.9102 48.0038C43.5731 48.3862 44.2359 49.0235 44.5164 49.5334C44.7713 50.0178 44.9753 50.9101 44.9753 51.4964C44.9753 52.1083 44.7968 52.9751 44.5674 53.4085C44.3379 53.8674 43.879 54.4792 42.8847 55.2695L44.1849 57.4875C44.8988 58.7367 45.4851 59.833 45.4851 59.9859C45.4851 60.1389 44.5419 60.2409 40.8962 60.2409L39.8765 58.0739C39.3156 56.8757 38.7292 55.9069 38.6018 55.9069C38.4488 55.9069 38.3468 56.7992 38.3468 60.2409L34.1403 60.1134L34.0893 53.9948Z" fill="#47004C"/>
<path d="M46.5049 60.2409V53.7399V47.2389H55.4278V50.5532H50.5839V52.0828H55.1728V55.397H50.5839V56.9266H55.6827V60.2409H46.5049Z" fill="#47004C"/>
<path d="M58.5635 53.9948C57.2888 50.6296 56.2181 47.7233 56.2181 47.5449C56.1926 47.3154 56.779 47.2389 60.5266 47.2389L61.6993 50.8591C62.3367 52.8986 62.9485 54.4027 63.076 54.2498C63.178 54.0968 63.7388 52.4652 65.3704 47.2389H67.5374C68.7356 47.2389 69.7044 47.3154 69.7044 47.4174C69.7299 47.5449 68.6592 50.4767 64.988 60.2664L60.909 60.1134L58.5635 53.9948Z" fill="#47004C"/>
<path d="M70.7242 53.7909V47.3664C70.7242 47.2899 72.7382 47.2389 79.6471 47.2389V50.5532H74.8032V52.0828H79.3921V55.397H74.8032V56.9266H79.902V60.2409L70.6987 60.1134L70.7242 53.7909Z" fill="#47004C"/>
<path d="M82.5789 53.6124C83.7771 50.1707 84.7459 47.3409 84.7459 47.2899C84.7714 47.2644 85.8166 47.2644 89.4113 47.3664L91.5528 53.485C92.7255 56.8502 93.6688 59.7565 93.6688 59.9094C93.6688 60.1644 93.0569 60.2409 89.3348 60.2409L88.8249 58.4563H85.0008L84.7459 60.2409H82.5789C81.3807 60.2409 80.4119 60.1644 80.4119 60.0369C80.4119 59.9349 81.3807 57.0541 82.5789 53.6124Z" fill="#47004C"/>
<path d="M94.3571 53.8419C94.3316 50.3237 94.3571 47.3919 94.4081 47.3409C94.4591 47.2899 95.4278 47.2389 98.5126 47.2389V56.6717H102.847V60.2409H94.4336L94.3571 53.8419Z" fill="#47004C"/>
<path d="M35.0326 25.5692V23.7846V22H44.7203V31.6877H41.1512L41.1257 27.9911L39.851 29.3933C39.1626 30.1581 38.2958 31.1268 37.3526 32.3251L38.0409 33.7272C38.6528 34.9764 38.7292 35.4353 38.7292 37.6788C38.7292 39.9223 38.6528 40.4067 38.0409 41.7069C37.633 42.4972 36.7662 43.7464 36.0524 44.4347C35.3385 45.1485 34.1148 46.0153 33.3245 46.4232C32.0243 47.0351 31.5399 47.1116 29.2965 47.1116C27.155 47.1116 26.5431 47.0096 25.4724 46.5252C24.784 46.1938 23.7388 45.5564 23.2034 45.123C22.6425 44.6642 21.7502 43.6189 21.2149 42.7776C20.6795 41.9363 20.2461 40.993 20.2461 40.6871C20.2461 40.2537 20.5265 39.9478 21.2659 39.5909C21.8267 39.3104 22.566 39.081 22.923 39.081C23.4073 39.081 23.5858 39.2339 23.6878 39.7693C23.7643 40.1772 24.1977 40.942 24.6566 41.5029C25.1154 42.0638 26.0842 42.8031 26.7726 43.1345C27.8178 43.6444 28.3022 43.7209 29.7299 43.6444C31.1065 43.5679 31.6164 43.3895 32.5087 42.7776C33.1206 42.3442 33.9619 41.5029 34.3698 40.9165C35.0071 39.9988 35.1856 39.4889 35.262 38.1122C35.3385 36.6845 35.262 36.2001 34.7522 35.1549C34.4207 34.4666 33.7324 33.5488 33.2225 33.1154C32.7127 32.682 31.8459 32.1721 31.3105 32.0191C30.7751 31.8407 29.8318 31.6877 29.22 31.6877C28.6336 31.6877 27.7158 31.8662 27.1805 32.0956C26.5431 32.4015 25.4469 32.529 23.7643 32.5545C22.3876 32.58 21.2659 32.5035 21.2659 32.3761C21.2659 32.2741 21.8012 31.6622 22.4641 30.9739C23.1524 30.311 24.3761 29.4187 25.2174 29.0108C26.6196 28.3225 26.9765 28.246 29.2965 28.246C31.5909 28.246 31.9988 28.3225 34.9051 29.7247L36.1288 28.348C36.7917 27.5832 37.5565 26.6654 38.3468 25.5692H35.0326Z" fill="#E53AF1"/>
<path d="M39.0352 34.798C38.7802 34.0077 38.4998 33.1919 38.4233 33.0389C38.3213 32.784 38.7547 32.7075 40.1569 32.7075C41.2021 32.7075 42.5278 32.8604 43.1142 33.0899C43.7261 33.2938 44.5674 33.7272 44.9753 34.0587C45.4087 34.3646 45.7401 34.6705 45.7656 34.747C45.7656 34.8235 45.1792 35.3588 43.1907 37.0415L41.967 36.5061C41.2531 36.1747 40.5138 36.0217 40.1314 36.0982C39.545 36.2256 39.4686 36.1237 39.0352 34.798Z" fill="#E53AF1"/>
<path d="M47.2697 45.7094V39.2084V32.7075H56.4475V36.0217L53.9491 36.0982L53.943 36.0983C51.5017 36.1492 51.4762 36.1497 51.4762 36.7865C51.4762 37.4232 51.5017 37.4239 56.1773 37.5509L56.1926 37.5513V40.8655H51.3488L51.4762 42.2677L56.7025 42.3952L56.575 45.5819L47.2697 45.7094Z" fill="#E53AF1"/>
<path d="M57.7222 45.7094V39.2084L57.7477 32.682L62.1837 32.8349L63.8408 36.0982C64.7586 37.8828 65.5744 39.2594 65.7019 39.1575C65.8038 39.0555 65.8803 37.5513 65.8803 32.7075H69.9594V45.7094L65.4979 45.5819L63.8918 42.6501C62.9995 41.044 62.1582 39.5909 61.9797 39.4124C61.7503 39.1575 61.6993 39.8458 61.8013 45.7094H57.7222Z" fill="#E53AF1"/>
<path d="M70.9536 45.7349L71.0046 39.1829L71.0301 32.6565L74.6248 32.784C77.5311 32.8859 78.4743 33.0134 79.4941 33.4468C80.2079 33.7527 81.1002 34.3136 81.4571 34.696C81.8396 35.0784 82.3494 35.8687 82.5789 36.4296C82.8593 37.0415 83.0123 38.1377 83.0378 39.2339C83.0378 40.6106 82.9103 41.2735 82.4259 42.2677C82.069 42.9561 81.4062 43.8483 80.8963 44.2308C80.4119 44.6132 79.3157 45.123 78.4743 45.327C77.5311 45.5819 75.8485 45.7349 70.9536 45.7349Z" fill="#E53AF1"/>
<path d="M83.6751 39.3869C83.6496 35.8942 83.7261 32.9879 83.8536 32.8859C83.9556 32.784 86.0461 32.7075 92.9039 32.7075V36.0217H88.0601V37.5513H92.649V40.8655H88.0601V42.3952H93.1589V45.7094H83.7261L83.6751 39.3869Z" fill="#E53AF1"/>
<path d="M93.9237 45.7094L93.9492 39.1829L93.9747 32.6565L97.6968 32.7585C100.909 32.8349 101.623 32.9369 102.643 33.4213C103.586 33.8547 103.968 34.2371 104.376 35.0784C104.657 35.6648 104.886 36.5316 104.886 36.9905C104.886 37.4494 104.708 38.2142 104.504 38.6986C104.3 39.1829 103.79 39.8713 102.719 40.8655L104.045 43.0325C104.784 44.2308 105.396 45.327 105.396 45.4545C105.396 45.6074 104.453 45.7094 100.807 45.7094L99.7873 43.5424C99.2264 42.3442 98.6401 41.3754 98.5126 41.3754C98.3597 41.3754 98.2577 42.2677 98.2577 45.7094H93.9237Z" fill="#E53AF1"/>
<path d="M40.8962 39.7438C40.8452 39.081 40.8707 38.3416 40.9727 38.1632C41.1002 37.9082 41.7885 37.8063 46.25 37.8063V43.6699L45.4087 44.3072C44.9753 44.6387 44.083 45.0976 43.4456 45.327C42.7828 45.5819 41.4826 45.7604 40.3863 45.7859C39.3411 45.7859 38.0409 45.6584 37.5055 45.5055C36.9956 45.327 36.5622 45.1485 36.5622 45.0721C36.5622 44.9956 36.9447 44.4602 37.378 43.8483C37.8369 43.2365 38.3213 42.5227 38.4743 42.2677C38.6782 41.8853 38.8312 41.8598 39.2901 42.1148C39.6215 42.2677 40.2079 42.3952 40.6413 42.3952C41.0492 42.3952 41.5846 42.3442 41.7885 42.2677C41.9925 42.1912 42.1709 41.8598 42.1709 41.5029C42.1709 40.993 42.0434 40.891 41.5846 40.942C41.0747 40.993 40.9982 40.8655 40.8962 39.7438Z" fill="#E53AF1"/>
<path d="M98.7675 38.3161C98.3341 38.3161 98.2577 38.1376 98.2577 37.1688C98.2577 36.0471 98.2832 36.0216 99.099 36.0216C99.5324 36.0216 100.068 36.1491 100.246 36.3275C100.425 36.506 100.552 36.9139 100.552 37.2198C100.552 37.6022 100.323 37.9082 99.9148 38.0611C99.5579 38.2141 99.048 38.3161 98.7675 38.3161Z" fill="white"/>
<path d="M75.3131 42.1402V39.2084V36.2765H76.3328C77.0212 36.2765 77.5565 36.455 78.0154 36.8374C78.4743 37.2453 78.7038 37.7807 78.8058 38.571C78.9077 39.2848 78.8312 40.0242 78.6018 40.585C78.3978 41.0439 77.939 41.6048 77.5565 41.7832C77.1486 41.9872 76.5113 42.1402 75.3131 42.1402Z" fill="white"/>
<path d="M38.8567 52.8476C38.4233 52.8476 38.3468 52.6692 38.3468 51.7004C38.3468 50.5787 38.3723 50.5532 39.1626 50.5532C39.6215 50.5532 40.1569 50.6806 40.3353 50.8591C40.5138 51.0376 40.6413 51.4455 40.6413 51.7514C40.6413 52.1338 40.4118 52.4397 40.0039 52.5927C39.647 52.7457 39.1371 52.8476 38.8567 52.8476Z" fill="white"/>
<path d="M86.1225 54.8362C86.1735 54.6577 86.352 54.0204 86.5049 53.434C86.6579 52.8221 86.9128 52.3378 87.0658 52.3378C87.1933 52.3378 87.4227 52.8476 87.5502 53.485C87.7032 54.1223 87.8051 54.7342 87.8051 54.8872C87.8051 55.0401 87.3972 55.1421 86.9128 55.1421C86.318 55.1421 86.0545 55.0401 86.1225 54.8362Z" fill="white"/>
</svg>
