<svg width="120" height="88" viewBox="0 0 120 88" fill="none" xmlns="http://www.w3.org/2000/svg">
<rect y="0.924194" width="120" height="86.087" rx="13.913" fill="#FDF4FE"/>
<path d="M39.6052 20.0148C39.6694 19.9667 39.8458 19.8624 39.9982 19.7983C40.1506 19.7341 40.3109 19.678 40.3591 19.678C40.4072 19.678 40.5836 19.7421 40.76 19.8223C40.9365 19.9025 41.2091 20.103 41.3615 20.2794C41.5138 20.4478 41.7223 20.7045 41.8186 20.8328C41.9148 20.9691 42.003 21.0573 42.0191 21.0332C42.0351 21.0092 42.1794 20.7846 42.3479 20.536C42.5082 20.2794 42.7248 20.0148 42.829 19.9506C42.9252 19.8785 43.0776 19.8303 43.1578 19.8464C43.246 19.8624 43.3423 19.9587 43.3663 20.0709C43.3984 20.1832 43.4465 20.6162 43.4786 21.0332C43.5107 21.4502 43.5909 22.0196 43.655 22.3003C43.7111 22.573 43.8475 22.9499 43.9437 23.1423C44.0319 23.3268 44.3767 23.9282 44.6895 24.4816C45.0103 25.0349 45.3792 25.7005 45.5155 25.9651C45.6438 26.2298 45.8523 26.727 45.9646 27.0718C46.0768 27.4086 46.2132 27.97 46.2613 28.3148C46.3094 28.6516 46.3254 29.2049 46.3014 29.5337C46.2693 29.8625 46.1731 30.3838 46.0688 30.6965C45.9726 31.0093 45.8122 31.3862 45.716 31.5386C45.6278 31.6909 45.3711 31.9876 45.1546 32.1881C44.9461 32.3886 44.5692 32.6452 44.3286 32.7575C44.048 32.8858 43.7913 33.0863 43.6149 33.3108C43.4625 33.5033 43.3022 33.6958 43.2701 33.7439C43.222 33.792 43.222 33.7599 43.2621 33.6717C43.3262 33.5193 43.3182 33.5193 43.0455 33.6637C42.8932 33.7439 42.5323 33.8561 42.2436 33.9123C41.9549 33.9684 41.6502 33.9845 41.562 33.9604C41.4737 33.9363 41.1851 33.9283 40.9204 33.9444C40.6558 33.9604 40.0784 33.9764 39.6373 33.9845C38.8755 33.9845 38.8033 33.9684 38.2821 33.7038C37.9292 33.5273 37.6004 33.2787 37.3679 33.0221C37.1754 32.8056 36.9509 32.4929 36.8707 32.3405C36.7905 32.1881 36.6541 31.8593 36.5579 31.6187C36.4697 31.3782 36.3253 30.889 36.2532 30.5361C36.165 30.1191 36.1168 29.5417 36.1168 28.8922C36.1168 28.3148 36.197 27.3284 36.3013 26.5666C36.4456 25.4599 36.4617 25.1552 36.3895 24.682C36.3414 24.3773 36.2291 23.8881 36.1409 23.5994C36.0527 23.3107 35.8201 22.7815 35.6196 22.4206C35.4272 22.0517 35.2748 21.6748 35.2909 21.5786C35.3069 21.4182 35.347 21.3941 35.6116 21.4182C35.772 21.4262 36.0126 21.4903 36.1489 21.5545C36.2852 21.6187 36.5338 21.8111 36.7183 21.9795C36.9027 22.1399 37.1193 22.3965 37.1994 22.5409C37.2796 22.6772 37.3679 22.7895 37.3839 22.7815C37.3999 22.7654 37.4561 22.4206 37.5042 22.0196C37.5603 21.5786 37.6646 21.1215 37.7688 20.8969C37.8891 20.6483 38.0415 20.4719 38.1938 20.3997C38.3302 20.3356 38.675 20.2474 38.9637 20.1992C39.2524 20.1511 39.5411 20.0709 39.6052 20.0148Z" fill="#47004C"/>
<path d="M61.0489 19.9426C61.49 19.9346 61.9391 19.8945 62.0513 19.8464C62.1636 19.7983 62.348 19.7582 62.4764 19.7582C62.5966 19.7502 62.7891 19.7983 62.9174 19.8624C63.0377 19.9266 63.2061 20.0789 63.3023 20.2073C63.3986 20.3275 63.583 20.6563 63.7274 20.937C63.8958 21.2738 64.008 21.4182 64.0802 21.3781C64.1283 21.346 64.2887 21.1936 64.417 21.0413C64.5453 20.8969 64.802 20.7045 64.9784 20.6162C65.1548 20.528 65.3553 20.4799 65.4194 20.512C65.5157 20.5521 65.5317 20.6563 65.4836 21.0573C65.4515 21.33 65.3874 21.8993 65.3393 22.3163C65.2591 22.9579 65.2671 23.1744 65.3794 23.7197C65.4515 24.0726 65.6119 24.666 65.7402 25.0429C65.8605 25.4198 66.053 26.0533 66.1652 26.4463C66.2775 26.8392 66.4138 27.4567 66.47 27.8096C66.5261 28.2025 66.5502 28.7799 66.5181 29.2931C66.486 29.8625 66.3978 30.3517 66.2535 30.8168C66.1412 31.1937 66.0209 31.5145 65.9888 31.5386C65.9567 31.5626 65.8204 31.7631 65.6841 31.9796C65.5478 32.2042 65.243 32.5249 65.0024 32.7014C64.7538 32.8938 64.3288 33.1023 63.976 33.2146C63.6472 33.3188 63.2623 33.4792 63.1339 33.5674C63.0056 33.6557 62.7651 33.8401 62.6127 33.9764C62.3641 34.201 62.3561 34.201 62.5325 34.0005C62.6448 33.8802 62.7089 33.784 62.6768 33.784C62.6367 33.784 62.5165 33.8241 62.3962 33.8722C62.2679 33.9203 61.8509 33.9604 61.4659 33.9684C60.9206 33.9845 60.7442 33.9604 60.688 33.8642C60.6319 33.784 60.3512 33.7118 59.7498 33.6476C59.2365 33.5915 58.6912 33.4792 58.4106 33.367C58.1459 33.2707 57.7851 33.0542 57.6086 32.8938C57.4242 32.7415 57.1595 32.4287 57.0152 32.2122C56.8709 31.9957 56.6784 31.5867 56.5822 31.298C56.4298 30.8649 56.4057 30.5923 56.4057 29.6941C56.3977 28.9483 56.4458 28.403 56.5501 27.9299C56.6303 27.553 56.8709 26.727 57.0954 26.0854C57.3199 25.4439 57.5685 24.65 57.6567 24.3212C57.7851 23.84 57.8091 23.5674 57.777 22.9178C57.745 22.4206 57.6567 21.8432 57.5284 21.3941C57.4162 21.0012 57.3199 20.6082 57.3199 20.536C57.3199 20.4318 57.3841 20.3917 57.5204 20.3917C57.6327 20.3917 57.8412 20.4719 57.9855 20.5601C58.1219 20.6563 58.3544 20.8809 58.4988 21.0653C58.6431 21.2417 58.8276 21.5465 58.9238 21.7389C59.012 21.9234 59.1082 22.0597 59.1483 22.0437C59.1804 22.0276 59.2526 21.8432 59.3167 21.6267C59.3809 21.4102 59.5333 21.0332 59.6536 20.7927C59.7738 20.5521 59.9583 20.2634 60.0625 20.1511C60.239 19.9667 60.3111 19.9506 61.0489 19.9426Z" fill="#47004C"/>
<path d="M78.2504 21.5144C78.2103 21.0974 78.1942 20.6724 78.2183 20.5761C78.2423 20.4719 78.3225 20.3917 78.3947 20.3917C78.4749 20.3917 78.6754 20.5521 78.8518 20.7365C79.0282 20.921 79.2448 21.2177 79.325 21.3941C79.4052 21.5705 79.5174 21.8833 79.5655 22.0998C79.6137 22.3083 79.6698 22.4767 79.6938 22.4767C79.7179 22.4767 79.8783 22.196 80.0547 21.8592C80.2311 21.5224 80.5279 21.0894 80.7203 20.8969C81.0251 20.5842 81.0972 20.5521 81.4421 20.5521C81.6506 20.5521 81.9794 20.6002 82.1798 20.6563C82.4124 20.7285 82.7332 20.7445 83.6073 20.6724L83.896 20.9771C84.0965 21.1776 84.2328 21.4422 84.3451 21.8191C84.4333 22.1159 84.5054 22.4206 84.5054 22.5008C84.5054 22.573 84.5455 22.6371 84.5856 22.6371C84.6257 22.6371 84.8182 22.5168 85.0107 22.3725C85.1951 22.2281 85.4918 22.0597 85.6682 22.0036C85.8447 21.9474 86.0371 21.9234 86.0933 21.9474C86.1414 21.9715 86.1895 22.0918 86.1895 22.2201C86.1895 22.3404 86.0612 22.8296 85.9008 23.3188C85.7083 23.9122 85.5961 24.4094 85.572 24.8424C85.548 25.2755 85.588 25.893 85.7083 26.727C85.8286 27.5209 85.8928 28.3629 85.8928 29.0526C85.8928 29.8304 85.8527 30.2956 85.7484 30.6965C85.6763 31.0093 85.5239 31.4664 85.4196 31.723C85.3154 31.9716 85.1069 32.3726 84.9706 32.6051C84.8262 32.8297 84.6017 33.1344 84.4653 33.2627C84.337 33.391 84.0804 33.5995 83.904 33.7198C83.7276 33.8401 83.4228 33.9925 83.2223 34.0646C83.0219 34.1368 82.6289 34.217 82.3402 34.2411C82.0515 34.2651 81.6746 34.3614 81.4982 34.4496C81.2496 34.5699 81.0411 34.6019 80.5359 34.5939C80.183 34.5859 79.758 34.5458 79.5976 34.5057C79.4292 34.4576 79.1966 34.3373 79.0764 34.225C78.932 34.1047 78.6513 33.9845 78.3306 33.9123C78.0419 33.8561 77.5928 33.7038 77.3281 33.5755C77.0635 33.4472 76.6786 33.1745 76.4701 32.966C76.2536 32.7495 75.9889 32.3726 75.8686 32.124C75.7564 31.8673 75.62 31.3862 75.5719 31.0574C75.5158 30.6244 75.5158 30.2555 75.588 29.7182C75.6441 29.3092 75.7965 28.6356 75.9248 28.2346C76.0611 27.8256 76.3418 27.16 76.5503 26.7671C76.7588 26.3741 77.1437 25.6845 77.3923 25.2434C77.6409 24.8023 77.9216 24.2249 78.0178 23.9603C78.106 23.6957 78.2183 23.2065 78.2504 22.8777C78.2905 22.5409 78.2905 21.9474 78.2504 21.5144Z" fill="#47004C"/>
<path d="M60.4234 39.9588C60.4074 40.1593 60.3913 40.031 60.3913 39.6782C60.3913 39.3253 60.4074 39.1649 60.4234 39.3173C60.4394 39.4697 60.4394 39.7584 60.4234 39.9588Z" fill="#47004C"/>
<path d="M60.4234 43.6878C60.4074 43.9525 60.3994 43.752 60.3994 43.2468C60.3994 42.7416 60.4074 42.525 60.4234 42.7656C60.4394 43.0062 60.4394 43.4232 60.4234 43.6878Z" fill="#47004C"/>
<path d="M56.8789 48.4593C57.9695 48.4593 58.4507 48.4353 58.4587 48.3711C58.4747 48.307 58.5068 48.307 58.5629 48.3631C58.6191 48.4273 59.6937 48.4433 61.9952 48.4353C63.8316 48.4273 65.3393 48.4353 65.3393 48.4593C65.3393 48.4834 65.9247 48.5235 66.6384 48.5636C67.3601 48.5957 68.4668 48.6438 69.1083 48.6758C69.7499 48.7159 70.5037 48.74 70.7924 48.74C71.0811 48.74 71.3297 48.7641 71.3537 48.7881C71.3778 48.8202 71.883 48.8844 72.4765 48.9325C73.0699 48.9806 73.8798 49.0608 74.2808 49.1009C74.7299 49.141 75.0106 49.141 75.0266 49.0929C75.0346 49.0528 75.0827 49.0528 75.1469 49.0929C75.195 49.141 75.4596 49.1811 75.7243 49.1971C75.9889 49.2131 76.2215 49.2532 76.2455 49.2853C76.2696 49.3174 76.5182 49.3735 76.7989 49.4056C77.0795 49.4377 77.3201 49.4858 77.3362 49.5259C77.3522 49.558 77.5126 49.582 77.689 49.582C77.8654 49.582 78.3947 49.6382 78.8759 49.7023C79.349 49.7745 79.9184 49.8707 80.1509 49.9269C80.4958 50.0071 80.584 50.0071 80.7043 49.9028C80.7845 49.8306 80.8246 49.8226 80.7925 49.8868C80.7524 49.9589 80.9368 50.0231 82.236 50.2637L82.252 50.5283C82.252 50.6646 82.2119 50.801 82.1638 50.825C82.1077 50.8491 81.1935 50.7448 80.1349 50.5925C79.0764 50.4401 77.4725 50.2236 76.5663 50.1113C75.6601 49.999 74.4011 49.8547 73.7595 49.7905C73.118 49.7184 71.6745 49.5901 70.5518 49.5099C69.4291 49.4216 67.8573 49.3014 67.0634 49.2452C66.1091 49.173 63.9198 49.141 60.6079 49.141C57.4482 49.141 54.9703 49.1811 53.9117 49.2452C52.9895 49.3014 51.3455 49.4216 50.2629 49.5099C49.1803 49.5981 47.4882 49.7585 46.4938 49.8707C45.4994 49.975 44.0079 50.1594 43.1658 50.2717C42.3318 50.384 41.0648 50.5604 40.3591 50.6727C39.6534 50.7769 39.0118 50.8651 38.9396 50.8651C38.8274 50.8651 38.8033 50.801 38.8194 50.5684C38.8354 50.2717 38.8514 50.2637 39.2203 50.1835C39.4288 50.1434 39.5972 50.0792 39.5972 50.0472C39.5972 50.0071 39.6453 50.0071 39.7015 50.0311C39.7496 50.0552 40.1024 50.0151 40.4794 49.9509C40.8563 49.8787 41.8106 49.7184 42.6045 49.5901C43.3984 49.4617 44.3928 49.3254 44.8098 49.3014C45.2268 49.2693 45.6278 49.2372 45.6919 49.2212C45.7561 49.2051 46.3736 49.133 47.0552 49.0688C47.7368 48.9966 48.7152 48.9084 49.2204 48.8683C49.7256 48.8202 50.8644 48.748 51.7465 48.6999C52.6286 48.6518 53.7914 48.5796 54.3367 48.5395C54.874 48.4914 56.0208 48.4593 56.8789 48.4593Z" fill="#47004C"/>
<path d="M52.1475 49.9028C53.5188 49.8146 55.3231 49.7023 56.1571 49.6622C56.9992 49.6301 59.3408 49.6061 61.3697 49.6221C63.8637 49.6462 65.9407 49.7023 67.7851 49.8226C69.2848 49.9108 71.6344 50.0953 72.9977 50.2236C74.361 50.3599 75.9167 50.5203 76.446 50.5925C76.9753 50.6566 77.9296 50.7849 78.5711 50.8651C79.2127 50.9533 80.2231 51.0977 80.8166 51.1939C81.41 51.2821 81.9553 51.3703 82.0195 51.3944C82.0836 51.4185 82.1558 51.4265 82.1798 51.4104C82.2039 51.3944 82.236 51.8194 82.3001 53.311L83.2223 53.3672C83.7177 53.3907 84.6139 53.4606 85.2307 53.5087L85.2673 53.5115C85.8848 53.5596 86.8792 53.6719 87.4726 53.7601C88.066 53.8403 88.9321 53.9846 89.3972 54.0809C89.8623 54.1691 90.528 54.3134 90.8808 54.4097C91.2337 54.4979 91.8993 54.7064 92.3644 54.8748C92.8295 55.0352 93.4791 55.3078 93.8079 55.4682C94.1367 55.6286 94.5296 55.8451 94.6659 55.9414C94.8103 56.0376 94.9306 56.1338 94.9306 56.1579C94.9306 56.1819 94.5456 56.3022 94.0725 56.4225C93.5993 56.5428 93.1904 56.615 93.1663 56.5749C93.1423 56.5428 92.9097 56.4305 92.6451 56.3343C92.3804 56.2301 91.6747 55.9975 91.0813 55.805C90.4879 55.6126 89.5255 55.3399 88.9562 55.1956C88.3868 55.0592 87.4084 54.8427 86.7909 54.7144C86.1735 54.5861 85.1309 54.4097 84.4653 54.3215C83.8078 54.2413 83.0379 54.145 82.26 54.0729V54.3535C82.26 54.5059 82.2841 54.6342 82.3242 54.6342C82.3563 54.6342 82.8695 54.6903 83.4629 54.7545C84.0564 54.8186 85.2673 55.0272 86.1494 55.2036C87.0315 55.38 88.4189 55.7248 89.2368 55.9574C90.0548 56.19 91.0332 56.4947 91.4261 56.631C91.811 56.7673 92.1238 56.9037 92.1238 56.9438C92.1238 56.9758 91.811 57.1042 91.4261 57.2405C91.0332 57.3688 90.1992 57.7377 89.5576 58.0504C88.9161 58.3632 88.1623 58.7642 87.8736 58.9326C87.5849 59.109 87.0877 59.4298 86.7669 59.6463C86.4541 59.8708 86.1895 60.0633 86.1895 60.0873C86.1815 60.1114 86.6225 60.4883 87.1679 60.9294C87.7052 61.3704 88.6514 62.2205 89.2609 62.8139C89.8784 63.4073 90.6402 64.2173 90.961 64.6183C91.2818 65.0192 91.771 65.6608 92.0356 66.0617C92.3082 66.4627 92.5248 66.8075 92.5248 66.8476C92.5248 66.8797 92.212 66.8156 91.8271 66.7033C91.4341 66.591 90.4558 66.3585 89.6378 66.182C88.8198 66.0136 87.5608 65.7811 86.831 65.6688C86.1013 65.5565 85.0588 65.4122 84.5054 65.348C83.9521 65.2758 83.0299 65.1876 82.4605 65.1395C81.8911 65.0994 80.584 65.0192 77.7291 64.8909L76.871 65.1556C76.3979 65.2999 76.021 65.4282 76.029 65.4362C76.037 65.4443 76.8791 65.4924 77.8895 65.5405C78.8999 65.5886 80.3675 65.6768 81.1373 65.741C81.9072 65.8131 83.0138 65.9174 83.5832 65.9816C84.1526 66.0537 85.2593 66.1981 86.0291 66.3103C86.799 66.4226 88.1382 66.6472 88.9963 66.8236C89.8543 66.992 91.0652 67.2646 91.6827 67.417C92.3002 67.5774 92.8856 67.7298 92.9899 67.7618C93.1102 67.8019 93.2706 68.0104 93.455 68.3713C93.6074 68.668 93.6876 68.9086 93.6475 68.9086C93.6074 68.9086 93.5512 68.8685 93.5272 68.8284C93.5031 68.7883 93.1182 68.6119 92.6691 68.4355C92.212 68.2671 91.5544 68.0505 91.2016 67.9623C90.8487 67.8661 90.1831 67.7137 89.718 67.6255C89.2529 67.5373 88.4429 67.393 87.9137 67.3047C87.3844 67.2245 86.5023 67.1043 85.9489 67.0321C85.3956 66.9679 84.746 66.8958 84.5054 66.8717C84.2649 66.8476 83.4309 66.7755 82.661 66.7033C81.8911 66.6391 80.4878 66.5349 79.5575 66.4627C78.6193 66.3986 76.7748 66.3184 73.0779 66.2462L72.9977 62.3729L72.5566 62.3167C72.3161 62.2927 71.6104 62.2285 70.9929 62.1804C70.3754 62.1243 69.7258 62.0681 69.5494 62.0521C69.373 62.036 68.4508 61.9639 67.5045 61.8917C66.5582 61.8275 65.0987 61.7393 64.2566 61.6912C63.4226 61.6511 61.7065 61.611 60.4475 61.611C59.1884 61.611 57.4563 61.6511 56.5982 61.6912C55.7401 61.7313 54.7457 61.7874 54.3929 61.8115C54.04 61.8356 53.0456 61.9077 52.1876 61.9719C51.3295 62.036 50.1025 62.1483 49.461 62.2125C48.8194 62.2766 48.2501 62.3328 48.202 62.3328C48.1218 62.3328 48.0977 62.7818 48.0977 66.3023L47.801 66.2221C47.6326 66.182 46.7424 66.15 45.8122 66.158C44.89 66.166 43.1738 66.2301 42.003 66.2943C40.8322 66.3665 38.8835 66.5188 37.6726 66.6231C36.4617 66.7354 34.93 66.8958 34.2644 66.992C33.6068 67.0802 32.5723 67.2406 31.9789 67.3529C31.3854 67.4651 30.5514 67.6416 30.1344 67.7458C29.7174 67.8501 29.124 68.0265 28.8112 68.1307C28.5065 68.235 28.0494 68.4194 27.8088 68.5317C27.5682 68.644 27.3597 68.7322 27.3437 68.7242C27.3357 68.7161 27.4399 68.4916 27.5763 68.227C27.7126 67.9623 27.8489 67.7217 27.881 67.6897C27.9051 67.6576 28.5065 67.4892 29.2122 67.3128C29.9179 67.1363 30.9283 66.9038 31.4576 66.7915C31.9869 66.6792 32.8209 66.5188 33.3021 66.4306C33.7912 66.3424 34.8498 66.182 35.6678 66.0698C36.4857 65.9575 37.6405 65.8131 38.2339 65.749C38.8274 65.6848 39.7496 65.6046 40.2789 65.5806C40.8081 65.5565 41.3134 65.5164 41.4016 65.5004C41.4898 65.4844 42.1955 65.4443 42.9653 65.4122C43.7352 65.3881 44.4168 65.34 44.473 65.3079C44.5291 65.2839 44.2404 65.1556 43.8314 65.0272C43.1498 64.8187 42.9894 64.7947 42.0431 64.8107C41.4737 64.8187 40.4954 64.8588 39.8779 64.8989C39.2604 64.939 38.3382 65.0192 37.833 65.0673C37.3278 65.1155 36.1168 65.2598 35.1465 65.3961C34.1762 65.5244 32.5883 65.7971 31.618 65.9976C30.6477 66.1981 29.5651 66.4387 29.2122 66.5429C28.8594 66.6472 28.5626 66.7193 28.5546 66.6953C28.5386 66.6792 28.5707 66.583 28.6268 66.4868C28.6749 66.3825 28.9315 65.9976 29.1962 65.6207C29.4608 65.2438 29.9179 64.6503 30.2146 64.2975C30.5113 63.9446 31.2411 63.1828 31.8345 62.6134C32.4199 62.0441 33.3422 61.2181 33.8875 60.793C34.7375 60.1114 34.8498 59.9911 34.7696 59.8788C34.7135 59.8067 34.3766 59.5581 34.0238 59.3255C33.6709 59.0929 33.0936 58.7401 32.7407 58.5396C32.3879 58.3391 31.7223 57.9943 31.2571 57.7778C30.792 57.5532 30.0783 57.2565 29.6693 57.1122C29.2603 56.9598 28.9235 56.8235 28.9235 56.7994C28.9235 56.7754 29.1881 56.6631 29.5089 56.5428C29.8297 56.4225 30.6156 56.1659 31.2571 55.9734C31.8987 55.773 32.7968 55.5163 33.262 55.4041C33.7271 55.2918 34.5531 55.1154 35.1064 55.0031C35.6597 54.8908 36.5579 54.7465 37.1112 54.6743C37.6646 54.6021 38.266 54.53 38.4585 54.5139C38.7793 54.4738 38.7953 54.4658 38.7793 54.2172C38.7552 53.9526 38.7552 53.9526 38.3542 53.9766C38.1377 53.9927 37.2877 54.0969 36.4697 54.2012C35.6517 54.3134 34.5531 54.4899 34.0238 54.6021C33.4945 54.7064 32.5242 54.9389 31.8586 55.1073C31.201 55.2838 30.0462 55.6286 29.2924 55.8772C28.5466 56.1178 27.9051 56.3664 27.873 56.4225C27.8329 56.4947 27.6083 56.4546 26.9668 56.2782C26.5017 56.1499 26.1248 56.0215 26.1248 55.9975C26.1248 55.9734 26.2771 55.8612 26.4696 55.7489C26.654 55.6286 27.039 55.4201 27.3277 55.2758C27.6164 55.1314 28.1376 54.9069 28.4905 54.7786C28.8433 54.6502 29.4367 54.4578 29.8137 54.3535C30.1906 54.2493 30.9444 54.0729 31.4977 53.9606C32.051 53.8563 33.0214 53.6879 33.6629 53.5997C34.3045 53.5115 35.3149 53.3992 35.9083 53.3511C36.5018 53.303 37.3919 53.2388 38.7552 53.1506L38.7953 51.4265L39.3005 51.3463C39.5732 51.3062 40.2709 51.1939 40.8402 51.1057C41.4176 51.0255 42.5483 50.8571 43.3663 50.7529C44.1843 50.6406 45.2268 50.5123 45.6919 50.4722L45.7339 50.4678C46.2197 50.4176 47.2645 50.3095 48.0977 50.2316C48.9558 50.1434 50.7842 49.999 52.1475 49.9028Z" fill="#47004C"/>
<path d="M49.6386 26.887C49.4701 26.4219 49.3017 25.9247 49.2697 25.7723L49.2135 25.5077L49.5985 25.7723C49.807 25.9167 50.1999 26.2615 50.4645 26.5261C50.7292 26.7908 51.1141 27.2399 51.3226 27.5286C51.5231 27.8173 51.8118 28.2824 51.9642 28.5711C52.1085 28.8598 52.2849 29.2367 52.3571 29.4131C52.4614 29.7018 52.5496 29.766 53.1751 30.0787C53.6883 30.3273 54.0091 30.5518 54.394 30.9368C54.6827 31.2255 54.9955 31.6104 55.0917 31.8029C55.2601 32.1076 55.2761 32.2359 55.2521 33.1661C55.236 34.0002 55.2601 34.2488 55.3804 34.5294C55.4606 34.7139 55.8054 35.171 56.1502 35.5479C56.4871 35.9248 56.8479 36.3899 56.9442 36.5904C57.0805 36.8791 57.1206 37.0956 57.1206 37.673C57.1206 38.2745 57.0725 38.5311 56.8559 39.1806C56.7036 39.6377 56.5993 40.1189 56.5993 40.3595C56.5993 40.584 56.6555 40.8807 56.7276 41.0251C56.8078 41.1614 57.0243 41.4661 57.2248 41.6827C57.4173 41.9072 57.6418 42.1959 57.714 42.3242C57.8263 42.5327 57.8423 42.8214 57.8183 44.4092C57.8022 45.54 57.8263 46.4381 57.8824 46.7348C57.9305 46.9995 58.0588 47.4325 58.1711 47.6972C58.2834 47.9618 58.3876 48.2425 58.4117 48.3227C58.4438 48.451 58.3235 48.459 54.8912 48.4189L54.4742 47.617C54.2497 47.1759 53.9449 46.5263 53.8006 46.1735C53.6482 45.8206 53.4157 45.1871 53.2633 44.7701C53.1189 44.3531 52.9104 43.6474 52.8062 43.2063C52.6939 42.7653 52.5576 42.1317 52.5014 41.803C52.4453 41.4742 52.4052 40.7123 52.4052 40.1189C52.4132 39.2849 52.4614 38.7957 52.6217 37.9938C52.734 37.4244 52.8463 36.7027 52.9185 35.8286L52.6699 36.6145C52.5415 37.0395 52.301 37.7051 52.1406 38.098C51.9802 38.483 51.5151 39.5014 51.1061 40.3595C50.6971 41.2175 50.232 42.252 50.0796 42.645C49.9272 43.0379 49.7428 43.5993 49.6706 43.888C49.5985 44.1767 49.4541 45.0027 49.3499 45.7324C49.2456 46.4622 49.0772 47.4806 48.8206 48.9402H48.5158C48.3555 48.9402 47.6979 48.9963 47.0563 49.0685C46.4148 49.1326 45.6289 49.2128 45.3001 49.2449C44.7387 49.301 44.7067 49.293 44.6425 49.1246C44.6024 49.0203 44.5302 48.6274 44.4821 48.2425C44.426 47.8495 44.2335 46.9754 44.0411 46.2938C43.8566 45.6121 43.5118 44.297 43.2872 43.3667C43.0627 42.4365 42.79 41.2897 42.6858 40.8005C42.5815 40.3114 42.4292 39.4854 42.341 38.9561C42.2528 38.4268 42.1405 37.665 42.0924 37.272C42.0443 36.8791 41.9641 36.1173 41.9159 35.588C41.8678 35.0587 41.7796 34.4974 41.7155 34.345C41.6513 34.1926 41.6032 34.0403 41.6032 34.0082C41.6032 33.9681 41.6272 33.9601 41.6593 33.9761C41.6994 33.9921 41.956 33.9681 42.2447 33.9119C42.5334 33.8558 42.8863 33.7516 43.0226 33.6794C43.2071 33.5831 43.2792 33.5751 43.2552 33.6473C43.2311 33.6954 43.175 33.8879 43.1188 34.0643C43.0306 34.3209 43.0306 34.6337 43.1108 35.6281C43.167 36.3097 43.2953 37.4805 43.4075 38.2344C43.5198 38.9882 43.7524 40.2873 43.9208 41.1213C44.0972 41.9553 44.2736 42.7332 44.3137 42.8455C44.3779 43.0299 44.4019 42.9978 44.4901 42.5648C44.5463 42.3002 44.6906 41.7548 44.8109 41.3619C44.9312 40.9689 45.1076 40.4397 45.2039 40.1991C45.3001 39.9585 45.6529 39.1646 45.9737 38.4348C46.3025 37.7051 46.6473 36.8069 46.7436 36.43C46.8879 35.8687 46.912 35.604 46.8719 34.9063C46.8558 34.4412 46.7596 33.7756 46.6634 33.4228C46.5752 33.0699 46.3827 32.4925 46.2464 32.1397C46.11 31.7868 45.9817 31.426 45.9577 31.3377C45.9336 31.2495 45.9657 31.025 46.0218 30.8325C46.086 30.6481 46.1582 30.4957 46.1902 30.4957C46.2303 30.4957 46.4068 30.7042 46.5992 30.9608C46.7917 31.2094 47.0884 31.6505 47.2488 31.9392C47.4172 32.2279 47.6738 32.7491 47.8182 33.102C47.9705 33.4548 48.171 34.0884 48.2672 34.5054C48.4276 35.1549 48.4517 35.4757 48.4437 36.6305C48.4437 37.3843 48.3875 38.3867 48.3154 38.8759C48.2512 39.3651 48.2111 39.766 48.2272 39.7821C48.2432 39.7901 48.3956 39.5896 48.5559 39.341C48.7163 39.0844 48.997 38.5712 49.5022 37.5126L49.4862 36.43C49.4701 35.5238 49.4942 35.2993 49.6145 35.0266C49.6947 34.8502 49.9673 34.4733 50.2159 34.1846C50.4645 33.8959 50.7372 33.519 50.8254 33.3426C50.9136 33.1581 50.9858 32.8534 50.9858 32.6449C50.9858 32.4284 50.8815 31.9392 50.7452 31.5382C50.6169 31.1453 50.4004 30.608 50.2721 30.3594C50.1518 30.1028 49.9032 29.782 49.7348 29.6376C49.4381 29.389 49.43 29.381 49.6225 29.381C49.807 29.373 49.831 29.3249 49.9513 28.7956C50.0395 28.4267 50.0636 28.122 50.0235 27.9696C49.9914 27.8333 49.815 27.3521 49.6386 26.887Z" fill="#47004C"/>
<path d="M70.0718 28.0819L70.0557 27.721C70.0397 27.5286 70.0477 27.3602 70.0718 27.3602C70.0958 27.3602 70.2482 27.5045 70.4166 27.6809C70.577 27.8574 70.7534 28.0739 70.7935 28.1621C70.8416 28.2503 71.0983 28.4347 71.3789 28.5791C71.6516 28.7154 72.0606 28.948 72.2771 29.0843C72.5016 29.2287 72.8385 29.5093 73.0309 29.7018C73.2154 29.8943 73.496 30.2471 73.6484 30.4877C73.7928 30.7363 73.9612 31.1292 74.0173 31.3698C74.1055 31.7628 74.0895 31.9071 73.9371 32.6128C73.8409 33.0539 73.7607 33.5431 73.7687 33.6954C73.7687 33.8558 73.8168 34.1044 73.8649 34.2568C73.9211 34.4172 74.1376 34.7941 74.3461 35.0988C74.5546 35.4116 74.7952 35.8687 74.8834 36.1253C74.9716 36.3739 75.0438 36.7347 75.0438 36.9272C75.0438 37.1117 74.9876 37.4485 74.9235 37.665C74.8513 37.8895 74.6348 38.3627 74.4423 38.7316C74.2418 39.0924 74.0333 39.5816 73.9772 39.8142C73.889 40.143 73.881 40.3033 73.9531 40.5519C74.0093 40.7284 74.1616 41.0572 74.29 41.2737C74.4183 41.4982 74.5706 41.7789 74.6268 41.8992C74.6829 42.0195 74.723 42.2841 74.723 42.4766C74.723 42.6771 74.5947 43.4068 74.4263 44.1045C74.1616 45.2272 74.1296 45.4838 74.1296 46.4461C74.1215 47.4967 74.1296 47.5448 74.3701 48.05C74.5065 48.3387 74.715 48.6675 74.8353 48.7717C74.9556 48.884 75.0518 49.0203 75.0438 49.0765C75.0438 49.1487 74.9235 49.1647 74.5867 49.1326C74.33 49.1086 73.8489 49.0524 73.5201 49.0123C73.1913 48.9722 72.5658 48.9161 71.3549 48.8118L71.0421 48.0099C70.8737 47.5688 70.6412 46.9032 70.5209 46.5263C70.4006 46.1574 70.2402 45.54 70.152 45.1631C70.0718 44.7942 69.9515 44.1045 69.8873 43.6394C69.8152 43.1823 69.735 42.4285 69.6949 41.9794C69.6628 41.5223 69.6067 41.1614 69.5826 41.1774C69.5505 41.1855 69.2538 41.5383 68.917 41.9553C68.5802 42.3803 68.2594 42.7733 68.2033 42.8375C68.1472 42.9096 67.8504 43.3186 67.5377 43.7597C67.2249 44.2007 66.824 44.8343 66.6395 45.1631C66.4631 45.4999 66.1904 46.1093 66.0381 46.5263C65.8857 46.9514 65.6531 47.5448 65.2923 48.4109L60.5288 48.451L60.5448 47.9137C60.5529 47.617 60.5208 45.9489 60.4646 44.2007C60.4005 42.0275 60.3925 40.4557 60.4486 39.1887C60.4887 38.1782 60.5849 36.8951 60.6651 36.3418C60.7453 35.7965 60.8095 35.0346 60.8095 33.9681L61.4911 33.9601C61.868 33.952 62.277 33.9119 62.3973 33.8638C62.5176 33.8157 62.6299 33.7756 62.6539 33.7756C62.678 33.7756 62.5737 33.928 62.4294 34.1204C62.285 34.3049 62.1407 34.5695 62.1086 34.6978C62.0845 34.8342 62.0043 35.3394 61.9402 35.8205C61.868 36.3097 61.7557 37.2319 61.6916 37.8655C61.6274 38.507 61.5392 40.0146 61.5072 41.2175C61.4751 42.4204 61.4671 43.3988 61.4911 43.4068C61.5152 43.4068 61.7397 42.9978 61.9883 42.5006C62.2369 42.0034 62.686 41.2336 62.9827 40.7925C63.2794 40.3515 63.7526 39.6859 64.0413 39.3089C64.33 38.9401 64.7389 38.3787 64.9394 38.066C65.1399 37.7612 65.4045 37.272 65.5168 36.9833C65.6291 36.7027 65.7734 36.1574 65.8296 35.7804C65.8857 35.3634 65.9098 34.8101 65.8777 34.337C65.8456 33.92 65.7734 33.2544 65.7093 32.8534C65.597 32.1557 65.597 32.1236 65.7654 31.8349C65.8616 31.6665 65.9819 31.5302 66.022 31.5302C66.0701 31.5302 66.1423 31.6345 66.1985 31.7547C66.2466 31.875 66.3989 32.2279 66.5272 32.5326C66.6556 32.8454 66.848 33.4388 66.9443 33.8558C67.0645 34.361 67.1447 34.9705 67.1688 35.6602C67.1929 36.3979 67.1688 36.9192 67.0806 37.4244C67.0084 37.8254 66.832 38.5471 66.6716 39.0283C66.5192 39.5174 66.3027 40.167 66.1904 40.4717C66.0782 40.7845 65.998 41.0491 66.006 41.0572C66.014 41.0732 66.2867 40.8005 66.6155 40.4557C66.9362 40.1109 67.3452 39.6137 67.5216 39.349C67.7061 39.0684 67.8665 38.7075 67.9066 38.4669C67.9467 38.2504 68.0188 37.8334 68.067 37.5447C68.1151 37.248 68.2273 36.9192 68.3316 36.7748C68.4278 36.6305 68.7807 36.3097 69.1095 36.0451C69.4383 35.7885 69.8072 35.4677 69.9194 35.3394C70.0317 35.2031 70.168 34.9545 70.2322 34.778C70.3043 34.5535 70.3204 34.2327 70.2883 33.6954C70.2643 33.2784 70.168 32.685 70.0718 32.3722C69.9836 32.0675 69.9034 31.6505 69.9034 31.45C69.9034 31.2255 69.9756 30.9288 70.1039 30.6481C70.2161 30.4075 70.3124 30.1188 70.3124 30.0065C70.3204 29.9023 70.168 29.5735 69.9836 29.2848C69.7911 29.0041 69.4703 28.555 69.2538 28.3064C68.909 27.8894 68.8849 27.8413 69.0533 27.8413C69.1496 27.8413 69.4222 27.8974 70.0718 28.0819Z" fill="#47004C"/>
<path d="M89.3984 31.2094C89.3984 30.8806 89.4224 30.3594 89.4545 30.0466L89.5026 29.4853L89.663 29.6858C89.7512 29.798 89.9517 30.1589 90.1041 30.4877C90.2564 30.8245 90.4649 31.3778 90.5692 31.7307C90.6734 32.0835 90.7937 32.7171 90.8499 33.1341C90.906 33.5751 90.922 34.2488 90.8899 34.7219C90.8659 35.171 90.7857 35.8205 90.7135 36.1654C90.6414 36.5022 90.481 37.1117 90.3446 37.5046C90.2163 37.9056 89.9276 38.5872 89.7031 39.0283C89.4785 39.4693 89.1658 40.0307 88.9974 40.2713C88.829 40.5199 88.5804 40.8567 88.4441 41.0331C88.2997 41.2095 87.8587 41.6987 87.4497 42.1157C87.0487 42.5247 86.2227 43.3026 85.6293 43.8318C85.0358 44.3611 84.3061 45.0267 84.0014 45.3234C83.7046 45.6121 83.2395 46.1174 82.9829 46.4461C82.7183 46.783 82.2531 47.4646 81.9484 47.9698C81.6357 48.4831 81.3149 49.0203 81.2267 49.1727C81.1465 49.3331 80.962 49.5817 80.6012 50.0147L80.1681 49.9185C79.9275 49.8624 79.3501 49.7661 78.877 49.702C78.4039 49.6298 77.8666 49.5737 77.6901 49.5737C77.5137 49.5737 77.3533 49.5416 77.3293 49.4935C77.3052 49.4534 77.1769 49.4133 77.0326 49.4133C76.8882 49.4133 76.6476 49.3892 76.5033 49.3572C76.3509 49.3171 76.2467 49.2449 76.2467 49.1727C76.2467 49.1086 76.3349 48.7156 76.4391 48.2906C76.5434 47.8736 76.6557 47.3122 76.6877 47.0476C76.7118 46.783 76.8642 45.6843 77.0245 44.6017C77.1769 43.5271 77.3934 42.1558 77.4977 41.5544C77.61 40.9609 77.7864 40.0948 77.8906 39.6297C78.0029 39.1726 78.1793 38.4268 78.2916 37.9858C78.4119 37.5447 78.6605 36.6866 78.861 36.0852C79.0534 35.4757 79.2138 34.8342 79.2138 34.337L79.5186 34.4573C79.6789 34.5214 80.0959 34.5775 81.0583 34.5775L80.7375 34.8823C80.4328 35.1549 80.3766 35.2913 79.9356 36.6626C79.6709 37.4805 79.3662 38.507 79.2619 38.9481C79.1497 39.3891 78.9251 40.3996 78.7487 41.1935C78.5723 41.9874 78.3878 42.8936 78.3397 43.1983C78.2836 43.5111 78.2515 43.7677 78.2675 43.7837C78.2836 43.7917 78.452 43.5752 78.6525 43.3026C78.8449 43.0219 79.1737 42.5889 79.3742 42.3403C79.5747 42.0836 80.2082 41.4341 80.7776 40.8968C81.347 40.3515 82.0767 39.6458 82.4055 39.3089C82.7263 38.9802 83.1353 38.491 83.3037 38.2263C83.4801 37.9617 83.7046 37.4805 83.8169 37.1437C83.9292 36.8149 84.0575 36.2536 84.1056 35.9007C84.1537 35.5479 84.2179 34.8502 84.2419 34.337C84.2981 33.4308 84.3061 33.4147 84.5627 33.1581C84.7071 33.0138 84.8434 32.9256 84.8674 32.9576C84.8835 32.9897 84.9797 33.3426 85.0679 33.7355C85.1561 34.1365 85.2524 34.8743 85.2844 35.3795C85.3085 35.9248 85.2925 36.5824 85.2444 36.9833C85.1882 37.3603 85.1 37.8735 85.0278 38.1301C84.9637 38.3787 84.8033 38.8679 84.667 39.2127C84.5386 39.5495 84.1297 40.3755 83.7608 41.0331C83.3919 41.6987 83.0952 42.244 83.1192 42.2601C83.1353 42.2681 83.2636 42.2039 83.4079 42.1077C83.5523 42.0115 83.9131 41.7308 84.2179 41.4822C84.5226 41.2336 84.9156 40.8567 85.092 40.6321C85.2925 40.3675 85.4689 40.0146 85.5972 39.5896C85.7015 39.2368 85.8699 38.8278 85.9741 38.6674C86.1104 38.4669 86.4072 38.2584 87.0006 37.9457C87.4577 37.7051 87.9469 37.3923 88.0912 37.248C88.2596 37.0796 88.412 36.8149 88.4922 36.5262C88.6044 36.1654 88.6365 35.7484 88.6365 33.2544L88.9332 32.8534C89.0936 32.6369 89.262 32.3081 89.3101 32.1317C89.3583 31.9552 89.3984 31.5462 89.3984 31.2094Z" fill="#47004C"/>
<path d="M29.7025 31.9151C29.8308 31.8831 30.1356 31.8189 30.3842 31.7788C30.6247 31.7467 31.2021 31.7066 31.6672 31.6986C32.1725 31.6986 32.7579 31.7387 33.1508 31.8189C33.5037 31.8991 33.9528 32.0274 34.1532 32.1156C34.3457 32.1958 34.7226 32.4203 34.9792 32.6048C35.2358 32.7892 35.5486 33.102 35.6769 33.2945C35.8319 33.535 35.9389 33.8424 35.9977 34.2167C36.0458 34.5294 36.134 34.9705 36.1982 35.2031C36.2864 35.5078 36.4147 35.7243 36.6793 35.9809C36.8718 36.1814 37.2728 36.4942 37.5695 36.6866C37.8662 36.8711 38.203 37.1517 38.3233 37.3041C38.4436 37.4645 38.628 37.7692 38.7243 37.9858C38.8766 38.3306 38.9007 38.515 38.8927 39.1887C38.8766 39.6297 38.8686 40.2793 38.8606 40.6321C38.8445 41.1935 38.8686 41.3138 39.045 41.5945C39.1493 41.7629 39.4941 42.0917 39.8069 42.3162C40.2239 42.6209 40.4163 42.8214 40.5607 43.1261C40.681 43.3747 40.8093 43.88 40.8975 44.4814C40.9777 45.0107 41.09 45.6442 41.1381 45.8848C41.1942 46.1334 41.3466 46.6146 41.4829 46.9674C41.6192 47.3203 41.8758 47.8094 42.0523 48.042C42.2287 48.2826 42.5174 48.5793 42.6938 48.6996C42.8702 48.8118 43.199 48.9963 43.4316 49.1005C43.6722 49.2128 43.8566 49.3171 43.8566 49.3331C43.8566 49.3572 43.2311 49.4774 42.4693 49.6058C41.7074 49.726 40.8013 49.8864 40.4484 49.9586C39.847 50.0789 39.7908 50.0789 39.5823 49.9506C39.462 49.8784 39.0129 49.4133 38.5879 48.9161C38.1709 48.4189 37.6336 47.7453 37.4011 47.4085C37.1685 47.0797 36.7675 46.4702 36.5109 46.0452C36.2623 45.6282 35.9335 45.0508 35.7892 44.7621C35.6448 44.4814 35.4363 44.0083 35.316 43.7196C35.1958 43.4389 35.0113 42.9096 34.9071 42.5568C34.7948 42.2039 34.6745 41.7228 34.6264 41.4742C34.5783 41.2336 34.5141 40.3114 34.474 39.4292C34.4179 38.2825 34.3537 37.6489 34.2334 37.1838C34.1452 36.831 33.8966 36.2055 33.6881 35.7804C33.4796 35.3634 33.0947 34.77 32.8381 34.4573C32.5815 34.1525 32.2045 33.7516 31.996 33.5671C31.7956 33.3907 31.3866 33.0779 31.1059 32.8855C30.8172 32.685 30.328 32.4043 30.0233 32.2519C29.4619 31.9873 29.4619 31.9793 29.7025 31.9151Z" fill="#47004C"/>
<path d="M64.529 54.1918C64.6172 53.887 64.7536 53.5502 64.8177 53.454C64.8899 53.3497 64.9781 53.2695 65.0182 53.2695C65.0663 53.2695 65.1706 53.3096 65.2588 53.3497C65.347 53.3978 65.4192 53.5101 65.4192 53.6144C65.4192 53.7106 65.2107 54.0715 64.9541 54.4083C64.7055 54.7531 64.4488 55.0338 64.4007 55.0338C64.3446 55.0338 64.3125 54.9696 64.3286 54.8975C64.3526 54.8173 64.4408 54.5045 64.529 54.1918Z" fill="white"/>
<path d="M56.6781 54.7932V54.0715V53.3497H57.5522L57.5602 54.9776C57.5683 55.8678 57.5763 56.6858 57.5843 56.798C57.6003 56.9825 57.5763 56.9985 56.7583 57.0386L56.7182 55.3145L56.0767 55.2904C55.7238 55.2744 55.3549 55.2904 55.2507 55.3145C55.0743 55.3546 55.0743 55.3626 55.1945 57.1188H54.2723V55.6994C54.2723 54.9135 54.2402 54.0795 54.152 53.4299H55.0743L55.1144 54.8333L55.6356 54.8574C55.9243 54.8734 56.2772 54.8654 56.6781 54.7932Z" fill="white"/>
<path d="M58.4263 55.2262C58.4103 54.2319 58.4183 53.3978 58.4343 53.3818C58.4504 53.3658 58.9155 53.3497 60.4472 53.3497V53.5502C60.4472 53.7427 60.4312 53.7507 59.2443 53.7507V54.8734L59.6212 54.8814C59.8377 54.8894 60.1024 54.8894 60.2227 54.8814C60.4231 54.8734 60.4472 54.8975 60.4472 55.3947L59.2443 55.2744V56.6376H59.8858C60.5033 56.6376 60.5274 56.6457 60.5114 56.8221C60.4873 56.9905 60.4552 56.9985 58.4424 57.0386L58.4263 55.2262Z" fill="white"/>
<path d="M61.2331 55.2503C61.2491 54.312 61.2732 53.5021 61.2892 53.454C61.3133 53.3818 61.5619 53.3497 62.1313 53.3497C62.6659 53.3497 63.0267 53.3898 63.2139 53.47C63.3662 53.5342 63.5587 53.6865 63.6309 53.8148C63.7271 53.9672 63.7512 54.1276 63.7191 54.3922C63.679 54.6489 63.6068 54.8012 63.4625 54.9135C63.3582 55.0017 63.1898 55.13 63.0936 55.1942C62.9275 55.3128 62.933 55.3222 63.4026 56.1227L63.4224 56.1565C63.7913 56.798 63.8875 57.0146 63.8073 57.0547C63.7431 57.0867 63.5507 57.0947 63.3743 57.0707C63.1978 57.0466 63.0294 57.0065 63.0054 56.9745C62.9733 56.9424 62.7969 56.6296 62.6124 56.2768C62.428 55.9239 62.2195 55.5631 62.1633 55.4748C62.0591 55.3305 62.0511 55.4187 62.0511 57.0386H61.7864C61.6501 57.0386 61.4576 57.0146 61.3694 56.9905C61.2171 56.9504 61.209 56.8943 61.2331 55.2503Z" fill="white"/>
<path d="M50.824 53.6304L51.9628 53.5422C52.5568 53.4971 53.1297 53.459 53.298 53.4478L53.326 53.446C53.5265 53.4299 53.5506 53.462 53.5506 53.6705C53.5506 53.9111 53.5426 53.9111 52.6685 53.9111V54.4163C52.6685 54.689 52.7086 55.4187 52.7487 56.0362C52.7968 56.6537 52.8208 57.1669 52.8128 57.1749C52.7968 57.191 52.6043 57.207 51.9868 57.2391L51.8986 55.6352C51.8505 54.7531 51.8024 54.0153 51.8024 53.9913C51.7944 53.9672 51.5698 53.9752 50.824 54.0715V53.6304Z" fill="white"/>
<path d="M66.0206 54.0715C66.0848 53.9432 66.2612 53.7587 66.3975 53.6705C66.582 53.5582 66.7985 53.5101 67.1032 53.5101C67.3438 53.5101 67.6325 53.5582 67.7448 53.6144C67.8972 53.6946 67.9372 53.7747 67.9212 53.9592C67.9132 54.0875 67.8891 54.2078 67.8651 54.2319C67.841 54.2559 67.7287 54.1677 67.6085 54.0474C67.44 53.879 67.3037 53.8229 67.0872 53.8309C66.9188 53.8309 66.7424 53.887 66.6622 53.9752C66.582 54.0554 66.5419 54.2078 66.5579 54.3521C66.574 54.5446 66.6782 54.6569 67.1032 54.9295C67.3919 55.122 67.7287 55.3866 67.8571 55.531C68.0656 55.7716 68.0816 55.8357 68.0415 56.1966C68.0174 56.4211 67.9292 56.6858 67.849 56.798C67.7608 56.9103 67.5684 57.0627 67.416 57.1429C67.2075 57.2551 67.007 57.2792 66.5659 57.2632C66.189 57.2471 65.9485 57.199 65.8602 57.1188C65.756 57.0146 65.756 56.9584 65.8522 56.6777C65.9645 56.357 65.9645 56.357 66.0527 56.5575C66.1008 56.6697 66.2211 56.798 66.3254 56.8542C66.4216 56.9023 66.5659 56.9664 66.6381 56.9905C66.7183 57.0146 66.9028 56.9905 67.0391 56.9344C67.2235 56.8622 67.3198 56.7499 67.3679 56.5895C67.408 56.4291 67.3919 56.3008 67.3037 56.1805C67.2396 56.0763 67.0872 55.94 66.9589 55.8598C66.8386 55.7876 66.606 55.6352 66.4296 55.523C66.2612 55.4107 66.0687 55.2182 66.0126 55.0979C65.9485 54.9696 65.9003 54.7451 65.9003 54.5927C65.9003 54.4404 65.9565 54.2078 66.0206 54.0715Z" fill="white"/>
<path d="M47.6564 53.9672C47.8328 53.879 48.0894 53.7747 48.2177 53.7427C48.346 53.7106 48.6909 53.6946 48.9796 53.7106C49.2683 53.7347 49.6452 53.8229 49.8216 53.9031C49.998 53.9913 50.2386 54.1998 50.3509 54.3682C50.4631 54.5366 50.5995 54.8012 50.6476 54.9536C50.7037 55.106 50.7438 55.4187 50.7438 55.6352C50.7438 55.8999 50.6797 56.1725 50.5514 56.4372C50.4471 56.6617 50.2386 56.9344 50.0862 57.0466C49.9419 57.1589 49.6692 57.3113 49.4768 57.3834C49.2843 57.4636 48.9234 57.5198 48.6347 57.5198C48.3621 57.5198 47.9932 57.4717 47.8168 57.4235C47.6403 57.3674 47.3516 57.1749 47.1672 56.9985C46.9507 56.782 46.8144 56.5575 46.7502 56.3008C46.6941 56.0843 46.654 55.7635 46.654 55.5791C46.654 55.3866 46.7342 55.0739 46.8224 54.8734C46.9106 54.6729 47.063 54.4243 47.1592 54.3281C47.2554 54.2238 47.48 54.0634 47.6564 53.9672Z" fill="white"/>
<path d="M70.2709 56.4372C70.343 55.9079 70.4232 55.106 70.4553 54.6489L70.5114 53.8229L71.1129 53.871C71.4417 53.9031 71.9309 53.9592 72.1955 54.0073C72.4601 54.0474 72.8371 54.1677 73.0375 54.28C73.2701 54.4003 73.4626 54.5847 73.5748 54.7932C73.7112 55.0338 73.7593 55.2503 73.7593 55.6593C73.7673 56.0923 73.7192 56.2848 73.5428 56.6376C73.3904 56.9263 73.1979 57.1589 72.9734 57.3193C72.7087 57.5037 72.5083 57.5679 72.1715 57.5919C71.9148 57.608 71.4096 57.5919 71.0327 57.5679C70.6558 57.5358 70.3029 57.4877 70.2468 57.4556C70.1666 57.4075 70.1746 57.207 70.2709 56.4372Z" fill="white"/>
<path d="M44.609 55.4508C44.7614 54.9376 44.9298 54.4243 44.9779 54.3281C45.0341 54.1918 45.1143 54.1436 45.2666 54.1677C45.4591 54.1918 45.4912 54.2719 45.9001 55.7555C46.1407 56.6136 46.3492 57.3995 46.3733 57.4957C46.4054 57.6481 46.3733 57.6882 46.1568 57.7283C46.0124 57.7523 45.82 57.7604 45.7398 57.7443C45.6115 57.7203 45.5393 57.5278 45.3147 56.6136C45.1704 56.0121 45.026 55.5149 44.994 55.5149C44.9539 55.5149 44.7614 56.0683 44.5609 56.7339C44.3364 57.4717 44.1439 57.9689 44.0798 57.9849C44.0156 58.0009 43.6788 57.5839 43.2458 56.9664C42.8528 56.389 42.508 55.9159 42.4839 55.9159C42.4599 55.9159 42.4759 56.4131 42.508 57.0146C42.5401 57.624 42.5481 58.1613 42.524 58.2175C42.5 58.2736 42.4037 58.3217 42.123 58.3217V54.6408L42.3235 54.5927C42.4358 54.5687 42.524 54.5606 42.532 54.5687C42.532 54.5847 42.7887 54.9536 43.0854 55.3947C43.3901 55.8357 43.751 56.349 44.1279 56.8862L44.2321 56.6457C44.2802 56.5093 44.4567 55.972 44.609 55.4508Z" fill="white"/>
<path d="M74.3447 56.5976C74.7056 55.9801 75.1466 55.2262 75.323 54.9295C75.5957 54.4644 75.6679 54.3842 75.8363 54.4083C76.0207 54.4323 76.0528 54.5045 76.2132 55.1541C76.3094 55.547 76.4939 56.3409 76.6302 56.9183C76.7665 57.4877 76.9029 58.025 76.9269 58.0972C76.959 58.2014 76.9189 58.2415 76.7906 58.2415C76.6863 58.2415 76.4939 58.2175 76.3495 58.1774C76.1009 58.1212 76.0849 58.0891 75.9886 57.5839C75.9085 57.1509 75.8523 57.0306 75.724 57.0065C75.6358 56.9825 75.3471 56.9424 74.6013 56.8622L74.3607 57.3514C74.1522 57.7764 74.0881 57.8405 73.9036 57.8405C73.7753 57.8405 73.6791 57.8085 73.6791 57.7764C73.6791 57.7443 73.9758 57.215 74.3447 56.5976Z" fill="white"/>
<path d="M77.9373 55.9961C77.7609 55.4428 77.5925 54.9295 77.5604 54.8493C77.5203 54.7451 77.5444 54.713 77.6567 54.713C77.7449 54.713 77.9454 54.7371 78.1138 54.7691C78.3543 54.8173 78.4265 54.8814 78.4907 55.0739C78.5228 55.2022 78.643 55.6032 78.9237 56.5976L79.2285 56.2367C79.3969 56.0362 79.6535 55.6994 79.7978 55.4909C79.9983 55.1942 80.0865 55.122 80.2148 55.1621L80.2149 55.1621C80.3031 55.1942 80.3913 55.2262 80.4153 55.2423C80.4394 55.2583 80.3512 55.4027 80.2148 55.5711C80.0865 55.7395 79.7658 56.1244 79.5091 56.4372C79.1162 56.9103 79.028 57.0787 78.9317 57.5358C78.8676 57.8325 78.8115 58.1774 78.8115 58.2976C78.8195 58.4179 78.7954 58.5382 78.7794 58.5623C78.7553 58.5863 78.5629 58.5703 78.3543 58.5382C78.1458 58.5061 77.9614 58.4661 77.9534 58.458C77.9373 58.45 78.0015 58.1132 78.2581 56.9985L77.9373 55.9961Z" fill="white"/>
<path d="M56.1168 60.5671C57.1112 60.519 58.2659 60.4709 58.6829 60.4629C59.1 60.4468 59.7014 60.4308 60.0061 60.4228C60.3189 60.4147 61.594 60.4468 62.853 60.4869C64.112 60.535 66.1329 60.6393 67.3438 60.7275L67.3439 60.7275C68.5548 60.8157 69.7657 60.9039 70.0303 60.928C70.2949 60.952 70.9124 61.0082 71.3936 61.0483C71.8828 61.0964 73.3022 61.2407 74.5612 61.369C75.8202 61.5054 77.5845 61.7059 78.4907 61.8181C79.3969 61.9304 80.5356 62.0747 81.0168 62.1389C81.5059 62.2031 81.9791 62.2752 82.0833 62.2913C82.2116 62.3233 82.2598 62.3875 82.2598 62.5318C82.2598 62.6922 82.2197 62.7323 82.0432 62.7323C81.9149 62.7323 81.2573 62.6602 80.5757 62.5719C79.8941 62.4837 78.4105 62.3073 77.2878 62.171C76.1651 62.0427 74.1442 61.8261 72.797 61.6898C71.4497 61.5615 69.8859 61.4172 69.3086 61.369C68.7392 61.3209 68.0174 61.2728 67.7047 61.2488C67.4 61.2247 66.4376 61.1686 65.5796 61.1124C64.7135 61.0563 62.4681 61.0082 60.5274 61.0082C58.5466 61.0082 56.3974 61.0563 55.5554 61.1124C54.7374 61.1686 53.1336 61.2808 51.9868 61.369C50.8401 61.4573 49.7254 61.5455 49.5008 61.5695C49.2843 61.5936 48.2338 61.6978 47.1752 61.8101C46.1167 61.9224 44.0236 62.1549 42.524 62.3314C41.0244 62.5078 39.597 62.6842 39.3564 62.7243C39.1158 62.7644 38.8913 62.7804 38.8592 62.7644C38.8191 62.7484 38.795 62.6441 38.795 62.5318C38.795 62.4035 38.8512 62.3153 38.9394 62.2913C39.0116 62.2672 40.0541 62.1309 41.2409 61.9785C42.4358 61.8261 43.751 61.6577 44.168 61.6096C44.585 61.5615 45.5794 61.4573 46.3733 61.369C47.1672 61.2808 48.7951 61.1204 49.982 61.0162C51.1769 60.9039 52.6364 60.7756 53.2298 60.7355C53.8232 60.6874 55.1224 60.6072 56.1168 60.5671Z" fill="white"/>
<path d="M62.034 54.4487C62.026 54.0798 62.0501 53.751 62.0902 53.7269C62.1303 53.6948 62.2586 53.6708 62.3869 53.6708C62.5152 53.6708 62.6836 53.751 62.7879 53.8472C62.9322 53.9996 62.9482 54.0958 62.9162 54.4326C62.8841 54.7293 62.8199 54.8737 62.6836 54.9779C62.5793 55.0581 62.3949 55.1223 62.0501 55.1143L62.034 54.4487Z" fill="#47004C"/>
<path d="M47.7757 54.5208C47.8879 54.3444 48.0884 54.1519 48.2167 54.0958C48.3531 54.0397 48.6017 54.0076 48.7781 54.0236C48.9545 54.0477 49.1871 54.1359 49.2993 54.2161C49.4116 54.3043 49.572 54.4887 49.6602 54.6411C49.7645 54.8256 49.8286 55.1143 49.8447 55.5152C49.8767 56.0044 49.8527 56.1888 49.7083 56.4936C49.6041 56.7261 49.4357 56.9427 49.2833 57.0389C49.139 57.1271 48.8823 57.1993 48.722 57.1993C48.5536 57.1993 48.305 57.1431 48.1766 57.079C48.0243 57.0068 47.8719 56.8144 47.7596 56.5738C47.6153 56.2771 47.5752 56.0525 47.5752 55.5152C47.5752 54.9218 47.5993 54.7935 47.7757 54.5208Z" fill="#47004C"/>
<path d="M71.152 55.5553C71.2162 54.9779 71.2723 54.4487 71.2723 54.3685C71.2723 54.2562 71.3445 54.2321 71.6893 54.2321C71.9727 54.2321 72.1999 54.2856 72.3709 54.3925C72.5153 54.4807 72.7078 54.6973 72.796 54.8737C72.8922 55.0581 72.9564 55.3548 72.9564 55.5714C72.9564 55.7879 72.9163 56.1006 72.8681 56.2771C72.82 56.4535 72.6837 56.7181 72.5714 56.8705C72.4511 57.0229 72.2266 57.1993 72.0742 57.2634C71.8898 57.3356 71.6492 57.3597 70.9515 57.2795L70.9916 56.9346C71.0157 56.7502 71.0879 56.1247 71.152 55.5553Z" fill="#47004C"/>
<path d="M74.865 56.4856C74.865 56.4294 74.9933 56.1648 75.1536 55.9082C75.3221 55.6435 75.4824 55.4511 75.5065 55.4671C75.5386 55.4831 75.6188 55.7558 75.6829 56.0605C75.7471 56.3733 75.7872 56.6459 75.7631 56.67C75.7391 56.6941 75.5306 56.686 75.298 56.654C75.0334 56.6219 74.873 56.5577 74.865 56.4856Z" fill="#47004C"/>
</svg>
