<svg width="154" height="120" viewBox="0 0 154 120" fill="none" xmlns="http://www.w3.org/2000/svg">
<rect width="154" height="120" rx="16" fill="white"/>
<path fill-rule="evenodd" clip-rule="evenodd" d="M75.0832 27.814C75.4857 27.7992 75.9627 27.9324 76.41 28.1693C76.8125 28.3618 77.3491 28.5839 77.6175 28.6432C77.9902 28.732 78.0945 28.8356 78.0945 29.0874C78.0945 29.3391 77.9007 29.5316 77.3044 29.8573C76.887 30.0794 76.2758 30.5532 75.9627 30.8938C75.6646 31.2195 75.113 32.0783 74.1142 34.092L75.5453 33.8403C76.3354 33.7071 77.2299 33.4998 78.0945 33.1296V35.1581C78.0945 36.2834 78.169 37.8974 78.2436 38.7562C78.333 39.6149 78.5417 40.9772 78.7057 41.7915C78.8697 42.6059 79.2722 44.0718 79.6002 45.049C79.9281 46.0263 80.584 47.6254 81.0611 48.6026C81.5381 49.5799 82.358 51.0161 82.8649 51.7861C83.3866 52.556 84.2811 53.785 84.8625 54.5105C85.4439 55.2361 87.9036 57.768 90.3186 60.1223C92.7336 62.4765 94.6119 64.357 94.4927 64.283C94.3734 64.2237 93.3895 63.6167 92.3311 62.9207C91.2727 62.2248 89.8565 61.2624 89.2005 60.7738C88.5446 60.2851 87.3371 59.3079 86.5172 58.612C85.6973 57.9309 84.2215 56.5539 83.2525 55.5766C82.2686 54.5846 80.8673 53.0595 80.1368 52.1562C79.3915 51.253 78.3479 49.8908 77.7964 49.1209C77.2448 48.3509 76.3951 47.0479 75.9031 46.2336C75.4112 45.4192 74.5465 43.8497 73.995 42.754C73.4434 41.6583 72.6682 39.9555 72.2657 38.9783C71.8781 38.001 71.2967 36.2982 70.9688 35.2025C70.6408 34.1068 70.1936 32.3596 69.9849 31.3084C69.7762 30.2719 69.6122 29.265 69.6271 29.0726C69.6569 28.7616 69.7911 28.7024 71.1626 28.4063C71.9825 28.2286 73.0558 28.0361 73.5477 27.962C74.0397 27.888 74.7254 27.8288 75.0683 27.814H75.0832ZM79.6598 32.0931C79.7492 32.2264 80.4499 32.8039 81.1952 33.3961C81.9555 33.9736 82.7307 34.5362 82.9096 34.6251C83.1779 34.7435 83.4165 34.7139 83.9978 34.4918C84.4003 34.3289 85.0115 34.092 85.9358 33.6774L85.8165 34.5955C85.742 35.247 85.7718 35.6319 85.9209 35.9725C86.07 36.313 86.711 36.9053 87.993 37.8678C89.4689 38.9783 89.8863 39.3632 89.9757 39.7186C90.0502 40.074 89.9757 40.2961 89.5434 40.9031C89.2453 41.3029 88.7831 42.2505 88.4999 42.9761C88.2166 43.7016 87.993 44.3235 88.0079 44.3383C88.0079 44.3679 88.5893 44.2198 89.29 44.0125C89.9906 43.8053 90.5571 43.6572 90.572 43.6868C90.572 43.7016 90.7062 44.3827 90.8403 45.1971C90.9894 46.0115 91.4665 48.0696 91.8988 49.7872C92.3311 51.5048 93.1212 54.1996 93.6578 55.7839C94.1945 57.3682 94.9995 59.5744 95.4616 60.6701C95.9089 61.7658 96.2517 62.6838 96.2219 62.6986C96.1772 62.7283 95.6852 62.1952 95.1188 61.5141C94.5672 60.8478 93.7324 59.7965 93.2852 59.1894C92.8379 58.5824 92.1075 57.5163 91.6752 56.8204C91.2428 56.1245 90.4229 54.629 89.8565 53.4889C89.3049 52.3487 88.5893 50.6904 88.2614 49.7872C87.9483 48.884 87.4862 47.2996 87.2327 46.2336C86.9793 45.1675 86.6663 43.5239 86.5321 42.5615C86.4128 41.6139 86.3085 40.3849 86.2936 39.837C86.2936 39.2744 86.2489 38.5637 86.1892 38.2379C86.1147 37.8381 85.9954 37.6308 85.8165 37.6012C85.6824 37.5864 85.4588 37.6605 85.3246 37.7493C85.101 37.9122 85.0861 38.1787 85.1606 39.7186C85.2053 40.6958 85.3544 42.2209 85.4886 43.1241C85.6228 44.0274 85.8613 45.3155 86.0252 46.0115C86.1892 46.7074 86.4874 47.8327 86.6812 48.5286C86.8899 49.2245 87.3222 50.4831 87.6651 51.3419C87.993 52.2007 88.7235 53.7554 89.2751 54.8215C89.8266 55.8875 90.7807 57.5163 91.4068 58.4491C92.0329 59.3819 93.0317 60.759 93.628 61.4845C94.6417 62.7431 94.5523 62.669 91.8093 60.0186C90.2142 58.4935 88.3806 56.6871 87.7396 56.0208C87.0986 55.3693 86.1594 54.318 85.6675 53.711C85.1755 53.1039 84.3705 51.9934 83.8786 51.2678C83.4015 50.5423 82.7009 49.3282 82.3282 48.6026C81.9555 47.8771 81.4189 46.7074 81.1505 46.0115C80.8822 45.3155 80.4946 44.1458 80.271 43.4203C80.0623 42.6947 79.7641 41.3177 79.6002 40.3849C79.4362 39.4077 79.2722 37.3939 79.2126 35.6467C79.138 33.2925 79.1529 32.5225 79.302 32.2412C79.466 31.9303 79.5107 31.9006 79.6598 32.0931ZM93.2852 41.3029L94.8952 42.828L94.9995 45.5673C95.0442 47.0775 95.1933 49.2097 95.3275 50.3054C95.4616 51.4011 95.73 53.2075 95.9387 54.3032C96.1474 55.3989 96.5797 57.3386 96.9077 58.5972C97.2356 59.8558 97.8319 61.8843 98.2344 63.1132C98.6518 64.3274 98.9798 65.3935 98.9649 65.4823C98.9649 65.5711 98.786 65.2898 98.5773 64.89C98.3686 64.4755 97.8021 63.2761 97.34 62.2248C96.8629 61.1735 96.1176 59.2931 95.6554 58.0789C95.2082 56.85 94.5225 54.8511 94.1349 53.6369C93.7473 52.408 93.151 50.2166 92.7783 48.7507C92.4205 47.2848 92.018 45.434 91.6006 43.1982L92.2118 42.6355C92.5398 42.3394 92.9274 41.91 93.0466 41.7027L93.2852 41.3029ZM96.0132 43.6276L96.3859 43.8645C96.5946 43.9977 96.7586 44.1162 96.7586 44.131C96.7586 44.1458 96.6244 44.4716 96.4455 44.8565C96.2815 45.2415 96.1176 45.5524 96.0728 45.5524C96.0281 45.5524 95.9983 45.1231 96.0132 44.59V43.6276ZM98.1599 44.131L99.6059 45.3155L99.5463 63.4094L99.099 62.1508C98.8605 61.4549 98.3686 59.7521 97.9959 58.3751C97.6381 56.9832 97.1462 54.6586 96.9077 53.1927C96.6542 51.7269 96.4306 50.187 96.2965 49.0468L97.7127 51.6232L97.9661 51.1494C98.1003 50.8829 98.4282 50.1425 98.6965 49.491C99.114 48.425 99.1587 48.1732 99.099 47.122C99.0543 46.1743 98.95 45.7449 98.6071 45.0342L98.1599 44.131ZM97.489 68.2067L97.1462 68.7694C96.9673 69.0803 96.2219 70.2501 95.4915 71.3902C94.7759 72.5303 93.6877 74.47 93.0765 75.6841C92.4802 76.9131 91.705 78.7047 91.377 79.682C91.0341 80.6592 90.7658 81.6513 90.7658 81.8734C90.7658 82.1251 90.8702 82.3176 91.0341 82.3768C91.1832 82.436 91.3919 82.4064 91.4963 82.3324C91.6155 82.2731 91.8093 81.903 91.9286 81.5328C92.0478 81.1774 92.4056 80.141 92.7485 79.2378C93.0765 78.3494 93.7473 76.8095 94.2392 75.8322C94.7312 74.855 95.9685 72.7524 96.9822 71.1385C97.9959 69.5245 98.8605 68.2364 98.9052 68.2512C98.9351 68.266 98.7413 68.7842 98.4729 69.3913C98.1897 70.0132 97.7574 71.1385 97.5189 71.9084C97.2654 72.6932 96.9524 73.8185 96.8182 74.4256C96.699 75.0475 96.5052 76.3949 96.4008 77.4313C96.2666 78.8232 96.2517 79.3858 96.3859 79.5783C96.4753 79.7264 96.6691 79.8596 96.8331 79.8893C96.9822 79.9189 97.1909 79.8152 97.2953 79.6672C97.4145 79.5043 97.489 78.9416 97.489 78.2753C97.489 77.6682 97.5785 76.5726 97.6978 75.8322C97.817 75.1067 98.0555 74.011 98.2344 73.3891C98.3984 72.782 98.7562 71.7308 99.0096 71.0644C99.2779 70.3833 99.5165 69.8355 99.5314 69.8355C99.5463 69.8355 99.5761 73.6704 99.5761 86.8632L98.2642 86.878C97.2207 86.878 96.6542 86.7744 95.402 86.4042C94.3734 86.0933 93.5237 85.9304 92.9423 85.9304C92.4056 85.9304 91.6603 86.0637 91.1087 86.2562C90.6018 86.4338 89.8863 86.5671 89.5434 86.5671C89.2005 86.5671 88.2017 86.3598 87.352 86.1081C86.4874 85.8564 85.7569 85.6343 85.742 85.6343C85.7122 85.6195 85.9358 84.7015 86.219 83.5761C86.5172 82.4508 86.9495 81.0294 87.2029 80.3927C87.4564 79.756 87.9781 78.6159 88.3806 77.8311C88.7682 77.0612 89.3496 76.0247 89.6627 75.5361C89.9757 75.0475 90.6316 74.1146 91.1385 73.4631C91.6304 72.8116 92.5398 71.7604 93.151 71.1237C93.7771 70.4722 94.7312 69.5542 95.2828 69.0803C96.1474 68.34 96.3859 68.2067 97.489 68.2067Z" fill="#E1B0E4"/>
<path fill-rule="evenodd" clip-rule="evenodd" d="M84.058 26.1702C84.2816 26.1702 85.027 26.57 85.8916 27.1327C86.6817 27.6657 87.3972 28.2432 87.4718 28.4357C87.5612 28.6281 87.5314 29.4869 87.4271 30.6863C87.3227 31.7524 87.1885 32.7148 87.1438 32.8333C87.0842 32.9517 86.8009 33.1738 86.5177 33.3219C86.1599 33.4848 85.9959 33.6772 85.981 33.9141C85.981 34.1807 85.9512 34.1955 85.8767 33.9882C85.7872 33.7513 85.7127 33.7513 85.027 34.077C84.6096 34.2547 84.0282 34.4916 83.7151 34.5805C83.2977 34.7137 83.089 34.7137 82.8356 34.5805C82.6418 34.4916 81.8815 33.9438 81.151 33.3663C80.4206 32.7888 79.7199 32.2262 79.6156 32.0929C79.4814 31.9449 79.4516 31.6191 79.5112 31.0564C79.5559 30.6122 79.6454 29.8571 79.705 29.3833C79.7746 28.8009 79.9088 28.4209 80.1075 28.2432C80.2715 28.0951 81.1361 27.5769 82.0455 27.0734C82.9548 26.5848 83.8493 26.185 84.058 26.1702ZM78.5721 28.791C78.8404 28.8354 79.0938 28.9095 79.1385 28.9391C79.1833 28.9687 79.1534 29.0427 79.064 29.1168C78.9746 29.1908 78.736 29.2796 78.4975 29.3389C78.1397 29.4129 78.095 29.3833 78.095 29.0575C78.0801 28.7318 78.1248 28.7022 78.5721 28.791ZM58.3278 32.1818C58.5067 32.2262 59.0135 32.5075 59.4608 32.7888C59.908 33.085 60.549 33.5292 60.8621 33.7809C61.1751 34.0326 61.4882 34.3732 61.5478 34.536C61.6074 34.6989 61.5925 35.6613 61.518 36.683C61.4434 37.7195 61.2944 38.6671 61.19 38.83C61.0857 38.9929 60.549 39.3186 60.0123 39.5703C59.4608 39.822 59.0135 40.0441 59.0135 40.0886C59.0135 40.133 59.1924 40.207 59.416 40.2662C59.6695 40.3255 60.4446 40.977 61.354 41.895C62.7404 43.272 62.8746 43.4793 62.8895 43.9827C62.8895 44.4713 62.7255 44.7231 61.2496 46.3814C59.9527 47.8473 59.5055 48.2471 59.1328 48.3211C58.7154 48.4099 58.3576 48.2619 56.6284 47.3142C54.7649 46.2926 54.6159 46.1741 54.6159 45.7743C54.6159 45.4634 54.6904 45.3301 54.914 45.3005C55.078 45.2709 55.9873 45.6855 56.9265 46.2185C57.8657 46.7516 58.7303 47.1958 58.8346 47.1958C58.9241 47.1958 59.6546 46.4851 61.8609 44.0123L59.0284 41.1991L57.8657 41.7321C57.2246 42.0282 56.688 42.354 56.6582 42.4724C56.6284 42.5909 56.7178 43.0647 56.8371 43.5385C56.9861 44.0568 57.1799 44.4121 57.3439 44.4713C57.4781 44.5306 57.9551 44.5306 58.3874 44.4713C59.1626 44.3825 59.1626 44.3825 59.1626 43.8643C59.1626 43.5089 59.0881 43.346 58.939 43.346C58.8197 43.346 58.6558 43.2128 58.5663 43.0499C58.462 42.8426 58.4769 42.6797 58.611 42.5317C58.7005 42.3984 58.9539 42.2948 59.1626 42.2948C59.3713 42.2948 59.6993 42.4724 59.908 42.6945C60.2061 43.0055 60.2807 43.2276 60.2807 43.8939C60.2807 44.6194 60.2359 44.7527 59.8036 45.1377C59.3415 45.5374 59.2371 45.567 58.0446 45.567C56.9265 45.567 56.7327 45.5226 56.4346 45.2413C56.2408 45.0488 55.9575 44.501 55.8084 44.0123C55.6743 43.5237 55.5252 42.887 55.4805 42.6057C55.4209 42.2355 55.4954 41.9838 55.719 41.6877C55.8979 41.4508 56.3302 41.1546 57.3737 40.7549L56.8818 40.4587C56.5985 40.2958 55.7935 39.7332 55.0929 39.2002C54.3773 38.6671 53.7363 38.0748 53.6469 37.8675C53.5425 37.601 53.5574 37.0532 53.6767 35.9871C53.8258 34.8322 53.945 34.4028 54.1686 34.1955C54.3326 34.0326 55.2718 33.4996 56.2408 32.9961C57.4632 32.3742 58.1191 32.1225 58.3278 32.1818ZM79.2131 32.2558C79.2131 32.241 79.228 33.618 79.2429 35.3208C79.2578 37.2309 79.3621 38.9781 79.5112 39.9405C79.6454 40.7993 79.9137 42.1023 80.1075 42.8278C80.2864 43.5533 80.7038 44.8267 81.002 45.6411C81.315 46.4555 81.8815 47.7584 82.2691 48.5284C82.6567 49.2983 83.3871 50.5421 83.8642 51.2676C84.3561 51.9932 85.1611 53.1037 85.6531 53.7107C86.145 54.3178 87.0842 55.3691 87.7252 56.0206C88.3662 56.6869 90.1998 58.4933 91.7949 60.0184C94.5379 62.6688 94.6273 62.7429 93.6136 61.4843C93.0173 60.7588 92.0185 59.3817 91.3924 58.4489C90.7663 57.5161 89.8122 55.8873 89.2607 54.8213C88.7091 53.7552 87.9786 52.2005 87.6507 51.3417C87.3078 50.4829 86.8755 49.2243 86.6668 48.5284C86.473 47.8325 86.1748 46.7072 86.0109 46.0112C85.8469 45.3153 85.6084 44.0271 85.4742 43.1239C85.34 42.2207 85.1909 40.6956 85.1462 39.7184C85.0717 38.1785 85.0866 37.912 85.3102 37.7639C85.4444 37.6603 85.668 37.5862 85.8021 37.6158C85.981 37.6306 86.1003 37.8379 86.1748 38.2377C86.2345 38.5635 86.2792 39.2742 86.2792 39.8368C86.2941 40.3847 86.3984 41.6136 86.5177 42.5761C86.6519 43.5237 86.9649 45.1673 87.2184 46.2333C87.4718 47.2994 87.9339 48.8838 88.247 49.787C88.5749 50.6902 89.2905 52.3485 89.8421 53.4886C90.4085 54.6288 91.2284 56.1242 91.6608 56.8202C92.0931 57.5161 92.8235 58.5822 93.2708 59.1892C93.718 59.7963 94.5528 60.8476 95.1044 61.5287C95.6709 62.195 96.1628 62.7281 96.2075 62.7132C96.2373 62.6836 95.8945 61.7656 95.4472 60.6699C94.9851 59.5742 94.195 57.3976 93.6733 55.8577C93.1515 54.3178 92.4509 52.008 92.1229 50.7494C91.7949 49.4908 91.3179 47.5067 91.0645 46.3518C90.8259 45.1821 90.6172 44.0864 90.6172 43.9087C90.6321 43.6718 90.7812 43.4941 91.6011 43.1239L91.8546 44.6046C92.0036 45.419 92.4061 47.2846 92.7639 48.7505C93.1366 50.2164 93.7329 52.4226 94.1205 53.6367C94.5081 54.8657 95.1938 56.8646 95.641 58.0787C96.1032 59.3077 96.8485 61.1733 97.3256 62.2246C97.7877 63.2759 98.3542 64.4901 98.5629 64.8898C98.7716 65.3044 98.9505 65.5709 98.9505 65.4821C98.9654 65.3933 98.6374 64.342 98.22 63.113C97.8175 61.8989 97.2212 59.8555 96.8933 58.597C96.5653 57.3384 96.133 55.3987 95.9243 54.303C95.7156 53.2073 95.4472 51.4009 95.3131 50.3052C95.1789 49.2095 95.0298 47.0477 94.8659 42.7242L94.3888 42.3688C94.1205 42.1763 93.7925 41.8654 93.6733 41.6877C93.4646 41.3767 93.4646 41.1694 93.6733 39.7184C93.8223 38.5783 93.9714 38.0156 94.1503 37.8379C94.2994 37.7047 95.1193 37.216 95.9839 36.757C96.8485 36.298 97.7579 35.8834 97.9964 35.8538C98.3691 35.7798 98.6821 35.9279 99.8449 36.7126C100.62 37.216 101.336 37.7787 101.455 37.9416C101.634 38.1933 101.634 38.5635 101.5 40.1626C101.395 41.2287 101.276 42.2207 101.201 42.3836C101.142 42.5613 100.546 42.9314 98.22 44.0123L98.6225 44.4565C98.861 44.6934 98.9058 44.7823 98.7418 44.6342C98.5778 44.501 98.384 44.4269 98.3244 44.4862C98.2498 44.5602 98.22 44.501 98.2498 44.3825C98.2797 44.2048 98.1604 44.1752 97.6237 44.2048C97.1467 44.2344 96.8038 44.1604 95.9839 43.6422V45.6115C95.9839 46.6776 96.0883 48.1286 96.2075 48.8245C96.3119 49.5204 96.5951 51.2528 96.8038 52.6743C97.0274 54.0957 97.4299 56.1983 97.7132 57.3384C97.9964 58.4785 98.5033 60.3146 99.4871 63.4092L99.5617 54.3771C99.6064 49.1947 99.6362 54.1994 99.6362 66.1484C99.6362 77.594 99.6064 83.0873 99.4871 69.7761L99.0101 71.0346C98.7418 71.7305 98.3989 72.7966 98.22 73.4037C98.056 74.0108 97.8175 75.1213 97.6983 75.8468C97.579 76.5723 97.4746 77.6828 97.4746 78.2899C97.4746 78.9414 97.4001 79.5189 97.2958 79.667C97.1914 79.8298 96.9678 79.9187 96.8187 79.889C96.6697 79.8742 96.4609 79.7262 96.3715 79.5929C96.2522 79.4004 96.2522 78.823 96.3864 77.4459C96.4908 76.3947 96.6846 75.0473 96.8187 74.4402C96.9529 73.8331 97.251 72.693 97.5045 71.923C97.7579 71.1531 98.1902 70.013 98.4585 69.4059C98.7418 68.7988 98.9356 68.2806 98.8909 68.2658C98.8461 68.2362 97.9815 69.5391 96.9678 71.1531C95.9541 72.7522 94.7317 74.8696 94.2248 75.8468C93.7329 76.8241 93.0621 78.3492 92.7341 79.2524C92.4061 80.1556 92.0334 81.1772 91.9142 81.5474C91.7949 81.9176 91.616 82.2729 91.4968 82.347C91.3775 82.421 91.1688 82.4358 91.0346 82.3914C90.8707 82.3322 90.7663 82.1249 90.7663 81.888C90.7663 81.6511 91.0346 80.6738 91.3626 79.6966C91.7055 78.7193 92.4658 76.9277 93.077 75.6987C93.6733 74.4846 94.9106 72.308 97.4597 68.2954L96.9529 68.2658C96.4311 68.2213 96.4311 68.2213 96.5057 67.5995C96.5355 67.2441 96.61 66.637 96.7442 65.4821L95.7603 64.9639C94.9702 64.5493 93.9267 63.6165 90.3638 60.1517C87.9339 57.7974 85.4593 55.2507 84.863 54.5251C84.2816 53.7996 83.3722 52.5558 82.8654 51.7859C82.3585 51.0159 81.5386 49.5797 81.0616 48.6024C80.5846 47.6252 79.9286 46.0261 79.6007 45.0488C79.2727 44.0716 78.8702 42.6057 78.7062 41.7913C78.5422 40.977 78.3335 39.6147 78.2441 38.7559C78.1696 37.8972 78.095 36.2684 78.1099 33.0554L78.6615 32.6556C78.9597 32.4483 79.2131 32.2558 79.2131 32.2558ZM66.512 34.8322C66.7356 34.8766 67.5257 35.306 68.2561 35.7946C69.0015 36.2832 69.6723 36.8163 69.7469 36.9791C69.8512 37.1716 69.8363 37.9268 69.732 39.2446C69.6425 40.3107 69.5084 41.3175 69.4338 41.4656C69.3593 41.5988 68.7183 41.9986 68.0027 42.3244C67.2722 42.6649 66.4225 43.0351 66.0946 43.1387C65.6026 43.3164 65.4386 43.3164 65.1256 43.1535C64.9169 43.0499 64.1268 42.4576 63.3516 41.8506C62.5764 41.2583 61.9056 40.6216 61.8459 40.4587C61.7714 40.2958 61.8161 39.4667 61.9354 38.6079C62.0397 37.7491 62.2186 36.9643 62.323 36.8607C62.4273 36.7718 63.3218 36.2536 64.3057 35.7206C65.6473 34.995 66.1989 34.7729 66.512 34.8322ZM90.1998 39.4963C90.4234 39.5999 90.6172 39.7332 90.6172 39.7776C90.6172 39.822 90.4831 39.9553 90.3191 40.0589C90.0657 40.207 90.0209 40.207 90.0209 40.0145C90.0209 39.8961 89.9762 39.6888 89.9166 39.5555C89.8122 39.3334 89.8421 39.3334 90.1998 39.4963Z" fill="#47004C"/>
<path d="M66.5859 29.872C66.6157 29.8276 67.2568 29.5907 68.0021 29.339C68.7475 29.0725 69.3736 28.88 69.4034 28.8948C69.4332 28.8948 69.5525 29.413 69.6718 30.0201C69.791 30.6272 69.8357 31.175 69.7761 31.2194C69.7165 31.2639 69.1649 31.486 68.5537 31.7229C67.9425 31.945 67.1822 32.2559 66.3176 32.6853L66.407 31.3231C66.4667 30.5679 66.5412 29.9164 66.5859 29.872Z" fill="#47004C"/>
<path d="M60.8764 33.6477C60.5782 33.4256 60.5782 33.4256 60.936 33.1295C61.1298 32.9666 61.3087 32.8482 61.3385 32.8926C61.3534 32.9222 61.3236 33.1591 61.264 33.4108C61.1745 33.855 61.1596 33.8698 60.8764 33.6477Z" fill="#47004C"/>
<path d="M52.3494 46.6777C52.3941 46.3519 52.5431 45.6708 52.6922 45.1674C52.8264 44.6491 52.9606 44.2346 52.9904 44.2346C53.0053 44.2346 52.9755 44.664 52.8264 46.1298L53.4972 46.7813C53.8699 47.1367 54.3619 47.5809 55.0625 48.0843L54.3917 47.803C54.019 47.6401 53.3929 47.4624 52.2748 47.2699L52.3494 46.6777Z" fill="#47004C"/>
<path d="M99.7102 90.9202C99.6953 90.6092 99.6804 80.2149 99.6655 67.8365L99.6357 45.3006L100.008 45.5672C100.217 45.7152 100.679 45.9521 101.052 46.0854C101.425 46.2335 101.797 46.426 101.902 46.5148C102.006 46.6036 102.155 47.4032 102.244 48.3064C102.334 49.3429 102.394 57.457 102.394 91.468H99.7102V90.9202Z" fill="#47004C"/>
<path d="M52.7519 50.3793C53.1245 50.2905 53.5569 50.1424 53.7208 50.0536C53.8848 49.95 54.0488 49.8759 54.0786 49.8759C54.1233 49.8759 53.8848 50.1572 53.5419 50.4978C53.214 50.8384 52.722 51.4306 51.9916 52.4671L52.081 50.557L52.7519 50.3793Z" fill="#47004C"/>
<path d="M52.0065 55.7246L53.1544 55.3988C53.7954 55.236 54.3917 55.0879 54.496 55.0731C54.6153 55.0583 54.6898 55.4729 54.7345 56.4205C54.7644 57.1756 54.7793 64.8603 54.7494 73.4927C54.7345 82.125 54.7196 89.6912 54.6898 91.4828H52.0065V55.7246Z" fill="#47004C"/>
<path d="M45.5963 92.4305C45.8497 92.1343 46.1926 91.8382 46.3715 91.7642C46.5653 91.7049 49.6809 91.6457 53.3034 91.6309C59.2962 91.6309 59.9521 91.6457 60.4441 91.8826C60.7422 92.0307 61.1149 92.312 61.264 92.5193C61.4131 92.7118 61.5621 93.1264 61.6665 94H45L45.0745 93.6594C45.1044 93.4818 45.1491 93.2448 45.1491 93.1412C45.1491 93.0375 45.3429 92.7118 45.5963 92.4305Z" fill="#47004C"/>
<path d="M93.136 92.5045C93.3 92.2824 93.6429 92.0011 93.9261 91.8678C94.3584 91.6605 95.2529 91.6309 107.686 91.6161L108.193 91.9567C108.476 92.1343 108.819 92.4897 108.968 92.7414C109.102 92.9783 109.251 93.3633 109.4 94H92.6292L92.7484 93.4373C92.8081 93.1412 92.9869 92.7118 93.136 92.5045Z" fill="#47004C"/>
<path d="M87.5316 30.2121C87.5465 30.1973 88.5006 29.6939 89.6484 29.072C91.0646 28.3317 91.8995 27.9615 92.2572 27.9615C92.6746 27.9467 93.1815 28.228 94.8362 29.3237C96.1034 30.1677 96.9531 30.8192 97.0425 31.0561C97.1469 31.3078 97.1469 32.1666 96.8487 36.3125L95.7754 36.8603C95.194 37.1565 94.5381 37.5414 94.2996 37.7043C94.0759 37.882 93.8672 38.1929 93.8225 38.415C93.7629 38.7556 93.5691 38.9037 92.6746 39.3182C92.0784 39.5848 91.3777 39.7921 91.1392 39.7921C90.9007 39.7921 90.5578 39.7032 90.3789 39.5996C90.2149 39.4959 89.1863 38.726 88.0981 37.8672C86.9949 37.0084 86.0409 36.194 85.9812 36.046C85.9067 35.9127 85.8471 35.5129 85.8471 35.1576C85.8471 34.817 85.8918 34.3136 85.9514 34.0322C86.0409 33.6621 86.2048 33.4548 86.5626 33.2919C86.8309 33.1586 87.0993 32.8921 87.1738 32.6848C87.2484 32.4775 87.3527 31.8408 87.3974 31.2782C87.4571 30.7007 87.5018 30.2269 87.5316 30.2121Z" fill="#D1458B"/>
<path d="M59.0137 40.0882C59.0137 40.0438 59.4759 39.8069 60.0274 39.5403C60.579 39.2886 61.0411 39.0665 61.056 39.0665C61.0859 39.0517 61.2647 39.1702 61.4734 39.3034C61.712 39.4663 61.8312 39.6588 61.7716 39.7921C61.7269 39.9105 61.7567 40.1918 61.8461 40.4139C61.9356 40.6509 62.4871 41.1987 64.2611 42.5313L64.1568 44.3081C64.0971 45.2854 63.9928 46.4107 63.9332 46.8253C63.8437 47.2843 63.6797 47.6841 63.4561 47.8913C63.2623 48.069 62.0697 48.6613 60.8026 49.1943C59.0137 49.9495 58.3876 50.1568 58.0447 50.0827C57.7913 50.0383 56.6584 49.2832 55.5254 48.4096C54.3775 47.536 53.3042 46.6328 52.8271 45.9961L53.0955 43.8195C53.2893 42.3092 53.4533 41.5245 53.6321 41.2727C53.7812 41.0654 54.3477 40.6657 54.8993 40.3843C55.4359 40.103 55.8384 39.8069 55.7788 39.7328C55.7043 39.6588 55.9726 39.8513 56.3602 40.1474C56.7627 40.4436 57.1652 40.6805 57.2546 40.6953C57.359 40.6953 57.0907 40.8581 56.6584 41.0654C56.226 41.2579 55.7788 41.5985 55.6297 41.8206C55.4807 42.0871 55.421 42.398 55.4658 42.6794C55.5105 42.9163 55.6745 43.5234 55.8235 44.012C55.9577 44.5006 56.2409 45.0485 56.4347 45.2261C56.7329 45.5223 56.9267 45.5667 58.0447 45.5667C59.2373 45.5667 59.3417 45.5371 59.7889 45.1373C60.2361 44.7523 60.2809 44.6191 60.2809 43.8935C60.2809 43.2272 60.2063 43.0051 59.9082 42.6942C59.6995 42.4721 59.3715 42.2944 59.1628 42.2944C58.9541 42.2944 58.7007 42.398 58.5963 42.5313C58.4771 42.6794 58.4621 42.8423 58.5665 43.0495C58.641 43.2124 58.8199 43.3457 58.9392 43.3457C59.0883 43.3457 59.1628 43.5086 59.1628 43.8639C59.1628 44.3822 59.1628 44.3822 58.3727 44.471C57.9553 44.5302 57.4783 44.5302 57.3292 44.471C57.1801 44.4118 56.9863 44.0564 56.8372 43.5234C56.718 43.0644 56.6285 42.5905 56.6584 42.4721C56.6882 42.3536 57.2248 42.0279 59.0286 41.1987L61.861 44.012L60.4299 45.5963C59.6547 46.4847 58.9243 47.1954 58.8199 47.1954C58.7305 47.1954 57.8659 46.7512 56.9267 46.2182C55.9875 45.6851 55.0782 45.2706 54.9142 45.3002C54.6906 45.3298 54.616 45.463 54.616 45.774C54.616 46.1738 54.7651 46.2922 56.6285 47.3139C58.3578 48.2615 58.7156 48.4096 59.1181 48.3207C59.5057 48.2467 59.9529 47.8469 61.2498 46.3811C62.7257 44.7227 62.8896 44.471 62.8896 43.9676C62.8747 43.4789 62.7406 43.2716 61.3542 41.8946C60.4448 40.9766 59.6696 40.3251 59.4162 40.2659C59.1926 40.2067 59.0137 40.1326 59.0137 40.0882Z" fill="#D1458B"/>
<path d="M99.6662 67.4807C99.6364 67.8508 99.6066 67.5843 99.6066 66.8884C99.6066 66.1925 99.6364 65.8963 99.6662 66.2221C99.696 66.5478 99.696 67.1105 99.6662 67.4807Z" fill="#D1458B"/>
<path d="M76.3345 26.5999C76.3047 26.3926 76.3792 26.1705 76.5283 26.0668C76.7221 25.9187 76.886 25.9336 77.2438 26.0816C77.5122 26.2001 78.3619 26.5702 79.1371 26.9108C79.9123 27.2514 80.6129 27.5623 80.7023 27.6067C80.7918 27.6511 80.6278 27.814 80.3744 27.9621C80.1061 28.1101 79.8824 28.3174 79.8824 28.3915C79.8824 28.4655 79.0923 28.1842 78.1383 27.7548C76.6624 27.0885 76.3643 26.896 76.3345 26.5999Z" fill="#018A6D"/>
<path d="M62.1724 30.7161C62.4855 30.0794 63.1265 29.3095 64.1998 28.199C65.0645 27.3254 65.8248 26.6147 65.8844 26.6147C65.944 26.6147 66.108 27.5327 66.2571 28.6432C66.4061 29.8573 66.4658 31.0419 66.4211 31.5749C66.3614 32.0635 66.1825 32.8631 66.0185 33.3517C65.8546 33.8403 65.5564 34.477 65.3775 34.7584C65.1241 35.1285 64.6471 35.4691 63.6632 35.9725C62.9029 36.3723 62.2321 36.8017 62.1575 36.935C62.083 37.083 61.9637 37.6605 61.8892 38.2231C61.8296 38.771 61.7401 39.2596 61.6954 39.2744C61.6507 39.304 61.5314 39.2892 61.4271 39.23C61.278 39.156 61.2631 38.9931 61.3823 38.5341C61.4569 38.2083 61.5761 37.2015 61.6358 36.3131C61.7252 34.9064 61.6954 34.6251 61.4718 34.2401C61.2333 33.8255 61.2333 33.7367 61.4569 32.715C61.5911 32.1376 61.9041 31.2344 62.1724 30.7161Z" fill="#018A6D"/>
<path d="M100.082 29.4279C100.574 29.2651 101.677 29.0282 102.542 28.9245C103.406 28.8061 104.331 28.7172 105.076 28.6876L104.793 29.1614C104.644 29.4279 104.182 30.2127 103.764 30.9086C103.362 31.6045 102.706 32.4929 102.303 32.9075C101.901 33.3073 101.304 33.8255 100.976 34.0625C100.648 34.2846 99.9478 34.6251 99.4111 34.8176C98.8745 35.0101 98.1142 35.2174 96.9514 35.3951L97.0707 34.0032C97.1303 33.2333 97.175 32.256 97.175 31.0567L98.1887 30.3904C98.7403 30.0202 99.59 29.5908 100.082 29.4279Z" fill="#018A6D"/>
<path d="M76.573 31.5453C76.6326 31.412 77.3184 30.8494 78.0935 30.2719L79.5098 29.2503L79.5545 29.6797C79.5843 29.9018 79.5694 30.2423 79.5247 30.42C79.4799 30.6125 79.0476 31.0567 78.5855 31.3972C78.1085 31.7526 77.5718 32.1228 77.3929 32.2116C77.1991 32.3153 76.9606 32.3597 76.8711 32.3153C76.7668 32.2856 76.6326 32.1524 76.573 32.0191C76.4985 31.9007 76.4985 31.6934 76.573 31.5453Z" fill="#018A6D"/>
<path d="M91.0928 40.5774C91.6146 40.074 92.3301 39.5261 92.7028 39.3633C93.0755 39.2004 93.4184 39.0671 93.478 39.0523C93.5525 39.0523 93.5973 39.23 93.5973 39.4521C93.5973 39.7779 93.3289 40.1036 92.2556 41.0808C91.5251 41.762 90.8245 42.3098 90.7201 42.3098C90.6307 42.3098 90.4518 42.221 90.3474 42.1173C90.2431 42.0137 90.1686 41.836 90.1686 41.7175C90.1686 41.5843 90.586 41.0808 91.0928 40.5774Z" fill="#018A6D"/>
<path d="M50.6341 39.7334C50.6192 39.5409 50.6639 39.3485 50.7385 39.2892C50.7981 39.2448 51.0515 39.2004 51.29 39.2004C51.5136 39.2004 52.3932 39.2596 53.228 39.3485C54.0777 39.4373 54.9871 39.5261 55.2405 39.5706C55.5088 39.615 55.7324 39.689 55.7324 39.7482C55.7324 39.8075 55.4194 40.0444 54.3162 40.6514L52.6764 40.4738C51.7671 40.3849 50.9472 40.2517 50.8428 40.1924C50.7534 40.1332 50.649 39.9259 50.6341 39.7334Z" fill="#018A6D"/>
<path d="M101.021 42.6948C101.2 42.5171 101.349 42.2654 101.349 42.1173C101.349 41.9248 101.468 41.8656 101.901 41.8656C102.214 41.8656 102.885 41.9692 103.391 42.0877C103.913 42.2062 104.688 42.4727 105.106 42.6948C105.538 42.9021 106.522 43.5832 107.282 44.2051C108.057 44.8269 108.788 45.4192 108.922 45.5229C109.056 45.6265 109.146 45.745 109.101 45.7894C109.056 45.8338 108.117 46.0707 107.014 46.3224C105.329 46.7074 104.793 46.7666 103.734 46.7074C102.885 46.6482 102.124 46.5001 101.424 46.2484C100.753 45.9967 100.007 45.5673 99.3664 45.049C98.8148 44.59 98.3676 44.1754 98.3676 44.1162C98.3676 44.057 98.8745 43.7757 99.5155 43.5091C100.157 43.2278 100.827 42.8576 101.021 42.6948Z" fill="#018A6D"/>
<path d="M97.0856 48.2029C96.9812 48.0844 96.862 47.1664 96.8172 46.1596L96.7129 44.3087L97.8757 44.2939L97.98 46.1447C98.0546 47.5662 98.0248 48.0548 97.8906 48.2029C97.7862 48.3065 97.5924 48.3954 97.4732 48.3954C97.3539 48.3954 97.175 48.3065 97.0856 48.2029Z" fill="#018A6D"/>
<path d="M50.8577 48.7063C50.9472 48.6471 51.8714 48.4842 52.9 48.3658C53.9286 48.2325 54.838 48.114 54.9125 48.0992C55.002 48.0992 55.5685 48.4694 56.1797 48.9432C56.7909 49.417 57.4468 49.8908 57.6406 49.9797C57.8195 50.0685 58.1773 50.1574 58.4158 50.1574C58.7885 50.1574 58.8779 50.2314 58.9524 50.5571C59.0121 50.8681 58.9077 51.1642 58.535 51.7565C58.2667 52.2007 57.6406 52.9262 57.1486 53.3704C56.6567 53.8294 55.8517 54.3921 55.3598 54.629C54.8678 54.8807 53.6007 55.2953 52.5273 55.5618C51.4689 55.8432 50.5745 56.0504 50.5596 56.0356C50.5596 56.0208 50.9024 55.1324 51.3497 54.0812C51.9012 52.7634 52.3783 51.8601 52.8702 51.2679C53.2578 50.7793 53.8988 50.1426 54.2715 49.8612C54.6591 49.5651 54.9573 49.3282 54.9423 49.3134C54.9274 49.2986 54.0777 49.4022 53.0491 49.5207C52.0205 49.6539 51.0664 49.7132 50.9323 49.6539C50.7683 49.5947 50.6639 49.4022 50.6639 49.1949C50.6639 48.9876 50.7534 48.7655 50.8577 48.7063Z" fill="#018A6D"/>
<path d="M59.191 50.0389C59.1761 49.9797 59.34 49.8464 59.5636 49.7576C59.8022 49.6687 60.0556 49.5947 60.145 49.6095C60.2494 49.6243 60.7264 50.1129 61.2333 50.7052C61.7401 51.2975 62.1426 51.8453 62.1426 51.9342C62.1426 52.0082 62.1128 52.1711 62.0681 52.3043C62.0234 52.4228 61.8147 52.5116 61.5911 52.5116C61.2482 52.5116 60.9798 52.2747 60.2047 51.3271C59.668 50.6756 59.2208 50.0833 59.191 50.0389Z" fill="#018A6D"/>
<path d="M74.2034 26.2148C73.7264 25.6225 73.3239 25.0894 73.3388 25.045C73.3388 25.0006 74.2034 24.9858 75.2321 25.0154C76.9166 25.0598 77.2147 25.1042 78.0197 25.4596C78.5117 25.6965 79.2123 26.1703 79.585 26.5405C79.9577 26.8959 80.226 27.2364 80.1813 27.266C80.1366 27.3105 79.3763 27.0143 78.467 26.6145C77.2595 26.0815 76.7526 25.9334 76.5737 26.0371C76.3948 26.1259 76.3203 26.3184 76.3501 26.5701C76.3799 26.9255 76.5588 27.0439 78.0645 27.7102C78.9887 28.1248 79.7341 28.5098 79.7341 28.569C79.7341 28.6431 79.585 28.7171 79.4061 28.7615C79.2123 28.7911 78.6459 28.7615 78.139 28.6875C77.6172 28.5986 76.9166 28.3913 76.5737 28.2137C76.216 28.0508 75.7389 27.7695 75.5153 27.5918C75.2768 27.4141 74.6954 26.7922 74.2034 26.2148Z" fill="#08B38E" fill-opacity="0.9"/>
<path d="M77.1998 29.9016C77.5725 29.6943 78.1688 29.4426 78.5415 29.339C78.9142 29.2353 79.3167 29.1465 79.421 29.1465C79.5552 29.1317 79.585 29.1761 79.4956 29.2649C79.421 29.3242 78.7502 29.8128 78.0197 30.3458C77.2893 30.8789 76.6334 31.4119 76.5737 31.56C76.4992 31.6932 76.4843 31.8857 76.529 31.9746C76.5588 32.0782 76.693 32.2115 76.8272 32.2707C76.9464 32.3447 77.1998 32.3151 77.3936 32.2115C77.5725 32.1226 78.1092 31.7525 79.436 30.7604V31.4267C79.436 32.019 79.3763 32.1374 78.8844 32.5224C78.5713 32.7445 78.0496 33.0851 77.7216 33.2479C77.3936 33.4108 76.5141 33.6625 75.7538 33.8254C75.0084 33.9735 74.3525 34.0475 74.3078 33.9883C74.2631 33.9143 74.4867 33.3368 74.8147 32.6853C75.1426 32.0338 75.6644 31.2194 75.9774 30.8937C76.2756 30.5531 76.8272 30.1089 77.1998 29.9016Z" fill="#08B38E" fill-opacity="0.9"/>
<path d="M47.5341 39.4224C47.5788 39.3779 48.2795 39.1114 49.0994 38.8301C50.0087 38.5191 50.8734 38.3119 51.3355 38.3119C51.7529 38.3119 52.5132 38.4451 53.0498 38.608C53.5865 38.7709 54.1828 39.0374 54.7642 39.4964L53.5716 39.3927C52.9157 39.3335 52.0063 39.2743 51.5591 39.2743C50.769 39.2743 50.7392 39.2891 50.7094 39.6889C50.6796 39.9406 50.7541 40.1331 50.933 40.2219C51.0672 40.296 51.8125 40.4144 52.5877 40.4884C53.348 40.5477 54.0039 40.6365 54.0337 40.6809C54.0635 40.7254 53.9145 40.9178 53.7058 41.1251C53.3629 41.4509 53.2138 41.4953 52.1852 41.4805C51.3355 41.4805 50.8435 41.3768 50.292 41.1399C49.8895 40.9623 49.1143 40.5329 48.5776 40.2071C48.0409 39.8814 47.5788 39.5852 47.5341 39.5556C47.4894 39.526 47.4894 39.4668 47.5341 39.4224Z" fill="#08B38E" fill-opacity="0.9"/>
<path d="M89.1109 41.6138C89.2748 41.2584 89.6773 40.7253 89.9904 40.4144C90.4525 39.9554 90.6612 39.8666 91.8687 39.8369L91.019 40.6661C90.5569 41.1251 90.1693 41.5989 90.1693 41.7174C90.1693 41.8359 90.2438 42.0283 90.3482 42.132C90.4525 42.2356 90.6314 42.3097 90.7209 42.3097C90.8252 42.3097 91.496 41.7766 92.2116 41.1251C92.9421 40.4884 93.5234 39.9702 93.5384 39.985C93.5384 39.9998 93.5085 40.3108 93.4638 40.6809C93.4042 41.2288 93.2551 41.4953 92.6439 42.1468C92.2265 42.5762 91.5855 43.0944 91.2128 43.2721C90.8401 43.4646 89.9904 43.7903 89.3047 43.9976C88.6338 44.2049 88.0822 44.3234 88.0822 44.2345C88.0822 44.1457 88.2462 43.6719 88.44 43.1685C88.6338 42.6502 88.932 41.9543 89.1109 41.6138Z" fill="#08B38E" fill-opacity="0.9"/>
<path d="M97.7273 48.2916C97.9659 48.1435 97.9957 47.8918 97.951 46.0706C97.9062 44.1457 97.9211 44.0273 98.1597 44.3086C98.2938 44.4715 98.5472 44.9008 98.7261 45.271C98.9796 45.8041 99.0392 46.2186 99.0392 47.344C99.0392 48.6618 99.0094 48.8246 98.4429 50.0684C98.1149 50.7939 97.787 51.3714 97.6975 51.3714C97.6081 51.3714 97.2056 50.7347 96.0577 48.5137V47.0774C96.0726 45.9521 96.1322 45.4931 96.6838 44.3086L96.7882 45.9373C96.8478 46.8405 96.9074 47.6993 96.9223 47.8474C96.9372 47.9955 97.0714 48.2027 97.2056 48.2916C97.3994 48.41 97.5485 48.41 97.7273 48.2916Z" fill="#08B38E" fill-opacity="0.9"/>
<path d="M49.8 47.9955C50.2025 47.803 50.769 47.5809 51.0821 47.492H51.0672C51.3802 47.418 52.0659 47.3884 52.6026 47.418C53.1393 47.4476 53.8548 47.5957 54.1977 47.7437C54.5406 47.8918 54.8089 48.0399 54.7791 48.0843C54.7493 48.1287 53.8996 48.2472 52.8859 48.3656C51.8722 48.4693 50.9479 48.6321 50.8435 48.7358C50.7392 48.8246 50.6497 49.0467 50.6647 49.2392C50.6647 49.4169 50.7839 49.6094 50.9181 49.6538C51.0672 49.713 51.9914 49.6538 52.9753 49.5354C53.9592 49.4169 54.7791 49.3429 54.794 49.3577C54.8238 49.3873 54.5555 49.5798 54.1977 49.7871C53.8548 49.9944 53.1691 50.2609 52.6772 50.3941C52.0958 50.557 51.4995 50.6014 50.9628 50.5422C50.5156 50.4978 49.5019 50.2461 47.3105 49.5354L48.2049 48.9431C48.6969 48.6321 49.4124 48.2027 49.8 47.9955Z" fill="#08B38E" fill-opacity="0.9"/>
<path d="M61.1893 50.6459C60.5184 49.8463 60.2799 49.4613 60.4141 49.3873C60.5035 49.3281 60.6973 49.2688 60.8166 49.2688C60.9359 49.2836 61.234 49.4021 61.4874 49.5502C61.7259 49.6982 62.1434 50.0832 62.3968 50.3941C62.6502 50.7199 62.9931 51.2381 63.1571 51.5639C63.321 51.8896 63.5745 52.6596 63.7235 53.2667C63.8577 53.8737 64.0068 54.4956 64.0366 54.6437C64.0962 54.8806 64.0515 54.8806 63.4552 54.6141C63.1123 54.466 62.4564 54.1699 62.0092 53.9626C61.562 53.7553 60.8911 53.3259 60.5334 53.0149C60.1309 52.6596 59.6985 52.0673 59.3855 51.4158C59.1022 50.8532 58.8786 50.2905 58.8786 50.2017C58.8786 50.098 58.9234 50.0092 58.983 50.0092C59.0575 49.9944 59.5644 50.557 60.1458 51.2529C60.9806 52.2598 61.2638 52.5115 61.5918 52.5115C61.8303 52.5263 62.039 52.4375 62.0837 52.3042C62.1284 52.1858 62.1583 52.0229 62.1583 51.934C62.1583 51.8452 61.7259 51.2677 61.1893 50.6459Z" fill="#08B38E" fill-opacity="0.9"/>
<path d="M100.024 36.8313C99.3535 36.3871 98.8169 36.0022 98.8318 35.9726C98.8318 35.9429 98.9212 35.9726 99.0256 36.0318C99.115 36.091 99.592 36.402 100.084 36.7277C100.576 37.0534 101.128 37.4532 101.321 37.6309C101.5 37.8086 101.649 38.0159 101.649 38.0899C101.649 38.164 101.56 38.1047 101.441 37.9419C101.336 37.779 100.695 37.2755 100.024 36.8313Z" fill="#F0AAD3" fill-opacity="0.6"/>
<path d="M73.9215 42.9021C73.5935 42.2506 73.3252 41.6731 73.3252 41.5991C73.3252 41.5399 73.3401 41.5251 73.3848 41.5695C73.4146 41.6139 73.7128 42.1914 74.0557 42.8577C74.3836 43.5388 74.637 44.0866 74.5923 44.0866C74.5476 44.0866 74.2495 43.5536 73.9215 42.9021Z" fill="#F0AAD3" fill-opacity="0.6"/>
<path d="M92.3321 71.8493L93.5993 70.5463C94.285 69.8355 94.8813 69.2581 94.8962 69.2581C94.926 69.2581 94.9409 69.2729 94.9409 69.2877C94.9409 69.3173 94.3595 69.8948 92.3321 71.8493Z" fill="#F0AAD3" fill-opacity="0.6"/>
<path d="M62.9628 29.354L64.379 27.9177C65.1542 27.1182 65.8548 26.4667 65.9294 26.4667C66.0039 26.4667 66.0337 26.4815 66.0039 26.5111C65.9592 26.5259 65.2734 27.1774 62.9628 29.354Z" fill="#6247AC" fill-opacity="0.1"/>
<path d="M102.497 81.1776C102.482 86.8781 102.467 82.2436 102.467 70.8869C102.467 59.5301 102.482 54.866 102.497 60.5222C102.527 66.1783 102.527 75.477 102.497 81.1776Z" fill="#6247AC" fill-opacity="0.1"/>
<path d="M51.9611 52.2304C51.9313 52.5117 51.9015 52.2452 51.9015 51.6381C51.9015 51.031 51.9313 50.7941 51.9611 51.1199C51.9909 51.4456 51.9909 51.9491 51.9611 52.2304Z" fill="#6247AC" fill-opacity="0.1"/>
<path d="M51.9611 82.6582C51.9462 87.5444 51.9313 83.4874 51.9313 73.6261C51.9313 63.7796 51.9462 59.7818 51.9611 64.7421C51.9909 69.7171 51.9909 77.772 51.9611 82.6582Z" fill="#6247AC" fill-opacity="0.1"/>
<path d="M54.7942 56.3018C54.7644 56.6275 54.7346 56.4202 54.7346 55.8576C54.7346 55.2949 54.7644 55.0136 54.7942 55.2653C54.824 55.517 54.824 55.976 54.7942 56.3018Z" fill="#5E40A5" fill-opacity="0.8"/>
<path d="M54.7942 59.4112C54.7644 59.737 54.7346 59.5297 54.7346 58.967C54.7346 58.4043 54.7644 58.123 54.7942 58.3747C54.824 58.6264 54.824 59.0855 54.7942 59.4112Z" fill="#5E40A5" fill-opacity="0.8"/>
<path d="M54.7942 62.5206C54.7644 62.8464 54.7346 62.6539 54.7346 62.0764C54.7346 61.499 54.7644 61.2472 54.7942 61.4841C54.824 61.7211 54.824 62.1949 54.7942 62.5206Z" fill="#5E40A5" fill-opacity="0.8"/>
<path d="M54.7942 65.63C54.7644 65.9558 54.7346 65.7633 54.7346 65.1858C54.7346 64.6084 54.7644 64.3567 54.7942 64.5936C54.824 64.8305 54.824 65.3043 54.7942 65.63Z" fill="#5E40A5" fill-opacity="0.8"/>
<path d="M54.7942 68.8875C54.7644 69.2133 54.7346 69.0208 54.7346 68.4433C54.7346 67.8658 54.7644 67.6141 54.7942 67.851C54.824 68.088 54.824 68.5618 54.7942 68.8875Z" fill="#5E40A5" fill-opacity="0.8"/>
<path d="M54.7942 71.9969C54.7644 72.3227 54.7346 72.1302 54.7346 71.5527C54.7346 70.9753 54.7644 70.7235 54.7942 70.9605C54.824 71.1974 54.824 71.6712 54.7942 71.9969Z" fill="#5E40A5" fill-opacity="0.8"/>
<path d="M54.7942 75.1063C54.7644 75.4321 54.7346 75.2396 54.7346 74.6621C54.7346 74.0847 54.7644 73.833 54.7942 74.0699C54.824 74.3068 54.824 74.7806 54.7942 75.1063Z" fill="#5E40A5" fill-opacity="0.8"/>
<path d="M54.7942 78.2158C54.7644 78.5415 54.7346 78.349 54.7346 77.7716C54.7346 77.1941 54.7644 76.9424 54.7942 77.1793C54.824 77.4162 54.824 77.89 54.7942 78.2158Z" fill="#5E40A5" fill-opacity="0.8"/>
<path d="M54.7942 81.3252C54.7644 81.6509 54.7346 81.4584 54.7346 80.881C54.7346 80.3035 54.7644 80.0518 54.7942 80.2887C54.824 80.5256 54.824 80.9994 54.7942 81.3252Z" fill="#5E40A5" fill-opacity="0.8"/>
<path d="M54.7942 84.4346C54.7644 84.7603 54.7346 84.5678 54.7346 83.9904C54.7346 83.4129 54.7644 83.1612 54.7942 83.3981C54.824 83.635 54.824 84.1088 54.7942 84.4346Z" fill="#5E40A5" fill-opacity="0.8"/>
<path d="M54.7942 87.544C54.7644 87.8697 54.7346 87.6773 54.7346 87.0998C54.7346 86.5223 54.7644 86.2706 54.7942 86.5075C54.824 86.7444 54.824 87.2182 54.7942 87.544Z" fill="#5E40A5" fill-opacity="0.8"/>
<path d="M99.6655 88.7285C99.6357 89.0543 99.6059 88.8618 99.6059 88.2843C99.6059 87.7069 99.6357 87.4552 99.6655 87.6921C99.6953 87.929 99.6953 88.4028 99.6655 88.7285Z" fill="#5E40A5" fill-opacity="0.8"/>
<path d="M54.6899 91.4678L54.7197 90.3277L54.7495 89.1727L54.8389 91.4678L57.4179 91.5122C58.8192 91.527 57.0005 91.5418 53.3482 91.5418C49.6959 91.5418 48.5033 91.527 54.6899 91.4678Z" fill="#5E40A5" fill-opacity="0.8"/>
<path d="M99.5611 91.4678L99.591 90.9199L99.6059 90.3573L99.7102 91.4678L103.631 91.5122C105.778 91.5418 104.585 91.5566 100.977 91.5566C97.3698 91.5566 95.5809 91.5418 99.5611 91.4678Z" fill="#5E40A5" fill-opacity="0.8"/>
<path d="M82.7452 29.4276C82.7154 29.2944 82.9092 29.1019 83.1924 28.9538C83.4608 28.8206 83.7291 28.7021 83.8036 28.7021C83.8633 28.6873 84.1912 29.0279 85.1751 30.1828L84.7428 30.5826C84.3701 30.9379 84.3552 30.9379 84.5192 30.6418C84.6832 30.4049 84.6832 30.2568 84.5639 30.0495C84.4596 29.8867 84.1465 29.7682 83.5949 29.7238C83.0434 29.6794 82.775 29.5757 82.7452 29.4276Z" fill="#47004C"/>
<path d="M88.6336 31.3821C88.7827 31.1896 89.4685 30.7899 90.1691 30.4641C90.8697 30.1532 91.5853 29.8867 91.7791 29.8867C91.958 29.8719 92.286 29.9607 92.5245 30.0791C92.7481 30.1976 93.5084 30.8787 94.2239 31.6042C94.9395 32.315 95.5954 33.0849 95.6699 33.3218C95.7892 33.6031 95.7892 33.8401 95.6699 34.1362C95.5805 34.3583 94.8649 35.2615 94.0748 36.1499C93.2698 37.0235 92.5096 37.8083 92.3754 37.8823C92.2263 37.9563 91.8835 38.0156 91.63 38.0007C91.3021 38.0007 90.4971 37.6306 89.2747 36.9347C88.1417 36.2832 87.3963 35.7649 87.3814 35.6169C87.3516 35.4688 87.441 35.2467 87.5603 35.1282C87.6945 34.995 87.8883 34.9506 88.0522 35.0098C88.1864 35.069 89.0809 35.5428 91.7344 37.0235L92.6735 36.0018C93.1953 35.4392 93.8661 34.6988 94.7159 33.7068L93.3742 32.3742C92.6437 31.6487 91.9431 31.0564 91.8536 31.0564C91.7493 31.0564 91.153 31.2785 90.5418 31.545C89.9306 31.7967 89.4237 32.0929 89.4237 32.1669C89.4237 32.2557 89.543 32.7147 89.9604 34.0918H92.0325L92.0772 33.6476C92.122 33.2922 92.0474 33.1589 91.7493 33.0257C91.5406 32.922 91.3617 32.7147 91.3617 32.5815C91.3617 32.4334 91.4362 32.2261 91.5406 32.1373C91.6449 32.0336 91.8387 31.9448 91.9878 31.9448C92.1369 31.9448 92.4648 32.1373 92.7034 32.389C93.0611 32.7444 93.1506 32.9517 93.1506 33.4995C93.1506 33.8697 93.076 34.3139 93.0015 34.5064C92.9121 34.684 92.7034 34.9209 92.5096 35.0246C92.3158 35.143 91.6449 35.2319 90.8847 35.2467C89.7666 35.2763 89.543 35.2319 89.2747 34.9802C89.1107 34.8173 88.8423 34.2102 88.6784 33.6476C88.5144 33.0849 88.3802 32.4186 88.3802 32.1669C88.3653 31.9152 88.4846 31.5746 88.6336 31.3821Z" fill="#47004C"/>
<path d="M96.7731 39.0964C96.7433 38.9928 96.952 38.7707 97.2203 38.6078C97.4737 38.4449 97.7421 38.3117 97.8166 38.3117C97.8762 38.3117 98.1893 38.6226 98.5172 39.0224C98.8601 39.4074 99.1285 39.7479 99.1285 39.7924C99.1285 39.8368 98.9496 40.0293 98.726 40.2366C98.3533 40.5771 98.3384 40.5771 98.5322 40.2662C98.6961 40.0293 98.6961 39.8812 98.5769 39.6739C98.4725 39.511 98.1595 39.3926 97.6228 39.3482C97.1607 39.3037 96.8029 39.2001 96.7731 39.0964Z" fill="#47004C"/>
<path d="M81.8067 28.4354C82.0303 28.1985 82.5222 27.8727 82.88 27.695C83.2378 27.5026 83.6999 27.3545 83.9086 27.3545C84.1769 27.3545 84.5496 27.6506 85.295 28.4354C85.8466 29.0128 86.3385 29.6643 86.3832 29.8716C86.4279 30.0789 86.3981 30.4047 86.3087 30.612C86.2192 30.8193 85.6826 31.4263 85.1012 31.989C84.326 32.7145 83.9533 32.9811 83.6403 32.9811C83.4167 32.9811 82.6862 32.7145 82.0005 32.3888C81.3296 32.063 80.7482 31.7373 80.7035 31.6484C80.6588 31.5744 80.6588 31.3671 80.7035 31.2042C80.7482 31.0414 80.9271 30.8637 81.106 30.8193C81.3296 30.76 81.7768 30.8933 82.3731 31.1894C82.8949 31.4412 83.4017 31.6484 83.4912 31.6484C83.5955 31.6484 84.013 31.3227 85.1757 30.1826L84.5347 29.4422C84.1918 29.0277 83.8788 28.6871 83.8341 28.6871C83.7893 28.6871 83.521 28.8056 83.2378 28.9536C82.9247 29.1017 82.716 29.2942 82.7458 29.4274C82.7756 29.5755 83.044 29.6791 83.5955 29.7236C84.1471 29.768 84.4602 29.8864 84.5645 30.0493C84.6838 30.2418 84.6838 30.3899 84.5645 30.5676C84.4602 30.7304 84.0875 30.8785 83.5955 30.9673C82.9843 31.071 82.6862 31.0562 82.3433 30.8933C82.0899 30.7748 81.7768 30.4491 81.6427 30.1678C81.5085 29.8864 81.3892 29.4719 81.3743 29.2498C81.3743 28.9832 81.5234 28.6871 81.8067 28.4354Z" fill="#D1458B"/>
<path d="M55.838 34.4765C56.0765 34.2396 56.5833 33.8695 57.0007 33.6622C57.448 33.4253 57.8505 33.3216 58.0442 33.366C58.2082 33.4253 58.4169 33.4993 58.5213 33.5585C58.6256 33.6029 59.1027 34.0916 59.6095 34.6542C60.2804 35.3945 60.504 35.7499 60.504 36.0905C60.504 36.431 60.2655 36.8012 59.5499 37.6156C59.043 38.193 58.4169 38.7705 58.1784 38.8741C57.7908 39.0518 57.6417 39.0222 56.479 38.5484C55.7783 38.2671 55.0777 37.8969 54.9137 37.7192C54.6305 37.4379 54.6305 37.4083 54.869 37.0529C55.018 36.8456 55.182 36.6827 55.2417 36.6827C55.3162 36.6827 55.8976 36.9196 57.7461 37.734L58.089 37.3935C58.2679 37.201 58.4169 37.0233 58.4169 36.9789C58.4169 36.9344 57.9995 36.9196 57.4927 36.9493C56.8367 36.9789 56.4492 36.9196 56.2106 36.7568C56.0317 36.6383 55.7783 36.283 55.6591 35.9868C55.5249 35.6759 55.4355 35.3057 55.4355 35.1724C55.4355 35.0244 55.6143 34.7134 55.838 34.4765Z" fill="#D1458B"/>
<path d="M63.8134 37.3638C63.9327 37.0973 64.3352 36.7568 64.9017 36.4458C65.3936 36.1645 65.8855 35.9424 65.975 35.9424C66.0793 35.9424 66.3179 36.0016 66.4967 36.0757C66.6905 36.1349 67.257 36.6679 67.7639 37.2602C68.5092 38.1042 68.703 38.4151 68.703 38.8001C68.6881 39.1851 68.4943 39.4664 67.5403 40.4288C66.5713 41.3913 66.3179 41.569 65.9005 41.569C65.647 41.569 64.9166 41.3172 64.2905 41.0211C63.6643 40.7102 63.0979 40.3548 63.0233 40.2363C62.9488 40.1031 62.9935 39.881 63.1128 39.6885C63.232 39.496 63.4258 39.3479 63.5153 39.3479C63.6196 39.3479 64.1712 39.57 65.7961 40.3548L66.6011 39.57L65.6768 39.6145C64.9315 39.6589 64.678 39.6145 64.3799 39.3776C64.1712 39.2295 63.9178 38.8001 63.8134 38.4447C63.6494 37.9117 63.6494 37.7192 63.8134 37.3638Z" fill="#D1458B"/>
<path d="M95.6407 38.2078C95.7898 38.0153 96.2817 37.6748 96.729 37.4231C97.1762 37.1862 97.683 36.9789 97.847 36.9789C98.011 36.9789 98.339 37.1269 98.5775 37.3046C98.8309 37.4971 99.3378 38.0301 99.7403 38.504C100.277 39.1407 100.456 39.4664 100.456 39.8366C100.456 40.2364 100.262 40.5029 99.293 41.4653C98.4135 42.3241 98.0259 42.6054 97.7278 42.6054C97.5042 42.6054 96.8035 42.3685 96.1625 42.0872C95.5364 41.7911 94.9401 41.4505 94.8357 41.3024C94.7463 41.1692 94.7165 40.9323 94.7612 40.7842C94.8208 40.6361 94.9997 40.4733 95.1637 40.4436C95.3277 40.3992 95.8941 40.5769 96.4308 40.8138C96.9675 41.0655 97.4594 41.2728 97.5489 41.2728C97.6234 41.2728 98.0259 40.9471 99.1887 39.8218L98.8607 39.3924C98.6967 39.1703 98.3688 38.8149 97.7874 38.2374L97.2955 38.5484C97.0271 38.7113 96.8035 38.9482 96.8035 39.0666C96.8035 39.2147 97.042 39.2887 97.6085 39.3479C98.1601 39.3924 98.4731 39.5108 98.5775 39.6737C98.6967 39.8662 98.6967 40.0142 98.5775 40.1919C98.488 40.34 98.1004 40.5177 97.683 40.5917C97.1315 40.6954 96.8184 40.6806 96.4457 40.5177C96.0879 40.3696 95.8494 40.1327 95.6556 39.7181C95.5215 39.3924 95.3873 38.9926 95.3873 38.8297C95.3724 38.6668 95.4917 38.3855 95.6407 38.2078Z" fill="#D1458B"/>
<path d="M56.8516 35.3505C56.8516 35.2617 57.0454 35.0692 57.2988 34.9211C57.5522 34.7582 57.7758 34.625 57.8205 34.625C57.8653 34.6102 58.1932 34.9507 58.5659 35.3653C59.2069 36.076 59.2218 36.1353 58.9684 36.3574C58.7299 36.5943 58.715 36.5943 58.715 36.2833C58.715 36.076 58.5808 35.8687 58.387 35.7799C58.1932 35.6763 57.8056 35.6466 57.4926 35.7059C57.1497 35.7503 56.9112 35.7355 56.8963 35.6466C56.8665 35.5726 56.8516 35.4245 56.8516 35.3505Z" fill="#47004C"/>
<path d="M65.0506 38.0453C65.0506 37.9417 65.2444 37.7344 65.4979 37.5715C65.7513 37.4086 65.9898 37.2754 66.0643 37.2754C66.124 37.2754 66.4519 37.6159 66.8097 38.0305C67.406 38.7412 67.4209 38.7857 67.1675 39.0226C66.929 39.2595 66.9141 39.2595 66.9141 38.9782C66.929 38.8153 66.8395 38.608 66.7352 38.5043C66.6308 38.4155 66.2134 38.3119 65.796 38.2822C65.319 38.2526 65.0506 38.1638 65.0506 38.0453Z" fill="#47004C"/>
</svg>
