<svg width="155" height="120" viewBox="0 0 155 120" fill="none" xmlns="http://www.w3.org/2000/svg">
<rect x="0.333344" width="154" height="120" rx="16" fill="white"/>
<path d="M82.4899 53.4667C83.1519 53.2092 84.1817 52.8964 84.7885 52.7861C85.3953 52.6573 86.1124 52.5653 86.9031 52.5837V55.2511C86.9031 57.3298 86.9583 58.0104 87.179 58.3415C87.3261 58.5623 87.5835 58.7462 87.7306 58.7462C87.8777 58.7462 88.1719 59.1325 88.3926 59.6292C88.6133 60.1075 89.1465 61.3952 89.6062 62.5173C90.0659 63.6394 90.967 65.8285 91.629 67.3921C92.2725 68.9557 93.1 70.9056 94.0746 73.1867V103.815H81.2027V85.9715H83.9058C85.7631 85.9531 86.7193 85.8795 86.9215 85.7324C87.087 85.6036 87.3077 85.3277 87.418 85.1069C87.5467 84.8678 87.6019 84.4999 87.5467 84.2791C87.4916 84.04 87.3077 83.7089 87.1422 83.5433C86.8664 83.2858 86.3515 83.2122 81.2947 83.1202L81.2027 81.7406H82.8577C84.4023 81.7406 84.5678 81.7038 85.4321 80.8208L85.3769 76.737C85.3217 72.8188 85.3034 72.5796 84.8253 71.2551C84.5494 70.5009 84.0529 69.434 83.722 68.8821C83.4094 68.3303 82.637 67.3737 82.0302 66.7666C81.4234 66.1412 80.6695 65.4422 79.7685 64.7247L79.7317 54.6992L80.504 54.3129C80.9453 54.0922 81.828 53.7058 82.4899 53.4667Z" fill="#47004C"/>
<path d="M103.931 58.1576C104.115 57.8632 104.207 56.9802 104.207 55.0855L104.243 52.455L105.089 52.5837C105.549 52.6573 106.615 52.9148 107.461 53.154C108.289 53.3931 109.447 53.8162 111.084 54.6072L111.176 103.815H96.8329V73.4626L97.8442 70.9424C98.4143 69.5444 98.9475 68.2383 99.0395 68.0359C99.1498 67.8336 100.051 65.6813 101.062 63.2531C102.496 59.7764 102.975 58.8198 103.287 58.7094C103.508 58.6358 103.802 58.3967 103.931 58.1576Z" fill="#47004C"/>
<path d="M49.5564 85.9163C46.7797 85.9347 42.1459 85.9347 39.2589 85.9163C36.3719 85.8795 38.6521 85.8612 44.3157 85.8612C49.9793 85.8612 52.333 85.8795 49.5564 85.9163Z" fill="#47004C"/>
<path d="M79.2536 85.9163C78.2422 85.9531 76.6241 85.9531 75.6679 85.9163C74.7117 85.8795 75.5391 85.8612 77.5067 85.8612C79.4742 85.8612 80.2649 85.8795 79.2536 85.9163Z" fill="#47004C"/>
<path d="M57.8863 63.6766C58.9712 63.2903 59.4493 63.2535 65.2968 63.1431C68.7355 63.0879 72.3764 63.0511 73.3877 63.0879C74.3991 63.1247 75.723 63.2903 76.3299 63.4374C76.9367 63.603 77.9296 63.9709 78.5365 64.2652C79.1433 64.5596 80.1362 65.2034 80.7431 65.6817C81.3315 66.16 82.2325 67.0614 82.7106 67.6684C83.2071 68.2755 83.8323 69.2688 84.1449 69.8759C84.4391 70.4829 84.8253 71.4763 84.9908 72.0833C85.2114 72.8927 85.3218 74.1804 85.3953 76.8661C85.4689 80.5268 85.4689 80.5452 84.6046 81.5754L50.4023 81.557L49.9609 81.0603C49.538 80.5452 49.538 80.5268 49.6116 76.7742C49.6851 73.2974 49.7403 72.8927 50.1816 71.5315C50.4574 70.7221 50.9171 69.6183 51.2297 69.1033C51.524 68.5698 52.3147 67.5764 52.9583 66.8958C53.6018 66.1968 54.7235 65.2954 55.4407 64.8723C56.1578 64.4308 57.2611 63.8973 57.8863 63.6766Z" fill="#47004C"/>
<path d="M75.3001 58.195C76.2747 57.22 77.5987 56.0795 78.2422 55.6564C78.8858 55.2333 79.4375 54.8838 79.4743 54.8838C79.511 54.8838 79.5478 57.0729 79.5478 64.6334L78.7571 64.2471C78.3342 64.0263 77.5251 63.6768 76.9735 63.4745C76.3115 63.2353 75.2266 63.0882 71.604 62.8858L72.5786 61.4142C73.1119 60.6048 74.3439 59.1515 75.3001 58.195Z" fill="#E1B0E4"/>
<path d="M111.36 103.816V79.3498C111.36 65.9027 111.396 54.8838 111.452 54.8838C111.507 54.8838 112.058 55.2333 112.702 55.6564C113.327 56.0795 114.375 56.9073 115.037 57.4592C115.699 58.0294 116.784 59.2251 117.483 60.1449C118.163 61.0463 119.138 62.6099 119.634 63.6216C120.131 64.6334 120.701 65.9579 120.903 66.5649C121.087 67.172 121.4 68.2941 121.584 69.0483C121.878 70.2992 121.915 71.9364 121.97 86.616C122.043 102.749 122.043 102.804 121.289 103.816H111.36Z" fill="#E1B0E4"/>
<path d="M91.1509 58.4525C91.1877 58.4157 92.0519 58.2134 93.0633 58.0294C94.0746 57.8455 95.1963 57.6799 95.5457 57.6799C95.8951 57.6615 96.9432 57.8087 97.8626 57.9742C98.8004 58.1398 99.6279 58.3421 99.7015 58.4157C99.7934 58.4893 98.874 60.8807 97.6604 63.7136C95.4538 68.846 95.4538 68.846 95.2147 68.2573C95.0676 67.9262 94.093 65.6084 93.0265 63.0882C91.9416 60.568 91.1141 58.4893 91.1509 58.4525Z" fill="#E1B0E4"/>
<path d="M91.8672 15.4622C92.6211 15.2967 93.5037 15.1311 93.7979 15.0943C94.0922 15.0575 94.7725 15.0023 95.269 15.0023C95.7839 14.9839 96.9424 15.0759 97.8434 15.2231C98.7444 15.3518 100.032 15.6462 100.694 15.8853C101.356 16.1061 102.514 16.6211 103.268 17.0258C104.022 17.4305 105.088 18.0928 105.64 18.5159C106.192 18.939 107.038 19.7484 107.552 20.3002C108.049 20.8521 108.729 21.6799 109.024 22.1398C109.336 22.5997 109.906 23.6114 110.292 24.4024C110.678 25.175 111.157 26.4259 111.359 27.1434C111.579 27.8792 111.782 29.314 111.855 30.3258C111.91 31.3375 111.91 32.7172 111.727 34.6487L110.495 34.8695C109.796 34.9982 108.122 35.0902 106.762 35.0902C105.033 35.0718 103.728 34.943 102.44 34.6855C101.429 34.4648 100.068 34.1152 99.4064 33.9129C98.7444 33.6921 97.2182 33.0483 96.0046 32.4413C94.7909 31.8526 93.1176 30.8592 90.7639 29.1301L89.8077 30.1602C89.2744 30.7305 88.4653 31.4111 88.0056 31.6686C87.5459 31.9446 86.7736 32.3125 86.2587 32.4964C85.7622 32.6804 84.5486 32.9931 83.5924 33.1955C82.6362 33.3978 81.2387 33.545 80.5216 33.545C79.216 33.545 79.1792 33.5266 79.0505 33.0483C78.9953 32.754 78.9953 31.6686 79.0505 30.6017C79.1056 29.5348 79.3447 28.0447 79.547 27.2905C79.7676 26.5363 80.2457 25.2486 80.6319 24.4392C81.018 23.6298 81.8455 22.3053 82.4523 21.4959C83.0408 20.6865 84.1073 19.5644 84.806 18.9942C85.5048 18.4239 86.4794 17.7065 86.9943 17.3937C87.4907 17.081 88.4837 16.5843 89.2009 16.29C89.918 15.9957 91.1132 15.6278 91.8672 15.4622Z" fill="#47004C"/>
<path d="M104.132 56.4474C104.114 57.2568 104.077 56.6313 104.077 55.0677C104.077 53.5041 104.114 52.8418 104.132 53.5961C104.169 54.3503 104.169 55.638 104.132 56.4474Z" fill="#47004C"/>
<path d="M82.9488 81.686C82.5443 81.7228 81.9191 81.7228 81.5697 81.686C81.2203 81.6492 81.5513 81.6124 82.3052 81.6124C83.0591 81.6124 83.3534 81.6492 82.9488 81.686Z" fill="#47004C"/>
<path d="M88.1898 31.5587C88.6495 31.2644 89.385 30.6022 89.8447 30.1055C90.3045 29.5904 90.6906 29.1673 90.7274 29.1489C90.7458 29.1305 91.4445 29.6272 92.272 30.2527C93.1179 30.8597 94.7912 31.8531 96.0048 32.4417C97.2185 33.0488 98.7447 33.6926 99.4067 33.9134C100.069 34.1157 101.429 34.4652 102.441 34.686C103.765 34.9619 104.997 35.0723 106.854 35.0907C108.307 35.0907 109.87 34.9987 110.44 34.8699C110.991 34.7596 111.488 34.686 111.543 34.7412C111.598 34.7963 111.469 35.4034 111.286 36.084C111.083 36.7647 110.568 38.0156 110.145 38.8801C109.741 39.7447 108.895 41.0692 108.307 41.8234C107.7 42.5776 106.56 43.7182 105.751 44.3436C104.942 44.9874 103.618 45.8336 102.809 46.2383C101.999 46.6246 100.675 47.1397 99.8664 47.3789C98.5976 47.7468 97.9724 47.802 95.4532 47.802C93.2098 47.802 92.2352 47.71 91.3158 47.4708C90.6538 47.2869 89.1828 46.6798 88.0427 46.128C86.2958 45.2818 85.7441 44.8955 84.3834 43.5894C83.4824 42.7432 82.3607 41.4555 81.8458 40.7013C81.3493 39.9471 80.7057 38.7514 80.4115 38.0523C80.1173 37.3533 79.7128 36.1392 79.5289 35.385C79.3266 34.6308 79.1795 33.895 79.1795 33.7846C79.1795 33.619 79.5657 33.5455 80.5035 33.5455C81.239 33.5455 82.6365 33.3983 83.5927 33.1959C84.5489 32.9936 85.7993 32.6625 86.351 32.4601C86.9026 32.2578 87.7301 31.8531 88.1898 31.5587Z" fill="#E1B0E4"/>
<path d="M79.676 61.6905C79.6576 62.9598 79.6208 62.0033 79.6208 59.5751C79.6208 57.1469 79.6576 56.1167 79.676 57.2756C79.7128 58.4345 79.7128 60.4213 79.676 61.6905Z" fill="#E1B0E4"/>
<path d="M55.054 89.5597C54.8885 89.155 54.6862 88.18 54.6127 87.4074L54.4839 85.9726H73.9388L73.8285 87.389C73.7549 88.2352 73.5527 89.155 73.3136 89.6517C73.1113 90.1116 72.6884 90.7922 72.3758 91.1785C72.0448 91.5832 71.3461 92.0983 69.3417 93.0548H59.0442L58.0329 92.5582C57.4812 92.3006 56.6538 91.6752 56.2124 91.1785C55.7527 90.7002 55.2379 89.9644 55.054 89.5597Z" fill="#E1B0E4"/>
<path d="M115.313 103.963C114.614 104 113.492 104 112.83 103.963C112.168 103.927 112.757 103.89 114.117 103.89C115.478 103.89 116.03 103.927 115.313 103.963Z" fill="#E1B0E4"/>
<path d="M111.304 91.4907C111.286 98.3154 111.267 92.8151 111.267 79.2577C111.267 65.7002 111.286 60.108 111.304 66.8407C111.341 73.5735 111.341 84.6659 111.304 91.4907Z" fill="#5A7372"/>
<path d="M33.5031 83.5806C33.7789 83.3415 35.5442 83.2863 46.0623 83.1943C52.7924 83.1391 64.7265 83.1207 72.5599 83.1759C85.4869 83.2495 86.8477 83.2679 87.1419 83.5438C87.3074 83.7278 87.4913 84.0405 87.5464 84.2796C87.6016 84.5004 87.5464 84.8683 87.4177 85.1074C87.3074 85.3282 87.0867 85.6225 86.9212 85.7513C86.6822 85.9352 85.3215 85.9536 80.3198 85.8433C76.1641 85.7513 74.031 85.7513 74.031 85.88C74.031 86.0088 70.3166 86.0272 63.0532 85.9536C57.0034 85.8984 47.9563 85.8249 42.9547 85.8065C37.953 85.7881 33.7605 85.7145 33.6502 85.6409C33.5398 85.5673 33.356 85.3282 33.2272 85.1074C33.1169 84.8683 33.0617 84.5004 33.1169 84.2796C33.1721 84.0405 33.3376 83.7278 33.5031 83.5806Z" fill="#5A7372"/>
<path d="M88.1524 59.1334C88.134 59.0414 88.6489 58.839 89.3108 58.6919C89.9544 58.5263 90.598 58.3975 90.7084 58.3975C90.8555 58.3791 91.7197 60.2555 92.7862 62.8492C93.7792 65.2958 94.7538 67.6873 94.9377 68.1839C95.1216 68.6622 95.3422 69.0485 95.4526 69.0485C95.5445 69.0485 96.3536 67.3377 97.2362 65.2407C98.1189 63.1252 99.0935 60.7522 99.4244 59.9428C99.737 59.1334 100.013 58.4527 100.031 58.4343C100.031 58.3975 100.62 58.5079 101.337 58.6551C102.054 58.8022 102.661 58.9678 102.716 59.023C102.771 59.0782 102.072 60.8809 101.171 63.0332C100.27 65.1671 99.3877 67.2642 99.2038 67.6689C99.0199 68.0736 98.4131 69.5452 96.8317 73.4634V88.419V103.687C96.8317 103.963 96.6478 104 93.9815 104L94.0734 73.1875L93.4482 71.7159C93.0988 70.9065 92.2714 68.9565 91.6278 67.3929C90.9658 65.8293 90.0832 63.677 89.6602 62.6101C89.2189 61.5432 88.7224 60.3659 88.5385 59.9979C88.3363 59.6116 88.1708 59.2253 88.1524 59.1334Z" fill="#47004C"/>
<path d="M86.9214 53.8166C86.9214 49.7328 86.9214 49.7144 87.3628 49.2729C87.6018 49.0153 87.9512 48.813 88.1351 48.813C88.3189 48.813 90.0842 49.1257 95.6375 50.1559L99.2232 49.4568C102.092 48.905 102.901 48.813 103.232 48.9785C103.453 49.0889 103.71 49.3465 103.82 49.5488C103.931 49.7696 104.004 51.6275 104.004 53.9637C104.004 57.7716 103.986 58.0291 103.636 58.3786C103.342 58.673 103.066 58.7282 102.404 58.6914C101.908 58.6546 100.198 58.3602 95.6375 57.3853L91.9598 58.1395C89.2016 58.6914 88.1718 58.8385 87.8225 58.7098C87.565 58.5994 87.2708 58.397 87.1421 58.2315C86.9766 58.0107 86.9214 56.7598 86.9214 53.8166Z" fill="#47004C"/>
<path fill-rule="evenodd" clip-rule="evenodd" d="M112.04 30.6015C112.077 31.0614 112.077 31.8892 112.04 32.4411C112.003 32.993 111.985 32.625 111.985 31.6133C111.985 30.6015 112.003 30.1417 112.04 30.6015ZM49.5197 75.7625C49.5564 76.5718 49.5564 77.9331 49.5197 78.7977C49.5013 79.6623 49.4645 79.0001 49.4645 77.3261C49.4645 75.6521 49.5013 74.953 49.5197 75.7625ZM81.1476 82.3848C81.1844 82.5872 81.1844 82.8631 81.1292 82.9919C81.0373 83.1574 80.0443 83.1942 72.6522 83.1206L81.0189 83.0287L81.0373 82.5136C81.0557 82.1457 81.0925 82.1089 81.1476 82.3848ZM41.5759 83.1206C45.7317 83.1206 47.4602 83.139 45.4374 83.1574C43.4147 83.1942 40.0313 83.1942 37.8982 83.1574C35.7652 83.139 37.4201 83.1206 41.5759 83.1206ZM52.7008 83.1022C54.3742 83.1022 55.0729 83.139 54.2639 83.1574C53.4548 83.1942 52.094 83.1942 51.2298 83.1574C50.3655 83.139 51.0275 83.1022 52.7008 83.1022ZM44.518 86.0639C50.0897 86.0639 52.3882 86.0823 49.6668 86.1007C46.9453 86.1375 42.385 86.1375 39.5532 86.1007C36.7214 86.0823 38.9647 86.0639 44.518 86.0639ZM73.9394 86.0455L81.1109 86.0639V100.78L81.0189 86.1559L73.9394 86.0455ZM81.1292 101.884C81.166 102.086 81.2028 102.638 81.2396 103.098C81.2764 103.576 81.2396 103.926 81.166 103.889C81.0741 103.852 81.0373 103.3 81.0373 102.657C81.0557 102.031 81.0925 101.682 81.1292 101.884ZM87.9146 103.889C91.2428 103.889 92.6588 103.926 91.0406 103.944C89.4224 103.981 86.7009 103.981 84.9724 103.944C83.2439 103.926 84.5863 103.889 87.9146 103.889ZM104.004 103.889C107.995 103.889 109.613 103.926 107.59 103.944C105.567 103.981 102.294 103.981 100.327 103.944C98.3591 103.926 100.014 103.889 104.004 103.889Z" fill="#3F3A33" fill-opacity="0.2"/>
<path d="M96.372 48.0217C95.9674 48.0585 95.2319 48.0585 94.717 48.0217C94.2021 47.9849 94.5515 47.9666 95.4526 47.9666C96.3536 47.9666 96.7765 47.9849 96.372 48.0217Z" fill="#A86321" fill-opacity="0.7"/>
<path d="M60.5147 63.0692L66.0312 62.9773C69.0653 62.9221 71.5661 62.8669 71.5845 62.8301C71.6029 62.8117 71.5845 62.8853 71.5477 62.9773C71.4925 63.0876 69.4882 63.1428 60.5147 63.0692Z" fill="#A86321" fill-opacity="0.7"/>
<path d="M73.4785 81.6855C69.2859 81.7223 62.4638 81.7223 58.3081 81.6855C54.1523 81.6671 57.5909 81.6487 65.9392 81.6487C74.2876 81.6487 77.671 81.6671 73.4785 81.6855Z" fill="#A86321" fill-opacity="0.7"/>
<path d="M57.5725 83.1571C57.168 83.1939 56.5428 83.1939 56.1934 83.1571C55.844 83.1203 56.175 83.0835 56.9289 83.0835C57.6829 83.0835 57.9771 83.1203 57.5725 83.1571Z" fill="#A86321" fill-opacity="0.7"/>
<path d="M119.817 103.944C119.155 103.981 118.125 103.981 117.519 103.944C116.912 103.907 117.445 103.889 118.714 103.889C119.983 103.889 120.479 103.907 119.817 103.944Z" fill="#A86321" fill-opacity="0.7"/>
<path d="M63.273 60.1262C63.273 59.6297 63.4017 59.3539 63.7143 59.0964C64.1005 58.7838 64.4682 58.7471 67.5207 58.7471C70.6651 58.7471 70.9226 58.7655 71.2719 59.1148C71.4742 59.3171 71.6581 59.6297 71.6581 59.7952C71.6765 59.9791 71.6581 60.2549 71.6397 60.402C71.6213 60.5491 71.4374 60.8617 71.2168 61.1008C70.8306 61.5053 70.7019 61.5237 67.5023 61.5237C64.4866 61.5237 64.1556 61.4869 63.7327 61.1559C63.3833 60.8985 63.273 60.6227 63.273 60.1262Z" fill="#47004C"/>
<path d="M33.0066 60.2004C32.9882 54.8657 32.9882 54.7369 33.3928 54.2586L33.7789 53.7803H41.2262C48.4161 53.7803 48.6735 53.7987 49.0229 54.1482C49.3723 54.4978 49.3907 54.7369 49.3355 60.7338C49.2987 66.7124 49.2803 66.9699 48.8942 67.7609C48.6735 68.2208 48.2138 68.9198 47.8644 69.3245C47.5334 69.7292 46.8898 70.2811 46.4301 70.557C45.9888 70.8146 45.2533 71.1273 44.7936 71.2376C44.3339 71.348 43.6535 71.4768 42.587 71.624V78.9821H44.2787C45.6394 78.9638 46.0808 79.0373 46.4301 79.2949C46.7427 79.534 46.8715 79.8099 46.8715 80.2698C46.8715 80.7297 46.7427 81.0057 46.4301 81.2448C46.0256 81.5575 45.5843 81.5759 36.2798 81.4655L35.9304 81.0056C35.6729 80.6929 35.5994 80.3986 35.6729 80.0491C35.7281 79.7548 35.912 79.4052 36.0775 79.2581C36.2798 79.0557 36.813 78.9821 39.8287 78.9821V71.624L39.3138 71.5504C39.038 71.4952 38.4864 71.4032 38.0818 71.348C37.6773 71.2744 36.9785 71.0353 36.5188 70.7962C36.0591 70.557 35.3419 70.0052 34.9006 69.5821C34.4777 69.1406 33.9628 68.4231 33.7606 68C33.5583 67.5586 33.3192 66.8595 33.2089 66.4364C33.117 65.9949 33.025 63.1988 33.0066 60.2004Z" fill="#E1B0E4"/>
<path d="M45.0692 78.9266C44.6647 78.9634 43.9291 78.9634 43.4143 78.9266C42.8994 78.8898 43.2304 78.8715 44.1498 78.8715C45.0692 78.8715 45.4738 78.8898 45.0692 78.9266Z" fill="#5A7372"/>
<path d="M68.9747 58.6914C68.0736 58.7282 66.621 58.7282 65.7567 58.6914C64.8925 58.673 65.6464 58.6362 67.4117 58.6362C69.1769 58.6362 69.8757 58.673 68.9747 58.6914Z" fill="#3F3A33" fill-opacity="0.2"/>
<path d="M68.9747 61.6335C68.0736 61.6703 66.621 61.6703 65.7567 61.6335C64.8925 61.6151 65.6464 61.5784 67.4117 61.5784C69.1769 61.5784 69.8757 61.6151 68.9747 61.6335Z" fill="#3F3A33" fill-opacity="0.2"/>
<path d="M44.7938 53.7243C42.9182 53.7611 39.7738 53.7611 37.8062 53.7243C35.8386 53.7059 37.3649 53.6875 41.208 53.6875C45.0512 53.6875 46.6694 53.7059 44.7938 53.7243Z" fill="#A86321" fill-opacity="0.7"/>
<path d="M49.5196 63.2532C49.5012 64.78 49.4644 63.4555 49.4644 60.3099C49.4644 57.1826 49.5012 55.9317 49.5196 57.5506C49.5564 59.1694 49.5564 61.7447 49.5196 63.2532Z" fill="#A86321" fill-opacity="0.7"/>
<path d="M42.7159 77.1417C42.6975 78.0983 42.6607 77.2337 42.6607 75.2102C42.6607 73.1867 42.6975 72.3957 42.7159 73.4626C42.7527 74.5296 42.7527 76.1852 42.7159 77.1417Z" fill="#A86321" fill-opacity="0.7"/>
<path d="M43.5985 81.6854C42.3849 81.7222 40.3254 81.7222 39.0014 81.6854C37.6775 81.667 38.6705 81.6302 41.208 81.6302C43.7456 81.6302 44.8122 81.667 43.5985 81.6854Z" fill="#A86321" fill-opacity="0.7"/>
</svg>
