<svg width="155" height="120" viewBox="0 0 155 120" fill="none" xmlns="http://www.w3.org/2000/svg">
<rect x="0.666687" width="154" height="120" rx="16" fill="white"/>
<path d="M73.3973 23.4651C73.9888 23.3274 75.0471 23.1592 75.7319 23.0827C76.4167 23.0063 77.7396 22.9757 78.689 23.0216C79.6384 23.0674 81.0703 23.2051 81.8796 23.3274C82.6889 23.4651 84.1986 23.8321 85.2258 24.1686C86.253 24.5051 87.7316 25.1015 88.4942 25.4992C89.2568 25.8968 90.4241 26.5697 91.0622 26.9826C91.7003 27.3956 93.1011 28.6038 94.175 29.6591C95.2489 30.7143 96.4784 32.0755 97.6768 33.819L97.6301 35.5319C97.599 36.4648 97.4901 38.1624 97.3656 39.2941C97.241 40.4259 96.992 42.2153 96.8208 43.2705C96.6496 44.3258 96.2294 46.2834 95.887 47.6293C95.5446 48.9751 95.0154 50.8715 94.7041 51.835C94.3929 52.7986 93.817 54.3891 93.4435 55.3526C93.0544 56.3161 92.2762 58.0443 91.7315 59.1761C91.1867 60.3078 90.3774 61.8678 89.9416 62.6172C89.5058 63.3666 88.4942 64.9724 87.6849 66.1806C86.8911 67.3735 85.5215 69.2241 84.6499 70.3099C83.7628 71.3805 82.1442 73.1546 81.0236 74.2557C79.9186 75.3416 78.7513 76.4427 78.4556 76.7027C78.1599 76.9474 77.4906 77.498 76.977 77.9109C76.4634 78.3392 75.514 79.0733 74.8759 79.5321C74.2378 80.0062 73.1172 80.7709 72.3857 81.2297C71.6542 81.6885 70.9071 82.1473 70.7048 82.2544C70.518 82.3461 70.3468 82.4226 70.3157 82.4226C70.3001 82.4379 70.1289 82.1014 69.9422 81.7038C69.7554 81.3062 68.3391 78.3698 66.7983 75.2039C65.2419 72.0228 63.9813 69.3923 63.9813 69.3464C63.9813 69.3005 63.2031 67.6641 62.2537 65.7218C61.3043 63.7642 59.7479 60.5831 58.8141 58.6408C57.8803 56.6985 56.853 54.4962 56.5573 53.7468C56.2616 52.9974 55.857 51.6821 55.6546 50.8409C55.4367 49.9998 55.2033 48.5163 55.0943 47.5528C55.001 46.5587 54.9698 45.167 55.0321 44.3411C55.0943 43.5458 55.2655 42.2305 55.4212 41.4353C55.5768 40.64 55.9192 39.3247 56.1838 38.5295C56.464 37.7342 57.0709 36.3119 57.5223 35.3942C57.9892 34.4766 58.8452 33.1002 59.4211 32.3355C60.0125 31.5861 61.1798 30.2861 62.0358 29.4602C62.9385 28.5885 64.2458 27.5179 65.1485 26.9368C66.0045 26.3862 67.4053 25.6062 68.2613 25.2086C69.1173 24.8109 70.378 24.3062 71.0628 24.0921C71.7476 23.878 72.8059 23.5874 73.3973 23.4651Z" fill="#47004C"/>
<path d="M100.976 46.1763C100.945 46.5587 100.914 46.314 100.914 45.6411C100.914 44.9681 100.945 44.6623 100.976 44.9528C101.007 45.2434 101.007 45.794 100.976 46.1763Z" fill="#47004C"/>
<path d="M95.2648 30.5767C95.2181 30.5767 94.7045 30.1026 94.0975 29.5061C93.4906 28.9097 93.0703 28.4355 93.1326 28.4355C93.1948 28.4355 93.724 28.9249 94.2999 29.5061C94.8757 30.1026 95.3115 30.5767 95.2648 30.5767Z" fill="#47004C"/>
<path d="M97.3659 39.2941C97.4904 38.1624 97.5994 36.4342 97.615 35.4707C97.6461 33.8954 97.6616 33.7425 97.864 34.0178C97.9885 34.186 98.3931 34.9354 98.7667 35.7001C99.1402 36.4648 99.6694 37.7342 99.934 38.5294C100.199 39.3247 100.37 40.0741 100.323 40.1812C100.276 40.2729 100.307 40.3647 100.401 40.3647C100.494 40.3647 100.541 40.5635 100.51 40.8082C100.494 41.0682 100.541 41.2059 100.634 41.1447C100.712 41.0835 100.728 41.2517 100.665 41.5576C100.588 41.9094 100.619 42.047 100.743 42.047C100.883 42.047 100.914 42.1847 100.837 42.5364C100.774 42.8117 100.774 43.1023 100.837 43.1635C100.899 43.2399 100.946 44.3564 100.946 45.6716C100.946 46.9716 100.899 48.0728 100.821 48.1034C100.759 48.1339 100.759 48.4092 100.821 48.6998C100.899 49.0363 100.883 49.2351 100.79 49.2351C100.697 49.2351 100.619 49.5563 100.603 49.9692C100.588 50.3668 100.494 50.7033 100.401 50.7339C100.323 50.7492 100.276 50.8562 100.323 50.9633C100.37 51.0551 100.23 51.728 100.012 52.4468C99.7783 53.1656 98.8601 55.2914 97.9418 57.1879C97.0391 59.0843 96.2298 60.6595 96.152 60.7054C96.0741 60.7513 96.043 60.8125 96.0741 60.8584C96.0897 60.9042 95.9808 61.2407 95.8096 61.5925C95.6384 61.9595 95.4516 62.2348 95.3893 62.2348C95.3115 62.2348 95.296 62.296 95.3426 62.3877C95.3893 62.4795 95.3582 62.5407 95.2648 62.5407C95.1714 62.5407 95.1403 62.6019 95.187 62.6936C95.2337 62.7854 95.2026 62.8466 95.1092 62.8466C95.0158 62.8466 94.9847 62.9077 95.0314 62.9995C95.0781 63.0913 95.0625 63.1524 95.0002 63.1524C94.9224 63.1524 94.8602 63.2748 94.8446 63.4124C94.829 63.5654 94.1598 65.0642 93.3505 66.7465C92.5412 68.4288 91.4517 70.7076 90.9225 71.7934C90.3934 72.8793 89.8798 73.8122 89.8019 73.8581C89.7086 73.904 89.6463 73.9804 89.6463 74.0569C89.6619 74.1181 89.5996 74.4087 89.5062 74.6992C89.4128 74.9898 89.2883 75.2345 89.195 75.2345C89.1016 75.2345 89.0704 75.2957 89.1171 75.3875C89.1638 75.4792 89.1016 75.6322 88.9926 75.7392C88.8992 75.8463 88.7903 76.0298 88.7592 76.1521C88.728 76.2745 88.6347 76.3968 88.5568 76.4274C88.479 76.4427 88.4479 76.5192 88.4946 76.611C88.5413 76.7027 88.5101 76.7639 88.4168 76.7639C88.3234 76.7639 88.2923 76.8251 88.3389 76.9168C88.3856 77.0086 88.3078 77.1768 88.1833 77.2992C88.0588 77.4215 87.9965 77.5592 88.0588 77.6051C88.1366 77.6509 88.0899 77.6815 87.981 77.6815C87.8876 77.6815 87.8253 77.7427 87.872 77.8345C87.9187 77.9262 87.9187 78.0945 87.872 78.2168C87.8253 78.3545 87.7164 78.4003 87.6075 78.3392C87.4726 78.2576 87.4466 78.2831 87.5296 78.4156C87.5919 78.5074 87.4362 79.0274 87.1872 79.5627C86.9538 80.0826 85.9577 82.132 85.0083 84.1049C84.0433 86.0778 83.1873 87.7142 83.1095 87.7448C83.0317 87.7601 83.0006 87.8366 83.0473 87.9284C83.094 88.0201 83.0628 88.0813 82.9694 88.0813C82.8761 88.0813 82.8294 88.1272 82.8449 88.2036C82.8605 88.2648 82.736 88.6472 82.5803 89.0448C82.4091 89.4424 82.2224 89.7789 82.1446 89.7636C82.0823 89.7636 82.0667 89.8248 82.1134 89.9166C82.1601 90.0083 82.0823 90.1765 81.9578 90.2989C81.8333 90.4212 81.771 90.5589 81.8333 90.6048C81.9111 90.6507 81.8644 90.6812 81.7555 90.6812C81.6621 90.6812 81.5998 90.7424 81.6465 90.8342C81.6932 90.9259 81.6621 90.9871 81.5687 90.9871C81.4753 90.9871 81.4442 91.033 81.4753 91.0942C81.522 91.1706 80.9928 92.3789 80.308 93.8165C79.6232 95.2541 78.954 96.5388 78.7984 96.6917C78.6116 96.8905 78.3626 96.9517 77.9423 96.9211C77.6155 96.8905 77.242 96.7682 77.133 96.6458C77.0085 96.5235 76.4171 95.3917 75.8101 94.1223C75.1876 92.8683 74.674 91.7059 74.674 91.553C74.6584 91.4153 74.5806 91.293 74.5028 91.293C74.4249 91.293 74.4094 91.2624 74.4561 91.2165C74.5183 91.1706 74.4561 91.033 74.3315 90.9106C74.207 90.7883 74.1292 90.6201 74.1759 90.5283C74.2226 90.4365 74.1915 90.3754 74.0981 90.3754C74.0047 90.3754 73.9736 90.3142 74.0203 90.2224C74.067 90.1307 74.0358 90.0695 73.9425 90.0695C73.8491 90.0695 73.8179 90.0083 73.8646 89.9166C73.9113 89.8248 73.8958 89.7636 73.8179 89.7636C73.7557 89.7789 73.5845 89.4577 73.4289 89.0754C73.2888 88.6931 73.1643 88.3413 73.1798 88.2801C73.1798 88.2036 73.1176 88.1272 73.0398 88.0813C72.9464 88.0354 72.2771 86.766 71.5456 85.2519C70.8141 83.7379 70.2227 82.4838 70.2383 82.4838L70.6741 82.2697C70.892 82.1626 71.6546 81.6885 72.3861 81.2297C73.1176 80.7709 74.2382 80.0062 74.8763 79.5321C75.5144 79.0733 76.4638 78.3392 76.9774 77.9109C77.491 77.498 78.1602 76.9474 78.4559 76.7027C78.7517 76.4427 79.9189 75.3416 81.024 74.2557C82.1446 73.1546 83.7632 71.3805 84.6503 70.2946C85.5219 69.2241 86.8915 67.3735 87.6853 66.1806C88.4946 64.9724 89.5062 63.3665 89.942 62.6172C90.3778 61.8678 91.1871 60.3078 91.7318 59.1761C92.2766 58.0443 93.0548 56.3161 93.4439 55.3526C93.8174 54.3891 94.3933 52.7985 94.7045 51.835C95.0158 50.8715 95.545 48.9751 95.8874 47.6292C96.2298 46.2834 96.65 44.3258 96.8212 43.2705C96.9924 42.2152 97.2414 40.4259 97.3659 39.2941Z" fill="#47004C"/>
<path d="M74.9533 29.216C75.4669 29.1242 76.0895 29.0171 76.354 28.9866C76.6186 28.956 77.5836 28.9407 78.533 28.9713C79.4824 29.0019 80.7275 29.1395 81.3344 29.2618C81.9414 29.3842 82.9531 29.6748 83.5912 29.8889C84.2293 30.103 85.381 30.6077 86.1437 31.0053C86.9063 31.403 88.058 32.1524 88.7117 32.6877C89.3654 33.2076 90.2992 34.11 90.7972 34.6758C91.2953 35.2417 92.0579 36.2511 92.4781 36.924C92.8983 37.597 93.4586 38.6675 93.7232 39.2946C93.9878 39.9216 94.3458 41.0228 94.5014 41.7416C94.657 42.4604 94.8438 43.7298 94.8905 44.5709C94.9528 45.5038 94.9216 46.6968 94.7971 47.6297C94.7037 48.4708 94.4392 49.7402 94.2213 50.459C94.0189 51.1778 93.552 52.3096 93.2096 52.9825C92.8672 53.6554 92.3225 54.5884 91.9956 55.0472C91.6688 55.506 91.1085 56.2248 90.735 56.6377C90.3614 57.0506 89.5521 57.8153 88.9451 58.32C88.3382 58.84 87.2487 59.5894 86.5328 60.0023C85.8168 60.4306 84.8207 60.92 84.3227 61.1188C83.8402 61.3176 82.8908 61.6082 82.2371 61.7764C81.5679 61.9447 80.3384 62.1435 79.4979 62.2352C78.4863 62.3423 77.4902 62.3423 76.4786 62.2352C75.6381 62.1435 74.393 61.9447 73.7082 61.7611C73.0234 61.5929 71.9339 61.2258 71.2958 60.9506C70.6577 60.6906 69.4904 60.0635 68.7278 59.5588C67.9652 59.0694 66.7201 58.0753 65.9886 57.3565C65.2571 56.6377 64.3699 55.6283 64.0275 55.1236C63.6851 54.6189 63.1715 53.7625 62.8914 53.2119C62.6112 52.6613 62.2066 51.7284 62.0042 51.1472C61.8019 50.5661 61.5218 49.5873 61.3973 49.0061C61.2572 48.425 61.1171 47.1862 61.0704 46.2532C61.0237 45.0756 61.0704 44.1121 61.2416 43.0721C61.3817 42.2616 61.6774 41.0534 61.8953 40.411C62.1287 39.7534 62.4712 38.8358 62.689 38.3769C62.8914 37.9181 63.4361 36.9852 63.903 36.3123C64.3544 35.6394 65.3038 34.5076 66.0197 33.8041C66.7356 33.1006 67.7784 32.2441 68.3387 31.8771C68.899 31.5253 69.8484 30.99 70.4398 30.6995C71.0312 30.3936 72.0896 29.9807 72.7744 29.7665C73.4592 29.5524 74.4397 29.2924 74.9533 29.216Z" fill="#DFD9E3"/>
<path d="M58.7514 37.2146C58.8448 37.1228 59.0627 36.9852 59.2339 36.8781C59.4051 36.7864 59.6074 36.6946 59.7008 36.6946C59.7942 36.6946 60.0121 36.8017 60.1988 36.924C60.4946 37.1076 60.5568 37.2911 60.5568 37.9181C60.5568 38.3311 60.479 38.8358 60.3856 39.0193C60.2922 39.2181 60.0276 39.5546 59.7942 39.7993C59.5607 40.044 59.2339 40.2122 59.0004 40.2122C58.7825 40.2122 58.4868 40.0898 58.3312 39.9369C58.1444 39.7687 58.051 39.4475 58.0666 39.0193C58.0666 38.6675 58.1755 38.1475 58.3312 37.8722C58.4713 37.6123 58.658 37.3064 58.7514 37.2146Z" fill="#DFD9E3"/>
<path d="M57.6931 41.711C57.5686 41.5275 57.5686 41.3592 57.7242 41.0534C57.8643 40.7628 58.0355 40.671 58.2689 40.7016C58.4713 40.7322 58.6269 40.8851 58.658 41.0534C58.6892 41.2216 58.6736 41.5122 58.6269 41.6957C58.5646 41.9404 58.4401 42.0322 58.2067 42.0016C58.0199 41.9863 57.7865 41.8486 57.6931 41.711Z" fill="#DFD9E3"/>
<path d="M72.5095 45.6408L74.0347 42.6586L75.5755 39.6763L76.3226 44.1115C76.7272 46.5585 77.0385 48.6384 77.023 48.7608C76.9918 48.8831 76.2136 49.3114 75.2642 49.709C74.3149 50.1066 73.5055 50.3819 73.4433 50.336C73.381 50.2749 73.1476 49.2043 72.5095 45.6408Z" fill="#47004C"/>
<path d="M76.9295 31.7847C77.0385 31.6165 77.2564 31.4177 77.4431 31.3259C77.6143 31.2494 78.0812 31.2188 78.4859 31.2647C78.9061 31.3106 79.4975 31.5094 79.8088 31.7082C80.1979 31.9529 80.5403 32.3659 80.7893 32.8859C81.1162 33.5588 81.1784 33.8953 81.1629 34.9964C81.1473 35.8681 81.0228 36.7552 80.7893 37.6116C80.5714 38.3916 80.2757 39.0493 80.0734 39.2634C79.8555 39.4622 79.5287 39.5998 79.233 39.5998C78.9372 39.5998 78.626 39.4622 78.377 39.2175C78.0968 38.9422 78.0034 38.7128 78.0501 38.4222C78.0812 38.1775 78.2524 37.4434 78.4392 36.7705C78.626 36.0976 78.766 35.2258 78.766 34.8282C78.766 34.3847 78.6727 34.0023 78.5326 33.8647C78.4081 33.7423 78.1279 33.6353 77.91 33.6353C77.6921 33.6353 77.3497 33.467 77.1318 33.2529C76.914 33.0388 76.7428 32.7023 76.7428 32.4882C76.7428 32.2741 76.8206 31.9682 76.9295 31.7847Z" fill="#47004C"/>
<path d="M83.1706 37.1222C84.5091 35.4552 85.7542 34.0023 85.9409 33.8953C86.1121 33.7729 86.4079 33.6964 86.5946 33.7117C86.7814 33.727 86.9837 33.7576 87.046 33.7729C87.1238 33.7729 87.2794 34.0176 87.4195 34.2929C87.5596 34.5529 87.6218 34.9352 87.5751 35.134C87.5285 35.3176 86.3767 36.8317 85.0227 38.4987C83.6531 40.1504 82.4547 41.6033 82.3301 41.7104C82.2056 41.8174 81.8788 41.8786 81.5831 41.8633C81.2096 41.8327 80.9605 41.6798 80.7271 41.3892C80.4625 41.0374 80.4314 40.8998 80.5714 40.548C80.6493 40.3186 81.8321 38.774 83.1706 37.1222Z" fill="#47004C"/>
<path d="M76.3537 44.4938C75.9646 42.261 75.6533 40.3186 75.6533 40.181C75.6533 40.0281 75.6844 39.9057 75.7311 39.9057C75.7778 39.9057 77.2252 41.4963 78.9528 43.4386L78.9551 43.4411C80.6975 45.398 82.5483 47.4764 83.0772 48.0726C83.6064 48.669 83.9955 49.2043 83.9332 49.2502C83.871 49.2961 82.4547 49.7396 80.7893 50.229C79.124 50.7031 77.5832 51.1313 77.3653 51.1772C77.1474 51.2231 75.5755 51.6972 73.8635 52.2478C72.1514 52.7831 70.2215 53.3948 69.5834 53.6089C68.9453 53.8078 68.385 53.9301 68.3383 53.8995C68.2916 53.8536 69.2099 52.0031 70.3616 49.7855C71.5133 47.5679 72.4783 45.7632 72.4938 45.7632C72.5094 45.7785 72.7117 46.7879 72.9296 48.0114C73.1475 49.2349 73.381 50.2749 73.4432 50.3361C73.5055 50.3819 74.3148 50.1067 75.2642 49.709C76.2136 49.3114 76.9918 48.8832 77.0229 48.7608C77.0385 48.6385 76.7428 46.7267 76.3537 44.4938Z" fill="#47004C"/>
<path d="M86.3923 44.2644C86.6413 44.1421 87.2327 43.928 87.6685 43.8056C88.1821 43.668 88.7891 43.6221 89.2716 43.668C89.6918 43.7139 90.2988 43.8821 90.5945 44.0197C90.8902 44.1727 91.3416 44.5397 91.5906 44.815C91.8396 45.1056 92.1665 45.6103 92.3221 45.9468C92.4777 46.2832 92.6178 46.6961 92.6178 46.8644C92.6178 47.0326 92.4466 47.3538 92.2131 47.5985C91.9486 47.8585 91.6373 48.0114 91.3571 48.0114C91.077 48.0114 90.7502 47.8585 90.5167 47.6291C90.2988 47.415 90.1276 47.155 90.1276 47.0632C90.1432 46.9561 89.9564 46.6809 89.7385 46.4514C89.4791 46.166 89.1938 46.0232 88.8825 46.0232C88.6335 46.0232 88.0265 46.1915 87.5596 46.4056C87.0927 46.6197 86.5635 46.7879 86.3923 46.7879C86.2211 46.7879 85.9098 46.6197 85.6919 46.4056C85.4429 46.1609 85.3028 45.855 85.3028 45.5644C85.3028 45.3044 85.4429 44.9679 85.6141 44.7997C85.7853 44.6315 86.1433 44.3868 86.3923 44.2644Z" fill="#47004C"/>
</svg>
