<svg width="154" height="120" viewBox="0 0 154 120" fill="none" xmlns="http://www.w3.org/2000/svg">
<rect width="154" height="120" rx="16" fill="white"/>
<g clip-path="url(#clip0_233_601)">
<path d="M62.5078 33.7497C63.0234 32.2849 62.2617 30.6794 60.7969 30.1638C59.332 29.6482 57.7266 30.4099 57.2109 31.8747L55.957 35.4138L54.7969 31.9216C54.3047 30.4451 52.7109 29.6482 51.2344 30.1404C49.7578 30.6326 48.9609 32.2263 49.4531 33.7029L50.4258 36.6326L47.2148 34.2888C45.9609 33.3747 44.2031 33.656 43.2891 34.9099C42.375 36.1638 42.6563 37.9216 43.9102 38.8357L47.2266 41.2497H44.625C41.5195 41.2497 39 43.7693 39 46.8748V84.3747C39 87.4802 41.5195 89.9998 44.625 89.9998H62.5078C61.875 88.8982 61.5 87.6208 61.5 86.2497V59.9997C61.5 56.4958 63.9023 53.5544 67.1484 52.7341C67.3594 49.1013 69.1523 45.9138 71.8477 43.8162C70.8398 42.2693 69.1055 41.2497 67.125 41.2497H64.5234L67.8398 38.8357C69.0938 37.9216 69.375 36.1638 68.4609 34.9099C67.5469 33.656 65.7891 33.3747 64.5352 34.2888L61.5586 36.4568L62.5078 33.7497ZM81.5977 51.738L85.0664 56.2498H79.3125C77.7539 56.2498 76.5 54.9958 76.5 53.4373C76.5 51.9021 77.7656 50.6248 79.3359 50.6248C80.2266 50.6248 81.0586 51.0349 81.5977 51.738ZM70.875 53.4373C70.875 54.4216 71.0391 55.3708 71.3555 56.2498H70.875C67.7695 56.2498 65.25 58.7693 65.25 61.8747V71.2497H87.75V59.9997H91.5V71.2497H114V61.8747C114 58.7693 111.48 56.2498 108.375 56.2498H107.895C108.211 55.3708 108.375 54.4216 108.375 53.4373C108.375 48.7615 104.566 44.9997 99.9141 44.9997C97.2891 44.9997 94.8047 46.2185 93.1992 48.3044L89.625 52.9451L86.0508 48.3044C84.4453 46.2185 81.9492 44.9997 79.3359 44.9997C74.6836 44.9997 70.875 48.7615 70.875 53.4373ZM65.25 84.3747C65.25 87.4802 67.7695 89.9998 70.875 89.9998H87.75V74.9997H65.25V84.3747ZM91.5 89.9998H108.375C111.48 89.9998 114 87.4802 114 84.3747V74.9997H91.5V89.9998ZM102.75 53.4373C102.75 54.9958 101.496 56.2498 99.9375 56.2498H94.1836L97.6523 51.738C98.1914 51.0466 99.0234 50.6248 99.9141 50.6248C101.484 50.6248 102.75 51.9021 102.75 53.4373Z" fill="#47004C"/>
</g>
<defs>
<clipPath id="clip0_233_601">
<rect width="75" height="60" fill="white" transform="translate(39 30)"/>
</clipPath>
</defs>
</svg>
