<svg width="155" height="120" viewBox="0 0 155 120" fill="none" xmlns="http://www.w3.org/2000/svg">
<rect x="0.333344" width="154" height="120" rx="16" fill="white"/>
<path d="M48.3998 25.9032C49.0204 25.7064 50.0166 25.4768 50.6045 25.3949C51.1925 25.3293 52.254 25.2965 52.9726 25.3293C53.6912 25.3785 54.8997 25.5588 55.6673 25.7392C56.4349 25.9196 57.7251 26.3787 58.5253 26.7722C59.3256 27.1493 60.5341 27.8052 61.171 28.2315C61.8243 28.6578 62.3959 29.1005 62.4449 29.1989C62.4939 29.3137 62.3632 29.822 62.1509 30.3139C61.9223 30.8058 61.563 31.806 61.3343 32.5274C61.1057 33.2489 60.7954 34.5442 60.6321 35.3969C60.4198 36.5118 60.3381 37.8072 60.3381 39.906C60.3218 42.1195 60.4034 43.2673 60.6321 44.497C60.7954 45.3989 61.171 46.9074 61.4813 47.8584C61.7753 48.8094 62.3469 50.2031 62.7225 50.9738C63.1145 51.7444 63.8004 52.9086 64.2414 53.5808C64.6986 54.2531 65.5805 55.3517 66.2011 56.0239C66.8217 56.6962 67.6873 57.4996 68.8958 58.3523L68.6345 58.8934C68.4876 59.1721 67.9813 59.9592 67.524 60.6314C67.0667 61.3037 66.2175 62.2875 65.6295 62.845C65.0416 63.4025 64.2904 64.0255 63.9474 64.2551C63.6208 64.4847 63.3431 64.7798 63.3431 64.911C63.3268 65.0421 63.5554 65.3865 63.8167 65.6488C64.078 65.9112 64.568 66.5178 64.8783 66.9606C65.2049 67.4197 65.4662 67.8952 65.4662 68.0263C65.4662 68.1575 65.3682 68.4199 65.2539 68.6002C65.0906 68.8298 64.5027 69.0593 63.2125 69.3873C61.563 69.7808 61.3833 69.8628 61.3833 70.2071C61.3833 70.4039 61.4977 71.0106 61.6283 71.5516C61.759 72.0927 62.1999 73.2077 62.5919 74.0112C63.0981 75.0441 63.6371 75.8476 64.4373 76.7166C65.0579 77.3889 66.0868 78.3235 66.7074 78.7826C67.328 79.2581 68.9775 80.3239 70.3657 81.1601C71.7539 81.9964 73.3707 83.0294 73.9586 83.4393C74.5302 83.8492 75.3958 84.5542 75.8531 84.997C76.3104 85.4561 76.9963 86.2923 77.3719 86.8826C77.7475 87.4729 78.2048 88.4239 78.4008 89.0142C78.5968 89.6536 78.7601 90.7358 78.8091 91.7196C78.8744 92.8346 78.8091 93.8512 78.6294 94.8842C78.4825 95.704 78.3845 96.4419 78.3845 96.5239C78.4008 96.5894 78.4008 96.737 78.3845 96.8518C78.3845 96.9502 77.7965 97.4913 77.0943 98.0324C76.4084 98.5734 75.7878 98.967 75.7224 98.9014C75.6571 98.8358 75.7714 98.2619 76.0001 97.6224C76.2124 96.983 76.5063 95.8516 76.6697 95.0809C76.8656 94.0971 76.9146 93.1625 76.8656 91.8836C76.8167 90.2275 76.7513 89.9816 76.2124 88.8502C75.9021 88.1779 75.3468 87.2925 74.9875 86.8826C74.6282 86.4727 73.9423 85.8332 73.4524 85.4561C72.9624 85.0789 71.2803 83.9804 69.7124 83.0294C68.1446 82.0619 66.4135 80.9634 65.8745 80.5862C65.3356 80.1927 64.4537 79.4877 63.9311 78.9958C63.3921 78.5039 62.6082 77.6348 62.1673 77.0445C61.7263 76.4543 61.1057 75.4705 60.7954 74.831C60.5014 74.1915 60.0768 72.9782 59.8482 72.1255C59.6359 71.2729 59.3909 70.5514 59.3092 70.5187C59.2439 70.5023 58.6233 70.617 57.9537 70.8138C57.2841 70.9942 56.4675 71.1417 56.1572 71.1417C55.8469 71.1417 55.4876 71.0597 55.3733 70.945C55.259 70.8302 55.1773 70.3383 55.1773 69.83C55.1773 69.3381 55.2917 68.5674 55.4223 68.1083C55.6673 67.3049 55.651 67.2885 55.2917 66.9934C55.0957 66.8294 54.7201 66.6982 54.4424 66.7146C54.1648 66.7146 53.2502 66.5506 52.401 66.3375C51.5191 66.1079 50.1799 65.5996 49.298 65.1569C48.4488 64.7306 47.2729 64.0419 46.6849 63.632C46.097 63.2057 45.0518 62.3203 44.3332 61.6316C43.6309 60.9594 42.6021 59.7952 42.0468 59.0737C41.5078 58.3359 40.7403 57.1881 40.3646 56.5322C39.9727 55.86 39.3684 54.581 38.9928 53.6792C38.6335 52.7774 38.1109 51.2361 37.8659 50.2359C37.6046 49.2357 37.3106 47.842 37.1963 47.1205C37.082 46.3991 37.0003 44.8578 37.0003 43.6772C37.0167 42.4802 37.131 40.8242 37.2943 39.906C37.4576 39.0041 37.7842 37.6104 38.0619 36.7906C38.3232 35.9707 38.8621 34.659 39.2704 33.8392C39.6787 33.0193 40.381 31.888 40.8056 31.2977C41.2465 30.7074 41.9161 29.9204 42.3081 29.5596C42.7 29.1825 43.4186 28.5758 43.9086 28.1823C44.3985 27.8052 45.3621 27.2149 46.0317 26.8706C46.7013 26.5262 47.7792 26.0999 48.3998 25.9032Z" fill="#47004C"/>
<path d="M99.1909 25.5754C99.7298 25.4771 100.399 25.3623 100.661 25.3295C100.922 25.2967 101.771 25.2967 102.539 25.3459C103.306 25.3951 104.482 25.5754 105.152 25.7394C105.821 25.9198 107.046 26.3789 107.847 26.7724C108.647 27.1659 109.904 27.953 110.623 28.5433C111.342 29.1335 112.305 30.0845 112.746 30.6584C113.203 31.2323 113.759 32.003 113.987 32.3637C114.232 32.7244 114.624 33.4295 114.869 33.9214C115.114 34.4133 115.506 35.2987 115.718 35.889C115.947 36.4793 116.241 37.4303 116.372 38.0206C116.502 38.6108 116.666 39.3815 116.747 39.7422C116.829 40.1029 116.976 41.1687 117.074 42.1197C117.205 43.3823 117.221 44.3005 117.074 45.5631C116.976 46.5141 116.78 47.875 116.649 48.5964C116.502 49.3179 116.176 50.6296 115.914 51.4987C115.653 52.3841 115.375 53.1383 115.277 53.1875C115.179 53.2367 115.114 53.4007 115.114 53.5483C115.114 53.7122 114.853 54.4009 114.526 55.0732C114.216 55.7454 113.481 57.008 112.926 57.8606C112.354 58.7132 111.276 60.0742 110.525 60.8776C109.774 61.681 108.533 62.796 107.765 63.3699C106.997 63.9438 105.707 64.7472 104.907 65.1571C104.107 65.5507 102.702 66.0754 101.804 66.3049C100.906 66.5345 99.9748 66.7148 99.7298 66.7148C99.4685 66.7148 99.0929 66.8132 98.8643 66.9116C98.6193 67.0428 98.4396 67.2559 98.456 67.4527C98.456 67.633 98.5376 67.879 98.652 67.9938C98.7826 68.1249 98.8643 68.6988 98.8643 69.5515C98.8643 70.814 98.8479 70.896 98.456 71.0928C98.113 71.2567 97.8517 71.2403 96.8718 70.978C96.2185 70.7976 95.5653 70.65 95.4346 70.65C95.2223 70.65 95.2223 70.7484 95.3856 71.3387C95.4836 71.7322 95.5653 73.1915 95.5816 74.5853C95.598 76.5857 95.5326 77.4383 95.2713 78.5697C95.0917 79.3567 94.8957 79.9962 94.8304 79.9962C94.7487 79.9962 94.6997 80.1929 94.6997 80.4389C94.6997 80.7012 94.4221 81.5211 94.0791 82.2917C93.7362 83.0624 93.1319 84.2429 92.7399 84.9152C92.348 85.5875 91.4987 86.85 90.8455 87.7026C90.2085 88.5553 88.6244 90.3425 87.3342 91.6542C86.044 92.9824 84.4762 94.4909 83.8392 95.0484C83.2023 95.5895 81.2915 97.1472 79.593 98.5081C77.8946 99.8854 76.3757 101 76.2451 101C76.1144 101 75.8531 100.82 75.6571 100.623C75.3958 100.345 75.3305 100.115 75.4122 99.7706C75.4775 99.4427 75.9348 98.9508 77.029 98.049C77.8782 97.3603 78.9724 96.4913 79.4787 96.1142C79.985 95.7206 80.7362 95.1304 81.1445 94.8024L81.2633 94.6981C81.755 94.2663 82.9266 93.2375 84.0026 92.2773C85.1621 91.2279 86.5993 89.8178 87.1872 89.1619C87.7751 88.4897 88.5591 87.5715 88.9183 87.1288C89.2776 86.6696 89.9799 85.7186 90.4535 84.9972C90.9435 84.2757 91.6784 82.9476 92.103 82.0458C92.5276 81.144 93.0339 79.8486 93.2135 79.1763C93.4095 78.5041 93.6218 77.2087 93.7035 76.3069C93.7688 75.4051 93.7852 74.077 93.7035 73.3555C93.6382 72.634 93.5075 71.6502 93.4095 71.1747C93.3115 70.7156 93.1319 70.2237 93.0176 70.109C92.9032 70.0106 92.005 69.699 91.0251 69.4531C89.7676 69.1251 89.147 68.8792 88.9347 68.6332C88.7714 68.4365 88.6407 68.1577 88.657 68.0266C88.657 67.8954 88.902 67.4363 89.1797 67.0264C89.4736 66.6165 89.9636 66.0426 90.2575 65.7638C90.5352 65.4687 90.7801 65.108 90.7801 64.944C90.7801 64.7964 90.5515 64.5177 90.2575 64.3373C89.9636 64.1569 89.245 63.5667 88.6734 63.0256C88.1018 62.4845 87.3179 61.6318 86.9422 61.1399C86.5666 60.648 86.0277 59.8282 85.2274 58.4345L86.4523 57.4015C87.1219 56.844 88.0528 55.9258 88.5264 55.3683C88.9837 54.7944 89.7349 53.7778 90.1595 53.1055C90.6005 52.4333 91.2538 51.2855 91.5967 50.5641C91.9397 49.8426 92.446 48.5145 92.7073 47.6126C92.9849 46.7108 93.3442 45.3007 93.5075 44.4973C93.7198 43.4151 93.7852 42.2181 93.7852 39.9882C93.7852 37.7582 93.7198 36.5613 93.5075 35.4791C93.3442 34.6592 93.0176 33.3803 92.7889 32.6096C92.5603 31.839 92.201 30.806 91.9887 30.3141C91.76 29.8222 91.6294 29.3139 91.6784 29.1991C91.7274 29.1007 92.25 28.6744 92.8543 28.2809C93.4748 27.8874 94.4711 27.3135 95.108 27.002C95.7449 26.674 96.6922 26.2805 97.2311 26.0837C97.77 25.9034 98.6519 25.6738 99.1909 25.5754Z" fill="#47004C"/>
<path d="M71.4284 20.2298C71.9673 19.9838 73.0779 19.6067 73.8781 19.3935C74.907 19.1312 75.8216 19.0164 76.9484 19C78.01 19 79.0062 19.1148 79.9535 19.3443C80.7537 19.5247 81.8969 19.9018 82.5338 20.1806C83.1708 20.4429 84.1507 20.984 84.7386 21.3611C85.3265 21.7547 86.1758 22.3941 86.6494 22.7876C87.1067 23.1812 87.9069 23.9846 88.4132 24.5749C88.9195 25.1652 89.6544 26.1162 90.03 26.7065C90.422 27.2967 91.0426 28.3625 91.4019 29.084C91.7775 29.8054 92.3164 31.1664 92.6267 32.1174C92.937 33.0684 93.329 34.5769 93.4923 35.4787C93.7209 36.7085 93.8026 37.8562 93.8026 40.0698C93.7863 42.185 93.7046 43.4311 93.5086 44.4969C93.3453 45.3004 92.986 46.7105 92.7084 47.6123C92.4471 48.5141 91.9081 49.875 91.5489 50.6457C91.1896 51.4163 90.4383 52.7117 89.8994 53.5151C89.3604 54.3186 88.3315 55.5811 87.5966 56.319C86.878 57.0404 85.8165 57.9586 85.2285 58.3521C84.6406 58.7457 83.5627 59.3523 82.8115 59.6967C82.0766 60.041 81.407 60.3198 81.309 60.3198C81.211 60.3198 81.1457 60.4837 81.1457 60.6969C81.1457 60.8936 81.211 61.1232 81.2926 61.2216C81.3906 61.32 81.6356 61.8774 81.8806 62.5005C82.1092 63.1072 82.2889 63.7795 82.2889 64.009C82.2889 64.255 82.1419 64.5173 81.9296 64.6649C81.6356 64.8452 81.0803 64.9108 77.6344 64.8944L77.2751 65.9274C77.0791 66.5013 76.8341 67.4687 76.7198 68.1082C76.6055 68.7969 76.5728 69.8135 76.6218 70.6497C76.6871 71.4203 76.8995 72.6665 77.1281 73.4371C77.3567 74.2078 77.7814 75.3883 78.0917 76.0606C78.402 76.7329 79.3982 78.6513 80.3127 80.3238C81.2273 81.9962 82.1909 83.9146 82.4848 84.5869C82.7625 85.2592 83.1218 86.325 83.2851 86.9644C83.4647 87.6531 83.5954 88.7025 83.5954 89.5879C83.5954 90.3913 83.4811 91.5063 83.3504 92.0474C83.1544 92.8017 82.9585 93.1624 82.4848 93.6051C82.1419 93.9166 81.5703 94.4413 81.211 94.7529C80.8354 95.0644 80.1821 95.5891 79.7411 95.9007C79.3002 96.2122 79.0552 96.327 79.1859 96.1794C79.3165 96.0154 79.3818 95.8843 79.3002 95.9007C79.2349 95.9007 79.4308 95.5563 79.7411 95.13C80.0514 94.6873 80.5577 93.7855 80.8843 93.1132C81.2436 92.359 81.5213 91.4407 81.6193 90.7357C81.7336 89.9978 81.7336 89.1944 81.6356 88.4893C81.5376 87.8662 81.2436 86.7677 80.9823 86.0298C80.7047 85.2756 79.9698 83.7015 79.3329 82.5373C78.6959 81.3731 77.7814 79.6679 77.2914 78.7661C76.8178 77.8643 76.1972 76.5689 75.9196 75.8966C75.6419 75.2244 75.2663 74.0766 75.103 73.3551C74.9233 72.6337 74.7437 71.4531 74.6784 70.7317C74.613 69.961 74.662 68.8788 74.7764 68.1082C74.8907 67.3867 75.1193 66.3701 75.5929 64.9108H73.9924C72.7186 64.9108 72.3593 64.8452 72.1143 64.6157C71.951 64.4681 71.8203 64.173 71.8367 63.9762C71.8367 63.7631 72.0327 63.1072 72.2613 62.5005C72.4899 61.8774 72.7349 61.32 72.8166 61.2216C72.8982 61.1232 72.9309 60.91 72.9146 60.7297C72.8819 60.5001 72.5226 60.2542 71.7387 59.9098C71.1181 59.6311 70.2362 59.2048 69.7952 58.9424C69.3379 58.6801 68.5704 58.1554 68.0804 57.7783C67.5905 57.4011 66.7086 56.5813 66.1206 55.9418C65.5327 55.3187 64.6998 54.253 64.2425 53.5807C63.8016 52.9084 63.1156 51.7443 62.7237 50.9736C62.348 50.203 61.7764 48.8092 61.4825 47.8582C61.1722 46.9072 60.7965 45.3987 60.6332 44.4969C60.4046 43.2672 60.3229 42.1194 60.3393 39.9058C60.3393 37.8234 60.4209 36.4953 60.6332 35.3967C60.7802 34.5441 61.1722 33.0684 61.4825 32.1174C61.7928 31.1664 62.397 29.7399 62.8053 28.92C63.2136 28.1002 63.9159 26.9032 64.3895 26.231C64.8468 25.5587 65.7777 24.4437 66.4473 23.7551C67.1169 23.0664 68.2927 22.0826 69.0603 21.5743C69.8279 21.0824 70.8894 20.4593 71.4284 20.2298Z" fill="#E1B0E4"/>
<path d="M76.3759 24.509C76.3595 24.1483 76.4249 23.9187 76.5882 23.8695C76.7025 23.8203 76.9965 23.7712 77.2251 23.7712C77.4537 23.7548 78.107 23.8367 78.6949 23.9187C79.3319 24.0335 80.3281 24.3778 81.2263 24.8041C82.0266 25.1977 83.1045 25.8863 83.6107 26.3126C84.1334 26.7554 84.8683 27.526 85.2602 28.0179C85.6685 28.5098 86.2565 29.3624 86.5668 29.9035C86.8934 30.4446 87.4323 31.5432 87.759 32.363C88.1019 33.1829 88.5102 34.4946 88.6899 35.3144C88.8695 36.1999 89.0165 37.5444 89.0655 40.5614L88.4612 40.5942C87.9386 40.6434 87.8243 40.5942 87.7753 40.2827C87.7263 40.0695 87.6446 39.2825 87.5793 38.5118C87.5303 37.7412 87.3017 36.413 87.0894 35.5604C86.8934 34.7078 86.5178 33.5272 86.2891 32.9369C86.0605 32.3466 85.6032 31.3956 85.2766 30.8053C84.9173 30.1495 84.1007 29.1493 83.2025 28.2475C82.1736 27.2145 81.406 26.5914 80.7037 26.2307C80.1321 25.9519 79.1849 25.6076 78.5806 25.4764C77.96 25.3288 77.3721 25.2633 77.2741 25.3124C77.1598 25.3616 76.9148 25.3124 76.7352 25.2305C76.5174 25.1212 76.3976 24.8807 76.3759 24.509Z" fill="#FFC4A9"/>
<path d="M47.1261 31.6744C47.6487 31.3464 48.4816 30.9037 48.9715 30.6906C49.4615 30.4938 50.0004 30.3134 50.1637 30.3134C50.3107 30.3134 50.5557 30.4282 50.6863 30.5594C50.817 30.6906 50.9313 30.9201 50.9313 31.0513C50.9313 31.1825 50.7843 31.4448 50.6047 31.6252C50.425 31.8055 50.1964 31.9531 50.1147 31.9531C50.0331 31.9531 49.6085 32.1171 49.1838 32.3138C48.7429 32.4942 48.0406 32.9369 47.5834 33.2813C47.1424 33.6092 46.4238 34.3142 45.9992 34.8553C45.5909 35.38 44.9866 36.3638 44.66 37.0361C44.3497 37.7084 43.9414 38.8561 43.7454 39.5776C43.5331 40.4138 43.3698 41.6928 43.3208 43.1029C43.2392 44.8409 43.2718 45.6444 43.5005 46.8741C43.6638 47.7268 43.8108 48.6778 43.8434 48.9729C43.8924 49.3828 43.8271 49.5304 43.5495 49.678C43.2718 49.8092 43.0758 49.8092 42.8145 49.678C42.5206 49.5304 42.3736 49.2189 42.1613 48.2351C41.949 47.2841 41.8673 46.2183 41.8673 44.0867C41.8673 42.3814 41.949 40.7254 42.096 39.9875C42.2103 39.3152 42.5369 38.1675 42.8145 37.446C43.0922 36.7246 43.6311 35.6096 44.0067 34.9865C44.3824 34.3634 45.0356 33.4944 45.4439 33.0681C45.8522 32.6254 46.6198 32.0023 47.1261 31.6744Z" fill="#FFC4A9"/>
<path d="M102.376 30.92C102.376 30.7725 102.539 30.4773 102.719 30.2969C102.997 30.0182 103.209 29.969 103.666 30.051C103.993 30.1002 104.793 30.4117 105.43 30.7233C106.263 31.1332 106.982 31.6579 107.815 32.4777C108.484 33.1336 109.317 34.1994 109.693 34.8224C110.068 35.4455 110.558 36.4457 110.787 37.036C111.016 37.6263 111.358 38.8068 111.538 39.6595C111.799 40.8564 111.881 41.7911 111.897 43.6767C111.897 45.5623 111.816 46.5133 111.554 47.7759C111.326 48.858 111.113 49.4811 110.918 49.6287C110.754 49.7435 110.477 49.8254 110.297 49.8254C110.117 49.8418 109.823 49.6779 109.644 49.4975C109.382 49.2188 109.333 49.022 109.431 48.5465C109.497 48.2186 109.66 47.2348 109.807 46.3821C109.938 45.5295 110.052 44.3817 110.052 43.8406C110.052 43.2995 109.987 42.2666 109.889 41.5451C109.807 40.8236 109.611 39.7907 109.48 39.2496C109.35 38.7085 108.909 37.5935 108.5 36.79C108.108 35.9702 107.455 34.9536 107.08 34.5109C106.688 34.0682 105.969 33.3959 105.479 33.0352C104.989 32.6745 104.173 32.2482 103.683 32.0678C103.193 31.9038 102.686 31.6415 102.572 31.4939C102.458 31.3463 102.376 31.084 102.376 30.92Z" fill="#50D0FF"/>
</svg>
