<svg width="154" height="120" viewBox="0 0 154 120" fill="none" xmlns="http://www.w3.org/2000/svg">
<rect width="154" height="120" rx="16" fill="white"/>
<path d="M53.1495 43.2898L62.0404 43.1806C66.9223 43.1165 77.6886 43.0658 85.9656 43.0716C99.1085 43.078 101.097 43.1201 101.809 43.3279C102.246 43.4719 102.877 43.7445 103.185 43.9374C103.493 44.1465 103.979 44.5488 104.271 44.8387C104.563 45.1448 104.986 45.822 105.246 46.3543C105.685 47.29 105.702 47.4031 105.744 50.505C105.782 52.266 105.754 53.7041 105.674 53.7043C105.609 53.7045 104.899 54.1107 104.108 54.6303C103.318 55.1337 102.285 55.7025 101.849 55.8654C101.252 56.1097 100.638 56.1925 99.5062 56.1961C98.2292 56.2163 97.8248 56.153 97.161 55.8481C96.7078 55.6557 95.8006 55.077 95.1362 54.5621C94.4718 54.0633 93.6295 53.549 93.2735 53.4371C92.9012 53.309 92.1897 53.2467 91.624 53.2808C90.7513 53.3482 90.5091 53.4298 89.6866 54.0464C89.1705 54.4196 88.3479 55.0201 87.864 55.3447C87.2188 55.7992 86.6699 56.011 85.8459 56.1752C85.1996 56.2904 84.3591 56.3254 83.9063 56.2784C83.4535 56.2152 82.7739 56.0235 82.3692 55.847C81.9645 55.6706 81.0897 55.1079 80.4252 54.5769C79.7608 54.062 78.9509 53.5637 78.6434 53.4678C78.336 53.388 77.6891 53.3093 77.2203 53.3108C76.6545 53.3126 76.1376 53.4435 75.605 53.7037C75.1854 53.9312 74.4756 54.4021 74.0403 54.7751C73.5889 55.1481 72.9759 55.5863 72.6693 55.7489C72.3627 55.9114 71.636 56.1399 71.0543 56.2549C70.2304 56.4029 69.7939 56.4205 69.0336 56.2614C68.4998 56.1661 67.7717 55.9423 67.4154 55.7657C67.0592 55.5891 66.395 55.155 65.9574 54.7848C65.5035 54.4146 64.8069 53.9483 64.3698 53.7397C63.8516 53.4667 63.3339 53.3552 62.7196 53.3572C62.2346 53.3588 61.556 53.474 61.217 53.6205C60.8941 53.7508 60.1037 54.2704 59.4909 54.7409C58.8781 55.2275 57.9908 55.7797 57.5549 55.975C56.9092 56.2679 56.4568 56.3501 55.2929 56.3538C54.1936 56.3412 53.6275 56.2622 52.9477 55.9897C52.4621 55.7974 51.3771 55.2354 49.0447 53.8049L49.0218 51.7046L49.0218 51.7045C49.018 50.5413 49.0135 49.1357 49.044 48.5539C49.0583 47.9722 49.2012 47.1478 49.3775 46.6948C49.5378 46.2419 50.0042 45.5134 50.4392 45.0434C50.9225 44.5249 51.5838 44.038 53.1495 43.2898Z" fill="#47004C"/>
<path d="M48.3696 65.1169L74.8004 64.9514C89.3332 64.8564 102.088 64.7671 103.139 64.7314C104.173 64.712 105.418 64.7726 105.871 64.8681C106.34 64.9635 107.133 65.2356 107.619 65.4603C108.105 65.7011 108.882 66.2479 109.336 66.6989C109.855 67.1981 110.391 67.9396 111.27 69.7625L111.376 77.5174L109.649 78.6055C108.681 79.2064 107.584 79.84 107.18 80.019C106.777 80.198 105.953 80.4269 105.323 80.542C104.677 80.6572 103.707 80.6926 103.06 80.63C102.316 80.5678 101.604 80.3762 100.957 80.0713C100.423 79.8306 99.4829 79.2035 98.8508 78.7047C98.2187 78.2058 97.3925 77.643 96.9877 77.4504C96.583 77.2578 95.8226 77.0825 95.289 77.0358C94.5614 76.9896 94.0928 77.0558 93.4308 77.3164C92.9464 77.5118 91.93 78.1452 91.1722 78.7616C90.4143 79.3618 89.4141 80.0113 88.946 80.2228C88.4617 80.4344 87.5732 80.6311 86.8459 80.6819C86.0378 80.7653 85.2941 80.7192 84.7117 80.5918C84.2263 80.4803 83.4981 80.2241 83.0933 80.0315C82.6885 79.8228 81.7812 79.1956 81.0681 78.6324C80.355 78.0692 79.4155 77.4905 78.9623 77.3304C78.5092 77.1865 77.8622 77.0593 77.5065 77.0604C77.1509 77.0615 76.4884 77.1606 76.0523 77.2913C75.5194 77.4545 74.7772 77.9093 73.8742 78.6231C73.1163 79.2072 72.0678 79.9214 71.5351 80.1655C70.8572 80.507 70.1949 80.6706 69.3546 80.7541C68.5626 80.8213 67.7865 80.7753 67.0909 80.6321C66.5086 80.5209 65.667 80.2004 65.2296 79.9272C64.7761 79.654 63.9821 79.091 63.4473 78.6565C62.9125 78.2381 62.1833 77.7234 61.8271 77.5469C61.3251 77.2738 60.8884 77.1944 59.8861 77.1976C58.8677 77.2009 58.4476 77.283 57.8665 77.5595C57.463 77.7709 56.6242 78.3391 56.0116 78.858C55.3989 79.3609 54.4148 79.9941 53.8337 80.2707C52.8491 80.7424 52.6552 80.7753 51.0063 80.7806C49.4382 80.7856 49.0985 80.7221 48.1759 80.3372C47.5931 80.0968 46.2977 79.4223 43.4632 77.7349L43.5353 69.9633L44.0976 68.8466C44.4188 68.1993 44.9981 67.3735 45.4655 66.9196C45.9005 66.4658 46.7393 65.8976 48.3696 65.1169Z" fill="#47004C"/>
<path d="M59.4907 54.7403C60.1035 54.2697 60.8778 53.7502 61.1845 53.62C61.4913 53.4898 62.1699 53.3745 62.6871 53.3567C63.3499 53.3546 63.8191 53.4662 64.3858 53.739C64.8068 53.9477 65.5195 54.414 65.9572 54.7842C66.411 55.1543 67.0591 55.5885 67.4153 55.7651C67.7715 55.9417 68.4997 56.1655 69.0335 56.2608C69.7938 56.4199 70.2302 56.4023 71.0542 56.2543C71.6358 56.1393 72.3625 55.9108 72.6692 55.7482C72.9758 55.5857 73.6049 55.1474 74.0401 54.7744C74.4916 54.4014 75.1852 53.9306 75.621 53.703C76.1375 53.4429 76.6543 53.312 77.2201 53.3101C77.689 53.3086 78.3358 53.3874 78.6433 53.4672C78.9507 53.5631 79.7606 54.0614 80.4251 54.5763C81.0896 55.1073 81.9643 55.67 82.369 55.8464C82.7737 56.0229 83.4695 56.2145 83.9062 56.2777C84.359 56.3248 85.1995 56.2898 85.8458 56.1746C86.6697 56.0104 87.2187 55.7986 87.8638 55.3441C88.3478 55.0194 89.1703 54.419 89.6864 54.0457C90.5089 53.4292 90.7511 53.3476 91.6239 53.2802C92.1896 53.246 92.9011 53.3084 93.2733 53.4365C93.6293 53.5484 94.4716 54.0627 95.136 54.5615C95.8005 55.0764 96.7238 55.655 97.1609 55.8475C97.8246 56.1524 98.229 56.2157 99.506 56.1955C100.621 56.1919 101.268 56.109 101.849 55.8648C102.285 55.7019 103.156 55.2305 103.786 54.8246C104.415 54.4187 105.076 53.9965 105.641 53.7038L105.677 64.7712L49.0966 65.0331L49.0788 59.4591C49.062 54.2082 49.0772 53.9011 49.3362 54.0296C49.4981 54.1098 50.2432 54.5437 51.0044 54.9936C51.7656 55.4436 52.7372 55.9413 53.1903 56.0853C53.7082 56.2614 54.5006 56.3558 55.3736 56.353C56.4405 56.3496 56.9252 56.2672 57.5547 55.9744C57.9906 55.7791 58.878 55.2269 59.4907 54.7403Z" fill="#47004C" fill-opacity="0.86"/>
<path d="M57.2209 77.9326C57.5274 77.7216 58.0762 77.4452 58.4314 77.3309C58.7867 77.2167 59.5463 77.1496 60.1284 77.1801C60.7751 77.2103 61.4384 77.3536 61.827 77.5462C62.1832 77.739 62.9123 78.2375 63.4471 78.6559C63.982 79.0904 64.7921 79.6533 65.2294 79.9266C65.683 80.1998 66.5085 80.5203 67.0908 80.6315C67.7864 80.7747 68.5625 80.8207 69.3544 80.7535C70.1948 80.67 70.857 80.5063 71.5349 80.1649C72.0676 79.9208 73.1161 79.2066 73.874 78.6225C74.777 77.9087 75.5192 77.4539 76.0522 77.2906C76.5044 77.1599 77.1507 77.0609 77.5064 77.0598C77.862 77.0587 78.5252 77.1858 78.9622 77.3298C79.4153 77.4899 80.3548 78.0686 81.0679 78.6318C81.781 79.195 82.6883 79.8222 83.0931 80.0309C83.4979 80.2235 84.2262 80.4797 84.7115 80.5912C85.2939 80.7186 86.0377 80.7647 86.8619 80.6813C87.573 80.6305 88.4615 80.4338 88.962 80.2222C89.4139 80.0107 90.4142 79.3612 91.172 78.761C91.9299 78.1446 92.9463 77.5112 93.4306 77.3158C94.0926 77.0551 94.5612 76.989 95.2888 77.0352C95.8224 77.0819 96.5828 77.2572 96.9876 77.4498C97.3923 77.6424 98.2186 78.2052 98.8507 78.7041C99.4827 79.2029 100.422 79.83 100.957 80.0706C101.604 80.3756 102.316 80.5672 103.06 80.6294C103.707 80.692 104.677 80.6565 105.323 80.5414C105.953 80.4263 106.777 80.1974 107.18 80.0184C107.584 79.8394 108.633 79.2221 109.52 78.6537C110.407 78.0692 111.182 77.5982 111.263 77.598C111.327 77.5978 111.385 80.6512 111.419 91.1692L43.523 91.3867L43.5012 84.6009C43.4893 80.8687 43.5118 77.8149 43.5603 77.8148C43.6088 77.8146 44.4996 78.3288 45.5523 78.9394C46.589 79.5662 47.8521 80.2407 48.3376 80.4169C49.0498 80.7054 49.5835 80.7684 51.0062 80.78C52.6712 80.7746 52.849 80.7417 53.8336 80.27C54.4146 79.9935 55.2858 79.4414 55.7696 79.0521C56.2533 78.6466 56.9144 78.1436 57.2209 77.9326Z" fill="#47004C" fill-opacity="0.86"/>
<path d="M105.782 62.0243C105.771 63.6239 105.751 62.396 105.741 59.2778C105.714 56.1596 105.743 54.8669 105.764 56.3695C105.801 57.8719 105.809 60.4247 105.782 62.0243Z" fill="#47004C" fill-opacity="0.86"/>
<path d="M38.1263 91.9857C38.3843 91.8072 38.7717 91.6121 38.9978 91.5467C39.2239 91.4814 56.6343 91.3771 77.7145 91.3258L77.7679 91.3256C115.85 91.2359 116.028 91.2355 116.594 91.5567C116.934 91.7495 117.308 92.1684 117.535 92.6039C117.731 93.0072 117.894 93.5075 117.895 93.7337C117.895 93.9599 117.735 94.4613 117.543 94.8658C117.318 95.3028 116.947 95.724 116.608 95.919C116.044 96.2439 115.898 96.2444 77.4882 96.3674C41.0829 96.484 38.9004 96.4749 38.4146 96.2017C38.1231 96.0573 37.734 95.6869 37.5552 95.3967C37.3386 95.0527 37.2293 94.5952 37.2275 94.0244C37.226 93.572 37.3212 92.99 37.4497 92.7311C37.5621 92.4884 37.8681 92.1481 38.1263 91.9857Z" fill="#47004C" fill-opacity="0.86"/>
<path d="M80.81 23.3444C81.2944 23.1651 82.0213 22.985 82.4252 22.9191C82.8291 22.8532 83.2979 22.8355 83.4758 22.8673C83.6538 22.9152 83.9454 23.092 84.1237 23.253C84.3021 23.4301 84.4487 23.7689 84.4495 24.0274C84.4503 24.286 84.306 24.6419 84.1288 24.8363C83.9193 25.0632 83.4511 25.2424 82.7563 25.3577C82.1746 25.4404 81.3995 25.6852 81.0121 25.8803C80.6247 26.0755 80.0442 26.5297 79.7059 26.8862C79.3675 27.2428 78.9329 27.8097 78.7561 28.1334C78.4989 28.5866 78.4509 28.7645 78.5966 28.8125C78.7099 28.8606 79.357 29.0039 80.0202 29.131C80.6835 29.2743 81.7354 29.6264 82.3668 29.9314C82.9982 30.2202 83.8892 30.799 85.2024 31.9581L85.9611 31.6163C86.3969 31.421 87.4303 31.03 88.27 30.7365C89.1097 30.4429 90.6925 30.0016 91.7749 29.772C92.8735 29.5423 94.0529 29.3446 94.4086 29.3435C94.7642 29.3423 95.201 29.4217 95.379 29.5019C95.5571 29.5821 95.8006 29.9045 95.9308 30.1787C96.1425 30.6466 96.1272 30.9213 95.8733 32.4086C95.6985 33.3462 95.3158 34.9793 95.012 36.0466C94.7083 37.114 94.1797 38.6344 93.8428 39.4433C93.4897 40.2361 92.9435 41.3204 92.6218 41.8223C92.284 42.3565 92.0754 42.8419 92.1566 42.9547C92.2379 43.0837 89.6191 43.1244 70.7695 43.0717L70.0864 41.7814C69.7123 41.0717 69.256 39.9421 69.0761 39.2803C68.8799 38.6185 68.6821 37.4235 68.6149 36.6159C68.5467 35.5174 68.5932 34.9033 68.7847 34.111C68.9445 33.5289 69.249 32.7039 69.4901 32.2669C69.7312 31.8299 70.2464 31.182 70.6494 30.8252C71.0524 30.4685 71.8106 29.9813 72.3433 29.7373C72.876 29.4771 73.7803 29.1833 74.362 29.0845C74.9436 28.9696 75.4768 28.8709 75.5736 28.8383C75.6706 28.8218 75.9761 28.3038 76.2651 27.689C76.5541 27.0741 77.1009 26.1837 77.4712 25.6978C77.8415 25.2281 78.5507 24.5634 79.0346 24.2387C79.5185 23.914 80.3255 23.5075 80.81 23.3444Z" fill="#47004C"/>
<path d="M99.1405 43.0132C98.3 43.0482 96.845 43.0528 95.9073 43.0235C94.9697 43.0104 95.6647 42.9758 97.4429 42.9701C99.2212 42.9644 99.981 42.9943 99.1405 43.0132Z" fill="#47004C"/>
<path d="M49.0357 61.1562C49.0265 63.3374 49.0049 61.6249 48.9912 57.3595C48.9775 53.0941 48.988 51.3168 49.0109 53.401C49.0499 55.4851 49.061 58.975 49.0357 61.1562Z" fill="#47004C"/>
<path d="M111.484 76.1436C111.471 77.0808 111.436 76.3538 111.431 74.5281C111.425 72.7024 111.455 71.943 111.474 72.8315C111.509 73.72 111.514 75.2065 111.484 76.1436Z" fill="#47004C"/>
<path d="M72.7289 33.6137C73.0671 33.2087 73.6637 32.722 74.0672 32.5269C74.4545 32.3156 74.9713 32.1524 75.23 32.1515C75.5209 32.1506 75.7747 32.3006 75.9912 32.6015C76.186 32.8432 76.3325 33.1659 76.3168 33.3275C76.3173 33.4729 76.2535 33.7478 76.1571 33.9258C76.0607 34.1039 75.706 34.3958 75.3509 34.5747C74.9958 34.7535 74.5606 35.1427 74.3837 35.4341C74.2067 35.7093 74.0628 36.1945 74.0637 36.4853C74.0646 36.76 74.0173 37.1156 73.9531 37.2612C73.8727 37.4069 73.6309 37.6338 73.3888 37.7477C73.0983 37.894 72.7751 37.9274 72.5001 37.8637C72.2735 37.7836 71.9819 37.5906 71.852 37.4133C71.7382 37.236 71.64 36.8324 71.639 36.5254C71.638 36.2184 71.733 35.6041 71.8609 35.1513C72.0049 34.6985 72.3746 34.0187 72.7289 33.6137Z" fill="#47004C" fill-opacity="0.86"/>
</svg>
