<svg width="155" height="120" viewBox="0 0 155 120" fill="none" xmlns="http://www.w3.org/2000/svg">
<rect x="0.666687" width="154" height="120" rx="16" fill="white"/>
<path d="M88.3397 33.9262C88.5581 33.246 88.8234 32.0864 88.9482 31.3444C89.0574 30.6023 89.1979 30.0457 89.2447 30.1075C89.2915 30.1694 89.4475 30.6641 89.6035 31.2207C89.7439 31.7772 90.2432 32.9986 90.6957 33.9262C91.1638 34.8538 92.256 36.7399 93.1297 38.1004C93.9878 39.4609 95.1268 41.4089 95.6261 42.4293C96.141 43.4497 96.7183 44.8875 97.2644 46.9746L98.1225 47.4075C98.731 47.7167 99.0899 48.0413 99.4019 48.5361C99.6516 48.9226 99.9168 49.51 100.01 49.8502C100.12 50.2212 100.151 50.9324 100.073 51.6281C100.026 52.262 99.8544 53.0659 99.6984 53.406C99.558 53.7461 99.1211 54.3645 98.731 54.7665C98.3566 55.1839 97.7637 55.6477 97.4204 55.8178C97.0772 55.9724 96.4999 56.1115 96.141 56.1115C95.7041 56.1115 95.4701 56.1734 95.4701 56.3125C95.4701 56.4053 95.158 57.1474 94.768 57.9358C94.3779 58.7088 94.0034 59.3582 93.9098 59.3582C93.8162 59.3582 93.7382 56.9309 93.6758 45.5213L93.2545 44.6401C93.0049 44.1454 92.5056 43.4342 92.1155 43.0477C91.7255 42.6612 91.0078 42.1665 90.5241 41.9346C89.8064 41.5944 89.3071 41.5017 86.4986 41.3471L85.4844 38.7962L86.1866 37.9922C86.5766 37.5439 87.1227 36.7245 87.4192 36.1679C87.7156 35.6114 88.1213 34.6064 88.3397 33.9262Z" fill="#E1B0E4"/>
<path d="M63.9529 39.1054C64.2493 38.9817 64.9202 38.7962 65.4351 38.7034C65.95 38.5952 67.3542 38.5179 68.5556 38.5024C69.757 38.5024 71.2705 38.5642 71.9102 38.6415C72.5499 38.7189 73.1116 38.8271 73.1584 38.8735C73.2052 38.9198 73.018 39.4919 72.2691 41.3471L69.5542 41.4244C67.0578 41.5017 66.7769 41.5326 65.9812 41.9036C65.5131 42.1201 64.8422 42.5375 64.499 42.8467C64.1557 43.1405 63.6408 43.8362 63.3444 44.3773C63.0323 44.9493 62.7827 45.7068 62.7203 46.1861C62.6735 46.6345 62.6735 46.99 62.7359 46.99C62.8139 46.99 63.2352 46.7891 63.672 46.5417C64.1245 46.2943 64.889 45.9851 65.3571 45.846C65.8252 45.7068 67.1202 45.5213 68.2436 45.4286C69.367 45.3358 70.9116 45.3049 71.6762 45.3667C72.4407 45.4286 73.2832 45.5522 73.5485 45.6605C73.8137 45.7687 74.1726 46.0624 74.3754 46.3098C74.5782 46.5572 74.7655 46.9127 74.8123 47.0983C74.8591 47.3765 74.6406 47.6857 73.8917 48.4278C73.3456 48.9844 72.6747 49.8656 72.3471 50.4686C72.035 51.0715 71.6606 51.9991 71.5357 52.5557C71.3953 53.1123 71.2861 53.978 71.2861 55.4158L69.523 55.926C68.5712 56.2198 67.245 56.6372 66.6053 56.8845C65.8252 57.1783 65.1543 57.5803 64.5926 58.075C64.1401 58.4769 63.6096 59.0954 63.438 59.4355C63.2352 59.8374 63.1103 60.3785 63.1103 60.9815C63.0947 61.8318 63.1571 62.0173 63.75 62.914C64.1089 63.4706 64.5302 64.1972 64.6706 64.5373C64.8734 65.0475 64.9046 65.434 64.811 66.7791C64.7486 67.6757 64.6394 68.7425 64.5614 69.1754C64.4834 69.5928 64.3117 70.6132 64.1869 71.4171C64.0621 72.221 63.8749 73.334 63.7813 73.8906L63.7812 73.8907C63.6876 74.4473 63.5628 75.2358 63.4848 75.6686C63.4224 76.0861 63.1883 77.4156 62.9543 78.6061C62.7359 79.7965 62.5486 80.9251 62.5486 81.1106C62.5486 81.3116 62.7827 81.7909 63.0791 82.1928C63.36 82.6103 63.7812 83.306 64.0153 83.7389C64.2337 84.1872 64.6082 85.1612 64.8266 85.9033C65.1543 86.97 65.2479 87.6967 65.3103 89.2736C65.3415 90.3713 65.3259 91.8091 65.1231 93.6024L64.0309 94.0353C63.438 94.2827 62.2678 94.6537 61.4565 94.8702C60.4735 95.1175 59.3657 95.2876 58.1799 95.334C56.7913 95.3958 56.1516 95.3494 55.3715 95.1485C54.8098 95.0093 54.014 94.7001 53.5928 94.4837C53.1715 94.2518 52.4694 93.7107 52.0325 93.2778C51.5956 92.8449 50.9715 92.041 50.6439 91.4999C50.3162 90.9588 49.8793 89.9538 49.6609 89.2736C49.4425 88.5933 49.1928 87.4493 49.0992 86.7227C49.0056 85.996 48.9744 84.5119 49.0212 83.3987C49.0836 82.0692 49.2396 81.0024 49.4425 80.2294C49.6297 79.5955 50.0978 78.266 50.4878 77.292C50.8779 76.318 51.7985 74.2309 52.5162 72.6539C53.2495 71.077 54.3885 68.6188 55.0594 67.1656C55.7303 65.7123 56.4792 63.9808 56.7133 63.3005C57.1501 62.1101 57.1657 61.9709 57.1657 58.9717C57.1657 57.2711 57.1033 54.2409 57.0253 52.2465C56.9161 49.4791 56.9317 48.3505 57.0877 47.5311C57.197 46.9437 57.5402 45.9233 57.8523 45.2894C58.1643 44.6556 58.804 43.6043 59.2877 42.9704C59.7714 42.3365 60.5515 41.4553 61.004 41.0224C61.4721 40.5895 62.1898 40.033 62.6267 39.7856C63.0479 39.5228 63.6564 39.229 63.9529 39.1054Z" fill="#E1B0E4"/>
<path d="M88.5269 56.8845C88.6518 56.328 88.8078 55.6168 88.8546 55.2921C88.9326 54.782 88.9794 54.7356 89.2447 54.8747C89.4007 54.952 89.7127 55.2612 89.9156 55.5395C90.134 55.8023 90.4461 56.3434 90.6177 56.7299C90.8205 57.1783 90.9453 57.7503 90.9453 58.3533C90.9453 58.8634 90.7581 60.2858 90.5397 61.5226C90.3368 62.7594 90.1028 64.5682 90.056 65.5422C89.978 67.1037 90.0092 67.4438 90.29 68.3251C90.4773 68.8816 90.9609 69.8556 91.3666 70.4895C91.7567 71.1234 92.49 72.0973 92.9581 72.6539C93.4418 73.195 94.5339 74.4164 95.3921 75.3594C96.2502 76.3025 97.3424 77.5702 97.8261 78.1577C98.3098 78.7452 99.1055 79.7811 99.6048 80.4613C100.088 81.1415 100.759 82.2238 101.087 82.8576C101.399 83.4915 101.836 84.45 102.039 84.9911C102.366 85.826 102.46 85.9497 102.725 85.8569C102.897 85.7951 103.396 85.6559 103.817 85.5477C104.254 85.424 105.034 85.3312 105.581 85.3312C106.423 85.3312 106.564 85.3776 106.735 85.6868C106.829 85.8724 106.938 86.6608 106.985 87.4184C107.032 88.3924 106.969 89.1345 106.782 89.892C106.642 90.4949 106.267 91.4535 105.955 92.0564C105.643 92.6439 105.034 93.4942 104.598 93.958C104.176 94.4218 103.474 94.9629 103.037 95.1639C102.538 95.3958 101.711 95.5968 100.775 95.7205C99.6204 95.8442 98.9807 95.8442 97.8885 95.6896C97.124 95.5813 96.063 95.3804 95.5481 95.2258C95.0332 95.0866 94.1907 94.762 93.6758 94.5146C93.1141 94.2518 92.3652 93.6952 91.8035 93.1386C91.117 92.4584 90.5865 91.7008 89.822 90.2785C89.2447 89.2118 88.2929 87.2638 87.7 85.9497C87.1071 84.6355 86.0773 82.1928 85.4064 80.5386C84.7355 78.8844 83.9866 77.2301 83.7369 76.8745C83.5029 76.5035 83.0348 76.0242 82.7072 75.7923C82.3951 75.545 81.1001 74.9111 79.8675 74.37C78.6193 73.8289 76.6378 72.9013 75.4676 72.3293C74.2818 71.7418 73.0336 70.9997 72.6747 70.675C72.2066 70.2576 71.9726 69.8865 71.801 69.2527C71.6762 68.7889 71.5825 67.9849 71.5981 67.4748C71.6293 66.9646 71.5981 66.4389 71.5513 66.3152C71.5045 66.1916 71.3797 65.8051 71.2705 65.4649C71.1613 65.1248 71.0989 64.3209 71.1301 63.687C71.1457 63.0532 71.1457 62.3111 71.1301 62.0637C71.0989 61.8163 71.0833 61.0743 71.0677 60.4404C71.0677 59.5592 71.1457 59.0954 71.7698 57.7349L72.2691 58.6625C72.5343 59.1727 73.252 60.0848 73.8605 60.6877C74.5314 61.3525 75.3116 61.9709 75.8888 62.2647C76.4037 62.512 77.2463 62.8522 77.7612 63.0068C78.3541 63.1768 79.1966 63.2851 80.1015 63.2851C80.9909 63.2851 81.849 63.1768 82.4419 63.0068C82.9568 62.8522 83.8306 62.4811 84.3923 62.1719C84.954 61.8627 85.7965 61.2289 86.2646 60.7496C86.7482 60.2858 87.388 59.4509 87.7 58.8944C88.0277 58.3378 88.3865 57.4411 88.5269 56.8845Z" fill="#E1B0E4"/>
<path d="M69.1015 74.4014C69.9128 73.7984 71.2547 72.9172 72.066 72.4379C72.8773 71.9586 73.6419 71.5721 73.7355 71.5721C73.8447 71.5721 74.7652 71.9741 75.7638 72.4843C76.778 72.979 78.6191 73.8293 79.8673 74.3704C81.0999 74.9115 82.3949 75.5454 82.707 75.7773C83.0346 76.0247 83.5027 76.5039 83.7367 76.8595C83.9864 77.2306 84.7353 78.8848 85.4062 80.539C86.0771 82.1933 87.0757 84.5587 87.6218 85.7955C88.1835 87.0323 88.9792 88.6865 89.4005 89.4596C90.087 90.7428 90.1338 90.9128 89.9154 91.0829C89.7125 91.2375 89.6813 91.4848 89.7281 92.2115C89.7749 92.8608 89.9622 93.4792 90.3522 94.2986C90.6643 94.9325 91.226 95.7982 91.6004 96.2311C91.9905 96.6485 92.6926 97.2669 93.1763 97.5761C93.9252 98.0709 94.0656 98.2409 94.0656 99.0912H70.5057L70.4277 87.1096L70.0689 87.0632C69.8504 87.0478 69.4136 87.2951 68.8519 87.7589C68.3682 88.1764 67.6037 88.7948 67.1668 89.1504C66.6363 89.5832 66.215 89.7997 65.4349 89.8151L65.3257 88.5474C65.2633 87.8362 65.0448 86.6613 64.8264 85.9037C64.5924 85.1616 64.2803 84.2804 64.1087 83.9403C63.9371 83.6002 63.7966 83.2909 63.7966 83.2446C63.7966 83.1982 63.9371 83.1363 64.1087 83.09C64.2803 83.0436 64.4987 82.8271 64.5924 82.5798C64.686 82.3324 64.7328 81.3893 64.6548 78.4519L66.137 76.9832C66.964 76.1793 68.2902 75.0198 69.1015 74.4014Z" fill="#47004C"/>
<path d="M76.7467 20.4759C77.2148 20.3213 77.9481 20.1358 78.385 20.074C78.8062 20.0121 79.8984 19.9812 80.8034 20.0121C81.8019 20.0431 82.9253 20.1977 83.6898 20.3832C84.3764 20.5687 85.4997 20.9861 86.1863 21.3108C86.8728 21.6354 87.9962 22.3157 88.6827 22.8259C89.65 23.537 90.1337 23.7844 90.867 23.939C91.3819 24.0472 92.3337 24.341 92.9734 24.5883C93.6131 24.8357 94.5961 25.315 95.1577 25.6396C95.7194 25.9643 96.6244 26.6445 97.1705 27.1393C97.7166 27.6495 98.4499 28.4688 98.7931 28.979C99.1364 29.4892 99.5889 30.2931 99.8073 30.7569C100.01 31.2208 100.307 32.1638 100.478 32.8441C100.634 33.5243 100.806 34.6993 100.853 35.4723C100.915 36.369 100.868 37.4667 100.712 38.5643C100.587 39.4919 100.291 40.8524 100.073 41.5791C99.8385 42.3057 99.4016 43.4188 99.1052 44.0527C98.8088 44.6866 98.3095 45.6142 97.9974 46.0934C97.6854 46.5882 97.3889 46.9901 97.3421 46.9901C97.2953 46.9901 97.1081 46.3872 96.9052 45.6451C96.718 44.8875 96.1407 43.4652 95.6414 42.4294C95.1265 41.409 94.0032 39.461 93.1294 38.1005C92.2557 36.74 91.1947 34.9312 90.7734 34.0809C90.3365 33.2306 89.8529 32.0401 89.6812 31.4527C89.5096 30.8652 89.3224 30.2622 89.2756 30.1385C89.2288 30.0149 89.0727 30.6023 88.9167 31.4527C88.7763 32.303 88.4954 33.4934 88.2926 34.0809C88.1054 34.6684 87.6997 35.6114 87.4189 36.168C87.1224 36.7246 86.5763 37.513 85.4997 38.7189L85.1253 38.2551C84.9224 37.9923 84.47 37.6676 84.1111 37.513C83.5494 37.2811 82.9097 37.2502 79.4459 37.2502C77.1836 37.2502 75.1864 37.3121 74.8744 37.4048C74.5779 37.4976 74.0474 37.8377 73.0801 38.7808L71.9099 38.6416C71.2702 38.5643 69.8348 38.5025 68.7114 38.487C67.588 38.487 66.2618 38.5643 65.7469 38.6416C65.232 38.7344 64.4987 38.9199 64.1086 39.0591C63.7185 39.1982 63.1412 39.4765 62.8136 39.6775C62.5015 39.863 62.2051 40.0176 62.1739 39.9867C62.1427 39.9712 62.2675 39.4301 62.4703 38.7962C62.6732 38.1624 63.0944 37.2657 63.9526 36.0134L63.3753 36.1216C63.0476 36.1835 62.2831 36.2298 61.6902 36.2144C61.0973 36.2144 60.3952 36.1216 59.6619 35.8588L60.442 35.3795C60.8789 35.1013 61.8618 34.2509 62.642 33.4779C63.4221 32.7049 65.2476 30.6487 66.7142 28.9017C68.1809 27.1547 70.0688 25.0676 70.9113 24.2482C71.7695 23.4443 72.8773 22.5012 73.3921 22.1456C73.907 21.8055 74.6716 21.3572 75.1084 21.1407C75.5297 20.9243 76.2786 20.6305 76.7467 20.4759Z" fill="#47004C"/>
<path d="M73.7355 38.1472C74.0632 37.8225 74.5313 37.4978 74.7965 37.4205C75.0618 37.3432 77.1213 37.2659 79.3993 37.2659C83.2063 37.2505 83.5808 37.2814 84.2049 37.5597C84.5637 37.7297 84.985 38.0544 85.141 38.2863C85.2815 38.5182 85.6559 39.2912 86.4985 41.3474L88.0587 41.4402C89.3069 41.502 89.7906 41.5948 90.5239 41.9349C91.0076 42.1668 91.7253 42.6615 92.1154 43.048C92.5054 43.4345 93.0047 44.1457 93.6756 45.5217L93.7225 53.4063C93.7537 59.9769 93.7225 61.4147 93.5352 62.064C93.4104 62.4969 93.0671 63.1772 92.7863 63.5946C92.5054 64.0275 91.9594 64.5995 91.5693 64.8778C91.1792 65.1561 90.6487 65.4498 89.931 65.7126L90.0558 64.7386C90.1183 64.1975 90.3523 62.7597 90.5551 61.5229C90.7736 60.2861 90.9452 58.8638 90.9452 58.3536C90.9452 57.6424 90.8516 57.2095 90.4927 56.4984C90.2431 55.9882 89.8062 55.3698 88.9949 54.6741L88.8857 55.1224C88.8388 55.3698 88.714 55.9882 88.6204 56.4984C88.5268 57.0086 88.1835 57.9516 87.8715 58.57C87.497 59.2812 86.9197 60.0851 86.3424 60.6726C85.8275 61.1828 84.9538 61.8631 84.3921 62.1723C83.8304 62.4815 82.9567 62.8525 82.4418 63.0071C81.8489 63.1772 80.9907 63.2854 80.1014 63.2854C79.1964 63.2854 78.3539 63.1772 77.761 63.0071C77.2461 62.8525 76.4036 62.5124 75.8887 62.265C75.3114 61.9713 74.5313 61.3529 73.8604 60.6881C73.2519 60.0851 72.5341 59.173 71.7696 57.7352L71.4264 58.5082C71.2391 58.9411 71.0519 59.6986 71.0051 60.2088C70.9583 60.719 71.0051 61.3529 71.0987 61.6002C71.1923 61.894 71.2079 62.4042 71.1299 62.9916C71.0675 63.5018 71.0675 64.2748 71.1299 64.6923C71.2079 65.1252 71.3171 65.6044 71.3952 65.759C71.52 66.0373 71.4264 66.0528 69.1796 65.9909C66.9172 65.9291 66.7924 65.9136 65.825 65.4344C65.1385 65.1097 64.7797 64.8314 64.7016 64.584C64.6392 64.3985 64.2492 63.7028 63.8435 63.069C63.157 62.0022 63.0946 61.8321 63.1102 60.9818C63.1102 60.3789 63.235 59.8378 63.4378 59.4358C63.6095 59.0957 64.14 58.4773 64.5924 58.0753C65.1541 57.5806 65.825 57.1786 66.6052 56.8849C67.2449 56.6375 68.5711 56.2201 71.2859 55.4162V54.4886C71.2859 53.9784 71.3952 53.1126 71.5356 52.556C71.6604 51.9995 72.0349 51.0719 72.3469 50.4689C72.6746 49.866 73.3455 48.9847 73.9072 48.4282C74.6405 47.6861 74.8589 47.3769 74.8121 47.1141C74.7653 46.9131 74.5781 46.5575 74.3752 46.3101C74.1724 46.0628 73.8136 45.769 73.5483 45.6608C73.2831 45.5526 72.4405 45.4289 71.676 45.3671C70.9115 45.3052 69.3668 45.3361 68.2434 45.4289C67.12 45.5217 65.825 45.7072 65.357 45.8463C64.8889 45.9855 64.1243 46.2947 63.6875 46.542C63.235 46.7894 62.8137 46.9904 62.7513 46.9904C62.6733 46.9904 62.6733 46.6348 62.7201 46.1864C62.7825 45.7072 63.0322 44.9496 63.3442 44.3776C63.6407 43.8365 64.1556 43.1408 64.4988 42.8471C64.8421 42.5378 65.513 42.1204 65.9811 41.904C66.7768 41.5329 67.0576 41.502 72.2533 41.3474L72.7058 40.2652C72.9398 39.6777 73.1426 39.0748 73.1426 38.9511C73.1582 38.8274 73.4235 38.4564 73.7355 38.1472Z" fill="#47004C"/>
<path d="M92.9268 72.6227C92.3495 71.9579 91.8814 71.3859 91.8814 71.3395C91.8814 71.2931 91.975 71.2622 92.0686 71.2622C92.1778 71.2622 92.9112 71.525 93.6757 71.8497C94.4402 72.1744 95.5636 72.7464 96.1721 73.1483C96.7806 73.5503 97.826 74.3697 98.5281 75.0036C99.2146 75.622 100.276 76.6578 100.868 77.2917C101.461 77.9255 102.398 79.0078 102.944 79.688C103.505 80.3682 104.363 81.5587 104.878 82.3162C105.378 83.0738 105.971 84.0323 106.173 84.4343C106.376 84.8517 106.548 85.2073 106.548 85.2537C106.548 85.3 106.111 85.331 105.58 85.331C105.034 85.331 104.239 85.4237 103.817 85.5474C103.38 85.6556 102.897 85.7948 102.725 85.8566C102.46 85.9494 102.366 85.8257 102.039 84.9908C101.836 84.4497 101.399 83.4912 101.087 82.8573C100.759 82.2235 100.088 81.1413 99.6047 80.461C99.1054 79.7808 98.3096 78.7449 97.826 78.1574C97.3423 77.5545 96.2813 76.3486 95.47 75.4519C94.643 74.5398 93.504 73.272 92.9268 72.6227Z" fill="#47004C"/>
<path d="M62.6733 80.8011C62.7358 80.7857 63.157 80.3064 63.6095 79.7189C64.0776 79.1469 64.5144 78.714 64.6081 78.7758C64.7017 78.8222 64.7641 79.5643 64.7485 80.5847C64.7329 81.636 64.6549 82.4708 64.5301 82.7027C64.4208 82.9192 64.2024 83.1047 64.0308 83.1202C63.8123 83.1511 63.5471 82.9192 63.1258 82.3162C62.8138 81.8524 62.5485 81.3268 62.5485 81.1567C62.5485 80.9867 62.5953 80.8321 62.6733 80.8011Z" fill="#47004C"/>
<path d="M67.3853 88.9641C67.947 88.5158 68.6803 87.8819 69.0236 87.5881C69.4449 87.2171 69.7725 87.047 70.4278 87.1089V90.6338L69.2576 91.3604C68.6179 91.7624 67.4477 92.4117 66.6832 92.8137C65.9031 93.2156 65.2634 93.5094 65.2322 93.4939C65.2166 93.463 65.2478 92.6282 65.435 89.8144H65.9031C66.2307 89.7989 66.6676 89.567 67.3853 88.9641Z" fill="#47004C"/>
<path d="M89.7282 92.3653C89.6814 91.9324 89.697 91.4686 89.7438 91.314C89.8062 91.1749 89.9311 91.0512 90.0403 91.0512C90.1495 91.0512 90.4615 91.4223 90.7268 91.8551C90.992 92.3035 91.5693 92.9837 91.9906 93.3702C92.4119 93.7567 93.1764 94.2669 93.6913 94.5143C94.1906 94.7617 95.0331 95.0863 95.548 95.2255C96.0629 95.3801 96.8898 95.5347 98.2784 95.6893V99.0905H94.0657V98.6267C94.0657 98.2402 93.9253 98.0701 93.1764 97.5754C92.6927 97.2662 91.9906 96.6478 91.6005 96.2304C91.2261 95.7975 90.6644 94.9317 90.3523 94.2979C90.0403 93.6331 89.7594 92.8137 89.7282 92.3653Z" fill="#47004C"/>
<path d="M57.1974 60.1317C57.182 60.9356 57.1511 60.3172 57.1511 58.7403C57.1511 57.1633 57.182 56.514 57.1974 57.2716C57.2284 58.0291 57.2284 59.3278 57.1974 60.1317Z" fill="#FDC1B6" fill-opacity="0.5"/>
<path d="M77.137 49.6802C77.4803 49.4793 78.1512 49.2164 78.6192 49.0928C79.0873 48.9691 79.727 48.8609 80.0235 48.8609C80.3199 48.8454 80.9908 48.9536 81.5057 49.0773C82.0206 49.2164 82.7851 49.5411 83.2064 49.8194C83.6433 50.0977 84.2362 50.6233 84.5482 51.0098C84.8603 51.3963 85.2659 52.1229 85.4688 52.6331C85.7652 53.4061 85.812 53.7772 85.7652 54.8749C85.7184 55.787 85.5936 56.4054 85.3596 56.9311C85.1723 57.333 84.6418 58.0442 84.205 58.5235C83.7213 59.0182 83.0192 59.5438 82.5199 59.7757C81.8646 60.0849 81.3497 60.2086 80.3355 60.255C79.2746 60.3014 78.8377 60.255 78.1512 59.9922C77.6831 59.8221 76.9654 59.4356 76.5597 59.1264C76.1384 58.8327 75.6079 58.2916 75.3739 57.936C75.1243 57.5649 74.7966 56.9311 74.625 56.4982C74.4222 55.9725 74.3285 55.3541 74.3441 54.5657C74.3545 53.7926 74.469 53.1227 74.6874 52.5558C74.859 52.092 75.3427 51.3345 75.764 50.8707C76.1696 50.4223 76.7937 49.8812 77.137 49.6802Z" fill="#676068"/>
</svg>
