<svg width="154" height="120" viewBox="0 0 154 120" fill="none" xmlns="http://www.w3.org/2000/svg">
<rect width="154" height="120" rx="16" fill="white"/>
<path fill-rule="evenodd" clip-rule="evenodd" d="M88.2564 26C88.4132 26 88.6983 26.1141 88.8979 26.2566C89.0974 26.3992 89.297 26.6986 89.3683 26.8982C89.4253 27.1121 89.5536 27.2832 89.6534 27.2832C89.7389 27.2832 90.0526 27.2262 90.3234 27.1406C90.5943 27.0693 91.4638 26.9268 92.2479 26.8555C93.2457 26.7414 94.0583 26.7414 94.9564 26.8412C95.6549 26.9268 96.7526 27.1264 97.3798 27.2975C98.007 27.4543 99.0334 27.825 99.6606 28.1244C100.288 28.4096 101.214 28.9371 101.728 29.2793C102.241 29.6215 103.153 30.3914 103.766 30.976C104.379 31.5748 105.192 32.473 105.577 32.9863C105.947 33.4996 106.361 34.1269 106.489 34.3836C106.617 34.626 106.717 35.0822 106.717 35.3674C106.731 35.7381 106.617 36.0232 106.403 36.2656C106.175 36.5222 105.106 37.007 102.939 37.834C101.214 38.4898 99.5751 39.1172 98.8053 39.4308L99.5181 39.6589C99.9172 39.8015 100.587 40.1437 101.799 40.9992L102.583 40.7425C103.011 40.6 103.723 40.4859 104.151 40.4859C104.65 40.5002 105.206 40.6285 105.705 40.8423C106.204 41.0562 106.703 41.4412 107.102 41.8974C107.53 42.3679 107.8 42.8669 107.943 43.366C108.128 44.0218 108.185 44.1216 108.599 44.2072C108.855 44.25 109.311 44.5208 109.611 44.806C109.91 45.0912 110.252 45.5759 110.381 45.8896C110.523 46.2746 110.566 46.6595 110.509 47.1015C110.452 47.4579 110.252 47.9855 110.067 48.2706C109.867 48.5701 109.497 48.9265 109.24 49.0548C108.998 49.1831 108.57 49.3257 108.299 49.3685C107.829 49.454 107.8 49.4826 107.515 50.5947C107.344 51.222 107.045 51.9491 106.86 52.2058C106.66 52.4624 106.247 52.8046 105.933 52.9472C105.619 53.104 105.092 53.2323 104.75 53.2323C104.194 53.2323 104.151 53.2609 104.237 53.546C104.279 53.7314 104.45 54.1591 104.607 54.5155C104.75 54.872 104.992 55.2712 105.12 55.4138C105.334 55.6419 105.662 55.6704 108.356 55.6562C110.01 55.6562 111.592 55.7275 111.892 55.7987C112.177 55.8843 112.647 56.1552 112.947 56.3976C113.232 56.6542 113.574 57.1247 113.716 57.4384C113.859 57.7521 113.987 58.2653 113.987 58.579C113.987 58.8927 113.859 59.406 113.716 59.7196C113.574 60.0333 113.232 60.5038 112.947 60.7462C112.647 61.0028 112.262 61.2452 111.706 61.3593L111.664 63.9684C111.635 66.4208 111.621 66.6061 111.264 67.3475C111.065 67.7753 110.68 68.3741 110.409 68.6735C110.138 68.9872 109.511 69.4292 108.998 69.6716C108.2 70.0708 107.929 70.1278 106.931 70.1278C105.99 70.1278 105.648 70.0565 105.006 69.7571C104.579 69.5432 104.009 69.1725 103.296 68.4882L102.754 68.9444C102.469 69.1868 101.899 69.5432 101.514 69.7286C101.115 69.9139 100.445 70.0993 100.017 70.1421C99.4753 70.2134 98.9764 70.1563 98.3777 69.9852C97.9072 69.8569 97.3228 69.6145 97.0947 69.4434C96.8666 69.2866 96.496 68.9872 95.8972 68.4169L95.3128 68.9444C94.9991 69.2438 94.4432 69.6288 94.0583 69.7999C93.5594 70.028 93.0889 70.1136 92.2479 70.1136C91.2357 70.1278 90.9934 70.0708 90.1809 69.6716C89.6677 69.4292 89.0974 69.0585 88.5415 68.5024L87.9713 68.9872C87.6577 69.2438 87.0732 69.6145 86.6883 69.7856C86.1323 70.0423 85.7189 70.1136 84.8351 70.1136C83.9798 70.0993 83.5236 70.028 83.0104 69.7999C82.6398 69.6288 82.0838 69.2438 81.1857 68.4169L80.7296 68.8731C80.473 69.1155 80.0168 69.4577 79.7032 69.6145C79.3896 69.7714 78.7623 69.9852 78.3204 70.085C77.6932 70.2276 77.3226 70.2276 76.7523 70.1136C76.3389 70.028 75.7687 69.8427 75.4979 69.7286C75.227 69.6003 74.7281 69.2723 73.7872 68.4882L73.1743 69.0157C72.8464 69.3009 72.2904 69.6716 71.934 69.8284C71.4636 70.0423 70.9932 70.1136 70.1521 70.1136C69.2683 70.1136 68.8549 70.0423 68.2989 69.7856C67.8998 69.6145 67.3296 69.2438 66.4457 68.5024L66.0894 68.8589C65.8898 69.0585 65.3481 69.4007 64.8777 69.643C64.4072 69.8712 63.666 70.0993 63.2383 70.1421C62.6538 70.2134 62.2119 70.1706 61.4564 69.9425C60.7294 69.7286 60.2732 69.4862 59.09 68.4169L58.6338 68.8589C58.3772 69.1012 58.0209 69.3864 57.8213 69.5147C57.6217 69.643 57.08 69.8427 56.6096 69.9852C56.0109 70.1563 55.5262 70.2134 54.9702 70.1421C54.5426 70.0993 53.8583 69.9139 53.4734 69.7286C53.0743 69.5432 52.5183 69.1868 51.6915 68.4882L51.0785 69.0157C50.7506 69.3009 50.1947 69.6716 49.8383 69.8284C49.3679 70.0423 48.8974 70.1136 48.0564 70.1136C47.1726 70.1136 46.7591 70.0423 46.2032 69.7856C45.804 69.6145 45.2196 69.2438 44.8774 68.9729C44.4926 68.6593 44.1219 68.1602 43.3521 66.5776L43.2809 61.3593L42.9245 61.288C42.7249 61.2452 42.34 61.0028 42.0406 60.7462C41.7555 60.5038 41.4134 60.0333 41.2709 59.7196C41.1283 59.406 41 58.8927 41 58.579C41 58.2653 41.1283 57.7521 41.2709 57.4384C41.4134 57.1247 41.7555 56.6542 42.0406 56.3976C42.34 56.1552 42.8104 55.8843 43.0955 55.7987C43.3949 55.7275 44.5923 55.6562 47.9138 55.6562L48.1989 55.1999C48.3557 54.9433 48.5981 54.4728 48.7264 54.1591C48.8547 53.8454 48.9687 53.5032 48.9687 53.4034C48.9782 53.2894 48.7074 53.2181 48.1562 53.1896C47.5432 53.1753 47.1868 53.0613 46.8019 52.8046C46.5168 52.605 46.1747 52.2628 46.0321 52.0204C45.9038 51.7781 45.6472 51.1079 45.4762 50.5234C45.1768 49.4968 45.1483 49.454 44.6779 49.3827C44.407 49.34 43.9366 49.1404 43.6372 48.9408C43.3236 48.7411 42.9387 48.3277 42.7962 48.014C42.6251 47.7003 42.5111 47.1585 42.5111 46.7451C42.5111 46.2746 42.6109 45.8611 42.7962 45.5331C42.953 45.2623 43.3664 44.8203 43.7228 44.5494C44.293 44.1074 44.3785 43.9791 44.6494 42.9097C44.8204 42.2824 45.0485 41.4982 45.1626 41.1845C45.2909 40.8709 45.5902 40.2007 45.8468 39.6875C46.1034 39.1742 46.5738 38.3757 46.9017 37.9052C47.2153 37.4347 47.8711 36.6363 48.3415 36.1373C48.8119 35.6383 49.6102 34.9254 50.1234 34.5404C50.6366 34.1554 51.5632 33.5709 52.1904 33.2429C52.8177 32.9293 53.6872 32.5301 54.1149 32.3875C54.5426 32.2449 55.3266 32.0168 55.8683 31.917C56.3957 31.8029 57.0087 31.7031 57.2511 31.7031C57.6502 31.7031 57.6787 31.6746 57.6787 31.1328C57.6787 30.7193 57.7785 30.4627 58.0351 30.206C58.2204 30.0064 58.5483 29.8496 58.7479 29.8496C58.9474 29.8496 59.2611 30.0064 59.4606 30.206C59.7172 30.4627 59.817 30.7193 59.817 31.1328C59.817 31.6746 59.8313 31.7031 60.2874 31.7031C60.5298 31.7031 61.3851 31.8599 62.1691 32.0596C62.9817 32.2592 64.2077 32.7154 65.0202 33.1146C65.847 33.5281 66.9589 34.2267 67.6574 34.797C68.3132 35.3246 69.197 36.1801 69.6247 36.6933C70.0381 37.2066 70.6653 38.0763 71.0074 38.6181C71.3496 39.1599 71.8628 40.158 72.1194 40.8281C72.3902 41.4982 72.7323 42.539 72.8749 43.1378C73.1172 44.1216 73.1885 44.2642 73.6162 44.4638C73.8585 44.5779 74.2434 44.9201 74.4572 45.2052C74.6711 45.5046 74.8706 46.0037 74.8992 46.3173C74.9419 46.631 74.9277 47.13 74.8706 47.4152C74.8279 47.7288 74.5855 48.1708 74.3289 48.4703C74.0723 48.7554 73.7302 49.0548 73.5734 49.1404C73.4166 49.2259 73.0602 49.3257 72.7894 49.3827C72.3047 49.454 72.2762 49.4826 71.9626 50.5947C71.7915 51.222 71.5492 51.8779 71.4351 52.049C71.3211 52.2343 70.9789 52.548 70.6938 52.7618C70.2519 53.104 70.0096 53.1611 69.1257 53.1896C68.1992 53.2323 68.0851 53.2609 68.0851 53.5175C68.0851 53.6743 68.2989 54.2019 69.026 55.5849L84.0511 55.6562L84.4074 55.1144C84.5928 54.8292 84.8494 54.3302 84.9634 54.0165C85.0774 53.7029 85.1345 53.3892 85.0774 53.3322C85.0204 53.2751 84.5785 53.2323 84.0796 53.2323C83.5521 53.2323 83.0104 53.1468 82.7253 53.0042C82.483 52.8759 82.0838 52.605 81.87 52.3911C81.5992 52.1488 81.3711 51.6783 81.1857 51.0224C81.0289 50.4663 80.8436 49.896 80.7866 49.7392C80.7153 49.5538 80.473 49.4255 80.0881 49.34C79.7317 49.2829 79.2755 49.0548 78.9619 48.7697C78.6768 48.5273 78.3632 48.0995 78.2491 47.8429C78.1494 47.6005 78.0638 47.1015 78.0638 46.7451C78.0638 46.3886 78.1921 45.8468 78.3489 45.5331C78.5057 45.2195 78.8194 44.8203 79.4751 44.3212L79.3896 42.3964C79.3326 41.1418 79.3611 40.0439 79.4751 39.2597C79.5749 38.5896 79.8172 37.5345 80.0168 36.9072C80.2164 36.2799 80.6013 35.3103 80.8721 34.7685C81.1572 34.2125 81.7132 33.3 82.1123 32.7154C82.5115 32.1308 83.3526 31.1756 83.9798 30.591C84.607 30.0064 85.6477 29.1937 86.3034 28.7945C86.9449 28.3953 87.4866 28.0389 87.4723 27.9961C87.4723 27.9533 87.4011 27.7252 87.3155 27.4971C87.2015 27.1549 87.2157 26.9695 87.3868 26.6131C87.5151 26.3707 87.7004 26.1426 87.8002 26.0998C87.8857 26.057 88.0996 26.0143 88.2564 26V26ZM86.8309 44.0218C86.7453 44.0503 88.2279 44.0931 90.1096 44.0931L93.5309 44.1074C93.8017 42.7244 94.0726 42.0257 94.3006 41.6408C94.5287 41.2701 94.6998 40.9707 94.6855 40.9707C94.6855 40.9849 92.9464 41.655 90.8223 42.4677C88.6983 43.2947 86.9164 43.9933 86.8309 44.0218ZM50.9645 54.2304C50.8789 54.5868 50.7221 55.0431 50.6081 55.257L50.4085 55.6562C62.8962 55.6562 66.517 55.6277 66.517 55.5849C66.517 55.5421 66.4172 55.2712 66.3174 54.9718C66.2034 54.6866 66.0323 54.1734 65.9611 53.8312L65.8043 53.2323C52.8319 53.2323 51.2496 53.2751 51.1926 53.4034C51.164 53.5032 51.0643 53.8739 50.9645 54.2304ZM87.0589 54.2589C86.8879 54.8292 86.7168 55.3853 86.6883 55.4708C86.6313 55.6134 88.2849 55.6562 94.6713 55.6562H102.726C102.184 54.1591 102.013 53.6173 102.013 53.4747C102.013 53.2466 101.571 53.2323 94.6998 53.2323H87.3726L87.0589 54.2589ZM44.35 70.47C44.5496 70.47 44.8632 70.6411 45.4191 71.1829V75.9592C45.4191 79.9229 45.4619 80.8211 45.633 81.1633C45.747 81.4057 46.0179 81.7336 46.246 81.8905C46.6309 82.1756 46.6736 82.1756 77.4223 82.1756C107.943 82.1614 108.214 82.1614 108.684 81.8762C108.927 81.7194 109.24 81.3772 109.354 81.092C109.525 80.6928 109.568 79.7661 109.568 75.9592C109.568 73.1647 109.625 71.2257 109.711 71.0403C109.796 70.8835 110.01 70.6981 110.21 70.6126C110.438 70.527 110.709 70.527 110.965 70.6126C111.179 70.6839 111.436 70.9262 111.535 71.1544C111.678 71.4538 111.706 72.6942 111.678 76.4583C111.635 81.1348 111.621 81.42 111.336 82.0188C111.165 82.3752 110.808 82.8885 110.552 83.1594C110.281 83.4161 109.753 83.7868 109.354 83.9721C108.784 84.2287 108.399 84.3 106.289 84.3L106.261 87.6221C106.218 90.7446 106.204 90.9727 105.904 91.543C105.705 91.9279 105.32 92.3129 104.907 92.5838C104.279 92.983 104.123 93.0115 102.939 92.9973C101.842 92.9973 101.571 92.9545 101.058 92.6408C100.673 92.427 100.302 92.042 99.6606 90.9299L99.5894 84.3H55.3979V87.508C55.3979 90.0887 55.3551 90.8301 55.184 91.2578C55.0557 91.5572 54.8134 91.9422 54.6423 92.1276C54.4713 92.3129 54.0864 92.5838 53.8013 92.7264C53.4021 92.926 52.9602 92.9973 52.1191 92.9973C51.2781 92.9973 50.8362 92.926 50.4513 92.7264C50.1519 92.5838 49.767 92.3129 49.596 92.1276C49.4249 91.9422 49.1826 91.5572 49.0685 91.2578C48.8832 90.8301 48.8404 90.0887 48.8404 84.3H47.6002C46.5881 84.3 46.2032 84.243 45.633 83.9721C45.2481 83.7868 44.6494 83.3448 44.3215 82.9741C43.9223 82.5463 43.6372 82.0473 43.4947 81.5625C43.3236 80.9637 43.2809 79.8801 43.2951 71.1829L43.6372 70.8264C43.8226 70.6411 44.1504 70.47 44.35 70.47Z" fill="black"/>
<path fill-rule="evenodd" clip-rule="evenodd" d="M44.3211 68.474L44.9056 68.973C45.2192 69.2439 45.8037 69.6146 46.2028 69.7857C46.7588 70.0424 47.1722 70.1137 48.056 70.1137C48.8971 70.1137 49.3675 70.0424 49.8379 69.8285C50.1943 69.6717 50.7502 69.301 51.7054 68.4598L52.2328 68.9303C52.5179 69.1869 53.0881 69.5433 53.473 69.7287C53.8722 69.914 54.5422 70.0994 54.9698 70.1422C55.5258 70.2135 56.0105 70.1564 56.6092 69.9853C57.0796 69.8428 57.6213 69.6432 57.8209 69.5148C58.0205 69.3865 58.3768 69.1014 59.0754 68.4455L59.7596 69.0443C60.2585 69.4721 60.7432 69.7287 61.456 69.9426C62.2115 70.1707 62.6534 70.2135 63.2379 70.1422C63.6656 70.0994 64.4068 69.8713 64.8773 69.6432C65.3477 69.4008 65.8894 69.0586 66.4454 68.5025L67.0156 68.9873C67.3292 69.2439 67.9136 69.6146 68.2985 69.7857C68.8545 70.0424 69.2679 70.1137 70.1517 70.1137C70.9928 70.1137 71.4632 70.0424 71.9336 69.8285C72.29 69.6717 72.8317 69.301 73.7156 68.4598L74.3571 68.973C74.7134 69.2582 75.2266 69.6004 75.4975 69.7287C75.7683 69.8428 76.3385 70.0281 76.7377 70.1137C77.3222 70.2277 77.6928 70.2277 78.32 70.0851C78.7619 69.9853 79.3892 69.7715 79.7028 69.6146C80.0164 69.4578 80.4726 69.1156 81.1568 68.4455L81.7413 68.9588C82.0692 69.2582 82.6394 69.6289 83.0243 69.8C83.5232 70.0281 83.9794 70.0994 84.8347 70.1137C85.7185 70.1137 86.1319 70.0424 86.6879 69.7857C87.0871 69.6146 87.6573 69.2439 88.5411 68.5025L88.8975 68.859C89.0971 69.0586 89.6673 69.4293 90.1805 69.6717C90.993 70.0709 91.2354 70.1279 92.2475 70.1137C93.0885 70.1137 93.559 70.0281 94.0722 69.8C94.4428 69.6289 94.9988 69.2439 95.8968 68.417L96.2817 68.7877C96.4956 68.9873 96.8662 69.2867 97.0943 69.4435C97.3224 69.6146 97.9068 69.857 98.3773 69.9853C98.976 70.1564 99.4749 70.2135 100.017 70.1422C100.444 70.0994 101.129 69.914 101.513 69.7287C101.913 69.5433 102.469 69.1869 103.295 68.4883L103.766 68.9303C104.008 69.1726 104.578 69.5433 105.006 69.7572C105.647 70.0566 105.99 70.1279 106.93 70.1279C107.857 70.1279 108.213 70.0566 108.855 69.7572C109.283 69.5576 109.881 69.1869 110.708 68.4883V69.4863C110.708 70.4416 110.694 70.4844 110.323 70.5984C110.124 70.6555 109.867 70.8265 109.753 70.9834C109.61 71.2115 109.568 72.2523 109.568 75.9451C109.568 79.7804 109.525 80.6929 109.354 81.1064C109.24 81.3773 108.926 81.7337 108.684 81.8906C108.213 82.1757 107.943 82.1757 77.4219 82.1757C46.6732 82.19 46.6305 82.19 46.2456 81.8906C46.0175 81.7337 45.7466 81.4058 45.6326 81.1777C45.4615 80.8212 45.4188 79.9373 45.4188 71.1973L45.0624 70.8408C44.8628 70.6412 44.6062 70.4844 44.4922 70.4844C44.3211 70.4844 44.2783 70.2848 44.2926 69.4721L44.3211 68.474ZM93.616 28.9087C94.2717 28.9087 94.5283 28.9372 94.1862 28.9657C93.8298 28.9942 93.2881 28.9942 92.9745 28.9657C92.6609 28.9372 92.946 28.9087 93.616 28.9087ZM58.6905 33.7563C59.4317 33.7563 59.7168 33.7849 59.3319 33.8134C58.9328 33.8419 58.3198 33.8419 57.9777 33.8134C57.6213 33.7849 57.9349 33.7563 58.6905 33.7563ZM58.7617 46.1749C66.2885 46.1749 69.3249 46.2034 65.533 46.2176C61.7268 46.2461 55.5685 46.2461 51.8479 46.2176C48.113 46.2034 51.2349 46.1749 58.7617 46.1749ZM94.3288 46.1749C101.813 46.1749 104.863 46.2034 101.1 46.2176C97.3366 46.2461 91.2068 46.2461 87.4862 46.2176C83.7513 46.2034 86.8305 46.1749 94.3288 46.1749ZM58.7617 47.3155C66.3598 47.3155 69.5102 47.344 65.7468 47.3582C61.9834 47.3868 55.7539 47.3868 51.9192 47.3582C48.0702 47.344 51.1494 47.3155 58.7617 47.3155ZM94.2575 47.3155C101.856 47.3155 105.006 47.344 101.243 47.3582C97.4792 47.3868 91.2496 47.3868 87.4149 47.3582C83.566 47.344 86.6451 47.3155 94.2575 47.3155ZM47.3575 49.4684L58.719 49.4256C69.4675 49.3971 70.0947 49.4114 70.0947 49.6395C70.0947 49.8106 70.0567 49.8344 69.9807 49.7108C69.8951 49.5825 67.3149 49.5397 58.6192 49.4969L47.3575 49.4684ZM105.662 49.4684L94.4 49.5112C85.7043 49.5397 83.1098 49.5967 83.0243 49.725C82.9578 49.8486 82.9245 49.8248 82.9245 49.6538C82.9245 49.4114 83.5375 49.4114 105.662 49.4684ZM58.6905 51.1793C64.5209 51.1793 66.9015 51.1936 63.9649 51.2221C61.0141 51.2364 56.2385 51.2364 53.3447 51.2221C50.4366 51.1936 52.8458 51.1793 58.6905 51.1793ZM94.3288 51.1793C100.159 51.1793 102.54 51.1936 99.6032 51.2221C96.6524 51.2364 91.8768 51.2364 88.983 51.2221C86.0749 51.1936 88.4841 51.1793 94.3288 51.1793ZM101.841 85.7544C101.87 86.5814 101.87 87.9929 101.841 88.8911C101.813 89.8036 101.799 89.1193 101.799 87.3941C101.799 85.6689 101.813 84.9417 101.841 85.7544ZM104.122 85.7544C104.151 86.5814 104.151 87.9929 104.122 88.8911C104.094 89.8036 104.079 89.1193 104.079 87.3941C104.079 85.6689 104.094 84.9417 104.122 85.7544Z" fill="#47004C"/>
<path d="M89.255 29.7783C89.8109 29.5644 90.6377 29.3077 91.1082 29.1937C91.6926 29.0654 92.605 29.0226 93.9592 29.0511C95.6556 29.0939 96.126 29.1509 97.1667 29.4931C97.8367 29.707 98.7062 30.0492 99.0911 30.2488C99.4903 30.4341 100.16 30.8476 100.588 31.1327C101.016 31.4179 101.743 32.0025 102.213 32.4302C102.669 32.8579 103.325 33.5851 103.681 34.0556C104.023 34.5261 104.252 34.9538 104.195 34.9966C104.138 35.0536 101.13 36.2228 97.523 37.6058C93.9165 38.9745 88.8843 40.9136 81.6996 43.6653L81.5856 43.1378C81.5143 42.8526 81.5001 41.8403 81.5286 40.8993C81.5856 39.6304 81.6996 38.8605 81.9847 37.9052C82.1986 37.2066 82.5835 36.1657 82.8686 35.6239C83.1394 35.0821 83.5671 34.3407 83.8094 33.9843C84.0518 33.6279 84.6647 32.9292 85.1779 32.4159C85.6911 31.9027 86.6035 31.1898 87.1879 30.8191C87.7724 30.4484 88.699 29.9779 89.255 29.7783Z" fill="#E1B0E4"/>
<path d="M54.1156 34.6972C54.5433 34.5261 55.3558 34.2695 55.8975 34.1126C56.7243 33.8845 57.266 33.856 58.9624 33.8988C60.3024 33.9273 61.3288 34.0271 61.8847 34.1839C62.3552 34.3122 63.2247 34.6544 63.8092 34.9253C64.3937 35.2105 65.2633 35.7095 65.7337 36.0517C66.2041 36.3796 66.9739 37.064 67.4586 37.563C67.9433 38.062 68.6275 38.9317 68.9839 39.4735C69.3403 40.0153 69.7679 40.7995 69.939 41.1845C70.1101 41.5837 70.3667 42.2823 70.5235 42.7528C70.666 43.2233 70.7943 43.7224 70.7943 43.8649C70.7943 44.0931 70.1243 44.1073 46.5603 44.1073L46.6458 43.7224C46.7028 43.4942 46.8596 42.9382 47.0164 42.4677C47.1733 41.9972 47.5582 41.0989 47.886 40.4716C48.2139 39.8442 48.8411 38.8747 49.283 38.3329C49.725 37.7911 50.4947 37.0069 50.9937 36.6077C51.4926 36.2085 52.2339 35.681 52.6188 35.4386C53.0179 35.1962 53.6879 34.8683 54.1156 34.6972Z" fill="#E1B0E4"/>
<path d="M44.7356 46.8876C44.7071 46.7307 44.7213 46.5169 44.7641 46.4313V46.4171C44.8211 46.2888 47.7435 46.246 58.6345 46.246C70.9084 46.2317 72.4479 46.2602 72.6047 46.4599C72.7045 46.5739 72.7758 46.7878 72.7473 46.9161C72.7188 47.1585 71.9347 47.1727 58.7486 47.1727C44.8924 47.1727 44.7784 47.1727 44.7356 46.8876Z" fill="#E1B0E4"/>
<path d="M80.2456 46.9304C80.2171 46.802 80.2741 46.5882 80.3596 46.4741C80.5022 46.2888 82.2271 46.2602 94.3299 46.2602C108.001 46.2602 108.143 46.2602 108.286 46.5454C108.386 46.745 108.371 46.9018 108.257 47.0444C108.086 47.244 106.575 47.2725 94.173 47.2298C81.0724 47.187 80.2741 47.1727 80.2456 46.9304Z" fill="#E1B0E4"/>
<path d="M47.9003 50.9368C47.8147 50.837 47.6722 50.4805 47.6009 50.1526L47.4584 49.5395H69.939L69.8535 50.0671C69.8107 50.3665 69.7109 50.7229 69.6396 50.8512C69.5256 51.0936 68.8556 51.1079 58.7913 51.1079C50.1811 51.1221 48.0286 51.0794 47.9003 50.9368Z" fill="#E1B0E4"/>
<path d="M83.3247 50.7229C83.2392 50.5091 83.1394 50.1526 83.0967 49.9387L83.0111 49.5395H105.577L105.492 49.9387C105.435 50.1526 105.321 50.4948 105.078 51.0366L83.4816 51.1079L83.3247 50.7229Z" fill="#E1B0E4"/>
<path d="M96.7381 42.083C96.9376 41.9262 97.3083 41.7694 97.5791 41.6981C97.85 41.641 98.3061 41.641 98.577 41.6838C98.8621 41.7266 99.5036 42.0403 100.017 42.3682C100.616 42.7674 101.171 42.9955 101.585 43.0526C101.998 43.1096 102.469 43.0526 102.911 42.91C103.281 42.7817 103.809 42.6819 104.08 42.6819C104.35 42.6819 104.778 42.7817 105.006 42.8957C105.248 43.0098 105.534 43.2522 105.648 43.4375C105.762 43.6086 105.861 43.8367 105.861 43.9365C105.861 44.0649 104.75 44.1076 100.801 44.1076C96.0823 44.1076 95.7402 44.0934 95.7402 43.8652C95.7402 43.7227 95.8827 43.3235 96.0538 42.9813C96.2391 42.6248 96.5385 42.2256 96.7381 42.083Z" fill="#47004C"/>
<path d="M43.3376 58.8644C43.1666 58.622 43.1808 58.5365 43.3662 58.2656L43.58 57.9377H111.421L111.635 58.2656C111.82 58.5365 111.82 58.622 111.649 58.8644C111.464 59.1496 111.293 59.1496 77.4934 59.1496C43.694 59.1496 43.523 59.1496 43.3376 58.8644Z" fill="#47004C"/>
<path d="M53.1025 66.4353C52.8887 65.9505 52.8459 65.4943 52.8459 63.6836L52.8317 61.5164H57.9636V63.6408C57.9636 65.2662 57.9208 65.922 57.7498 66.3212C57.6215 66.6207 57.3791 67.0056 57.2081 67.191C57.037 67.3763 56.7234 67.6187 56.5096 67.7185C56.2957 67.8326 55.8253 67.9324 55.4689 67.9324C55.1268 67.9324 54.6564 67.8611 54.4425 67.7755C54.2287 67.69 53.9008 67.4761 53.7155 67.305C53.5159 67.1339 53.2451 66.7347 53.1025 66.4353Z" fill="#47004C"/>
<path d="M67.8853 66.5494C67.6572 66.0789 67.6002 65.6226 67.5574 63.7548L67.5004 61.5021H72.6608V63.7548C72.6608 65.6796 72.6181 66.0789 72.3757 66.6064C72.1762 67.0341 71.9053 67.305 71.4206 67.5902C70.8504 67.9039 70.6081 67.9609 69.9381 67.9039C69.3821 67.8611 69.0115 67.747 68.6551 67.4761C68.3985 67.2765 68.0421 66.863 67.8853 66.5494Z" fill="#47004C"/>
<path d="M82.6396 66.6064C82.3972 66.0789 82.3687 65.6939 82.3544 63.7548V61.5164H87.4864L87.4436 63.7548C87.4151 65.6511 87.3723 66.0931 87.13 66.5636C86.9732 66.863 86.631 67.2908 86.3602 67.4904C86.0038 67.747 85.6474 67.8753 85.0772 67.9181C84.4072 67.9609 84.1649 67.9039 83.6089 67.5902C83.11 67.3193 82.8534 67.0484 82.6396 66.6064Z" fill="#47004C"/>
<path d="M97.2655 66.3212C97.0944 65.9078 97.0374 65.2519 97.0374 63.6408V61.5021H102.169V63.6693C102.169 65.48 102.127 65.9505 101.898 66.421C101.756 66.7347 101.485 67.1339 101.3 67.305C101.114 67.4761 100.787 67.6757 100.573 67.7613C100.345 67.8468 99.8885 67.9181 99.5321 67.9181C99.1757 67.9181 98.7196 67.8326 98.5057 67.7185C98.2776 67.6044 97.964 67.3621 97.793 67.1767C97.6219 67.0056 97.3796 66.6064 97.2655 66.3212Z" fill="#47004C"/>
<path d="M51.2066 90.6593C51.0355 90.4882 50.9927 89.9179 50.9927 87.4513V84.4571H53.2736V87.4513C53.2736 89.9891 53.2451 90.4739 53.0455 90.6593C52.9172 90.7876 52.5608 90.8731 52.1189 90.8731C51.6913 90.8731 51.3349 90.7876 51.2066 90.6593Z" fill="#47004C"/>
<path d="M102.055 90.702C101.927 90.5595 101.884 89.7468 101.884 87.494V84.4571H104.023V87.4798C104.023 89.6755 103.98 90.5595 103.851 90.702C103.766 90.7876 103.353 90.8731 102.968 90.8731C102.568 90.8731 102.155 90.8018 102.055 90.702Z" fill="#47004C"/>
<path d="M43.1095 58.4507C43.0952 58.3794 43.2093 58.194 43.3518 58.0514C43.377 58.0263 43.413 58.0036 43.4938 57.9831L43.5229 57.9374H43.7989C45.1785 57.8042 50.9915 57.7948 77.4791 57.7948C102.995 57.7948 109.373 57.8131 111.027 57.9374H111.421C111.433 57.9553 111.444 57.9726 111.455 57.9895C111.541 58.0083 111.582 58.0289 111.606 58.0514C111.749 58.1798 111.863 58.3509 111.849 58.4364C111.849 58.5189 111.756 58.4423 111.455 57.9895C111.368 57.9703 111.235 57.953 111.027 57.9374H43.7989C43.6552 57.9512 43.5596 57.9665 43.4938 57.9831L43.3233 58.251C43.2235 58.4364 43.1237 58.5219 43.1095 58.4507Z" fill="#47004C"/>
<path d="M94.3859 59.3204C85.0486 59.3489 69.8239 59.3489 60.5295 59.3204C51.235 59.3061 58.8759 59.2919 77.4933 59.2919C96.1108 59.2919 103.723 59.3061 94.3859 59.3204Z" fill="#47004C"/>
<path d="M45.5614 66.2069C45.4759 65.936 45.4188 64.7669 45.4188 63.5977V61.5018H50.6933V63.5264C50.6933 64.6528 50.622 65.8219 50.5365 66.1356C50.451 66.4493 50.1374 66.934 49.8522 67.2192C49.5529 67.5186 49.0682 67.818 48.6976 67.9321C48.1844 68.0747 47.9278 68.0747 47.4146 67.9321C47.0297 67.8323 46.5593 67.5471 46.2314 67.2334C45.932 66.9483 45.6327 66.4778 45.5614 66.2069Z" fill="#47004C"/>
<path d="M60.4012 66.5491C60.2301 66.2354 60.1731 65.5653 60.1303 63.8116L60.0733 61.4876H65.3763V63.7403C65.3763 65.7792 65.3478 66.05 65.0484 66.6204C64.8774 66.9625 64.5067 67.3903 64.2359 67.5756C63.965 67.7467 63.4803 67.9463 63.1667 67.9891C62.8246 68.0461 62.3684 68.0176 62.0263 67.9036C61.7127 67.7895 61.2708 67.5471 61.0427 67.3475C60.8146 67.1479 60.5295 66.7915 60.4012 66.5491Z" fill="#47004C"/>
<path d="M72.7605 64.7098C72.732 65.3372 72.7035 64.8524 72.7035 63.6405C72.7035 62.4286 72.732 61.9153 72.7605 62.4999C72.7748 63.0844 72.7748 64.0825 72.7605 64.7098Z" fill="#47004C"/>
<path d="M75.2552 66.7059C74.9559 66.1784 74.9274 65.9502 74.9274 63.8116V61.5018H80.0593V63.7831C80.0593 65.7792 80.0308 66.1356 79.7742 66.6346C79.6174 66.9483 79.318 67.3332 79.1042 67.4901C78.8761 67.6612 78.4769 67.8608 78.2061 67.9463C77.9352 68.0176 77.4505 68.0604 77.1369 68.0034C76.8233 67.9606 76.3386 67.7752 76.0678 67.5899C75.7969 67.4188 75.4263 67.0053 75.2552 66.7059Z" fill="#47004C"/>
<path d="M82.2974 64.6956C82.2688 65.3229 82.2546 64.8524 82.2546 63.6262C82.2546 62.4143 82.2688 61.901 82.2974 62.4856C82.3259 63.0844 82.3259 64.0825 82.2974 64.6956Z" fill="#47004C"/>
<path d="M89.9382 66.6204C89.6388 66.05 89.6103 65.7792 89.6103 63.7403V61.4876H94.8848V63.5264C94.8848 64.6385 94.8135 65.7934 94.7423 66.0928C94.6567 66.3922 94.3859 66.8627 94.1293 67.1336C93.8869 67.4188 93.4165 67.7467 93.1029 67.8608C92.718 68.0176 92.3188 68.0604 91.8912 67.9891C91.5348 67.9463 91.0216 67.7467 90.7508 67.5756C90.4799 67.3903 90.1093 66.9625 89.9382 66.6204Z" fill="#47004C"/>
<path d="M104.45 66.1356C104.365 65.8219 104.293 64.6528 104.293 63.5264V61.5018H109.511L109.497 63.8971C109.497 66.1784 109.482 66.3209 109.154 66.7915C108.969 67.0624 108.67 67.3903 108.484 67.5186C108.299 67.6612 107.871 67.8465 107.529 67.9463C107.059 68.0747 106.788 68.0747 106.289 67.9321C105.918 67.818 105.434 67.5186 105.12 67.2192C104.849 66.934 104.536 66.4493 104.45 66.1356Z" fill="#47004C"/>
<path d="M52.6891 84.4141C52.3327 84.4426 51.791 84.4426 51.4774 84.4141C51.1637 84.3855 51.4488 84.357 52.1188 84.357C52.7746 84.357 53.0312 84.3855 52.6891 84.4141Z" fill="#47004C"/>
<path d="M103.581 84.4141C103.295 84.4426 102.782 84.4426 102.44 84.4141C102.084 84.3855 102.312 84.357 102.939 84.357C103.566 84.357 103.851 84.3855 103.581 84.4141Z" fill="#47004C"/>
</svg>
